<?xml version="1.0" encoding="UTF-8" standalone="no"?>
<svg
   xmlns="http://www.w3.org/2000/svg"
   width="513.5"
   height="398.75"
   version="1.0">
  <defs>
    <mask id="corte">
      <rect width="100%" height="100%" fill="white"/>
      <g
         transform="translate(34,71)"
         style="fill:#000000;fill-rule:evenodd;stroke:none">
        <path
           d="M 344,0 C 344,0 415,0 415,0 C 433,0 444,19 444,31 C 444,42 436,63 415,63 C 415,63 372,63 372,63 C 354,63 346,66 336,76 C 336,76 132,280 132,280 C 124,288 113,292 100,292 C 100,292 33,292 33,292 C 16,292 0,277 0,258 C 0,239 15,228 30,228 C 30,228 76,228 76,228 C 89,228 98,224 106,216 C 106,216 313,9 313,9 C 322,1 330,0 344,0 z " />
      </g>
    </mask>
  </defs>
  <g mask="url(#corte)">
    <g
       transform="translate(184,0)"
       style="fill:#000000;fill-rule:evenodd;stroke:none">
      <path
         d="M 33,68 C 52,68 67,53 67,34 C 67,16 52,0 33,0 C 15,0 0,16 0,34 C 0,53 15,68 33,68 z " />
    </g>
    <g
       transform="translate(1,37)"
       style="fill:#000000;fill-rule:evenodd;stroke:none">
      <path
         d="M 250,92 C 250,92 250,71 250,71 C 250,25 183,26 183,71 C 183,71 183,158 183,158 C 183,158 183,158 183,158 C 183,158 120,221 120,221 C 114,227 113,228 101,228 C 101,228 62,228 62,228 C 23,228 0,263 0,292 C 0,322 23,360 66,360 C 66,360 119,360 135,360 C 151,360 171,353 187,338 C 187,338 389,137 389,137 C 394,133 396,131 404,131 C 404,131 431,131 453,131 C 478,131 512,104 512,65 C 512,26 477,0 452,0 C 452,0 373,0 373,0 C 356,0 335,7 323,19 C 323,19 250,92 250,92 z " />
    </g>
    <g
       transform="translate(280,273)"
       style="fill:#000000;fill-rule:evenodd;stroke:none">
      <path
         d="M 119,0 C 119,0 48,0 48,0 C 28,0 28,30 48,30 C 48,30 84,30 84,30 C 84,30 15,99 15,99 C 0,114 22,136 38,120 C 38,120 106,52 106,52 C 106,52 106,88 106,88 C 106,107 136,108 136,88 C 136,88 136,17 136,17 C 136,7 129,0 119,0 z " />
    </g>
  </g>
</svg>
