<?xml version="1.0" encoding="UTF-8" standalone="no"?>
<svg
   width="512"
   height="398.5791"
   version="1.0"
   id="svg5"
   sodipodi:docname="escalator_up.svg"
   xmlns:inkscape="http://www.inkscape.org/namespaces/inkscape"
   xmlns:sodipodi="http://sodipodi.sourceforge.net/DTD/sodipodi-0.dtd"
   xmlns="http://www.w3.org/2000/svg"
   xmlns:svg="http://www.w3.org/2000/svg">
  <sodipodi:namedview
     id="namedview5"
     pagecolor="#ffffff"
     bordercolor="#000000"
     borderopacity="0.25"
     inkscape:showpageshadow="2"
     inkscape:pageopacity="0.0"
     inkscape:pagecheckerboard="0"
     inkscape:deskcolor="#d1d1d1" />
  <defs
     id="defs1">
    <mask
       id="corte">
      <rect
         width="100%"
         height="100%"
         fill="#ffffff"
         id="rect1"
         x="0"
         y="0" />
      <g
         transform="translate(34,71)"
         style="fill:#000000;fill-rule:evenodd;stroke:none"
         id="g1">
        <path
           d="m 344,0 c 0,0 71,0 71,0 18,0 29,19 29,31 0,11 -8,32 -29,32 0,0 -43,0 -43,0 -18,0 -26,3 -36,13 0,0 -204,204 -204,204 -8,8 -19,12 -32,12 0,0 -67,0 -67,0 -17,0 -33,-15 -33,-34 0,-19 15,-30 30,-30 0,0 46,0 46,0 13,0 22,-4 30,-12 0,0 207,-207 207,-207 9,-8 17,-9 31,-9 z"
           id="path1" />
      </g>
    </mask>
  </defs>
  <g
     mask="url(#corte)"
     id="g5"
     transform="translate(-1)">
    <g
       transform="translate(184)"
       style="fill:#000000;fill-rule:evenodd;stroke:none"
       id="g2">
      <path
         d="M 33,68 C 52,68 67,53 67,34 67,16 52,0 33,0 15,0 0,16 0,34 0,53 15,68 33,68 Z"
         id="path2" />
    </g>
    <g
       transform="translate(1,37)"
       style="fill:#000000;fill-rule:evenodd;stroke:none"
       id="g3">
      <path
         d="m 250,92 c 0,0 0,-21 0,-21 0,-46 -67,-45 -67,0 0,0 0,87 0,87 0,0 0,0 0,0 0,0 -63,63 -63,63 -6,6 -7,7 -19,7 0,0 -39,0 -39,0 -39,0 -62,35 -62,64 0,30 23,68 66,68 0,0 53,0 69,0 16,0 36,-7 52,-22 0,0 202,-201 202,-201 5,-4 7,-6 15,-6 0,0 27,0 49,0 25,0 59,-27 59,-66 0,-39 -35,-65 -60,-65 0,0 -79,0 -79,0 -17,0 -38,7 -50,19 z"
         id="path3" />
    </g>
    <g
       transform="translate(280,273)"
       style="fill:#000000;fill-rule:evenodd;stroke:none"
       id="g4">
      <path
         d="m 119,0 c 0,0 -71,0 -71,0 -20,0 -20,30 0,30 0,0 36,0 36,0 0,0 -69,69 -69,69 -15,15 7,37 23,21 0,0 68,-68 68,-68 0,0 0,36 0,36 0,19 30,20 30,0 0,0 0,-71 0,-71 C 136,7 129,0 119,0 Z"
         id="path4" />
    </g>
  </g>
</svg>
