<?xml version="1.0" encoding="UTF-8" standalone="no"?>
<!-- Created with Inkscape (http://www.inkscape.org/) -->

<svg
   width="52.917mm"
   height="52.917mm"
   viewBox="0 0 52.917 52.917"
   version="1.1"
   id="svg2552"
   inkscape:version="1.2.1 (9c6d41e410, 2022-07-14)"
   sodipodi:docname="ISO_7001_PI_TF_006.svg"
   xmlns:inkscape="http://www.inkscape.org/namespaces/inkscape"
   xmlns:sodipodi="http://sodipodi.sourceforge.net/DTD/sodipodi-0.dtd"
   xmlns="http://www.w3.org/2000/svg"
   xmlns:svg="http://www.w3.org/2000/svg">
  <sodipodi:namedview
     id="namedview2554"
     pagecolor="#ffffff"
     bordercolor="#000000"
     borderopacity="0.25"
     inkscape:showpageshadow="2"
     inkscape:pageopacity="0.0"
     inkscape:pagecheckerboard="0"
     inkscape:deskcolor="#d1d1d1"
     inkscape:document-units="mm"
     showgrid="false"
     inkscape:zoom="0.46769781"
     inkscape:cx="60.936783"
     inkscape:cy="220.22767"
     inkscape:window-width="1366"
     inkscape:window-height="705"
     inkscape:window-x="-8"
     inkscape:window-y="-8"
     inkscape:window-maximized="1"
     inkscape:current-layer="layer1" />
  <defs
     id="defs2549" />
  <g
     inkscape:label="Ebene 1"
     inkscape:groupmode="layer"
     id="layer1"
     transform="translate(-89.512924,-90.644356)">
    <path
       id="rect2312"
       style="display:inline;fill:#000000;stroke-width:0.499187"
       d="m 98.31488,107.74477 c -0.93879,0 -1.694471,0.75568 -1.694471,1.69447 v 11.96154 c 0,0.93879 0.755681,1.69499 1.694471,1.69499 h 1.343587 a 4.8439283,4.8439283 0 0 1 4.832783,-4.6607 4.8439283,4.8439283 0 0 1 4.83329,4.6607 h 12.99766 a 4.8439283,4.8439283 0 0 1 4.8333,-4.6607 4.8439283,4.8439283 0 0 1 4.83278,4.6607 h 1.63969 c 0.93879,0 1.69447,-0.7562 1.69447,-1.69499 v -11.96154 c 0,-0.93879 -0.75568,-1.69447 -1.69447,-1.69447 z m 0.201538,2.16628 h 6.970632 c 0.22383,0 0.40411,0.17976 0.40411,0.40359 v 4.92011 c 0,0.22383 -0.18028,0.40411 -0.40411,0.40411 h -6.970632 c -0.223831,0 -0.40411,-0.18028 -0.40411,-0.40411 v -4.92011 c 0,-0.22383 0.180279,-0.40359 0.40411,-0.40359 z m 9.216492,0 h 6.97063 c 0.22383,0 0.40411,0.17976 0.40411,0.40359 v 4.92011 c 0,0.22383 -0.18028,0.40411 -0.40411,0.40411 h -6.97063 c -0.22383,0 -0.40411,-0.18028 -0.40411,-0.40411 v -4.92011 c 0,-0.22383 0.18028,-0.40359 0.40411,-0.40359 z m 9.21649,0 h 6.97064 c 0.22383,0 0.40411,0.17976 0.40411,0.40359 v 4.92011 c 0,0.22383 -0.18028,0.40411 -0.40411,0.40411 h -6.97064 c -0.22383,0 -0.40411,-0.18028 -0.40411,-0.40411 v -4.92011 c 0,-0.22383 0.18028,-0.40359 0.40411,-0.40359 z m 9.21649,0 h 6.97064 c 0.22383,0 0.40411,0.17976 0.40411,0.40359 v 4.92011 c 0,0.22383 -0.18028,0.40411 -0.40411,0.40411 h -6.97064 c -0.22383,0 -0.40411,-0.18028 -0.40411,-0.40411 v -4.92011 c 0,-0.22383 0.18028,-0.40359 0.40411,-0.40359 z m -21.67464,10.18594 a 3.1821427,3.1821427 0 0 0 -3.18172,3.18172 3.1821427,3.1821427 0 0 0 3.18172,3.18223 3.1821427,3.1821427 0 0 0 3.18223,-3.18223 3.1821427,3.1821427 0 0 0 -3.18223,-3.18172 z m 22.66425,0 a 3.1821427,3.1821427 0 0 0 -3.18224,3.18172 3.1821427,3.1821427 0 0 0 3.18224,3.18223 3.1821427,3.1821427 0 0 0 3.18223,-3.18223 3.1821427,3.1821427 0 0 0 -3.18223,-3.18172 z" />
  </g>
</svg>
