<?xml version="1.0" encoding="utf-8"?>
<!-- Generator: Adobe Illustrator 16.0.3, SVG Export Plug-In . SVG Version: 6.00 Build 0)  -->
<!DOCTYPE svg PUBLIC "-//W3C//DTD SVG 1.1//EN" "http://www.w3.org/Graphics/SVG/1.1/DTD/svg11.dtd">
<svg version="1.1" id="Layer_1" xmlns="http://www.w3.org/2000/svg" xmlns:xlink="http://www.w3.org/1999/xlink" x="0px" y="0px"
	 width="289.784px" height="494.051px" viewBox="322.215 28.851 289.784 494.051"
	 enable-background="new 322.215 28.851 289.784 494.051" xml:space="preserve">
<g>
	<g>
		<g>
			<path d="M568.47,87.102h-72.019c-13.031,0-12.554,19.265,0,19.265h72.019v9.631H496.5c-13.022,0-12.543,19.265,0,19.265h71.97
				v9.632v0.482H496.5c-13.022,0-12.543,19.264,0,19.264h71.97v9.633H496.5c-12.75,0-12.543,19.264,0,19.264h71.97v9.633H496.5
				c-12.75,0-12.793,19.264,0,19.264h71.97v9.633H496.5c-12.75,0-12.793,19.264,0,19.264h71.97v9.633H496.5
				c-12.75,0-12.793,19.262,0,19.262h71.97v9.633l-71.99-0.002c-12.729,0-12.522,19.267,0.021,19.267h71.97V496
				c0,28.504,43.529,28.004,43.529,0V58.5c0-13-10.749-29.464-28.499-29.464l-87.07-0.045c-13.021,0-12.543,19.266,0,19.266
				l72.04,0.044v9.633h-72.019c-13.024,0-12.545,19.264,0,19.264h72.019V87.102L568.47,87.102z"/>
		</g>
		<g>
			<g>
				<path d="M485,464.5c-2.396,15.815,2.969,44.179,14.25,54.5c11.75,10.75,25.671-2.95,19.857-14.093
					c-5.751-11.023-13.087-17.048-6.857-43.407L485,464.5z"/>
			</g>
			<g>
				<path d="M430.619,28.851c-3.235,0-6.686,1.294-7.333,6.901l-23.468,209.745v127.137C355.5,349.5,322.215,385.5,322.215,418.163
					c0,29.234,21.489,53.196,52.161,53.196s51.652-26.838,51.652-53.196V290.35h9.852v127.813c0,30.42,24.537,52.837,50.87,52.837
					c33,0,54.035-23.266,54.035-52.5c0-33.25-34.285-69-78.728-45.866V245.497L437.95,35.752
					C437.304,30.145,433.853,28.851,430.619,28.851z"/>
			</g>
		</g>
	</g>
	<g>
		<g>
			<path fill="#FFFFFF" d="M373.98,444.592c-14.412,0-26.095-11.681-26.095-26.092c0-14.412,11.683-26.095,26.095-26.095
				c14.409,0,26.092,11.683,26.092,26.095C400.072,432.911,388.389,444.592,373.98,444.592z"/>
			<path fill="#FFFFFF" d="M373.98,418.5"/>
		</g>
		<g>
			<circle fill="#FFFFFF" cx="489" cy="418.498" r="26.094"/>
			<path fill="#FFFFFF" d="M489,418.5"/>
		</g>
	</g>
</g>
</svg>
