<?xml version="1.0" encoding="UTF-8"?>
<svg xmlns="http://www.w3.org/2000/svg" width="328pt" height="440pt" viewBox="0 0 328 440">
  <defs>
    <clipPath id="a">
      <path d="M0 0h328v440H0z"/>
    </clipPath>
  </defs>
  <g clip-path="url(#a)">
    <path fill="none" stroke="#FFF" stroke-miterlimit="10" stroke-width=".1" d="M0 0h328v440H0V0Zm0 0"/>
    <path fill="#FFF" d="M0 0h328v440H0V0Zm0 0"/>
    <path fill="none" stroke="#000" stroke-miterlimit="10" stroke-width=".1" d="M153.546936 2.729523c12.711823-2.064286 26.124847-.084442 37.503418 6.028839 16.081757 8.249084 27.94931 24.227478 31.146866 42.024765 2.64653 14.078262.093201 29.100311-7.208832 41.439606-7.795532 13.350647-20.967422 23.490203-35.929932 27.442962-17.335327 4.72168-36.8096 1.321701-51.241653-9.475342-12.662552-9.169281-21.385239-23.559967-23.703033-39.016525-1.846573-12.527099.011962-25.711563 6.001663-36.934814 8.404083-16.589005 25.067322-28.63768 43.431503-31.509491Zm0 0"/>
    <path d="M153.546936 2.729523c12.711823-2.064286 26.124847-.084442 37.503418 6.028839 16.081757 8.249084 27.94931 24.227478 31.146866 42.024765 2.64653 14.078262.093201 29.100311-7.208832 41.439606-7.795532 13.350647-20.967422 23.490203-35.929932 27.442962-17.335327 4.72168-36.8096 1.321701-51.241653-9.475342-12.662552-9.169281-21.385239-23.559967-23.703033-39.016525-1.846573-12.527099.011962-25.711563 6.001663-36.934814 8.404083-16.589005 25.067322-28.63768 43.431503-31.509491Zm0 0"/>
    <path fill="none" stroke="#000" stroke-miterlimit="10" stroke-width=".1" d="M110.822159 134.575912c4.893905-2.743148 10.555298-3.744155 16.111969-3.822799 23.673172-.016907 47.346771.011703 71.020386-.013794 5.98851-.027619 12.102356.972473 17.432556 3.819168 4.087463 2.082016 7.460205 5.254684 10.726364 8.420227 26.143295 26.16452 52.319519 52.296738 78.451187 78.472977 4.455612 4.363815 7.939087 10.199569 7.710602 16.62912-.126709 9.871933-8.458191 18.577179-18.145645 19.761444-6.485291.956726-13.069794-1.71843-17.655091-6.263962-16.852813-16.784195-33.637726-33.637818-50.472778-50.439942-.007629 15.204163.004288 30.408448-.00592 45.613266-42.081864-.007141-84.163422.000931-126.245118-.004058-.007354-15.122483.00586-30.244416-.006454-45.366227-13.360794 13.763184-27.002045 27.254151-40.443039 40.93985-5.045334 4.678925-9.287842 10.566407-15.758072 13.403244-6.08194 2.848328-13.543899 2.734589-19.356033-.73114-6.850846-3.788544-11.002121-12.01738-9.632889-19.775268.852646-5.627549 4.134918-10.584794 8.23465-14.406998 24.06044-23.929199 47.772613-48.197662 71.869751-72.091843 5.190353-4.918045 9.729675-10.752121 16.163574-14.143265Zm0 0"/>
    <path d="M110.822159 134.575912c4.893905-2.743148 10.555298-3.744155 16.111969-3.822799 23.673172-.016907 47.346771.011703 71.020386-.013794 5.98851-.027619 12.102356.972473 17.432556 3.819168 4.087463 2.082016 7.460205 5.254684 10.726364 8.420227 26.143295 26.16452 52.319519 52.296738 78.451187 78.472977 4.455612 4.363815 7.939087 10.199569 7.710602 16.62912-.126709 9.871933-8.458191 18.577179-18.145645 19.761444-6.485291.956726-13.069794-1.71843-17.655091-6.263962-16.852813-16.784195-33.637726-33.637818-50.472778-50.439942-.007629 15.204163.004288 30.408448-.00592 45.613266-42.081864-.007141-84.163422.000931-126.245118-.004058-.007354-15.122483.00586-30.244416-.006454-45.366227-13.360794 13.763184-27.002045 27.254151-40.443039 40.93985-5.045334 4.678925-9.287842 10.566407-15.758072 13.403244-6.08194 2.848328-13.543899 2.734589-19.356033-.73114-6.850846-3.788544-11.002121-12.01738-9.632889-19.775268.852646-5.627549 4.134918-10.584794 8.23465-14.406998 24.06044-23.929199 47.772613-48.197662 71.869751-72.091843 5.190353-4.918045 9.729675-10.752121 16.163574-14.143265Zm0 0"/>
    <path fill="none" stroke="#000" stroke-miterlimit="10" stroke-width=".1" d="M58.099274 312.108673c13.887375-14.067627 27.943679-27.973358 41.900802-41.973785 15.898331 15.926864 31.86467 31.786743 47.711441 47.765167-11.601272 11.617523-23.209198 23.228455-34.829467 34.827393 12.221435 11.889007 24.218277 24.012741 36.286285 36.061508 4.186264 4.29454 6.953613 10.219055 6.607712 16.300506-.0551 9.505051-7.581116 18.257019-16.88266 19.986771-5.901474 1.296051-12.134827-.644501-16.891174-4.199387-3.64177-2.613357-6.314179-6.264541-9.562226-9.304031-17.12236-17.893372-34.393371-35.642487-51.497146-53.553726-10.968872-12.176102-13.865403-32.867264-2.843567-45.910416Zm0 0"/>
    <path d="M58.099274 312.108673c13.887375-14.067627 27.943679-27.973358 41.900802-41.973785 15.898331 15.926864 31.86467 31.786743 47.711441 47.765167-11.601272 11.617523-23.209198 23.228455-34.829467 34.827393 12.221435 11.889007 24.218277 24.012741 36.286285 36.061508 4.186264 4.29454 6.953613 10.219055 6.607712 16.300506-.0551 9.505051-7.581116 18.257019-16.88266 19.986771-5.901474 1.296051-12.134827-.644501-16.891174-4.199387-3.64177-2.613357-6.314179-6.264541-9.562226-9.304031-17.12236-17.893372-34.393371-35.642487-51.497146-53.553726-10.968872-12.176102-13.865403-32.867264-2.843567-45.910416Zm0 0"/>
    <path fill="none" stroke="#000" stroke-miterlimit="10" stroke-width=".1" d="M177.997711 317.862152c15.924881-15.900558 31.823654-31.826935 47.744965-47.730942 13.027923 13.03505 26.044876 26.080384 39.229507 38.95485 6.056946 5.591964 9.69542 13.70047 9.556702 21.972869.376434 9.751664-3.216278 19.57901-9.690979 26.865723-17.458862 18.196426-34.902008 36.409638-52.375748 54.592819-4.694626 5.024109-9.581192 10.607987-16.569702 12.26529-8.50798 2.447601-18.095856-1.684906-22.655792-9.148911-4.088272-6.213104-4.307358-14.600494-.74234-21.097473 2.825287-5.277954 7.601425-9.042206 11.652649-13.318466 9.820343-9.351349 19.276901-19.077454 28.881271-28.649964-11.974915-11.259948-23.322739-23.169906-35.030533-34.705795Zm0 0"/>
    <path d="M177.997711 317.862152c15.924881-15.900558 31.823654-31.826935 47.744965-47.730942 13.027923 13.03505 26.044876 26.080384 39.229507 38.95485 6.056946 5.591964 9.69542 13.70047 9.556702 21.972869.376434 9.751664-3.216278 19.57901-9.690979 26.865723-17.458862 18.196426-34.902008 36.409638-52.375748 54.592819-4.694626 5.024109-9.581192 10.607987-16.569702 12.26529-8.50798 2.447601-18.095856-1.684906-22.655792-9.148911-4.088272-6.213104-4.307358-14.600494-.74234-21.097473 2.825287-5.277954 7.601425-9.042206 11.652649-13.318466 9.820343-9.351349 19.276901-19.077454 28.881271-28.649964-11.974915-11.259948-23.322739-23.169906-35.030533-34.705795Zm0 0"/>
  </g>
</svg>