<?xml version="1.0" encoding="UTF-8" standalone="no"?>
<svg
   xmlns:dc="http://purl.org/dc/elements/1.1/"
   xmlns:cc="http://creativecommons.org/ns#"
   xmlns:rdf="http://www.w3.org/1999/02/22-rdf-syntax-ns#"
   xmlns:svg="http://www.w3.org/2000/svg"
   xmlns="http://www.w3.org/2000/svg"
   xmlns:sodipodi="http://sodipodi.sourceforge.net/DTD/sodipodi-0.dtd"
   xmlns:inkscape="http://www.inkscape.org/namespaces/inkscape"
   width="513.5"
   height="400.5"
   id="svg2"
   sodipodi:version="0.32"
   inkscape:version="0.48.2 r9819"
   sodipodi:docname="Aiga_escalator_down.svg"
   inkscape:output_extension="org.inkscape.output.svg.inkscape"
   version="1.0">
  <metadata
     id="metadata23">
    <rdf:RDF>
      <cc:Work
         rdf:about="">
        <dc:format>image/svg+xml</dc:format>
        <dc:type
           rdf:resource="http://purl.org/dc/dcmitype/StillImage" />
        <dc:title></dc:title>
      </cc:Work>
    </rdf:RDF>
  </metadata>
  <defs
     id="defs21" />
  <sodipodi:namedview
     inkscape:window-height="585"
     inkscape:window-width="1024"
     inkscape:pageshadow="2"
     inkscape:pageopacity="0.0"
     guidetolerance="10.0"
     gridtolerance="10.0"
     objecttolerance="10.0"
     borderopacity="1.0"
     bordercolor="#666666"
     pagecolor="#ffffff"
     id="base"
     width="513.5px"
     height="400.5px"
     inkscape:zoom="1.5283582"
     inkscape:cx="321.25"
     inkscape:cy="251.25"
     inkscape:window-x="0"
     inkscape:window-y="0"
     inkscape:current-layer="svg2"
     showgrid="false"
     inkscape:window-maximized="0" />
  <g
     transform="matrix(-1,0,0,1,330,1)"
     style="fill:#000000;fill-rule:evenodd;stroke:none"
     id="g4">
    <path
       d="M 33,68 C 52,68 67,53 67,34 67,15 52,0 33,0 15,0 0,15 0,34 0,53 15,68 33,68 z"
       id="path6"
       inkscape:connector-curvature="0" />
  </g>
  <g
     transform="matrix(-1,0,0,1,513,38)"
     style="fill:#000000;fill-rule:evenodd;stroke:none"
     id="g8">
    <path
       d="m 250,92 c 0,0 0,-22 0,-22 0,-45 -67,-45 -67,0 0,0 0,87 0,87 0,0 0,0 0,0 0,0 -63,64 -63,64 -6,6 -7,6 -19,6 0,0 -39,0 -39,0 -39,0 -62,35 -62,65 0,30 23,67 66,67 0,0 53,0 69,0 16,0 36,-6 52,-21 0,0 202,-202 202,-202 5,-4 7,-5 15,-5 0,0 27,0 49,0 25,0 59,-27 59,-66 0,-39 -35,-65 -60,-65 0,0 -79,0 -79,0 -17,0 -38,6 -50,19 0,0 -73,73 -73,73 z"
       id="path10"
       inkscape:connector-curvature="0" />
  </g>
  <g
     transform="matrix(-1,0,0,1,225,264)"
     style="fill:#000000;fill-rule:evenodd;stroke:none"
     id="g12">
    <path
       d="m 17,136 c 0,0 71,0 71,0 20,0 20,-30 0,-30 0,0 -36,0 -36,0 0,0 69,-69 69,-69 C 136,22 114,0 98,16 98,16 30,84 30,84 30,84 30,48 30,48 30,29 0,28 0,48 c 0,0 0,71 0,71 0,10 7,17 17,17 z"
       id="path14"
       inkscape:connector-curvature="0" />
  </g>
  <g
     transform="matrix(-1,0,0,1,480,71)"
     style="fill:#ffffff;fill-rule:evenodd;stroke:none"
     id="g16">
    <path
       d="m 344,0 c 0,0 71,0 71,0 18,0 29,20 29,31 0,12 -8,33 -29,33 0,0 -43,0 -43,0 -18,0 -26,3 -36,13 0,0 -204,204 -204,204 -8,8 -19,11 -32,11 0,0 -67,0 -67,0 -17,0 -33,-15 -33,-34 0,-19 15,-30 30,-30 0,0 46,0 46,0 13,0 22,-3 30,-11 0,0 207,-207 207,-207 9,-9 17,-10 31,-10 z"
       id="path18"
       inkscape:connector-curvature="0" />
  </g>
</svg>
