<?xml version="1.0" encoding="utf-8"?>
<!DOCTYPE svg PUBLIC "-//W3C//DTD SVG 1.1//EN" "http://www.w3.org/Graphics/SVG/1.1/DTD/svg11.dtd">
<svg xmlns="http://www.w3.org/2000/svg" xml:space="preserve" width="445.68" height="416.223" viewBox="244.607 50.879 445.68 416.223">
  <path fill="none" stroke="#000" stroke-miterlimit="10" stroke-width="42" d="M265.607 71.879h403.68V250.78h-403.68z"/>
  <circle cx="468.976" cy="162" r="56.922" stroke="#000" stroke-miterlimit="10" stroke-width="1.859"/>
  <path fill="#FFF" d="M438.035 172.087H452.9c.94 4.289 2.179 9.476 8.949 11.401l-.018-16.849c-9.273-1.333-22.65-5.399-22.65-20.312 0-16.764 18.548-21.991 22.668-21.991v-10.137h13.98v10.137c9.427.546 23.109 8.426 23.109 23.406h-14.72c-.374-4.447-3.82-8.816-8.243-9.128v15.448c11.238 1.153 24.435 5.442 24.435 20.542 0 13.185-13.247 22.801-24.435 23.393v10.162H461.85v-10.31c-8.095-1.184-22.896-8.989-23.815-25.762z"/>
  <path d="M461.923 138.767v12.799c-9.963-.156-10.157-11.023 0-12.799zm14.218 30.275c12.328.312 13.7 12.561-.014 14.52"/>
  <path fill="none" d="m476.127 183.562.014-14.52"/>
  <circle cx="562.25" cy="261.25" r="56.922" stroke="#000" stroke-miterlimit="10" stroke-width="1.859"/>
  <path fill="#FFF" d="M588.545 283.998v12.271h-52.718v-12.271c5.99-4.012 9.105-14.159 7.188-19.588h-11.022v-12.506h8.865c-2.396-5.663-2.396-7.551-2.396-12.507 0-4.955 4.075-21.113 25.4-21.001 19.638.104 25.338 16.284 25.338 27.845l-14.95.009c-1-7-3.75-12.75-10.25-12.75-9.944 0-9.961 6.251-9.961 8.376 0 2.123.358 7.314 2.396 10.147h12.94v12.27h-10.544c1.317 11.21-5.152 15.93-5.512 19.705h35.226z"/>
  <circle cx="524.25" cy="409.25" r="56.922" stroke="#000" stroke-miterlimit="10" stroke-width="1.859"/>
  <path fill="#FFF" d="M492.258 374.341h16.535l15.336 27.067 16.64-27.067h15.229l-24.68 43.648h18.45v13.898h-17.732v19.508H516.94v-19.508h-18.931v-13.655h19.17z"/>
  <circle cx="344.75" cy="344.75" r="56.922" stroke="#000" stroke-miterlimit="10" stroke-width="1.859"/>
  <path fill="#FFF" d="M350.465 333.894h14.378v7.189c3.116-3.596 6.709-7.43 14.377-7.43v13.66c-11.72 1.437-14.377 7.687-14.377 15.437v17.152h-14.378v-46.008z"/>
  <path fill="#FFF" d="M346.559 333.894v13.538h-10.221v32.471h-14.497v-32.351h-8.626v-13.539h8.626v-12.1c0-4.673 4.552-18.933 21.685-18.933 17.492 0 21.224 13.77 21.224 25.281H350.5c0-7.387-1-11.263-6.855-11.263-6.27 0-7.307 4.313-7.307 11.144v5.751h10.221z"/>
</svg>