<?xml version="1.0" encoding="utf-8"?>
<!DOCTYPE svg PUBLIC "-//W3C//DTD SVG 1.1//EN" "http://www.w3.org/Graphics/SVG/1.1/DTD/svg11.dtd" [
	<!ENTITY ns_extend "http://ns.adobe.com/Extensibility/1.0/">
	<!ENTITY ns_ai "http://ns.adobe.com/AdobeIllustrator/10.0/">
	<!ENTITY ns_graphs "http://ns.adobe.com/Graphs/1.0/">
	<!ENTITY ns_vars "http://ns.adobe.com/Variables/1.0/">
	<!ENTITY ns_imrep "http://ns.adobe.com/ImageReplacement/1.0/">
	<!ENTITY ns_sfw "http://ns.adobe.com/SaveForWeb/1.0/">
	<!ENTITY ns_custom "http://ns.adobe.com/GenericCustomNamespace/1.0/">
	<!ENTITY ns_adobe_xpath "http://ns.adobe.com/XPath/1.0/">
]>
<svg xmlns="http://www.w3.org/2000/svg" xml:space="preserve" width="439.818" height="439.635" viewBox="222.163 221.617 439.818 439.635">
  <switch>
    <g>
      <path fill="none" stroke="#000" stroke-miterlimit="10" stroke-width=".1" d="M419.591 222.788c42.684-4.306 86.659 3.819 124.622 23.927 34.959 18.282 64.789 46.201 85.352 79.87 20.365 33.002 31.58 71.534 32.302 110.297 1.049 42.313-10.661 84.845-33.138 120.711-19.168 30.818-46.105 56.758-77.644 74.721-37.865 21.818-82.407 31.588-125.935 28.25-37.423-2.814-74.121-15.363-105.241-36.375-34.206-22.721-61.721-55.321-78.508-92.79-20.869-46.169-24.816-99.613-11.346-148.424 14.299-52.736 49.278-99.392 95.69-128.169 28.279-17.681 60.655-28.737 93.846-32.018z"/>
      <path d="M419.591 222.788c42.684-4.306 86.659 3.819 124.622 23.927 34.959 18.282 64.789 46.201 85.352 79.87 20.365 33.002 31.58 71.534 32.302 110.297 1.049 42.313-10.661 84.845-33.138 120.711-19.168 30.818-46.105 56.758-77.644 74.721-37.865 21.818-82.407 31.588-125.935 28.25-37.423-2.814-74.121-15.363-105.241-36.375-34.206-22.721-61.721-55.321-78.508-92.79-20.869-46.169-24.816-99.613-11.346-148.424 14.299-52.736 49.278-99.392 95.69-128.169 28.279-17.681 60.655-28.737 93.846-32.018z"/>
      <path fill="none" stroke="#FFF" stroke-miterlimit="10" stroke-width=".1" d="M341.954 303.075c25.388-18.395 55.913-29.638 87.197-31.887 40.545-3.258 82.074 8.722 114.617 33.129 27.204 20.082 48.202 48.441 59.452 80.331 14.275 39.769 12.659 84.808-4.03 123.586-5.016 11.732-11.339 22.911-18.851 33.228-79.469-79.455-158.931-158.917-238.385-238.387z"/>
      <path fill="#FFF" d="M341.954 303.075c25.388-18.395 55.913-29.638 87.197-31.887 40.545-3.258 82.074 8.722 114.617 33.129 27.204 20.082 48.202 48.441 59.452 80.331 14.275 39.769 12.659 84.808-4.03 123.586-5.016 11.732-11.339 22.911-18.851 33.228-79.469-79.455-158.931-158.917-238.385-238.387z"/>
      <path fill="none" stroke="#000" stroke-miterlimit="10" stroke-width=".1" d="M441.244 292.158c6.652-5.612 15.382-8.301 24.005-8.476.005 4.405-.011 8.811.014 13.218-6.554.398-13.316 2.62-17.739 7.692-6.519 7.076-8.988 17.804-5.899 26.96 1.918 6.25 6.399 11.629 12.132 14.754 5.881 3.295 12.767 4.146 19.414 3.953 4.731-.387 8.117 5.48 5.769 9.504-4.093 7.201-3.775 16.658 1.014 23.453 2.756 4.267 7.743 6.759 12.785 6.776 12.447.042 24.897-.041 37.348.032 8.916.236 18.353 2.585 24.868 9.026 6.281 5.779 9.243 14.538 9.077 22.947-.061 6.165-.017 12.332-.036 18.501-4.332-.005-8.662-.005-12.988 0-.069-6.16.103-12.321-.079-18.476-.159-4.925-1.6-10.12-5.323-13.552-4.514-3.965-10.697-5.09-16.522-5.215-12.359-.018-24.718-.008-37.075.002-8.804-.094-17.465-4.574-22.566-11.757-5.93-8.038-7.834-18.639-5.958-28.365-11.865-1.334-23.313-7.651-29.891-17.753-11.26-16.289-7.598-40.71 7.65-53.224z"/>
      <path d="M441.244 292.158c6.652-5.612 15.382-8.301 24.005-8.476.005 4.405-.011 8.811.014 13.218-6.554.398-13.316 2.62-17.739 7.692-6.519 7.076-8.988 17.804-5.899 26.96 1.918 6.25 6.399 11.629 12.132 14.754 5.881 3.295 12.767 4.146 19.414 3.953 4.731-.387 8.117 5.48 5.769 9.504-4.093 7.201-3.775 16.658 1.014 23.453 2.756 4.267 7.743 6.759 12.785 6.776 12.447.042 24.897-.041 37.348.032 8.916.236 18.353 2.585 24.868 9.026 6.281 5.779 9.243 14.538 9.077 22.947-.061 6.165-.017 12.332-.036 18.501-4.332-.005-8.662-.005-12.988 0-.069-6.16.103-12.321-.079-18.476-.159-4.925-1.6-10.12-5.323-13.552-4.514-3.965-10.697-5.09-16.522-5.215-12.359-.018-24.718-.008-37.075.002-8.804-.094-17.465-4.574-22.566-11.757-5.93-8.038-7.834-18.639-5.958-28.365-11.865-1.334-23.313-7.651-29.891-17.753-11.26-16.289-7.598-40.71 7.65-53.224z"/>
      <path fill="none" stroke="#000" stroke-miterlimit="10" stroke-width=".1" d="M478.754 296.463c12.965-.08 26.047 5.261 34.641 15.088 11.459 12.492 13.227 31.74 6.503 46.957 10.318-.143 20.996-.033 30.635 4.144 20.374 8.182 33.521 29.709 33.964 51.324.01 8.84-.005 17.68.001 26.521-4.419 0-8.834-.001-13.247.001.008-7.843-.017-15.684.014-23.524.298-14.104-5.933-28.548-17.318-37.114-6.598-5.101-14.882-7.699-23.165-8.006-7.902-.295-15.816.056-23.717-.163-4.572-.458-6.947-6.428-4.319-10.076 4.926-6.777 8.255-15.047 7.756-23.538-.376-8.796-4.93-17.377-12.244-22.34-5.682-4-12.648-5.742-19.512-6.072.005-4.402-.005-8.803.008-13.202z"/>
      <path d="M478.754 296.463c12.965-.08 26.047 5.261 34.641 15.088 11.459 12.492 13.227 31.74 6.503 46.957 10.318-.143 20.996-.033 30.635 4.144 20.374 8.182 33.521 29.709 33.964 51.324.01 8.84-.005 17.68.001 26.521-4.419 0-8.834-.001-13.247.001.008-7.843-.017-15.684.014-23.524.298-14.104-5.933-28.548-17.318-37.114-6.598-5.101-14.882-7.699-23.165-8.006-7.902-.295-15.816.056-23.717-.163-4.572-.458-6.947-6.428-4.319-10.076 4.926-6.777 8.255-15.047 7.756-23.538-.376-8.796-4.93-17.377-12.244-22.34-5.682-4-12.648-5.742-19.512-6.072.005-4.402-.005-8.803.008-13.202z"/>
      <path fill="none" stroke="#FFF" stroke-miterlimit="10" stroke-width=".1" d="M305.442 338.898c79.76 79.605 159.409 159.327 239.07 239.034-31.112 23.536-70.527 35.949-109.518 34.059-38.929-1.405-77.073-16.918-106.127-42.827-25.589-22.628-44.213-53.026-52.499-86.185-7.336-29.196-6.88-60.348 1.598-89.25 5.681-19.77 15.175-38.368 27.476-54.831z"/>
      <path fill="#FFF" d="M305.442 338.898c79.76 79.605 159.409 159.327 239.07 239.034-31.112 23.536-70.527 35.949-109.518 34.059-38.929-1.405-77.073-16.918-106.127-42.827-25.589-22.628-44.213-53.026-52.499-86.185-7.336-29.196-6.88-60.348 1.598-89.25 5.681-19.77 15.175-38.368 27.476-54.831z"/>
      <path fill="none" stroke="#000" stroke-miterlimit="10" stroke-width=".1" d="M489.373 447.497c18.042.012 36.083-.001 54.126.007.001 13.079-.009 26.159.005 39.24-4.972.004-9.94.012-14.907-.004-13.062-13.095-26.159-26.153-39.224-39.243z"/>
      <path d="M489.373 447.497c18.042.012 36.083-.001 54.126.007.001 13.079-.009 26.159.005 39.24-4.972.004-9.94.012-14.907-.004-13.062-13.095-26.159-26.153-39.224-39.243z"/>
      <path fill="none" stroke="#000" stroke-miterlimit="10" stroke-width=".1" d="M551.004 446.75c4.328-.004 8.658-.004 12.992 0 .005 13.333.006 26.666 0 40.001-4.334-.005-8.664-.005-12.992 0-.007-13.335-.007-26.668 0-40.001z"/>
      <path d="M551.004 446.75c4.328-.004 8.658-.004 12.992 0 .005 13.333.006 26.666 0 40.001-4.334-.005-8.664-.005-12.992 0-.007-13.335-.007-26.668 0-40.001z"/>
      <path fill="none" stroke="#000" stroke-miterlimit="10" stroke-width=".1" d="M571.241 446.747c4.415.003 8.831-.004 13.252.006.009 13.333.005 26.667.002 40.002-4.418-.014-8.831-.005-13.243-.008-.01-13.334.012-26.667-.011-40z"/>
      <path d="M571.241 446.747c4.415.003 8.831-.004 13.252.006.009 13.333.005 26.667.002 40.002-4.418-.014-8.831-.005-13.243-.008-.01-13.334.012-26.667-.011-40z"/>
      <path fill="none" stroke="#000" stroke-miterlimit="10" stroke-width=".1" d="M297.252 486.748c0-13.085-.006-26.168.003-39.25 38.043.012 76.087-.005 114.13.008 13.065 13.094 26.163 26.155 39.23 39.248-51.121-.013-102.242 0-153.363-.006z"/>
      <path d="M297.252 486.748c0-13.085-.006-26.168.003-39.25 38.043.012 76.087-.005 114.13.008 13.065 13.094 26.163 26.155 39.23 39.248-51.121-.013-102.242 0-153.363-.006z"/>
    </g>
  </switch>
</svg>