<?xml version="1.0"?>
<svg viewBox="0 0 562.7 594.7" xmlns="http://www.w3.org/2000/svg">
<g transform="matrix(1.333 0 0 -1.333 0 594.7)">
<path d="m210.4 248.8c53.48.02 96.86 43.85 96.9 97.9-.04 54.05-43.42 97.87-96.9 97.9-53.56-.03-96.95-43.85-96.9-97.9-.05-54.05 43.34-97.88 96.9-97.9m-165.8-.5c.02 30.8-42.68 30.8-42.7 0v-246.8h43.7v63.7h332.1v-63.2h42.7v190.6c-.01 32.5-43.18 32.5-43.2 0v-76.1h-332.6v131.8m88.4-52.8v-33.9h-60c-29.02-.13-29.07-37.41 0-37.4h78.7c11.52-.01 18.72 9.28 18.7 19.8v51.5c.03 28.22-37.36 28.22-37.4 0m42.6 20.2h156.2c22.92.03 36.43-14.72 36.4-34.5v-56.5h-192.6m-84.4 40.9c21.56-.04 39.06 17.46 39.1 39-.04 21.63-17.54 39.14-39.1 39.1-21.61.04-39.11-17.47-39.1-39.1-.01-21.54 17.49-39.04 39.1-39"/>
<path d="m210.4 271.4c41.14-.01 74.52 33.71 74.5 75.3.02 41.59-33.36 75.31-74.5 75.3-41.22.01-74.61-33.71-74.6-75.3-.01-41.59 33.38-75.31 74.6-75.3" fill="#fff"/>
<path d="m200.2 281.1v22.5h22.1v-22.5m-.1 31.1v17c-.05 4.57 2.1 8.92 7.8 12.7 5.78 3.75 21.81 11.39 21.8 31.5.01 20.06-16.82 33.87-31 36.8-14.12 2.93-29.44 1-40.3-10.9-9.76-10.68-11.81-19.12-11.8-37.7h21.8v4.3c.01 9.9 1.16 20.38 15.3 23.2 7.78 1.61 15.03-.82 19.3-5 4.95-4.84 4.99-15.68-2.9-21.1l-12.3-8.4c-7.13-4.55-9.59-9.68-9.6-17.2v-25.2"/>
</g>
</svg>