<svg xmlns="http://www.w3.org/2000/svg" version="1.2" viewBox="0 0 362 476">
  <path d="M88.4 98.8a48.6 48.6 0 1 0 .2-97.2 48.6 48.6 0 0 0-.2 97.2"/>
  <path d="M51.5 158c-8.8-56 72-73 85-15.7l22 109.7h82.1c24 .1 36.4 19.3 36.4 37v149c0 36.3-51.6 36.2-51.6-.5V321.4H120.6a43.2 43.2 0 0 1-43.6-36L51.5 158"/>
  <path d="M187 331.2c27.2 0 27.1 40.3.4 40.3h-75.3c-36.6 0-73.1-27.5-82.7-70L6 187.5c-4.8-25.9 32.5-34.5 38-8l22.2 109a51.1 51.1 0 0 0 51.8 42.7h69M288.8 83 325 65.6c5.3-2.4 1.9-10-3.6-7.5L290.6 72V35.5c0-5.8-8.6-5.5-8.6 0l.1 43.6c0 3.2 3.5 5.6 6.7 4"/>
  <path d="M289 145.8a71.1 71.1 0 1 0 0-142.3 71.1 71.1 0 0 0 0 142.3"/>
  <path fill="#fff" d="M289 133.7a59 59 0 1 0 0-118 59 59 0 0 0 0 118"/>
  <path d="M288.8 83 325 65.6c5.3-2.4 1.9-10-3.6-7.5L290.6 72V35.5c0-5.8-8.6-5.5-8.6 0l.1 43.6c0 3.2 3.5 5.6 6.7 4"/>
</svg>
