<?xml version="1.0" encoding="utf-8"?>
<!-- Generator: Adobe Illustrator 16.0.3, SVG Export Plug-In . SVG Version: 6.00 Build 0)  -->
<!DOCTYPE svg PUBLIC "-//W3C//DTD SVG 1.1//EN" "http://www.w3.org/Graphics/SVG/1.1/DTD/svg11.dtd">
<svg version="1.1" id="Layer_1" xmlns="http://www.w3.org/2000/svg" xmlns:xlink="http://www.w3.org/1999/xlink" x="0px" y="0px"
	 width="439.55px" height="439.548px" viewBox="252.253 25.61 439.55 439.548"
	 enable-background="new 252.253 25.61 439.55 439.548" xml:space="preserve">
<g>
	<g>
		<g>
			<g>
				<rect x="327.403" y="251.423" width="246.028" height="39.354"/>
			</g>
			<g>
				<g>
					<path fill="none" stroke="#000000" stroke-width="13.187" stroke-linejoin="round" stroke-miterlimit="10" d="M496.446,94.269
						c-23.357,0-32.887,18.899-32.887,33.48c0,16.618,13.67,34.512,39.566,32.992c-8.953,15.205-1.094,39.916,20.145,39.916
						c0.058,0,35.412,0,35.412,0c18.899,0,28.708,10.047,28.708,25.579v18.056"/>
				</g>
				<g>
					<path fill="none" stroke="#000000" stroke-width="13.187" stroke-linejoin="round" stroke-miterlimit="10" d="M507.789,107.105
						c23.737,0,39.489,16.49,39.489,36.692c0,7.809-2.934,17.27-8.881,25.473h20.937c30.438,0,48.593,25.359,48.593,50.775v24.247"
						/>
				</g>
				<g>
					
						<line fill="none" stroke="#000000" stroke-width="13.187" stroke-linejoin="round" stroke-miterlimit="10" x1="587.391" y1="250.799" x2="587.391" y2="290.621"/>
				</g>
				<g>
					
						<line fill="none" stroke="#000000" stroke-width="13.187" stroke-linejoin="round" stroke-miterlimit="10" x1="608.005" y1="250.799" x2="608.005" y2="290.621"/>
				</g>
			</g>
		</g>
		<g>
			<rect x="495.441" y="83.786" fill="#FFFFFF" width="13.187" height="32.619"/>
		</g>
	</g>
	<g>
		
			<line fill="none" stroke="#FFFFFF" stroke-width="55" stroke-miterlimit="10" x1="615.349" y1="386.509" x2="332.112" y2="103.275"/>
		<g>
			<path fill="none" stroke="#EF3340" stroke-width="49" stroke-miterlimit="10" d="M472.029,440.658
				c-107.846,0-195.276-87.428-195.276-195.272c0-107.847,87.43-195.276,195.276-195.276c107.845,0,195.273,87.429,195.273,195.276
				C667.303,353.23,579.874,440.658,472.029,440.658z"/>
			<path fill="none" stroke="#EF3340" stroke-width="49" stroke-miterlimit="10" d="M472.029,245.386"/>
		</g>
		
			<line fill="none" stroke="#EF3340" stroke-width="51.12" stroke-miterlimit="10" x1="614.868" y1="386.192" x2="331.63" y2="102.957"/>
	</g>
</g>
</svg>
