<?xml version="1.0" encoding="UTF-8"?>
<svg xmlns="http://www.w3.org/2000/svg" width="313.622" height="471.664">
  <path d="M244.61 368.146c23.012-3.709 45.919-27.709 45.919-56.959V97.33c0-30.192-25.399-57.906-59.907-57.906H83c-34.507 0-59.907 27.714-59.907 57.906v213.857c0 29.25 22.907 53.25 45.919 56.959L0 471.664h39.816l49.363-72.367h135.264l49.363 72.367h39.815L244.61 368.146zM117.934 61.438c0-5.25 4.566-9.66 9.816-9.66h58.122c5.25 0 9.816 4.41 9.816 9.66v17c0 5.25-4.316 9.763-9.816 9.763H127.75c-5.5 0-9.816-4.513-9.816-9.763v-17zm-62.782 68.25c0-16 10.348-29.962 29.848-29.962h143.622c19.5 0 29.849 13.962 29.849 29.962v38.5c.151 18.5-13.349 29.826-29.849 29.826H85c-16.5 0-30-11.326-29.848-29.826v-38.5zM81.75 336.951c-14.505 0-26.263-11.76-26.263-26.264s11.758-26.263 26.263-26.263c14.505 0 26.263 11.759 26.263 26.263 0 14.504-11.758 26.264-26.263 26.264zM205 310.688c0-14.504 11.758-26.263 26.263-26.263 14.505 0 26.263 11.759 26.263 26.263 0 14.504-11.758 26.264-26.263 26.264-14.505 0-26.263-11.761-26.263-26.264zm-9.554-294.096001c0 9.163508-7.42849 16.591999-16.592 16.591999-9.1635 0-16.592-7.428491-16.592-16.591999S169.6905 0 178.854 0c9.16351 0 16.592 7.428491 16.592 16.591999zm-44.086 0c0 9.163508-7.42849 16.591999-16.59199 16.591999-9.16351 0-16.592-7.428491-16.592-16.591999S125.6045 0 134.76801 0C143.93151 0 151.36 7.428491 151.36 16.591999z"/>
</svg>