<?xml version="1.0" encoding="UTF-8" standalone="no"?>
<svg xmlns="http://www.w3.org/2000/svg" width="442" height="463" version="1.0">
  <path d="M4.6762905 435.45328v-22.31861l4.7117048-.02425c7.4056897-.03811 12.8781517-1.65009 23.5585267-6.93946 18.718901-9.27038 30.238217-8.73881 55.052557 2.54051 19.172731 8.71493 33.331761 8.20051 55.642981-2.0216 18.35934-8.41151 27.36324-8.23514 50.49438.98914 23.71276 9.45622 31.83576 9.45622 55.54853 0 23.11564-9.2181 32.09862-9.39779 50.49438-1.01009 22.11614 10.08404 36.53643 10.72218 54.89056 2.42908 25.5353-11.53784 37.17427-12.2311 55.28863-3.29323 10.97178 5.41362 17.31112 7.30172 24.57084 7.31813l5.20767.01177v44.63721h-4.41489c-7.43112 0-14.53638-1.9529-23.43122-6.44014-11.12398-5.61177-17.58685-7.44959-26.14656-7.43522-8.6443.01451-14.43563 1.51183-26.01641 6.72636-12.04907 5.42541-19.2364 7.149-29.81118 7.149-10.47162 0-15.80825-1.41443-30.04299-7.96264-13.9575-6.42068-20.33363-7.60873-30.1221-5.61258-4.11762.83971-11.85783 3.40594-17.20046 5.70273-13.39941 5.76043-19.11564 7.12312-30.0486 7.16332-11.03089.04055-17.79163-1.52854-31.11776-7.22209-20.64356-8.81989-29.58215-8.8216-48.2267-.00924-13.61936 6.4372-19.18823 7.91769-29.76872 7.91406-10.66902-.00366-18.357879-1.81982-29.423473-6.95008-11.184963-5.1856-17.837108-6.91061-26.649385-6.91061-8.590223 0-15.151317 1.86143-26.303934 7.46261-8.21518 4.1259-16.604138 6.42452-23.446774 6.42452H4.6762905v-22.3186zm-.991938-64.47597c0-20.81213.0488728-21.32667 2.025696-21.32667 5.5099575 0 18.3106785-3.55805 26.7405045-7.43271 12.453027-5.72387 16.721068-6.78985 26.782325-6.68916 8.93011.08937 11.26287.67678 27.774263 6.99374 5.728442 2.19159 11.977652 4.13403 13.887129 4.3165l3.47178.33179.2574-48.97275.25741-48.97275-16.589318-38.28663c-14.663591-33.84225-16.58067-38.88394-16.514924-43.43221.084999-5.88059 2.738175-11.01477 7.41184-14.34271 1.624021-1.1564 7.730162-4.02311 13.569215-6.37045l10.616447-4.2679.26212-30.84497.2621-30.844977h35.68151V48.1015h50.58884V4.45623h63.48403V48.1015h50.58883v32.733953H340.915l.26211 30.908297.26212 30.9083 11.31657 4.77632c12.27718 5.18175 15.09939 7.23176 18.15152 13.18503 3.41858 6.66802 2.46029 9.87988-14.91676 49.99552l-16.03924 37.02726v100.18821l3.2238-.6816c3.48908-.73768 8.03619-2.34119 22.44967-7.91669 16.35164-6.32524 27.55493-5.81968 44.75413 2.01955 10.53066 4.79979 19.58539 7.41305 25.68557 7.41305h4.07256v21.82264c0 24.93696 1.10377 22.75757-10.30191 20.34116-3.75657-.79587-11.17564-3.47833-16.4868-5.96105-11.60195-5.42335-22.06868-7.85962-29.71637-6.91689-7.10089.87533-17.00233 3.96991-24.01188 7.50462-8.76127 4.41807-18.94386 6.85644-28.57627 6.84302-10.1032-.01408-15.78557-1.4102-27.45747-6.74613-13.37447-6.11428-18.95677-7.42482-29.49424-6.92433-7.02583.33371-10.46429 1.04385-15.4797 3.19703-19.5296 8.38431-24.06357 9.76028-33.72589 10.23512-11.20914.55085-17.78294-.90797-31.08797-6.89891-11.74441-5.28822-17.37255-6.71206-26.58793-6.72636-8.68123-.01348-17.64035 2.40214-27.71665 7.47317-8.78366 4.42047-16.96897 6.40516-26.34365 6.38752-10.24414-.01927-18.099504-1.96726-30.081669-7.45968-9.549694-4.37742-20.235723-7.37028-26.315618-7.37028-6.343225 0-17.165367 3.12019-27.20861 7.84465-9.032091 4.24879-18.563584 6.95588-24.620148 6.99249-.9537286.00576-1.2399225-4.91515-1.2399225-21.31918zM176.65725 112.08151c24.44453-10.09297 44.83238-18.35086 45.30635-18.35086.47398 0 20.9235 8.25789 45.44337 18.35086 24.51987 10.09297 45.07038 18.35085 45.66778 18.35085.72903 0 1.08618-4.07711 1.08618-12.39922v-12.39923h-36.7017V73.891888H166.36218v31.697272l-18.10287.27036-18.10287.27036-.27852 12.15124c-.21846 9.53151.00319 12.15124 1.02812 12.15124.71865 0 21.30669-8.25788 45.75121-18.35085z"/>
</svg>