<?xml version="1.0" encoding="UTF-8" standalone="no"?>
<svg
   xmlns:dc="http://purl.org/dc/elements/1.1/"
   xmlns:cc="http://creativecommons.org/ns#"
   xmlns:rdf="http://www.w3.org/1999/02/22-rdf-syntax-ns#"
   xmlns:svg="http://www.w3.org/2000/svg"
   xmlns="http://www.w3.org/2000/svg"
   id="svg2"
   version="1.1"
   viewBox="0 0 495 472"
   height="472pt"
   width="495pt">
  <metadata
     id="metadata36">
    <rdf:RDF>
      <cc:Work
         rdf:about="">
        <dc:format>image/svg+xml</dc:format>
        <dc:type
           rdf:resource="http://purl.org/dc/dcmitype/StillImage" />
        <dc:title></dc:title>
      </cc:Work>
    </rdf:RDF>
  </metadata>
  <defs
     id="defs4">
    <clipPath
       id="clip0">
      <rect
         id="rect7"
         height="472"
         width="495" />
    </clipPath>
  </defs>
  <g
     clip-path="url(#clip0)"
     id="surface0">
    <path
       id="path10"
       transform="matrix(1,0,0,1,0,0)"
       d="M 0 0 L 495 0 L 495 472 L 371.252701 472 C 371.233597 451.664413 371.279022 431.327957 371.233887 410.994354 C 371.265366 405.476532 365.950745 401.598679 360.965363 400.703079 C 354.234848 400.044281 347.414032 400.98262 340.702454 400.270676 C 333.245499 398.130081 333.249924 385.708069 340.713379 383.574799 C 347.398743 382.722595 354.195053 383.633316 360.915207 383.148499 C 367.063889 382.32576 371.308456 376.121063 371.24678 370.156403 C 371.270584 358.300095 371.231522 346.443268 371.257553 334.587723 C 315.200867 323.748734 259.127304 312.997833 203.063538 302.196335 C 197.669373 301.289978 192.345764 299.750092 186.853729 299.589981 C 181.861389 299.381821 176.547913 301.610916 174.350784 306.327393 C 170.513474 313.28215 173.580292 323.055969 181.209793 325.852066 C 191.060226 329.054031 201.168167 331.455017 211.070816 334.512497 C 182.055176 334.496872 153.039032 334.492218 124.024124 334.512497 C 118.720642 334.35379 113.24649 336.997559 110.858704 341.880768 C 107.784744 347.23439 109.259308 354.312469 113.596085 358.525497 C 116.495956 361.564713 120.801422 362.803284 124.914337 362.749619 C 159.941513 362.749908 194.969131 362.746643 229.99675 362.750336 C 229.994476 364.494461 229.996338 366.245041 230.000336 367.999039 C 194.287476 368.019684 158.57312 367.962662 122.861633 368.026199 C 114.543732 367.997894 107.707001 376.675903 109.479767 384.751022 C 110.755234 390.950302 116.647675 395.680359 122.96022 395.728439 C 158.638077 395.778336 194.31842 395.732681 229.997498 395.749954 C 229.994446 397.578003 229.994461 399.411179 229.997589 401.25 C 194.618088 401.258194 159.238266 401.238358 123.859406 401.258865 C 117.78186 401.015366 111.518753 404.695251 109.815735 410.732437 C 107.111008 418.752533 113.76857 427.7892 122.060837 428.309982 C 135.375519 428.939789 148.709595 428.016235 162.035843 428.245102 C 184.680923 428.712982 207.338913 428.418503 229.990967 428.494141 C 229.994034 430.49205 229.9953 432.489426 230.004059 434.498077 C 194.323242 434.505539 158.642136 434.502457 122.96196 434.498474 C 113.193802 433.863297 105.74913 445.652725 110.809357 454.108459 C 113.127594 458.563721 117.940979 461.549774 122.991562 461.48996 C 192.671829 461.501099 262.354141 461.50827 332.034943 461.485779 C 334.754807 461.431351 337.329422 462.411606 339.911118 463.142487 C 350.194763 466.086594 360.461777 469.092407 370.757294 472 L 0 472 L 0 0 Z M 0 0 "
       style="fill: none; stroke-width: 0.1; stroke-linecap: butt; stroke-linejoin: miter; stroke: rgb(100%,100%,100%); opacity: 1;stroke-miterlimit: 10;" />
    <path
       id="path14"
       transform="matrix(1,0,0,1,0,0)"
       d="M 199.797287 9.849747 C 213.570023 1.718933 230.723877 -0.533997 246.055328 4.159836 C 264.13031 9.366058 279.122681 24.158524 284.580933 42.154221 C 288.34256 55.746964 286.350143 71.803299 276.655823 82.558167 C 269.422943 90.855148 259.387161 95.88475 251.341003 103.261124 C 247.983582 106.290161 245.228897 110.356903 245.07077 115.013367 C 244.887604 122.589066 245.061996 130.172852 244.993759 137.752426 C 234.99704 137.746017 225.001038 137.747681 215.005341 137.751572 C 215.006622 126.149887 214.978943 114.547958 215.014359 102.947189 C 215.060822 95.421875 218.67131 88.187134 224.295288 83.263275 C 229.712128 77.986816 237.229752 75.862457 243.069489 71.175659 C 248.45787 67.027344 252.938553 61.064224 253.712433 54.145981 C 254.063431 47.450592 251.15007 40.310745 245.27211 36.744232 C 239.571732 33.169403 232.563583 33.179428 226.081055 33.658951 C 218.748428 34.355209 211.156021 37.778412 207.430984 44.426025 C 202.858902 52.374954 203.242996 61.886414 203.244644 70.745255 C 193.332031 70.751572 183.420044 70.751312 173.508286 70.745255 C 173.026321 58.567719 172.930527 45.731064 178.588074 34.579773 C 183.68634 24.944946 190.261566 15.532242 199.797287 9.849747 Z M 199.797287 9.849747 "
       style="fill: none; stroke-width: 0.1; stroke-linecap: butt; stroke-linejoin: miter; stroke: rgb(0%,0%,0%); opacity: 1;stroke-miterlimit: 10;" />
    <path
       id="path16"
       d="M 199.797287 9.849747 C 213.570023 1.718933 230.723877 -0.533997 246.055328 4.159836 C 264.13031 9.366058 279.122681 24.158524 284.580933 42.154221 C 288.34256 55.746964 286.350143 71.803299 276.655823 82.558167 C 269.422943 90.855148 259.387161 95.88475 251.341003 103.261124 C 247.983582 106.290161 245.228897 110.356903 245.07077 115.013367 C 244.887604 122.589066 245.061996 130.172852 244.993759 137.752426 C 234.99704 137.746017 225.001038 137.747681 215.005341 137.751572 C 215.006622 126.149887 214.978943 114.547958 215.014359 102.947189 C 215.060822 95.421875 218.67131 88.187134 224.295288 83.263275 C 229.712128 77.986816 237.229752 75.862457 243.069489 71.175659 C 248.45787 67.027344 252.938553 61.064224 253.712433 54.145981 C 254.063431 47.450592 251.15007 40.310745 245.27211 36.744232 C 239.571732 33.169403 232.563583 33.179428 226.081055 33.658951 C 218.748428 34.355209 211.156021 37.778412 207.430984 44.426025 C 202.858902 52.374954 203.242996 61.886414 203.244644 70.745255 C 193.332031 70.751572 183.420044 70.751312 173.508286 70.745255 C 173.026321 58.567719 172.930527 45.731064 178.588074 34.579773 C 183.68634 24.944946 190.261566 15.532242 199.797287 9.849747 Z M 199.797287 9.849747 "
       style="stroke: none; fill-rule: nonzero; fill: rgb(0%,0%,0%); opacity: 1;" />
    <path
       id="path18"
       transform="matrix(1,0,0,1,0,0)"
       d="M 215.006165 148.247803 C 224.919403 148.255402 234.832932 148.246933 244.747223 148.252319 C 244.749771 158.750504 244.749741 169.24881 244.747238 179.747681 C 234.832733 179.751984 224.918976 179.744614 215.005508 179.751617 C 214.99649 169.249924 214.995712 158.748779 215.006165 148.247803 Z M 215.006165 148.247803 "
       style="fill: none; stroke-width: 0.1; stroke-linecap: butt; stroke-linejoin: miter; stroke: rgb(0%,0%,0%); opacity: 1;stroke-miterlimit: 10;" />
    <path
       id="path20"
       d="M 215.006165 148.247803 C 224.919403 148.255402 234.832932 148.246933 244.747223 148.252319 C 244.749771 158.750504 244.749741 169.24881 244.747238 179.747681 C 234.832733 179.751984 224.918976 179.744614 215.005508 179.751617 C 214.99649 169.249924 214.995712 158.748779 215.006165 148.247803 Z M 215.006165 148.247803 "
       style="stroke: none; fill-rule: nonzero; fill: rgb(0%,0%,0%); opacity: 1;" />
    <path
       id="path22"
       transform="matrix(1,0,0,1,0,0)"
       d="M 63.235886 239.06752 C 166.311874 217.138565 269.420685 195.361099 372.506638 173.477203 C 372.490555 193.401337 372.494812 213.325546 372.504242 233.250137 C 391.671997 233.251587 410.839981 233.250702 430.008667 233.250549 C 437.984482 233.335556 446.127777 232.693939 453.903305 234.909866 C 478.574631 241.418198 496.538101 267.509674 493.041428 292.912888 C 491.079437 308.553986 483.241043 323.95639 470.032135 332.981567 C 458.726303 340.772079 444.487198 343.090118 431.011002 342.070831 C 425.81572 341.501984 420.152878 338.987411 418.226517 333.763153 C 416.430725 328.820526 416.590012 322.492783 420.555328 318.606232 C 424.986374 314.592041 431.323578 313.813019 437.063675 313.798233 C 445.468658 314.537567 454.508942 311.622498 459.875473 304.874222 C 464.67598 298.746964 466.945938 290.386993 465.191574 282.738724 C 461.580017 270.773788 450.092865 260.166519 437.013916 261.240677 C 415.49939 261.265945 393.985397 261.241043 372.471664 261.253021 C 372.53331 280.186874 372.478394 299.121277 372.499588 318.055984 C 269.407501 297.551468 166.34938 276.873932 63.250534 256.40506 C 63.243866 250.624847 63.266983 244.845764 63.235886 239.06752 Z M 63.235886 239.06752 "
       style="fill: none; stroke-width: 0.1; stroke-linecap: butt; stroke-linejoin: miter; stroke: rgb(0%,0%,0%); opacity: 1;stroke-miterlimit: 10;" />
    <path
       id="path24"
       d="M 63.235886 239.06752 C 166.311874 217.138565 269.420685 195.361099 372.506638 173.477203 C 372.490555 193.401337 372.494812 213.325546 372.504242 233.250137 C 391.671997 233.251587 410.839981 233.250702 430.008667 233.250549 C 437.984482 233.335556 446.127777 232.693939 453.903305 234.909866 C 478.574631 241.418198 496.538101 267.509674 493.041428 292.912888 C 491.079437 308.553986 483.241043 323.95639 470.032135 332.981567 C 458.726303 340.772079 444.487198 343.090118 431.011002 342.070831 C 425.81572 341.501984 420.152878 338.987411 418.226517 333.763153 C 416.430725 328.820526 416.590012 322.492783 420.555328 318.606232 C 424.986374 314.592041 431.323578 313.813019 437.063675 313.798233 C 445.468658 314.537567 454.508942 311.622498 459.875473 304.874222 C 464.67598 298.746964 466.945938 290.386993 465.191574 282.738724 C 461.580017 270.773788 450.092865 260.166519 437.013916 261.240677 C 415.49939 261.265945 393.985397 261.241043 372.471664 261.253021 C 372.53331 280.186874 372.478394 299.121277 372.499588 318.055984 C 269.407501 297.551468 166.34938 276.873932 63.250534 256.40506 C 63.243866 250.624847 63.266983 244.845764 63.235886 239.06752 Z M 63.235886 239.06752 "
       style="stroke: none; fill-rule: nonzero; fill: rgb(0%,0%,0%); opacity: 1;" />
    <path
       id="path26"
       transform="matrix(1,0,0,1,0,0)"
       d="M 2.556702 247.031845 C 2.787506 243.391602 6.390091 240.838043 9.874939 241.014191 C 24.915756 240.978149 39.95787 241.010788 54.999359 241.001282 C 54.999664 245.498749 55.000931 249.997055 54.997849 254.496994 C 39.967514 254.477753 24.935532 254.537689 9.906525 254.470901 C 5.927673 254.615158 1.950684 251.185608 2.556702 247.031845 Z M 2.556702 247.031845 "
       style="fill: none; stroke-width: 0.1; stroke-linecap: butt; stroke-linejoin: miter; stroke: rgb(0%,0%,0%); opacity: 1;stroke-miterlimit: 10;" />
    <path
       id="path28"
       d="M 2.556702 247.031845 C 2.787506 243.391602 6.390091 240.838043 9.874939 241.014191 C 24.915756 240.978149 39.95787 241.010788 54.999359 241.001282 C 54.999664 245.498749 55.000931 249.997055 54.997849 254.496994 C 39.967514 254.477753 24.935532 254.537689 9.906525 254.470901 C 5.927673 254.615158 1.950684 251.185608 2.556702 247.031845 Z M 2.556702 247.031845 "
       style="stroke: none; fill-rule: nonzero; fill: rgb(0%,0%,0%); opacity: 1;" />
    <path
       id="path30"
       transform="matrix(1,0,0,1,0,0)"
       d="M 174.350784 306.327393 C 176.547913 301.610916 181.861389 299.381821 186.853729 299.589981 C 192.345764 299.750092 197.669373 301.289978 203.063538 302.196335 C 259.127304 312.997833 315.200867 323.748734 371.257553 334.587723 C 371.231522 346.443268 371.270584 358.300095 371.24678 370.156403 C 371.308456 376.121063 367.063889 382.32576 360.915207 383.148499 C 354.195053 383.633316 347.398743 382.722595 340.713379 383.574799 C 333.249924 385.708069 333.245499 398.130081 340.702454 400.270676 C 347.414032 400.98262 354.234848 400.044281 360.965363 400.703079 C 365.950745 401.598679 371.265366 405.476532 371.233887 410.994354 C 371.279022 431.327957 371.233597 451.664413 371.252701 472 L 370.757294 472 C 360.461777 469.092407 350.194763 466.086594 339.911118 463.142487 C 337.329422 462.411606 334.754807 461.431351 332.034943 461.485779 C 262.354141 461.50827 192.671829 461.501099 122.991562 461.48996 C 117.940979 461.549774 113.127594 458.563721 110.809357 454.108459 C 105.74913 445.652725 113.193802 433.863297 122.96196 434.498474 C 158.642136 434.502457 194.323242 434.505539 230.004059 434.498077 C 229.9953 432.489426 229.994034 430.49205 229.990967 428.494141 C 207.338913 428.418503 184.680923 428.712982 162.035843 428.245102 C 148.709595 428.016235 135.375519 428.939789 122.060837 428.309982 C 113.76857 427.7892 107.111008 418.752533 109.815735 410.732437 C 111.518753 404.695251 117.78186 401.015366 123.859406 401.258865 C 159.238266 401.238358 194.618088 401.258194 229.997589 401.25 C 229.994461 399.411179 229.994446 397.578003 229.997498 395.749954 C 194.31842 395.732681 158.638077 395.778336 122.96022 395.728439 C 116.647675 395.680359 110.755234 390.950302 109.479767 384.751022 C 107.707001 376.675903 114.543732 367.997894 122.861633 368.026199 C 158.57312 367.962662 194.287476 368.019684 230.000336 367.999039 C 229.996338 366.245041 229.994476 364.494461 229.99675 362.750336 C 194.969131 362.746643 159.941513 362.749908 124.914337 362.749619 C 120.801422 362.803284 116.495956 361.564713 113.596085 358.525497 C 109.259308 354.312469 107.784744 347.23439 110.858704 341.880768 C 113.24649 336.997559 118.720642 334.35379 124.024124 334.512497 C 153.039032 334.492218 182.055176 334.496872 211.070816 334.512497 C 201.168167 331.455017 191.060226 329.054031 181.209793 325.852066 C 173.580292 323.055969 170.513474 313.28215 174.350784 306.327393 Z M 174.350784 306.327393 "
       style="fill: none; stroke-width: 0.1; stroke-linecap: butt; stroke-linejoin: miter; stroke: rgb(0%,0%,0%); opacity: 1;stroke-miterlimit: 10;" />
    <path
       id="path32"
       d="M 174.350784 306.327393 C 176.547913 301.610916 181.861389 299.381821 186.853729 299.589981 C 192.345764 299.750092 197.669373 301.289978 203.063538 302.196335 C 259.127304 312.997833 315.200867 323.748734 371.257553 334.587723 C 371.231522 346.443268 371.270584 358.300095 371.24678 370.156403 C 371.308456 376.121063 367.063889 382.32576 360.915207 383.148499 C 354.195053 383.633316 347.398743 382.722595 340.713379 383.574799 C 333.249924 385.708069 333.245499 398.130081 340.702454 400.270676 C 347.414032 400.98262 354.234848 400.044281 360.965363 400.703079 C 365.950745 401.598679 371.265366 405.476532 371.233887 410.994354 C 371.279022 431.327957 371.233597 451.664413 371.252701 472 L 370.757294 472 C 360.461777 469.092407 350.194763 466.086594 339.911118 463.142487 C 337.329422 462.411606 334.754807 461.431351 332.034943 461.485779 C 262.354141 461.50827 192.671829 461.501099 122.991562 461.48996 C 117.940979 461.549774 113.127594 458.563721 110.809357 454.108459 C 105.74913 445.652725 113.193802 433.863297 122.96196 434.498474 C 158.642136 434.502457 194.323242 434.505539 230.004059 434.498077 C 229.9953 432.489426 229.994034 430.49205 229.990967 428.494141 C 207.338913 428.418503 184.680923 428.712982 162.035843 428.245102 C 148.709595 428.016235 135.375519 428.939789 122.060837 428.309982 C 113.76857 427.7892 107.111008 418.752533 109.815735 410.732437 C 111.518753 404.695251 117.78186 401.015366 123.859406 401.258865 C 159.238266 401.238358 194.618088 401.258194 229.997589 401.25 C 229.994461 399.411179 229.994446 397.578003 229.997498 395.749954 C 194.31842 395.732681 158.638077 395.778336 122.96022 395.728439 C 116.647675 395.680359 110.755234 390.950302 109.479767 384.751022 C 107.707001 376.675903 114.543732 367.997894 122.861633 368.026199 C 158.57312 367.962662 194.287476 368.019684 230.000336 367.999039 C 229.996338 366.245041 229.994476 364.494461 229.99675 362.750336 C 194.969131 362.746643 159.941513 362.749908 124.914337 362.749619 C 120.801422 362.803284 116.495956 361.564713 113.596085 358.525497 C 109.259308 354.312469 107.784744 347.23439 110.858704 341.880768 C 113.24649 336.997559 118.720642 334.35379 124.024124 334.512497 C 153.039032 334.492218 182.055176 334.496872 211.070816 334.512497 C 201.168167 331.455017 191.060226 329.054031 181.209793 325.852066 C 173.580292 323.055969 170.513474 313.28215 174.350784 306.327393 Z M 174.350784 306.327393 "
       style="stroke: none; fill-rule: nonzero; fill: rgb(0%,0%,0%); opacity: 1;" />
  </g>
</svg>
