<?xml version="1.0" encoding="UTF-8" standalone="no"?>
<!-- Created with Inkscape (http://www.inkscape.org/) -->

<svg
   xmlns:dc="http://purl.org/dc/elements/1.1/"
   xmlns:cc="http://creativecommons.org/ns#"
   xmlns:rdf="http://www.w3.org/1999/02/22-rdf-syntax-ns#"
   xmlns:svg="http://www.w3.org/2000/svg"
   xmlns="http://www.w3.org/2000/svg"
   xmlns:sodipodi="http://sodipodi.sourceforge.net/DTD/sodipodi-0.dtd"
   xmlns:inkscape="http://www.inkscape.org/namespaces/inkscape"
   width="203.55278mm"
   height="203.55278mm"
   viewBox="0 0 721.25003 721.25002"
   id="svg2"
   version="1.1"
   inkscape:version="0.91 r13725"
   sodipodi:docname="Aiga nodogs.svg">
  <title
     id="title4163">Aiga nodogs</title>
  <defs
     id="defs4" />
  <sodipodi:namedview
     id="base"
     pagecolor="#ffffff"
     bordercolor="#666666"
     borderopacity="1.0"
     inkscape:pageopacity="0.0"
     inkscape:pageshadow="2"
     inkscape:zoom="0.35"
     inkscape:cx="352.47968"
     inkscape:cy="611.23622"
     inkscape:document-units="px"
     inkscape:current-layer="layer1"
     showgrid="false"
     fit-margin-top="0"
     fit-margin-left="0"
     fit-margin-right="0"
     fit-margin-bottom="0"
     inkscape:window-width="1728"
     inkscape:window-height="1089"
     inkscape:window-x="-8"
     inkscape:window-y="-8"
     inkscape:window-maximized="1" />
  <metadata
     id="metadata7">
    <rdf:RDF>
      <cc:Work
         rdf:about="">
        <dc:format>image/svg+xml</dc:format>
        <dc:type
           rdf:resource="http://purl.org/dc/dcmitype/StillImage" />
        <dc:title>Aiga nodogs</dc:title>
      </cc:Work>
    </rdf:RDF>
  </metadata>
  <g
     inkscape:label="Calque 1"
     inkscape:groupmode="layer"
     id="layer1"
     transform="translate(2358.7782,-850.4636)">
    <path
       inkscape:connector-curvature="0"
       id="path4272"
       style="fill:#fefefe;fill-opacity:1;stroke:#000000;stroke-width:1.25;stroke-linecap:butt;stroke-linejoin:miter;stroke-miterlimit:10;stroke-dasharray:none;stroke-opacity:1"
       d="m -1638.1532,1211.0886 c 0,-23.5612 -2.32,-47.1237 -6.9175,-70.2325 -4.5963,-23.1087 -11.4688,-45.765 -20.4863,-67.5337 -9.0162,-21.7675 -20.1762,-42.6476 -33.2675,-62.2388 -13.09,-19.59125 -28.11,-37.8925 -44.77,-54.55375 -16.6612,-16.66 -34.9625,-31.68 -54.5537,-44.77 -19.5913,-13.09125 -40.4713,-24.25125 -62.2388,-33.2675 -21.7687,-9.0175 -44.425,-15.89 -67.5337,-20.48625 -23.1088,-4.5975 -46.6713,-6.9175 -70.2325,-6.9175 -23.5613,0 -47.1238,2.32 -70.2325,6.9175 -23.1088,4.59625 -45.765,11.46875 -67.5338,20.48625 -21.7675,9.01625 -42.6475,20.17625 -62.2387,33.2675 -19.5913,13.09 -37.8925,28.11 -54.5538,44.77 -16.66,16.66125 -31.68,34.9625 -44.77,54.55375 -13.0912,19.5912 -24.2512,40.4713 -33.2675,62.2388 -9.0175,21.7687 -15.89,44.425 -20.4862,67.5337 -4.5975,23.1088 -6.9175,46.6713 -6.9175,70.2325 0,23.5613 2.32,47.1238 6.9175,70.2325 4.5962,23.1088 11.4687,45.765 20.4862,67.5338 9.0163,21.7675 20.1763,42.6475 33.2675,62.2387 13.09,19.5913 28.11,37.8925 44.77,54.5538 16.6613,16.66 34.9625,31.68 54.5538,44.77 19.5912,13.0912 40.4712,24.2512 62.2387,33.2675 21.7688,9.0175 44.425,15.89 67.5338,20.4862 23.1087,4.5975 46.6712,6.9175 70.2325,6.9175 23.5612,0 47.1237,-2.32 70.2325,-6.9175 23.1087,-4.5962 45.765,-11.4687 67.5337,-20.4862 21.7675,-9.0163 42.6475,-20.1763 62.2388,-33.2675 19.5912,-13.09 37.8925,-28.11 54.5537,-44.77 16.66,-16.6613 31.68,-34.9625 44.77,-54.5538 13.0913,-19.5912 24.2513,-40.4712 33.2675,-62.2387 9.0175,-21.7688 15.89,-44.425 20.4863,-67.5338 4.5975,-23.1087 6.9175,-46.6712 6.9175,-70.2325 z" />
    <path
       style="fill:#000000;fill-opacity:1;stroke:#000000;stroke-width:1.25;stroke-linecap:butt;stroke-linejoin:miter;stroke-miterlimit:10;stroke-dasharray:none;stroke-opacity:1"
       d="m -1998.1532,851.0886 c -23.5613,0 -47.1237,2.3204 -70.2324,6.9179 -23.1088,4.5963 -45.7644,11.46891 -67.5332,20.48641 -21.7676,9.0162 -42.6491,20.1763 -62.2403,33.2675 -19.5913,13.09 -37.8914,28.1096 -54.5527,44.7696 -16.66,16.6612 -31.6796,34.9615 -44.7696,54.55269 -13.0912,19.5912 -24.2512,40.4727 -33.2675,62.2402 -9.0175,21.7687 -15.8902,44.4245 -20.4864,67.5332 -4.5975,23.1088 -6.9179,46.6713 -6.9179,70.2325 0,23.5613 2.3204,47.1237 6.9179,70.2324 4.5962,23.1088 11.4689,45.7644 20.4864,67.5332 9.0163,21.7675 20.1763,42.6471 33.2675,62.2383 13.09,19.5913 28.1096,37.8934 44.7696,54.5547 16.6613,16.66 34.9614,31.6795 54.5527,44.7695 19.5912,13.0912 40.4727,24.2513 62.2403,33.2676 21.7688,9.0175 44.4244,15.8901 67.5332,20.4863 23.1087,4.5975 46.6711,6.918 70.2324,6.918 23.5612,0 47.1236,-2.3205 70.2324,-6.918 23.1087,-4.5962 45.7645,-11.4688 67.5332,-20.4863 21.7675,-9.0163 42.649,-20.1764 62.2403,-33.2676 19.5912,-13.09 37.8915,-28.1095 54.5527,-44.7695 16.66,-16.6613 31.6795,-34.9634 44.7695,-54.5547 13.0913,-19.5912 24.2514,-40.4708 33.2676,-62.2383 9.0175,-21.7688 15.89,-44.4244 20.4863,-67.5332 4.5975,-23.1087 6.918,-46.6711 6.918,-70.2324 0,-23.5612 -2.3205,-47.1237 -6.918,-70.2325 -4.5963,-23.1087 -11.4688,-45.7645 -20.4863,-67.5332 -9.0162,-21.7675 -20.1763,-42.649 -33.2676,-62.2402 -13.09,-19.59119 -28.1095,-37.89149 -44.7695,-54.55269 -16.6612,-16.66 -34.9615,-31.6796 -54.5527,-44.7696 -19.5913,-13.0912 -40.4728,-24.2513 -62.2403,-33.2675 -21.7687,-9.0175 -44.4245,-15.89011 -67.5332,-20.48641 -23.1088,-4.5975 -46.6712,-6.9179 -70.2324,-6.9179 z m -1.1016,78.74611 c 6.267,-0.0252 12.5361,0.159 18.7911,0.5546 33.36,2.11 66.3576,10.2218 96.8964,23.8418 30.5375,13.62 58.6132,32.7495 82.4707,56.17579 23.8562,23.4262 43.4942,51.1507 57.668,81.4356 14.175,30.2838 22.8867,63.129 25.6055,96.4453 2.7175,33.315 -0.558,67.1019 -9.6817,99.3144 -9.1238,32.2125 -24.095,62.8499 -43.75,89.6836 l -106.7421,-104.8144 -154.9024,-152.1035 -135.5586,-133.11139 c 26.47,-20.1412 56.8299,-35.6669 88.8711,-45.3769 26.0336,-7.8884 53.1753,-11.9361 80.332,-12.0449 z m -225.7969,115.05659 76.8653,75.4766 172.6504,169.5312 24.2773,23.8379 73.2618,71.9395 50.1484,49.2421 c -26.47,20.1412 -56.8298,35.6689 -88.8711,45.379 -32.0412,9.7086 -65.7631,13.6002 -99.123,11.4902 -33.36,-2.11 -66.3559,-10.2238 -96.8946,-23.8438 -30.5375,-13.62 -58.6152,-32.7476 -82.4727,-56.1738 -23.8563,-23.4263 -43.4943,-51.1505 -57.668,-81.4355 -14.175,-30.2838 -22.8867,-63.1292 -25.6054,-96.4454 -2.7175,-33.315 0.5598,-67.1019 9.6836,-99.3144 9.1237,-32.2125 24.093,-62.8498 43.748,-89.6836 z"
       id="path4272-1"
       inkscape:connector-curvature="0" />
    <path
       inkscape:connector-curvature="0"
       id="path4262"
       style="fill:#000000;fill-opacity:1;stroke:#000000;stroke-width:1.25;stroke-linecap:butt;stroke-linejoin:miter;stroke-miterlimit:10;stroke-dasharray:none;stroke-opacity:1"
       d="m -1985.2732,1289.8999 -172.65,-169.5313 -54.0463,0 c -44.445,0 -44.445,63.4937 0,63.4937 l 36.2838,0 0,202.5076 c 2.2,7.7675 7.1112,15.0112 13.6687,19.9937 6.5575,4.9813 14.76,7.7025 22.9613,7.7025 8.2025,0 16.405,-2.7212 22.9625,-7.7025 6.5562,-4.9825 11.4687,-12.2262 13.6687,-19.9937 l 0,-96.47 117.1513,0 z" />
    <path
       inkscape:connector-curvature="0"
       id="path4264"
       style="fill:#000000;fill-opacity:1;stroke:#000000;stroke-width:1.25;stroke-linecap:butt;stroke-linejoin:miter;stroke-miterlimit:10;stroke-dasharray:none;stroke-opacity:1"
       d="m -1880.4707,1392.8099 -70.7888,-69.51 0,63.07 c 2.0513,7.24 6.4325,14.0187 12.3163,18.9212 5.8837,4.9013 13.2687,7.9275 20.8662,8.6188 7.5975,0.6912 15.4075,-0.9525 22.0788,-4.7125 6.6712,-3.76 12.2037,-9.6363 15.5275,-16.3875 z" />
    <path
       inkscape:connector-curvature="0"
       id="path4266"
       style="fill:#000000;fill-opacity:1;stroke:#000000;stroke-width:1.25;stroke-linecap:butt;stroke-linejoin:miter;stroke-miterlimit:10;stroke-dasharray:none;stroke-opacity:1"
       d="m -2023.162,1120.3686 145.165,142.5425 0,-79.0488 100.0313,0 c 23.2562,0 23.2637,-27.6599 6.8487,-44.1337 l -77.0087,-77.2887 0,-58.2851 -114.3588,116.2138 -60.6775,0 z" />
  </g>
</svg>
