<?xml version="1.0" encoding="UTF-8" standalone="no"?>
<!-- Created with Inkscape (http://www.inkscape.org/) -->
<svg
   xmlns:dc="http://purl.org/dc/elements/1.1/"
   xmlns:cc="http://web.resource.org/cc/"
   xmlns:rdf="http://www.w3.org/1999/02/22-rdf-syntax-ns#"
   xmlns:svg="http://www.w3.org/2000/svg"
   xmlns="http://www.w3.org/2000/svg"
   xmlns:sodipodi="http://inkscape.sourceforge.net/DTD/sodipodi-0.dtd"
   xmlns:inkscape="http://www.inkscape.org/namespaces/inkscape"
   width="362"
   height="499"
   id="svg2207"
   sodipodi:version="0.32"
   inkscape:version="0.43"
   version="1.0"
   sodipodi:docbase="C:\Documents and Settings\Owner\Desktop\SVG"
   sodipodi:docname="Aiga_arrivingflights.svg">
  <defs
     id="defs3" />
  <sodipodi:namedview
     inkscape:document-units="px"
     id="base"
     pagecolor="#ffffff"
     bordercolor="#666666"
     borderopacity="1.0"
     inkscape:pageopacity="0.0"
     inkscape:pageshadow="2"
     inkscape:zoom="1.5113636"
     inkscape:cx="368.10689"
     inkscape:cy="85.569175"
     inkscape:current-layer="layer1"
     inkscape:window-width="1280"
     inkscape:window-height="704"
     inkscape:window-x="-4"
     inkscape:window-y="-4" />
  <metadata
     id="metadata4">
    <rdf:RDF>
      <cc:Work
         rdf:about="">
        <dc:format>image/svg+xml</dc:format>
        <dc:type
           rdf:resource="http://purl.org/dc/dcmitype/StillImage" />
      </cc:Work>
    </rdf:RDF>
  </metadata>
  <g
     inkscape:label="Layer 1"
     inkscape:groupmode="layer"
     id="layer1">
    <g
       id="g3221"
       transform="translate(-3.969923,-2.646617)">
      <path
         sodipodi:nodetypes="cccccccccccc"
         style="fill:#ffffff;fill-opacity:1"
         d="M 139.64286,326.64789 L 139.64286,137.07647 L 200,137.07647 L 260.35715,137.07647 L 256.34448,262.86564 C 272.95589,257.72658 284.93903,268.13011 287.22094,289.88628 L 335.90602,290.79826 L 337.77068,426.89596 L 213.57946,428.82999 L 200.66165,497.69295 L 140.96617,498.35461 L 139.64286,326.64789 z "
         id="path2338" />
      <path
         style="fill:#000000"
         d="M 140.57143,498.56996 C 134.12505,497.0006 129.0621,493.1701 125.94639,487.50503 C 124.80091,485.42227 124.48798,457.02836 124.07143,317.37507 L 123.57143,149.7451 L 106.57143,132.14036 C 97.221429,122.45776 71.319639,95.966236 49.011898,73.270336 C 12.713098,36.339906 8.3185476,31.523536 7.1785376,27.421476 C 5.5341976,21.504746 6.9581976,15.842526 11.347888,10.842956 C 16.780818,4.6551857 25.465279,2.6999757 32.560909,6.0670657 C 35.338979,7.3853457 69.060149,41.146326 114.57143,88.174396 L 125.57143,99.541006 L 174.57143,99.534886 C 227.47368,99.528276 228.46267,99.611986 239.07143,104.99451 C 246.08246,108.55166 255.64874,118.29745 259.79024,126.10209 C 266.0478,137.89448 266.06987,138.15505 266.08674,200.46513 C 266.09516,231.56207 266.43266,257.5094 266.83674,258.12585 C 267.24658,258.75108 271.5086,259.44918 276.47583,259.70468 C 284.656,260.12545 285.571,260.3845 287.72583,262.88963 C 289.89178,265.4077 290.07143,266.49499 290.07143,277.08554 C 290.07143,288.47662 290.08886,288.56116 292.63653,289.52978 C 294.04733,290.06617 300.12546,290.50503 306.14347,290.50503 L 317.08531,290.50503 L 316.82837,358.75503 L 316.57143,427.00503 L 271.16148,427.26533 C 239.66215,427.44589 225.34103,427.86632 224.41148,428.63777 C 223.35331,429.51598 223.07143,435.30528 223.07143,456.15959 C 223.07143,477.73459 222.7881,483.24738 221.5237,486.2735 C 217.30088,496.38015 205.97035,501.36181 194.67478,498.0781 C 188.01744,496.14276 183.39528,492.42727 180.95109,487.0464 C 179.21196,483.21772 179.11348,477.97908 179.07974,387.50503 C 179.06015,334.98003 178.76696,290.97026 178.4282,289.70553 C 177.88186,287.66582 177.29028,287.43987 173.19185,287.70553 L 168.57143,288.00503 L 168.07143,386.00503 L 167.57143,484.00503 L 165.14501,488.24129 C 162.20901,493.36722 157.12418,497.04819 151.07143,498.42932 C 145.99681,499.58726 144.81513,499.60308 140.57143,498.56996 z M 233.99851,288.91175 C 234.75996,288.15094 235.32177,168.90831 234.58314,164.82752 C 233.91715,161.14809 230.22926,159.73413 225.74515,161.43898 L 223.07143,162.45553 L 223.07143,225.5125 L 223.07143,288.56948 L 225.32143,289.51171 C 227.51278,290.42939 232.84889,290.06043 233.99851,288.91175 z M 281.1794,287.75503 C 282.36432,284.67649 282.02193,270.1222 280.73429,268.83456 C 279.65129,267.75156 244.49157,267.75156 243.40857,268.83456 C 242.12093,270.1222 241.77854,284.67649 242.96346,287.75503 L 244.02193,290.50503 L 262.07143,290.50503 L 280.12093,290.50503 L 281.1794,287.75503 z M 329.82143,426.93418 C 329.40893,426.51481 329.07143,395.60901 329.07143,358.25461 L 329.07143,290.33753 L 340.82143,290.67128 C 354.24959,291.0527 357.48142,292.46804 361.09407,299.54941 C 362.99322,303.27205 363.07143,305.60955 363.07143,358.64947 C 363.07143,412.46043 363.01844,413.98305 361.00048,418.1516 C 357.66974,425.03199 353.58233,426.91667 341.07143,427.34075 C 335.29643,427.5365 330.23393,427.35355 329.82143,426.93418 z M 364.53706,359.00503 C 364.53722,329.85503 364.66493,318.07419 364.82086,332.82539 C 364.97678,347.57659 364.97665,371.42659 364.82056,385.82539 C 364.66447,400.22419 364.53689,388.15503 364.53706,359.00503 z M 163.35747,84.110586 C 153.04961,80.751376 143.84794,72.627136 139.4359,62.989966 C 130.13608,42.676476 138.49462,19.810616 158.87922,9.8003157 C 164.01389,7.2788257 165.59989,7.0050357 175.07143,7.0050357 C 184.7458,7.0050357 186.08254,7.2485957 192.07143,10.102456 C 222.53054,24.616986 222.53225,67.624456 192.07429,81.886366 C 186.59057,84.454116 184.16093,84.974626 176.57143,85.207596 C 170.92071,85.381056 166.00324,84.972816 163.35747,84.110586 z "
         id="path2326" />
    </g>
  </g>
</svg>
