<?xml version="1.0" encoding="UTF-8" standalone="no"?>
<svg xmlns="http://www.w3.org/2000/svg" width="512" height="512">
  <path d="M246.785 173.952991c0 15.334-13.97 31.75-32.084 31.75v258.833c0 36.74-50.081 36.74-50.081 0v-258.833c-17.64 0-32.993-13.583-32.993-33.937V29.328001c0-12.39899 17.92-12.87799 17.92.479v105.29799h15v-106.256c0-11.39599 17.25-12.12799 17.25.47901v105.77699h15.5v-106.131c0-11.89898 16.75-12.37799 16.75.47901v105.65199h15.25v-106.131c0-11.77398 17.497-12.25299 17.497.47901l-.009 144.49999zm133.588-111.52v401.977c0 35.933-50.177 35.401-50.177 0v-159.495h-26.719v-242.482c0-56.445 76.896-56.445 76.896 0z"/>
</svg>