<?xml version="1.0" encoding="utf-8"?>
<!-- Generator: Adobe Illustrator 16.0.3, SVG Export Plug-In . SVG Version: 6.00 Build 0)  -->
<!DOCTYPE svg PUBLIC "-//W3C//DTD SVG 1.1//EN" "http://www.w3.org/Graphics/SVG/1.1/DTD/svg11.dtd">
<svg version="1.1" id="Layer_1" xmlns="http://www.w3.org/2000/svg" xmlns:xlink="http://www.w3.org/1999/xlink" x="0px" y="0px"
	 width="421.732px" height="348.802px" viewBox="0 0 421.732 348.802" enable-background="new 0 0 421.732 348.802"
	 xml:space="preserve">
<g>
	<g>
		<path d="M94.866,64.948h56.767v-40.74C151.633,9.398,164.898,0,180.694,0c-0.203,0,60.571,0,60.571,0
			c15.796,0,28.84,9.398,28.84,24.208v40.74h57.261v283.854h-232.5V64.948z"/>
	</g>
	<g>
		<path d="M73.551,348.31H42.366C20.866,348.31,0,332.492,0,304.992c0,0,0-197,0-197.5c0-24.5,20.366-43.038,42.366-43.038h31.185
			V348.31z"/>
	</g>
	<g>
		<rect x="172.499" y="22.952" fill="#FFFFFF" width="76.019" height="41.996"/>
	</g>
	<g>
		<path d="M348.181,348.31h31.185c21.5,0,42.366-15.818,42.366-43.318c0,0,0-197,0-197.5c0-24.5-20.366-43.038-42.366-43.038
			h-31.185V348.31z"/>
	</g>
</g>
<rect x="73.551" y="64.454" fill="#FFFFFF" width="21.315" height="284.348"/>
<rect x="327.366" y="64.948" fill="#FFFFFF" width="20.815" height="283.362"/>
</svg>
