<?xml version="1.0" encoding="UTF-8" standalone="no"?>
<svg xmlns="http://www.w3.org/2000/svg" width="248.746" height="472.182">
  <path d="M115.158 154.044c0 15.334-13.97 31.75-32.084 31.75v258.833c0 36.74-50.081 36.74-50.081 0V185.794C15.353 185.794 0 172.211 0 151.857V9.41901c0-12.39899 17.92-12.87799 17.92.479V115.196h15V8.94c0-11.39599 17.25-12.12799 17.25.47901V115.196h15.5V9.065c0-11.89898 16.75-12.37799 16.75.47901V115.196h15.25V9.065c0-11.77398 17.497-12.25299 17.497.47901l-.009 144.49999zm133.588-111.52v401.977c0 35.933-50.177 35.401-50.177 0V285.006H171.85V42.524c0-56.445 76.896-56.445 76.896 0z"/>
</svg>