<?xml version="1.0" encoding="UTF-8" standalone="no"?>
<!-- Created with Inkscape (http://www.inkscape.org/) -->
<svg
   xmlns:dc="http://purl.org/dc/elements/1.1/"
   xmlns:cc="http://web.resource.org/cc/"
   xmlns:rdf="http://www.w3.org/1999/02/22-rdf-syntax-ns#"
   xmlns:svg="http://www.w3.org/2000/svg"
   xmlns="http://www.w3.org/2000/svg"
   xmlns:sodipodi="http://sodipodi.sourceforge.net/DTD/sodipodi-0.dtd"
   xmlns:inkscape="http://www.inkscape.org/namespaces/inkscape"
   id="svg2"
   sodipodi:version="0.32"
   inkscape:version="0.45.1"
   width="566.43402"
   height="566.42999"
   version="1.0"
   sodipodi:docbase="F:\WIKI\Draws\Buenos\Pa subir"
   sodipodi:docname="Aiga_litterdisposal.svg"
   inkscape:output_extension="org.inkscape.output.svg.inkscape">
  <metadata
     id="metadata7">
    <rdf:RDF>
      <cc:Work
         rdf:about="">
        <dc:format>image/svg+xml</dc:format>
        <dc:type
           rdf:resource="http://purl.org/dc/dcmitype/StillImage" />
      </cc:Work>
    </rdf:RDF>
  </metadata>
  <defs
     id="defs5" />
  <sodipodi:namedview
     inkscape:window-height="742"
     inkscape:window-width="1024"
     inkscape:pageshadow="2"
     inkscape:pageopacity="0.0"
     guidetolerance="10.0"
     gridtolerance="10.0"
     objecttolerance="10.0"
     borderopacity="1.0"
     bordercolor="#666666"
     pagecolor="#ffffff"
     id="base"
     width="566.434px"
     height="566.43px"
     inkscape:zoom="0.74950298"
     inkscape:cx="299.06613"
     inkscape:cy="280.75687"
     inkscape:window-x="-4"
     inkscape:window-y="-4"
     inkscape:current-layer="svg2" />
  <g
     id="g6051"
     transform="matrix(1.0378181,0,0,1.0378181,84.030017,23.993491)">
    <path
       transform="translate(-9.4343426,-3.3020199)"
       d="M 319.82421 45.906109 A 41.039391 41.511108 0 1 1  237.74543,45.906109 A 41.039391 41.511108 0 1 1  319.82421 45.906109 z"
       sodipodi:ry="41.511108"
       sodipodi:rx="41.039391"
       sodipodi:cy="45.906109"
       sodipodi:cx="278.78482"
       id="path2161"
       style="opacity:1;fill:#000000;fill-opacity:1;fill-rule:nonzero;stroke:#000000;stroke-width:1;stroke-miterlimit:4;stroke-dasharray:none;stroke-dashoffset:0;stroke-opacity:1"
       sodipodi:type="arc" />
    <path
       sodipodi:nodetypes="ccccccccccccccccccccc"
       id="path3134"
       d="M 216.81035,159.77255 L 217.1439,469.97812 C 218.82819,502.37832 263.77863,501.60119 263.50796,469.97812 L 263.84152,288.0242 L 271.68004,288.02421 L 272.18037,469.97812 C 273.56504,502.06538 316.72013,501.75709 319.21154,470.64523 L 318.87798,157.10411 L 326.54974,157.10411 L 327.21684,273.51459 C 329.90164,295.6498 361.56273,294.39004 363.57427,272.84748 L 363.57427,141.76061 C 362.11245,115.96991 342.55547,95.966506 317.87732,95.062997 L 235.82294,94.729443 C 226.69186,94.791864 210.68351,99.861665 200.79973,115.40981 L 163.44164,170.11273 L 96.397215,170.11273 C 75.363593,171.56577 73.632044,204.50551 96.397215,206.1366 L 173.11472,206.47016 C 183.57256,205.95045 187.28047,201.75209 193.46154,193.12798 L 216.81035,159.77255 z "
       style="fill:#000000;fill-opacity:1;fill-rule:evenodd;stroke:#000000;stroke-width:1px;stroke-linecap:butt;stroke-linejoin:miter;stroke-opacity:1" />
    <path
       sodipodi:nodetypes="ccccccccc"
       id="path4105"
       d="M 1.1792928,287.42527 L 30.494836,287.49435 L 63.91767,464.08334 L 114.62726,464.3192 L 148.35504,287.42527 L 177.53242,287.32758 L 138.68483,493.3298 L 39.791015,493.59427 L 1.1792928,287.42527 z "
       style="fill:#000000;fill-opacity:1;fill-rule:evenodd;stroke:#000000;stroke-width:1px;stroke-linecap:butt;stroke-linejoin:miter;stroke-opacity:1" />
    <rect
       y="319.87863"
       x="68.211868"
       height="28.852358"
       width="28.685707"
       id="rect5076"
       style="opacity:1;fill:#000000;fill-opacity:1;fill-rule:nonzero;stroke:#000000;stroke-width:1;stroke-miterlimit:4;stroke-dasharray:none;stroke-dashoffset:0;stroke-opacity:1" />
    <rect
       transform="matrix(0.7167595,0.6973204,-0.6973204,0.7167595,0,0)"
       y="123.16635"
       x="248.424"
       height="30.286829"
       width="30.081272"
       id="rect5078"
       style="opacity:1;fill:#000000;fill-opacity:1;fill-rule:nonzero;stroke:#000000;stroke-width:1;stroke-miterlimit:4;stroke-dasharray:none;stroke-dashoffset:0;stroke-opacity:1" />
    <rect
       transform="matrix(0.7167595,0.6973204,-0.6973204,0.7167595,0,0)"
       y="108.65224"
       x="204.98557"
       height="30.286825"
       width="30.081268"
       id="rect5080"
       style="opacity:1;fill:#000000;fill-opacity:1;fill-rule:nonzero;stroke:#000000;stroke-width:0.99999988;stroke-miterlimit:4;stroke-dasharray:none;stroke-dashoffset:0;stroke-opacity:1" />
  </g>
</svg>
