<?xml version="1.0" encoding="utf-8"?>
<!-- Generator: Adobe Illustrator 17.0.0, SVG Export Plug-In . SVG Version: 6.00 Build 0)  -->
<!DOCTYPE svg PUBLIC "-//W3C//DTD SVG 1.1//EN" "http://www.w3.org/Graphics/SVG/1.1/DTD/svg11.dtd">
<svg version="1.1"
	 id="svg2375" xmlns:rdf="http://www.w3.org/1999/02/22-rdf-syntax-ns#" xmlns:dc="http://purl.org/dc/elements/1.1/" xmlns:cc="http://creativecommons.org/ns#"
	 xmlns="http://www.w3.org/2000/svg" xmlns:xlink="http://www.w3.org/1999/xlink" x="0px" y="0px" width="443.14px"
	 height="273.32px" viewBox="0 0 443.14 273.32" enable-background="new 0 0 443.14 273.32" xml:space="preserve">
<path id="path2387" d="M443.14,226.35H0c0,32.09,24.449,46.97,44.075,46.97h355c23.49,0,44.06-18.47,44.06-46.97H443.14z"/>
<path d="M359.08,0H94.56v173.6c0,23.51,20.3,42.14,42.26,42.14h171.49c24.79,0,41.67-20.8,41.67-42.14v-14.49
	c48.89,0,84.41-36.76,84.41-79.56C434.39,35.85,399.58,0,359.08,0z M349.98,126.1V32.59l9.1,0.01l0.01,0.02
	c33.47,0,44.22,31.69,44.11,46.98C403.2,104.55,384.82,128.36,349.98,126.1z"/>
</svg>
