<?xml version="1.0" encoding="utf-8"?>

<!DOCTYPE svg PUBLIC "-//W3C//DTD SVG 1.0//EN" "http://www.w3.org/TR/2001/REC-SVG-20010904/DTD/svg10.dtd">

<svg
  xmlns="http://www.w3.org/2000/svg" 
  xmlns:xlink="http://www.w3.org/1999/xlink" 
  width="367" 
  height="442" 
  viewBox="0 0 367 442" 
  style="overflow:visible;enable-background:new 0 0 367 442" 
  xml:space="preserve"
>

<g>

  <g>
    <path d="M185.225,3.47c-40.255,0-95.849,11.502-118.853,21.087s-38.34,19.17-43.132,43.132L5.988,200.53v183.045H35.7v28.705
    	c0,35,51.218,35,51.218,0v-28.705h94.557h0.3h98.307v28.705c0,35,51.218,35,51.218,0v-28.705h29.712V200.53L343.76,67.689
    	c-4.792-23.962-20.128-33.547-43.132-43.132C277.624,14.972,222.03,3.47,181.774,3.47"/>
  </g>
  
  <g>
    <circle style="fill:#FFFFFF;" cx="305.669" cy="301.623" r="24.57"/> 
    <circle style="fill:#FFFFFF;" cx="61.33" cy="301.623" r="24.57"/> 
    <path style="fill:#FFFFFF;" d="M181.6,58.583h-71.136c-14.378,0-14.378-21.566,0-21.566h71.311h74.761
    	c14.378,0,14.378,21.566,0,21.566H181.6z"/>
    <path style="fill:#FFFFFF;" d="M181.6,80.357H71.703c-15.188,0-19.156,7.717-21,19.423l-13.428,96.348
    	c-1.252,9.235,1.419,18.402,14.178,18.402h130.322h133.772c12.759,0,15.43-9.167,14.178-18.402L316.296,99.78
    	c-1.844-11.706-5.812-19.423-21-19.423H181.6z"/>
  </g>

  <rect style="fill:none;" width="367" height="442"/> 

</g>

</svg>
