<?xml version="1.0"?>
<svg viewBox="0 0 484 484" xmlns="http://www.w3.org/2000/svg">
<path d="m242 437.3c-107.9-.02-195.3-87.44-195.3-195.3.02-107.8 87.44-195.2 195.3-195.2 107.8-.03 195.2 87.39 195.2 195.2.03 107.9-87.39 195.3-195.2 195.3z" fill="none" stroke="#000" stroke-miterlimit="10" stroke-width="50.72"/>
<path d="m140 276.3h47.5c2.98 13.72 6.93 30.35 28.5 36.5v-54c-29.61-4.24-72.3-17.28-72.3-65.1 0-53.68 59.18-70.42 72.3-70.4v-32.5h44.6v32.5c30.12 1.73 73.78 26.98 73.8 75h-47c-1.18-14.28-12.18-28.28-26.3-29.3v49.5c35.88 3.72 77.98 17.46 78 65.8-.02 42.3-42.29 73.11-78 75v32.6h-45.1v-33.1c-25.8-3.77-73.02-28.78-76-82.5"/>
<path d="m261.6 266.5c39.38 1.02 43.75 40.28 0 46.6m-45.3-143.6v41c-31.82-.48-32.44-35.29 0-41" fill="#fff"/>
<path d="m261.6 313.1v-46.6" fill="#fff"/>
</svg>