<?xml version="1.0" encoding="UTF-8"?>
<svg xmlns="http://www.w3.org/2000/svg" xmlns:xlink="http://www.w3.org/1999/xlink" width="411pt" height="393pt" viewBox="0 0 411 393" version="1.1">
<defs>
<clipPath id="clip0">
  <rect width="411" height="393"/>
</clipPath>
</defs>
<g id="surface0" clip-path="url(#clip0)">
<path style="fill: none; stroke-width: 0.1; stroke-linecap: butt; stroke-linejoin: miter; stroke: rgb(100%,100%,100%); opacity: 1;stroke-miterlimit: 10;" d="M 0 0 L 411 0 L 411 393 L 408.749146 393 C 408.746307 293.5849 408.753906 194.17009 408.745361 94.755096 C 396.402649 94.730042 384.06076 94.774811 371.719513 94.731583 C 383.684235 85.019501 395.727371 75.404007 407.660599 65.65239 C 400.682114 56.404434 393.812759 47.073593 386.802811 37.849487 C 376.069244 45.639267 365.416153 53.538864 354.69928 61.350571 C 359.595459 45.388123 364.543915 29.441849 369.453064 13.483215 C 358.638077 10.114105 347.855698 6.640305 337.013428 3.363708 C 331.400909 20.285965 325.800674 37.213715 320.333679 54.182083 C 314.665939 37.247513 309.305527 20.211304 303.512802 3.31926 C 292.655502 6.741898 281.769333 10.070038 270.912933 13.492416 C 275.809479 29.431976 280.765335 45.353363 285.633102 61.301895 C 274.555649 53.388901 263.611816 45.290924 252.55751 37.346695 C 245.670059 46.678101 238.654236 55.913681 231.729034 65.216797 C 244.064926 75.044724 256.403412 84.871658 268.667953 94.789047 C 256.281143 94.702515 243.894257 94.766022 231.508057 94.753967 C 231.493774 194.169312 231.505981 293.584518 231.501953 393 L 191.749023 393 C 191.745041 382.911407 191.755508 372.823898 191.744293 362.736984 C 188.640549 362.048676 185.422699 361.115341 183.127167 358.785385 C 177.862061 353.997345 176.729767 345.453766 180.539902 339.442871 C 182.730103 335.509766 187.030411 333.428619 191.271683 332.509323 C 191.222 264.510361 191.267426 196.511459 191.248932 128.512543 C 171.916183 128.482971 152.583755 128.517929 133.251373 128.495392 C 133.049713 116.977936 133.576263 105.473755 133.472977 93.959641 C 98.061829 109.795761 62.632355 125.591476 27.198883 141.377594 C 19.340683 144.764969 11.699188 149.463821 6.700531 156.578629 C 2.252869 162.618164 0.466599 170.153549 0 177.530334 L 0 0 Z M 0 0 " transform="matrix(1,0,0,1,0,0)"/>
<path style="stroke: none; fill-rule: nonzero; fill: rgb(100%,100%,100%); opacity: 1;" d="M 0 0 L 411 0 L 411 393 L 408.749146 393 C 408.746307 293.5849 408.753906 194.17009 408.745361 94.755096 C 396.402649 94.730042 384.06076 94.774811 371.719513 94.731583 C 383.684235 85.019501 395.727371 75.404007 407.660599 65.65239 C 400.682114 56.404434 393.812759 47.073593 386.802811 37.849487 C 376.069244 45.639267 365.416153 53.538864 354.69928 61.350571 C 359.595459 45.388123 364.543915 29.441849 369.453064 13.483215 C 358.638077 10.114105 347.855698 6.640305 337.013428 3.363708 C 331.400909 20.285965 325.800674 37.213715 320.333679 54.182083 C 314.665939 37.247513 309.305527 20.211304 303.512802 3.31926 C 292.655502 6.741898 281.769333 10.070038 270.912933 13.492416 C 275.809479 29.431976 280.765335 45.353363 285.633102 61.301895 C 274.555649 53.388901 263.611816 45.290924 252.55751 37.346695 C 245.670059 46.678101 238.654236 55.913681 231.729034 65.216797 C 244.064926 75.044724 256.403412 84.871658 268.667953 94.789047 C 256.281143 94.702515 243.894257 94.766022 231.508057 94.753967 C 231.493774 194.169312 231.505981 293.584518 231.501953 393 L 191.749023 393 C 191.745041 382.911407 191.755508 372.823898 191.744293 362.736984 C 188.640549 362.048676 185.422699 361.115341 183.127167 358.785385 C 177.862061 353.997345 176.729767 345.453766 180.539902 339.442871 C 182.730103 335.509766 187.030411 333.428619 191.271683 332.509323 C 191.222 264.510361 191.267426 196.511459 191.248932 128.512543 C 171.916183 128.482971 152.583755 128.517929 133.251373 128.495392 C 133.049713 116.977936 133.576263 105.473755 133.472977 93.959641 C 98.061829 109.795761 62.632355 125.591476 27.198883 141.377594 C 19.340683 144.764969 11.699188 149.463821 6.700531 156.578629 C 2.252869 162.618164 0.466599 170.153549 0 177.530334 L 0 0 Z M 0 0 "/>
<path style="fill: none; stroke-width: 0.1; stroke-linecap: butt; stroke-linejoin: miter; stroke: rgb(0%,0%,0%); opacity: 1;stroke-miterlimit: 10;" d="M 194.119125 3.855606 C 197.497406 1.928299 202.261734 3.493683 203.890411 7.008667 C 206.802124 13.12117 209.634247 19.273239 212.540161 25.389526 C 214.082855 28.548904 212.88121 32.934113 209.528336 34.352936 C 156.033386 58.544983 102.52684 82.725372 49.040802 106.928238 C 41.462769 109.786041 32.942856 110.456635 25.144363 108.078857 C 13.812454 104.879715 4.549866 95.350861 1.661331 83.93631 C 0.187576 79.095123 0.682571 73.979004 0.659332 68.996552 C 0.757874 49.168365 0.455383 29.331177 0.83699 9.508804 C 23.640564 9.496155 46.444 9.499786 69.24765 9.506989 C 69.254517 22.011566 69.251572 34.516159 69.246719 47.020721 C 69.119965 50.614151 71.415588 54.491501 75.071442 55.295807 C 78.88385 56.160645 82.598557 54.378296 85.972137 52.806839 C 122.01796 36.483124 158.072159 20.177826 194.119125 3.855606 Z M 194.119125 3.855606 " transform="matrix(1,0,0,1,0,0)"/>
<path style="stroke: none; fill-rule: nonzero; fill: rgb(0%,0%,0%); opacity: 1;" d="M 194.119125 3.855606 C 197.497406 1.928299 202.261734 3.493683 203.890411 7.008667 C 206.802124 13.12117 209.634247 19.273239 212.540161 25.389526 C 214.082855 28.548904 212.88121 32.934113 209.528336 34.352936 C 156.033386 58.544983 102.52684 82.725372 49.040802 106.928238 C 41.462769 109.786041 32.942856 110.456635 25.144363 108.078857 C 13.812454 104.879715 4.549866 95.350861 1.661331 83.93631 C 0.187576 79.095123 0.682571 73.979004 0.659332 68.996552 C 0.757874 49.168365 0.455383 29.331177 0.83699 9.508804 C 23.640564 9.496155 46.444 9.499786 69.24765 9.506989 C 69.254517 22.011566 69.251572 34.516159 69.246719 47.020721 C 69.119965 50.614151 71.415588 54.491501 75.071442 55.295807 C 78.88385 56.160645 82.598557 54.378296 85.972137 52.806839 C 122.01796 36.483124 158.072159 20.177826 194.119125 3.855606 Z M 194.119125 3.855606 "/>
<path style="fill: none; stroke-width: 0.1; stroke-linecap: butt; stroke-linejoin: miter; stroke: rgb(0%,0%,0%); opacity: 1;stroke-miterlimit: 10;" d="M 270.912933 13.492416 C 281.769333 10.070038 292.655502 6.741898 303.512802 3.31926 C 309.305527 20.211304 314.665939 37.247513 320.333679 54.182083 C 325.800674 37.213715 331.400909 20.285965 337.013428 3.363708 C 347.855698 6.640305 358.638077 10.114105 369.453064 13.483215 C 364.543915 29.441849 359.595459 45.388123 354.69928 61.350571 C 365.416153 53.538864 376.069244 45.639267 386.802811 37.849487 C 393.812759 47.073593 400.682114 56.404434 407.660599 65.65239 C 395.727371 75.404007 383.684235 85.019501 371.719513 94.731583 C 384.06076 94.774811 396.402649 94.730042 408.745361 94.755096 C 408.753906 194.17009 408.746307 293.5849 408.749146 393 L 231.501953 393 C 231.505981 293.584518 231.493774 194.169312 231.508057 94.753967 C 243.894257 94.766022 256.281143 94.702515 268.667953 94.789047 C 256.403412 84.871658 244.064926 75.044724 231.729034 65.216797 C 238.654236 55.913681 245.670059 46.678101 252.55751 37.346695 C 263.611816 45.290924 274.555649 53.388901 285.633102 61.301895 C 280.765335 45.353363 275.809479 29.431976 270.912933 13.492416 Z M 270.912933 13.492416 " transform="matrix(1,0,0,1,0,0)"/>
<path style="stroke: none; fill-rule: nonzero; fill: rgb(0%,0%,0%); opacity: 1;" d="M 270.912933 13.492416 C 281.769333 10.070038 292.655502 6.741898 303.512802 3.31926 C 309.305527 20.211304 314.665939 37.247513 320.333679 54.182083 C 325.800674 37.213715 331.400909 20.285965 337.013428 3.363708 C 347.855698 6.640305 358.638077 10.114105 369.453064 13.483215 C 364.543915 29.441849 359.595459 45.388123 354.69928 61.350571 C 365.416153 53.538864 376.069244 45.639267 386.802811 37.849487 C 393.812759 47.073593 400.682114 56.404434 407.660599 65.65239 C 395.727371 75.404007 383.684235 85.019501 371.719513 94.731583 C 384.06076 94.774811 396.402649 94.730042 408.745361 94.755096 C 408.753906 194.17009 408.746307 293.5849 408.749146 393 L 231.501953 393 C 231.505981 293.584518 231.493774 194.169312 231.508057 94.753967 C 243.894257 94.766022 256.281143 94.702515 268.667953 94.789047 C 256.403412 84.871658 244.064926 75.044724 231.729034 65.216797 C 238.654236 55.913681 245.670059 46.678101 252.55751 37.346695 C 263.611816 45.290924 274.555649 53.388901 285.633102 61.301895 C 280.765335 45.353363 275.809479 29.431976 270.912933 13.492416 Z M 270.912933 13.492416 "/>
<path style="fill: none; stroke-width: 0.1; stroke-linecap: butt; stroke-linejoin: miter; stroke: rgb(0%,0%,0%); opacity: 1;stroke-miterlimit: 10;" d="M 27.198883 141.377594 C 62.632355 125.591476 98.061829 109.795761 133.472977 93.959641 C 133.576263 105.473755 133.049713 116.977936 133.251373 128.495392 C 152.583755 128.517929 171.916183 128.482971 191.248932 128.512543 C 191.267426 196.511459 191.222 264.510361 191.271683 332.509323 C 187.030411 333.428619 182.730103 335.509766 180.539902 339.442871 C 176.729767 345.453766 177.862061 353.997345 183.127167 358.785385 C 185.422699 361.115341 188.640549 362.048676 191.744293 362.736984 C 191.755508 372.823898 191.745041 382.911407 191.749023 393 L 44.721893 393 C 30.709579 392.6698 17.275299 385.17334 9.273849 373.735641 C 3.657593 366.142792 0.620605 356.857605 0 347.476135 L 0 177.530334 C 0.466599 170.153549 2.252869 162.618164 6.700531 156.578629 C 11.699188 149.463821 19.340683 144.764969 27.198883 141.377594 Z M 27.198883 141.377594 " transform="matrix(1,0,0,1,0,0)"/>
<path style="stroke: none; fill-rule: nonzero; fill: rgb(0%,0%,0%); opacity: 1;" d="M 27.198883 141.377594 C 62.632355 125.591476 98.061829 109.795761 133.472977 93.959641 C 133.576263 105.473755 133.049713 116.977936 133.251373 128.495392 C 152.583755 128.517929 171.916183 128.482971 191.248932 128.512543 C 191.267426 196.511459 191.222 264.510361 191.271683 332.509323 C 187.030411 333.428619 182.730103 335.509766 180.539902 339.442871 C 176.729767 345.453766 177.862061 353.997345 183.127167 358.785385 C 185.422699 361.115341 188.640549 362.048676 191.744293 362.736984 C 191.755508 372.823898 191.745041 382.911407 191.749023 393 L 44.721893 393 C 30.709579 392.6698 17.275299 385.17334 9.273849 373.735641 C 3.657593 366.142792 0.620605 356.857605 0 347.476135 L 0 177.530334 C 0.466599 170.153549 2.252869 162.618164 6.700531 156.578629 C 11.699188 149.463821 19.340683 144.764969 27.198883 141.377594 Z M 27.198883 141.377594 "/>
<path style="fill: none; stroke-width: 0.1; stroke-linecap: butt; stroke-linejoin: miter; stroke: rgb(100%,100%,100%); opacity: 1;stroke-miterlimit: 10;" d="M 264.75116 130.005035 C 277.33252 129.994049 289.914169 130.001099 302.496552 130.00145 C 302.503265 145.834717 302.509232 161.66803 302.493469 177.501709 C 289.912827 177.498749 277.332916 177.508102 264.753281 177.49704 C 264.744461 161.666077 264.748505 145.835556 264.75116 130.005035 Z M 264.75116 130.005035 " transform="matrix(1,0,0,1,0,0)"/>
<path style="stroke: none; fill-rule: nonzero; fill: rgb(100%,100%,100%); opacity: 1;" d="M 264.75116 130.005035 C 277.33252 129.994049 289.914169 130.001099 302.496552 130.00145 C 302.503265 145.834717 302.509232 161.66803 302.493469 177.501709 C 289.912827 177.498749 277.332916 177.508102 264.753281 177.49704 C 264.744461 161.666077 264.748505 145.835556 264.75116 130.005035 Z M 264.75116 130.005035 "/>
<path style="fill: none; stroke-width: 0.1; stroke-linecap: butt; stroke-linejoin: miter; stroke: rgb(100%,100%,100%); opacity: 1;stroke-miterlimit: 10;" d="M 338.002121 130.002029 C 350.504196 130.008545 363.006821 129.977722 375.510086 130.017761 C 375.485306 145.845444 375.517685 161.673187 375.493866 177.501282 C 362.995911 177.500641 350.49884 177.505096 338.002167 177.499146 C 337.998077 161.666473 337.998062 145.834259 338.002121 130.002029 Z M 338.002121 130.002029 " transform="matrix(1,0,0,1,0,0)"/>
<path style="stroke: none; fill-rule: nonzero; fill: rgb(100%,100%,100%); opacity: 1;" d="M 338.002121 130.002029 C 350.504196 130.008545 363.006821 129.977722 375.510086 130.017761 C 375.485306 145.845444 375.517685 161.673187 375.493866 177.501282 C 362.995911 177.500641 350.49884 177.505096 338.002167 177.499146 C 337.998077 161.666473 337.998062 145.834259 338.002121 130.002029 Z M 338.002121 130.002029 "/>
<path style="fill: none; stroke-width: 0.1; stroke-linecap: butt; stroke-linejoin: miter; stroke: rgb(100%,100%,100%); opacity: 1;stroke-miterlimit: 10;" d="M 133.003448 161.499741 C 141.585587 161.499619 150.167877 161.489426 158.750763 161.50528 C 158.748856 209.333969 158.745636 257.162552 158.75238 304.991455 C 128.79834 304.926361 98.83754 305.1642 68.888046 304.871613 C 90.300735 295.432281 111.603271 285.7453 132.999023 276.267502 C 133.003555 238.011383 132.994644 199.755615 133.003448 161.499741 Z M 133.003448 161.499741 " transform="matrix(1,0,0,1,0,0)"/>
<path style="stroke: none; fill-rule: nonzero; fill: rgb(100%,100%,100%); opacity: 1;" d="M 133.003448 161.499741 C 141.585587 161.499619 150.167877 161.489426 158.750763 161.50528 C 158.748856 209.333969 158.745636 257.162552 158.75238 304.991455 C 128.79834 304.926361 98.83754 305.1642 68.888046 304.871613 C 90.300735 295.432281 111.603271 285.7453 132.999023 276.267502 C 133.003555 238.011383 132.994644 199.755615 133.003448 161.499741 Z M 133.003448 161.499741 "/>
<path style="fill: none; stroke-width: 0.1; stroke-linecap: butt; stroke-linejoin: miter; stroke: rgb(100%,100%,100%); opacity: 1;stroke-miterlimit: 10;" d="M 264.754715 212.253036 C 277.337143 212.252899 289.919907 212.24173 302.503326 212.258636 C 302.503326 260.834656 302.496109 309.410583 302.506927 357.986862 C 289.921188 358.013535 277.336029 357.997269 264.751221 357.995117 C 264.749741 309.41423 264.742783 260.833664 264.754715 212.253036 Z M 264.754715 212.253036 " transform="matrix(1,0,0,1,0,0)"/>
<path style="stroke: none; fill-rule: nonzero; fill: rgb(100%,100%,100%); opacity: 1;" d="M 264.754715 212.253036 C 277.337143 212.252899 289.919907 212.24173 302.503326 212.258636 C 302.503326 260.834656 302.496109 309.410583 302.506927 357.986862 C 289.921188 358.013535 277.336029 357.997269 264.751221 357.995117 C 264.749741 309.41423 264.742783 260.833664 264.754715 212.253036 Z M 264.754715 212.253036 "/>
<path style="fill: none; stroke-width: 0.1; stroke-linecap: butt; stroke-linejoin: miter; stroke: rgb(100%,100%,100%); opacity: 1;stroke-miterlimit: 10;" d="M 338.008728 212.247604 C 350.506363 212.260086 363.00441 212.2379 375.503296 212.258942 C 375.505661 260.833069 375.491379 309.407104 375.510452 357.981476 C 363.007126 358.022446 350.504425 357.98996 338.002258 357.998093 C 338.00264 309.414398 337.989716 260.831024 338.008728 212.247604 Z M 338.008728 212.247604 " transform="matrix(1,0,0,1,0,0)"/>
<path style="stroke: none; fill-rule: nonzero; fill: rgb(100%,100%,100%); opacity: 1;" d="M 338.008728 212.247604 C 350.506363 212.260086 363.00441 212.2379 375.503296 212.258942 C 375.505661 260.833069 375.491379 309.407104 375.510452 357.981476 C 363.007126 358.022446 350.504425 357.98996 338.002258 357.998093 C 338.00264 309.414398 337.989716 260.831024 338.008728 212.247604 Z M 338.008728 212.247604 "/>
<path style="fill: none; stroke-width: 0.1; stroke-linecap: butt; stroke-linejoin: miter; stroke: rgb(100%,100%,100%); opacity: 1;stroke-miterlimit: 10;" d="M 32.711426 347.895966 C 32.457016 341.834641 38.101151 336.805237 44.004349 336.997284 C 78.352859 336.988174 112.701843 337.02803 147.050476 336.977524 C 139.764313 342.35527 140.421783 354.587555 147.901688 359.512787 C 112.970551 359.471191 78.038162 359.541046 43.108017 359.47821 C 37.226486 359.238602 32.17894 353.844116 32.711426 347.895966 Z M 32.711426 347.895966 " transform="matrix(1,0,0,1,0,0)"/>
<path style="stroke: none; fill-rule: nonzero; fill: rgb(100%,100%,100%); opacity: 1;" d="M 32.711426 347.895966 C 32.457016 341.834641 38.101151 336.805237 44.004349 336.997284 C 78.352859 336.988174 112.701843 337.02803 147.050476 336.977524 C 139.764313 342.35527 140.421783 354.587555 147.901688 359.512787 C 112.970551 359.471191 78.038162 359.541046 43.108017 359.47821 C 37.226486 359.238602 32.17894 353.844116 32.711426 347.895966 Z M 32.711426 347.895966 "/>
<path style="fill: none; stroke-width: 0.1; stroke-linecap: butt; stroke-linejoin: miter; stroke: rgb(100%,100%,100%); opacity: 1;stroke-miterlimit: 10;" d="M 0 347.476135 C 0.620605 356.857605 3.657593 366.142792 9.273849 373.735641 C 17.275299 385.17334 30.709579 392.6698 44.721893 393 L 0 393 L 0 347.476135 Z M 0 347.476135 " transform="matrix(1,0,0,1,0,0)"/>
<path style="stroke: none; fill-rule: nonzero; fill: rgb(100%,100%,100%); opacity: 1;" d="M 0 347.476135 C 0.620605 356.857605 3.657593 366.142792 9.273849 373.735641 C 17.275299 385.17334 30.709579 392.6698 44.721893 393 L 0 393 L 0 347.476135 Z M 0 347.476135 "/>
</g>
</svg>
