<?xml version="1.0" encoding="utf-8"?>
<!-- Generator: Adobe Illustrator 16.0.3, SVG Export Plug-In . SVG Version: 6.00 Build 0)  -->
<!DOCTYPE svg PUBLIC "-//W3C//DTD SVG 1.1//EN" "http://www.w3.org/Graphics/SVG/1.1/DTD/svg11.dtd">
<svg version="1.1" id="Layer_1" xmlns="http://www.w3.org/2000/svg" xmlns:xlink="http://www.w3.org/1999/xlink" x="0px" y="0px"
	 width="471.818px" height="494.051px" viewBox="251.608 30.051 471.818 494.051"
	 enable-background="new 251.608 30.051 471.818 494.051" xml:space="preserve">
<g>
	<g>
		<g>
			<g>
				<path d="M497.863,88.302h-72.02c-13.03,0-12.553,19.265,0,19.265h72.02v9.63h-71.971c-13.021,0-12.543,19.265,0,19.265h71.971
					v9.632v0.482h-71.971c-13.021,0-12.543,19.264,0,19.264h71.971v9.633h-71.971c-12.75,0-12.543,19.264,0,19.264h71.971v9.633
					h-71.971c-12.75,0-12.793,19.264,0,19.264h71.971v9.633h-71.971c-12.75,0-12.793,19.264,0,19.264h71.971v9.633h-71.971
					c-12.75,0-12.793,19.262,0,19.262h71.971v9.633l-71.991-0.002c-12.729,0-12.522,19.267,0.021,19.267h71.971v186.876
					c0,28.504,43.528,28.004,43.528,0V59.7c0-13-10.749-29.464-28.499-29.464l-87.069-0.045c-13.022,0-12.543,19.266,0,19.266
					l72.04,0.044v9.633h-72.02c-13.023,0-12.545,19.264,0,19.264h72.02V88.302L497.863,88.302z"/>
			</g>
			<g>
				<g>
					<path d="M414.393,465.699c-2.396,15.814,2.97,44.179,14.25,54.5c11.75,10.75,25.671-2.95,19.857-14.093
						c-5.751-11.023-13.087-17.049-6.857-43.407L414.393,465.699z"/>
				</g>
				<g>
					<path d="M360.012,30.051c-3.235,0-6.685,1.294-7.333,6.901l-23.468,209.744v127.137
						c-44.318-23.134-77.603,12.866-77.603,45.529c0,29.233,21.489,53.195,52.161,53.195s51.652-26.838,51.652-53.195V291.548h9.852
						v127.814c0,30.42,24.537,52.837,50.87,52.837c33,0,54.035-23.267,54.035-52.5c0-33.25-34.285-69-78.727-45.866V246.696
						L367.343,36.952C366.697,31.345,363.246,30.051,360.012,30.051z"/>
				</g>
			</g>
		</g>
		<g>
			<g>
				<circle cx="655.861" cy="55.661" r="24.011"/>
				<path d="M655.861,55.661"/>
			</g>
			<g>
				<path d="M652.31,231.998l0.011,83.163c0,15.112-22.641,15.112-22.641,0l-0.009-82.587h-30.403l32.503-112.77h-5.046
					l-18.906,63.617c-4.5,13.875-23.551,8.175-19.191-6.683l20.991-69.113c2.25-7.882,12.218-21.854,29.471-21.854h15.909l0,0
					h17.122c17.1,0,27.113,14.09,29.7,21.854l21.001,69.046c4.2,14.85-14.701,21-19.201,6.525l-18.9-63.392h-5.463l32.764,112.77
					h-30.45v82.698c0,15.001-22.546,14.926-22.546,0v-83.274H652.31z"/>
			</g>
		</g>
	</g>
	<g>
		<g>
			<path fill="#FFFFFF" d="M303.373,445.791c-14.412,0-26.095-11.681-26.095-26.092c0-14.412,11.683-26.096,26.095-26.096
				c14.409,0,26.092,11.684,26.092,26.096C329.465,434.11,317.782,445.791,303.373,445.791z"/>
			<path fill="#FFFFFF" d="M303.373,419.699"/>
		</g>
		<g>
			<circle fill="#FFFFFF" cx="418.393" cy="419.698" r="26.094"/>
			<path fill="#FFFFFF" d="M418.393,419.699"/>
		</g>
	</g>
</g>
</svg>
