<?xml version="1.0" encoding="utf-8"?>
<!-- Generator: Adobe Illustrator 16.0.3, SVG Export Plug-In . SVG Version: 6.00 Build 0)  -->
<!DOCTYPE svg PUBLIC "-//W3C//DTD SVG 1.1//EN" "http://www.w3.org/Graphics/SVG/1.1/DTD/svg11.dtd">
<svg version="1.1" id="Layer_1" xmlns="http://www.w3.org/2000/svg" xmlns:xlink="http://www.w3.org/1999/xlink" x="0px" y="0px"
	 width="439.55px" height="439.548px" viewBox="247.224 31.134 439.55 439.548"
	 enable-background="new 247.224 31.134 439.55 439.548" xml:space="preserve">
<g>
	<g>
		<g>
			<path d="M390.943,123.008h108.826c47.588,0,82.65,42.577,82.65,86.406c0,49.27-41.718,86.08-84.922,86.08h-57.088v84.229h-49.466
				V123.008z"/>
		</g>
		<g>
			<path fill="#FFFFFF" d="M441.034,170.594h56.23c18.158,0,36.487,16.882,36.487,39.423c0,22.539-17.077,38.19-37.113,38.19
				h-55.604V170.594L441.034,170.594z"/>
		</g>
	</g>
	<g>
		
			<line fill="none" stroke="#EF3340" stroke-width="56.445" stroke-miterlimit="10" x1="610.723" y1="392.34" x2="327.485" y2="109.102"/>
		<g>
			<path fill="none" stroke="#EF3340" stroke-width="49" stroke-miterlimit="10" d="M467,446.182
				c-107.846,0-195.276-87.428-195.276-195.271c0-107.847,87.43-195.276,195.276-195.276c107.845,0,195.274,87.429,195.274,195.276
				C662.274,358.754,574.845,446.182,467,446.182z"/>
			<path fill="none" stroke="#EF3340" stroke-width="49" stroke-miterlimit="10" d="M467,250.91"/>
		</g>
		
			<line fill="none" stroke="#EF3340" stroke-width="51.757" stroke-miterlimit="10" x1="611" y1="392.563" x2="327.134" y2="108.748"/>
	</g>
</g>
</svg>
