<?xml version="1.0" encoding="UTF-8" standalone="no"?>
<!-- Created with Inkscape (http://www.inkscape.org/) -->
<svg
   xmlns:svg="http://www.w3.org/2000/svg"
   xmlns="http://www.w3.org/2000/svg"
   version="1.0"
   width="800"
   height="800"
   viewBox="0 0 475.27441 450.19824"
   id="svg2276"
   xml:space="preserve"><defs
   id="defs2292" />
	
		<g
   transform="matrix(0.9452594,0,0,0.9452594,13.070046,5.940958)"
   id="Ebene_1">
			<g
   id="g2281">
				<path
   d="M 110.6001,0.8916016 C 120.5,-1.3081055 131.30029,0.5917969 139.7002,6.2915039 C 147.6001,11.691895 153.3999,20.091797 155.30029,29.591797 C 157.6001,40.691895 154.80029,52.791504 147.30029,61.491699 C 138.2002,72.491699 122.5,77.291504 108.80029,73.291504 C 96.899902,70.091797 87,60.691894 83.300293,48.991699 C 79.899902,38.791504 81.200195,27.191894 86.800293,17.991699 C 91.899902,9.2915039 100.80029,2.9916992 110.6001,0.8916016 L 110.6001,0.8916016 z "
   id="path2283" />
				<path
   d="M 375.2998,0.4916992 C 384,-0.4082031 393.09961,1.5917969 400.40039,6.6918945 C 410.40039,13.291504 416.7002,25.091797 416.7998,37.091797 C 417,48.491699 411.7002,59.891602 402.7002,66.891602 C 390.60059,76.691895 372.09961,77.691895 359.10059,68.991699 C 350,63.091797 343.59961,53.091797 342.40039,42.291504 C 341,32.091797 344.2002,21.591797 350.7002,13.691895 C 356.7998,6.3916016 365.7998,1.4916992 375.2998,0.4916992 L 375.2998,0.4916992 z "
   id="path2285" />
				<path
   d="M 233.5,33.891602 C 244.7002,33.791504 255.7998,33.791504 267,33.891602 C 267,58.791504 267,83.691895 267,108.5918 C 260.10059,108.5918 253.2002,108.69189 246.2998,108.5918 C 250.2998,113.8916 249.7998,121.69189 245.60059,126.7915 C 232.8999,142.2915 220.1001,157.69189 207.3999,173.19189 C 203.7002,178.19189 198.7002,183.19189 192,183.3916 C 184.80029,183.3916 179.30029,177.2915 177.1001,170.8916 C 173.2002,158.8916 169.5,146.69189 165.7002,134.5918 C 162.8999,134.5918 160.1001,134.5918 157.3999,134.5918 C 164.30029,158.4917 171.30029,182.3916 178.2002,206.3916 C 139.5,206.3916 100.8999,206.2915 62.200195,206.3916 C 68.600098,182.3916 75.200195,158.5918 81.600098,134.5918 C 79,134.5918 76.399902,134.5918 73.800293,134.5918 C 67.200195,158.4917 60.700195,182.3916 54.100098,206.2915 C 43.100098,206.2915 32.200195,206.3916 21.200195,206.2915 C 29,177.3916 36.899902,148.5918 44.700195,119.69189 C 46.600098,111.19189 52,104.0918 58,97.991699 C 67.100098,89.291504 79.200195,82.891602 92,82.791504 C 110.30029,82.891602 128.6001,82.791504 146.8999,82.891602 C 167.30029,83.691895 186.1001,97.791504 192.8999,116.9917 C 194.8999,123.19189 196.7002,129.4917 198.3999,135.7915 C 206.5,126.3916 214.30029,116.7915 222.3999,107.4917 C 225.2002,104.2915 229.30029,102.5918 233.5,102.2915 C 233.5,79.491699 233.5,56.691894 233.5,33.891602 L 233.5,33.891602 z "
   id="path2287" />
				<path
   d="M 317.40039,85.491699 C 323.7998,82.491699 331.09961,82.491699 338,82.591797 C 366.2998,82.591797 394.59961,82.591797 423,82.591797 C 431.5,82.691895 440.40039,85.391602 446.7002,91.391602 C 451.2002,95.691895 453.90039,101.7915 454,108.0918 C 454,143.69189 454,179.2915 454,214.8916 C 461.10059,214.7915 468.2002,214.7915 475.2002,214.8916 C 475.2998,228.9917 475.2998,243.19238 475.2002,257.29199 C 459,257.3916 442.7002,257.29199 426.5,257.3916 C 426.5,314.29199 426.5,371.19238 426.5,428.09082 C 426.2998,434.19238 423.90039,440.29199 419.2998,444.3916 C 411.5,451.3916 398.40039,451.49121 390.7002,444.3916 C 386,440.3916 383.5,434.19238 383.5,428.09082 C 383.5,371.19238 383.5,314.29199 383.5,257.3916 C 380.7998,257.29199 378,257.29199 375.2998,257.3916 C 375.2998,313.29199 375.2002,369.19238 375.2998,425.09082 C 375.40039,429.59082 374.90039,434.19238 373.09961,438.29199 C 370.7002,443.59082 366,447.59082 360.5,449.29199 C 353.10059,451.3916 344.40039,449.8916 338.7998,444.29199 C 334,439.99121 331.7998,433.3916 331.7998,427.09082 C 331.7002,370.49121 331.7998,313.8916 331.7002,257.3916 C 221.2002,257.29199 110.6001,257.3916 -5.6843419e-14,257.3916 L -5.6843419e-14,214.7915 C 110.6001,214.7915 221.2002,214.8916 331.7002,214.7915 C 331.7002,183.3916 331.7998,151.8916 331.7002,120.3916 C 308.7002,147.5918 285.7998,174.7915 262.7998,201.9917 C 260.40039,204.8916 257.5,207.4917 253.7998,208.5918 C 245.5,211.19189 235.8999,206.3916 232.5,198.4917 C 229.6001,192.5918 231,185.2915 235.30029,180.2915 C 259,151.69189 282.7998,123.19189 306.60059,94.591797 C 309.7002,91.091797 313,87.391602 317.40039,85.491699 L 317.40039,85.491699 z "
   id="path2289" />
			</g>
		</g>
	</svg>