<?xml version="1.0" encoding="UTF-8" standalone="no"?>
<svg
   xmlns:dc="http://purl.org/dc/elements/1.1/"
   xmlns:cc="http://creativecommons.org/ns#"
   xmlns:rdf="http://www.w3.org/1999/02/22-rdf-syntax-ns#"
   xmlns:svg="http://www.w3.org/2000/svg"
   xmlns="http://www.w3.org/2000/svg"
   xmlns:sodipodi="http://sodipodi.sourceforge.net/DTD/sodipodi-0.dtd"
   xmlns:inkscape="http://www.inkscape.org/namespaces/inkscape"
   width="513.5"
   height="398.75"
   id="svg2"
   sodipodi:version="0.32"
   inkscape:version="0.48.2 r9819"
   sodipodi:docname="Aiga_escalator_up.svg"
   inkscape:output_extension="org.inkscape.output.svg.inkscape"
   version="1.0">
  <metadata
     id="metadata23">
    <rdf:RDF>
      <cc:Work
         rdf:about="">
        <dc:format>image/svg+xml</dc:format>
        <dc:type
           rdf:resource="http://purl.org/dc/dcmitype/StillImage" />
        <dc:title></dc:title>
      </cc:Work>
    </rdf:RDF>
  </metadata>
  <defs
     id="defs21" />
  <sodipodi:namedview
     inkscape:window-height="581"
     inkscape:window-width="955"
     inkscape:pageshadow="2"
     inkscape:pageopacity="0.0"
     guidetolerance="10.0"
     gridtolerance="10.0"
     objecttolerance="10.0"
     borderopacity="1.0"
     bordercolor="#666666"
     pagecolor="#ffffff"
     id="base"
     width="513.5px"
     height="398.75px"
     inkscape:zoom="1.4948905"
     inkscape:cx="321.25"
     inkscape:cy="256.875"
     inkscape:window-x="-4"
     inkscape:window-y="-4"
     inkscape:current-layer="svg2"
     showgrid="false"
     inkscape:window-maximized="1" />
  <g
     transform="matrix(-1,0,0,1,330,0)"
     style="fill:#000000;fill-rule:evenodd;stroke:none"
     id="g4">
    <path
       d="M 33,68 C 52,68 67,53 67,34 67,16 52,0 33,0 15,0 0,16 0,34 0,53 15,68 33,68 z"
       id="path6"
       inkscape:connector-curvature="0" />
  </g>
  <g
     transform="matrix(-1,0,0,1,513,37)"
     style="fill:#000000;fill-rule:evenodd;stroke:none"
     id="g8">
    <path
       d="m 250,92 c 0,0 0,-21 0,-21 0,-46 -67,-45 -67,0 0,0 0,87 0,87 0,0 0,0 0,0 0,0 -63,63 -63,63 -6,6 -7,7 -19,7 0,0 -39,0 -39,0 -39,0 -62,35 -62,64 0,30 23,68 66,68 0,0 53,0 69,0 16,0 36,-7 52,-22 0,0 202,-201 202,-201 5,-4 7,-6 15,-6 0,0 27,0 49,0 25,0 59,-27 59,-66 0,-39 -35,-65 -60,-65 0,0 -79,0 -79,0 -17,0 -38,7 -50,19 0,0 -73,73 -73,73 z"
       id="path10"
       inkscape:connector-curvature="0" />
  </g>
  <g
     transform="matrix(-1,0,0,1,234,273)"
     style="fill:#000000;fill-rule:evenodd;stroke:none"
     id="g12">
    <path
       d="m 119,0 c 0,0 -71,0 -71,0 -20,0 -20,30 0,30 0,0 36,0 36,0 0,0 -69,69 -69,69 -15,15 7,37 23,21 0,0 68,-68 68,-68 0,0 0,36 0,36 0,19 30,20 30,0 0,0 0,-71 0,-71 C 136,7 129,0 119,0 z"
       id="path14"
       inkscape:connector-curvature="0" />
  </g>
  <g
     transform="matrix(-1,0,0,1,480,71)"
     style="fill:#ffffff;fill-rule:evenodd;stroke:none"
     id="g16">
    <path
       d="m 344,0 c 0,0 71,0 71,0 18,0 29,19 29,31 0,11 -8,32 -29,32 0,0 -43,0 -43,0 -18,0 -26,3 -36,13 0,0 -204,204 -204,204 -8,8 -19,12 -32,12 0,0 -67,0 -67,0 -17,0 -33,-15 -33,-34 0,-19 15,-30 30,-30 0,0 46,0 46,0 13,0 22,-4 30,-12 0,0 207,-207 207,-207 9,-8 17,-9 31,-9 z"
       id="path18"
       inkscape:connector-curvature="0" />
  </g>
</svg>
