<?xml version="1.0" encoding="UTF-8" standalone="no"?>
<!-- Created with Inkscape (http://www.inkscape.org/) -->
<svg xmlns:rdf="http://www.w3.org/1999/02/22-rdf-syntax-ns#" xmlns="http://www.w3.org/2000/svg" height="488" width="360" version="1.1" xmlns:cc="http://creativecommons.org/ns#" xmlns:dc="http://purl.org/dc/elements/1.1/">
 <metadata>
  <rdf:RDF>
   <cc:Work rdf:about="">
    <dc:format>image/svg+xml</dc:format>
    <dc:type rdf:resource="http://purl.org/dc/dcmitype/StillImage"/>
    <dc:title/>
   </cc:Work>
  </rdf:RDF>
 </metadata>
 <path d="m102.78,0.12076c-40.807,0-73.912,33.309-73.912,74.421,0,41.113,33.106,74.46,73.912,74.46,27.926,0,52.193-15.61,64.752-38.64h0.39148,1.2528,28.813l23.802-23.802,17.539,17.539,17.539-17.539,17.539,17.539,17.539-17.539,18.791,18.791,33.824-33.824v-6.2638l-27.55-27.559h-147.82-2.2315c-12.72-22.454-36.67-37.582-64.17-37.582zm-31.241,54.299c10.319,0,18.674,8.7097,18.674,19.457s-8.3544,19.496-18.674,19.496c-10.319,0-18.713-8.7489-18.713-19.496s8.3935-19.457,18.713-19.457z" fill-rule="evenodd" stroke-miterlimit="4" stroke-width="0" fill="#000"/>
 <path stroke-linejoin="miter" d="m178.9,181.03c-17.187,0.008-34.314,0.0292-34.314,0.0292l-42.225,0.61536c-15.959-0.56461-29.701,4.6029-38.182,23.149l-30.651,76.627c-22.311,6.1512-32.012,22.365-32.526,35.662v100.39h29.42v33.786c-1.4258,32.198,51.36,33.485,52.54-0.29303l0.61536-33.171h190.88l0.61,33.16c1.18,33.778,53.966,32.491,52.54,0.29302v-33.786h29.391v-100.39c-0.51457-13.296-10.215-29.51-32.526-35.662l-30.651-76.627c-8.481-18.546-22.193-23.714-38.152-23.149l-42.225-0.61536c-0.13484-0.035-17.362-0.038-34.548-0.0292zm-73.023,27.252c1.3348-0.007,2.7047,0.03,4.1317,0.0879l138.46,0.43954c12.671-0.29562,18.054-0.0242,23.442,11.956l22.065,59.455-229.65-0.32234,21.801-57.814c3.4-11.578,10.406-13.75,19.75-13.802zm-48.232,101.65c13.731,0,24.878,11.118,24.878,24.849s-11.147,24.878-24.878,24.878-24.849-11.147-24.849-24.878,11.118-24.849,24.849-24.849zm244.09,0c13.731,0,24.878,11.118,24.878,24.849s-11.147,24.878-24.878,24.878-24.849-11.147-24.849-24.878,11.118-24.849,24.849-24.849z" fill-rule="evenodd" stroke="#000" stroke-linecap="butt" stroke-miterlimit="4" stroke-width="2" fill="#000"/>
</svg>
