<?xml version="1.0" encoding="utf-8"?>
<!-- Generator: Adobe Illustrator 16.0.3, SVG Export Plug-In . SVG Version: 6.00 Build 0)  -->
<!DOCTYPE svg PUBLIC "-//W3C//DTD SVG 1.1//EN" "http://www.w3.org/Graphics/SVG/1.1/DTD/svg11.dtd">
<svg version="1.1" id="Layer_1" xmlns="http://www.w3.org/2000/svg" xmlns:xlink="http://www.w3.org/1999/xlink" x="0px" y="0px"
	 width="439.549px" height="439.548px" viewBox="251.727 28.726 439.549 439.548"
	 enable-background="new 251.727 28.726 439.549 439.548" xml:space="preserve">
<g>
	<g>
		<path stroke="#FFFFFF" stroke-width="0.958" stroke-miterlimit="10" d="M501.954,296.331h-92.27V351c0,30-45.527,30-45.527,0
			V231.633h-20.482c-29.289,0-29.555-40.465-0.688-40.465h36.625v0.049l115.513-0.041l70.09-70.089v35.703
			c0,0,48.348,48.345,48.498,48.499C625,217,618.5,231.314,608.106,231.314h-60.891L547,351c0,30-45.102,30-45.102,0v-54.67"/>
	</g>
	<g>
		
			<line fill="none" stroke="#FFFFFF" stroke-width="56.445" stroke-miterlimit="10" x1="615.223" y1="389.932" x2="331.986" y2="106.694"/>
		<g>
			<circle fill="none" stroke="#EF3340" stroke-width="49" stroke-miterlimit="10" cx="471.5" cy="248.5" r="195.274"/>
			<path fill="none" stroke="#EF3340" stroke-width="49" stroke-miterlimit="10" d="M471.5,248.502"/>
		</g>
		
			<line fill="none" stroke="#EF3340" stroke-width="51.757" stroke-miterlimit="10" x1="615.5" y1="390.155" x2="331.635" y2="106.34"/>
	</g>
</g>
</svg>
