<?xml version="1.0" encoding="UTF-8"?>
<svg xmlns="http://www.w3.org/2000/svg" width="359pt" height="500" viewBox="0 0 359 375">
  <defs>
    <clipPath id="a">
      <path d="M0 0h359v375H0z"/>
    </clipPath>
  </defs>
  <g clip-path="url(#a)">
    <path fill="none" stroke="#000" stroke-miterlimit="10" stroke-width=".1" d="M174.41861.995377C216.528152.971588 258.639893.950684 300.748901.989822c-.009384 11.839631.018067 23.679123-.014038 35.518753-33.981567-.023666-67.962814-.005386-101.944092-.009155-8.128463-11.831833-16.278594-23.648636-24.372161-35.504043Zm0 0"/>
    <path d="M174.41861.995377C216.528152.971588 258.639893.950684 300.748901.989822c-.009384 11.839631.018067 23.679123-.014038 35.518753-33.981567-.023666-67.962814-.005386-101.944092-.009155-8.128463-11.831833-16.278594-23.648636-24.372161-35.504043Zm0 0"/>
    <path fill="none" stroke="#000" stroke-miterlimit="10" stroke-width=".1" d="M15.750793 20.506271c23.434586.006043 46.870362-.032943 70.304184.018036 7.375153.232529 15.24672 5.61258 15.682084 13.456345.034561 25.043854-.008103 50.089325.020736 75.133865.010437 4.546234-1.437866 9.532883-5.374954 12.207581-4.663208 3.200241-10.609634 2.473373-15.957016 2.796097.170319 8.61557.011887 17.234619.087845 25.852172.104767 4.243744-1.310471 9.04393-5.11409 11.390915-2.95018 1.962479-6.987885 1.161576-9.53064-1.109787-16.713226-13.059555-33.434036-26.109497-50.118393-39.205795-.002426-33.513275-.002884-67.02626.000244-100.539429Zm0 0"/>
    <path d="M15.750793 20.506271c23.434586.006043 46.870362-.032943 70.304184.018036 7.375153.232529 15.24672 5.61258 15.682084 13.456345.034561 25.043854-.008103 50.089325.020736 75.133865.010437 4.546234-1.437866 9.532883-5.374954 12.207581-4.663208 3.200241-10.609634 2.473373-15.957016 2.796097.170319 8.61557.011887 17.234619.087845 25.852172.104767 4.243744-1.310471 9.04393-5.11409 11.390915-2.95018 1.962479-6.987885 1.161576-9.53064-1.109787-16.713226-13.059555-33.434036-26.109497-50.118393-39.205795-.002426-33.513275-.002884-67.02626.000244-100.539429Zm0 0"/>
    <path fill="none" stroke="#fff" stroke-miterlimit="10" stroke-width=".1" d="M34.419205 31.03212c16.887146-.065705 33.775558-.027024 50.662643-.022644 3.270844-.068039 7.065582 2.337921 6.909866 5.940979.028443 23.362655-.014083 46.726623.020707 70.089828.073135 1.863358-.238785 3.952118-1.799607 5.183869-2.637146 2.603012-6.675155 1.174347-9.960861 1.51831-.030746-14.294235.054123-28.59053-.038406-42.882889-.151856-5.199157-3.525147-9.595779-7.586701-12.538986-12.723297-9.113235-25.537887-18.101532-38.207641-27.288467Zm0 0"/>
    <path fill="#fff" d="M34.419205 31.03212c16.887146-.065705 33.775558-.027024 50.662643-.022644 3.270844-.068039 7.065582 2.337921 6.909866 5.940979.028443 23.362655-.014083 46.726623.020707 70.089828.073135 1.863358-.238785 3.952118-1.799607 5.183869-2.637146 2.603012-6.675155 1.174347-9.960861 1.51831-.030746-14.294235.054123-28.59053-.038406-42.882889-.151856-5.199157-3.525147-9.595779-7.586701-12.538986-12.723297-9.113235-25.537887-18.101532-38.207641-27.288467Zm0 0"/>
    <path fill="none" stroke="#000" stroke-miterlimit="10" stroke-width=".1" d="M199.702652 47.315002c33.761246-.152923 67.525619-.014373 101.288422-.069274.022094 8.909301-.005814 17.818649.018386 26.728225-.170608 13.211563-6.140182 26.200882-16.077209 34.917649-11.366531 10.322631-27.717545 15.03746-42.799118 11.907913-14.313599-2.680985-27.316879-12.201737-33.68779-25.363877-3.427856-6.798751-5.161377-14.440216-4.981354-22.053024-8.045379-.321014-16.102981-.008026-24.152191-.16423 6.675949-8.728241 13.705048-17.182129 20.390854-25.903382Zm0 0"/>
    <path d="M199.702652 47.315002c33.761246-.152923 67.525619-.014373 101.288422-.069274.022094 8.909301-.005814 17.818649.018386 26.728225-.170608 13.211563-6.140182 26.200882-16.077209 34.917649-11.366531 10.322631-27.717545 15.03746-42.799118 11.907913-14.313599-2.680985-27.316879-12.201737-33.68779-25.363877-3.427856-6.798751-5.161377-14.440216-4.981354-22.053024-8.045379-.321014-16.102981-.008026-24.152191-.16423 6.675949-8.728241 13.705048-17.182129 20.390854-25.903382Zm0 0"/>
    <path fill="none" stroke="#000" stroke-miterlimit="10" stroke-width=".1" d="M145.556885 155.464798c7.556457-9.653946 18.871856-16.950516 31.453125-16.937408 39.725311-.058899 79.452286-.010254 119.178543-.02385-38.517304 51.077713-76.966355 102.214722-115.661362 153.156296-.062042-35.024597-.002334-70.049286-.029907-105.073746-16.907379 22.407791-33.654511 44.938324-50.485764 67.403748-4.194198 4.857071-10.68396 7.577514-17.072647 7.528503-6.450943-.134079-12.55989-2.908234-17.63652-6.751511-23.292603-18.396896-46.641617-36.724426-69.937134-55.11734-5.01506-3.991607-8.720947-10.083023-8.652359-16.626693-.626099-12.609909 10.694428-24.332825 23.308716-24.253098 5.385223.040054 10.630554 2.122269 14.838653 5.430786 17.633301 13.937012 35.206116 27.951874 52.854996 41.869248 12.643601-16.846299 25.145401-33.798905 37.84166-50.604935Zm0 0"/>
    <path d="M145.556885 155.464798c7.556457-9.653946 18.871856-16.950516 31.453125-16.937408 39.725311-.058899 79.452286-.010254 119.178543-.02385-38.517304 51.077713-76.966355 102.214722-115.661362 153.156296-.062042-35.024597-.002334-70.049286-.029907-105.073746-16.907379 22.407791-33.654511 44.938324-50.485764 67.403748-4.194198 4.857071-10.68396 7.577514-17.072647 7.528503-6.450943-.134079-12.55989-2.908234-17.63652-6.751511-23.292603-18.396896-46.641617-36.724426-69.937134-55.11734-5.01506-3.991607-8.720947-10.083023-8.652359-16.626693-.626099-12.609909 10.694428-24.332825 23.308716-24.253098 5.385223.040054 10.630554 2.122269 14.838653 5.430786 17.633301 13.937012 35.206116 27.951874 52.854996 41.869248 12.643601-16.846299 25.145401-33.798905 37.84166-50.604935Zm0 0"/>
    <path fill="none" stroke="#000" stroke-miterlimit="10" stroke-width=".1" d="M207.311325 296.48613c39.067535-52.660736 78.227341-105.253388 117.397842-157.837815 9.243454.289841 18.959641 3.35048 25.017014 10.697388 7.00734 8.100037 8.285019 19.358612 8.030472 29.667587-.0177 65.328873-.003174 130.657639-.007248 195.98671H180.748901c.002243-17.831635-.004577-35.662598.003357-53.493362 42.916062-.015763 85.832047.007568 128.748352-.011597.001511-8.330933.001618-16.660812-.000045-24.990082-34.063309-.024322-68.126297.013382-102.18924-.018829Zm0 0"/>
    <path d="M207.311325 296.48613c39.067535-52.660736 78.227341-105.253388 117.397842-157.837815 9.243454.289841 18.959641 3.35048 25.017014 10.697388 7.00734 8.100037 8.285019 19.358612 8.030472 29.667587-.0177 65.328873-.003174 130.657639-.007248 195.98671H180.748901c.002243-17.831635-.004577-35.662598.003357-53.493362 42.916062-.015763 85.832047.007568 128.748352-.011597.001511-8.330933.001618-16.660812-.000045-24.990082-34.063309-.024322-68.126297.013382-102.18924-.018829Zm0 0"/>
  </g>
</svg>