<?xml version="1.0" encoding="UTF-8" standalone="no"?>
<svg
   width="500"
   height="500"
   viewBox="0 0 500 500"
   version="1.1"
   id="svg13"
   sodipodi:docname="BSicon PASSPORT.svg"
   inkscape:version="1.4.2 (f4327f4, 2025-05-13)"
   xmlns:inkscape="http://www.inkscape.org/namespaces/inkscape"
   xmlns:sodipodi="http://sodipodi.sourceforge.net/DTD/sodipodi-0.dtd"
   xmlns="http://www.w3.org/2000/svg"
   xmlns:svg="http://www.w3.org/2000/svg">
  <sodipodi:namedview
     id="namedview13"
     pagecolor="#ffffff"
     bordercolor="#000000"
     borderopacity="0.25"
     inkscape:showpageshadow="2"
     inkscape:pageopacity="0.0"
     inkscape:pagecheckerboard="0"
     inkscape:deskcolor="#d1d1d1"
     inkscape:document-units="px"
     inkscape:zoom="1.167"
     inkscape:cx="320.05141"
     inkscape:cy="237.7892"
     inkscape:window-width="2560"
     inkscape:window-height="1369"
     inkscape:window-x="-8"
     inkscape:window-y="-8"
     inkscape:window-maximized="1"
     inkscape:current-layer="svg13" />
  <defs
     id="defs1">
    <clipPath
       id="a">
      <path
         d="M 0,0 H 359 V 375 H 0 Z"
         id="path1" />
    </clipPath>
  </defs>
  <g
     clip-path="url(#a)"
     id="g13"
     transform="matrix(1.3366054,0,0,1.3366054,0.36561442,-1.2270259)">
    <path
       fill="none"
       stroke="#000000"
       stroke-miterlimit="10"
       stroke-width="0.1"
       d="m 174.41861,0.995377 c 42.10954,-0.023789 84.22128,-0.044693 126.33029,-0.005555 -0.009,11.839631 0.0181,23.679123 -0.014,35.518753 -33.98156,-0.02367 -67.96281,-0.0054 -101.94409,-0.0092 -8.1285,-11.831788 -16.27863,-23.648591 -24.3722,-35.503998 z m 0,0"
       id="path2" />
    <path
       d="m 174.41861,0.995377 c 42.10954,-0.023789 84.22128,-0.044693 126.33029,-0.005555 -0.009,11.839631 0.0181,23.679123 -0.014,35.518753 -33.98156,-0.02367 -67.96281,-0.0054 -101.94409,-0.0092 -8.1285,-11.831788 -16.27863,-23.648591 -24.3722,-35.503998 z m 0,0"
       id="path3" />
    <path
       fill="none"
       stroke="#000000"
       stroke-miterlimit="10"
       stroke-width="0.1"
       d="m 15.750793,20.506271 c 23.434586,0.006 46.870362,-0.03294 70.304184,0.01804 7.375153,0.232529 15.246723,5.61258 15.682083,13.456345 0.0346,25.043854 -0.008,50.089325 0.0207,75.133864 0.0104,4.54623 -1.43787,9.53288 -5.374957,12.20758 -4.663208,3.20024 -10.609634,2.47337 -15.957016,2.7961 0.170319,8.61556 0.01189,17.23461 0.08785,25.85217 0.104767,4.24374 -1.310471,9.04393 -5.11409,11.39091 -2.95018,1.96248 -6.987885,1.16158 -9.53064,-1.10979 C 49.155716,147.19194 32.434906,134.142 15.750549,121.0457 c -0.0024,-33.513275 -0.0029,-67.02626 2.44e-4,-100.539429 z m 0,0"
       id="path4" />
    <path
       d="m 15.750793,20.506271 c 23.434586,0.006 46.870362,-0.03294 70.304184,0.01804 7.375153,0.232529 15.246723,5.61258 15.682083,13.456345 0.0346,25.043854 -0.008,50.089325 0.0207,75.133864 0.0104,4.54623 -1.43787,9.53288 -5.374957,12.20758 -4.663208,3.20024 -10.609634,2.47337 -15.957016,2.7961 0.170319,8.61556 0.01189,17.23461 0.08785,25.85217 0.104767,4.24374 -1.310471,9.04393 -5.11409,11.39091 -2.95018,1.96248 -6.987885,1.16158 -9.53064,-1.10979 C 49.155716,147.19194 32.434906,134.142 15.750549,121.0457 c -0.0024,-33.513275 -0.0029,-67.02626 2.44e-4,-100.539429 z m 0,0"
       id="path5" />
    <path
       fill="none"
       stroke="#ffffff"
       stroke-miterlimit="10"
       stroke-width="0.1"
       d="m 34.419205,31.03212 c 16.887146,-0.0657 33.775558,-0.02702 50.662643,-0.02264 3.270844,-0.06804 7.065582,2.337921 6.909866,5.940979 0.02844,23.362655 -0.01408,46.726623 0.02071,70.089821 0.07313,1.86336 -0.238785,3.95212 -1.799607,5.18387 -2.637146,2.60301 -6.675155,1.17435 -9.960861,1.51831 -0.03075,-14.294229 0.05412,-28.590524 -0.03841,-42.882883 C 80.061691,65.660416 76.6884,61.263794 72.626846,58.320587 59.903549,49.207352 47.088959,40.219055 34.419205,31.03212 Z m 0,0"
       id="path6" />
    <path
       fill="#ffffff"
       d="m 34.419205,31.03212 c 16.887146,-0.0657 33.775558,-0.02702 50.662643,-0.02264 3.270844,-0.06804 7.065582,2.337921 6.909866,5.940979 0.02844,23.362655 -0.01408,46.726623 0.02071,70.089821 0.07313,1.86336 -0.238785,3.95212 -1.799607,5.18387 -2.637146,2.60301 -6.675155,1.17435 -9.960861,1.51831 -0.03075,-14.294229 0.05412,-28.590524 -0.03841,-42.882883 C 80.061691,65.660416 76.6884,61.263794 72.626846,58.320587 59.903549,49.207352 47.088959,40.219055 34.419205,31.03212 Z m 0,0"
       id="path7" />
    <path
       fill="none"
       stroke="#000000"
       stroke-miterlimit="10"
       stroke-width="0.1"
       d="m 199.70265,47.315002 c 33.76125,-0.152923 67.52562,-0.01437 101.28842,-0.06927 0.0221,8.909301 -0.006,17.818649 0.0184,26.728225 -0.17061,13.211563 -6.14018,26.200883 -16.07721,34.917643 -11.36653,10.32263 -27.71754,15.03746 -42.79912,11.90791 -14.3136,-2.68098 -27.31688,-12.20173 -33.68779,-25.363868 -3.42785,-6.798751 -5.16137,-14.440216 -4.98135,-22.053024 -8.04538,-0.321014 -16.10298,-0.008 -24.15219,-0.16423 6.67595,-8.728241 13.70505,-17.182129 20.39085,-25.903382 z m 0,0"
       id="path8" />
    <path
       d="m 199.70265,47.315002 c 33.76125,-0.152923 67.52562,-0.01437 101.28842,-0.06927 0.0221,8.909301 -0.006,17.818649 0.0184,26.728225 -0.17061,13.211563 -6.14018,26.200883 -16.07721,34.917643 -11.36653,10.32263 -27.71754,15.03746 -42.79912,11.90791 -14.3136,-2.68098 -27.31688,-12.20173 -33.68779,-25.363868 -3.42785,-6.798751 -5.16137,-14.440216 -4.98135,-22.053024 -8.04538,-0.321014 -16.10298,-0.008 -24.15219,-0.16423 6.67595,-8.728241 13.70505,-17.182129 20.39085,-25.903382 z m 0,0"
       id="path9" />
    <path
       fill="none"
       stroke="#000000"
       stroke-miterlimit="10"
       stroke-width="0.1"
       d="m 145.55688,155.4648 c 7.55646,-9.65395 18.87186,-16.95052 31.45313,-16.93741 39.72531,-0.0589 79.45229,-0.0102 119.17854,-0.0239 -38.5173,51.07771 -76.96635,102.21472 -115.66136,153.1563 -0.062,-35.0246 -0.002,-70.04929 -0.0299,-105.07375 -16.90737,22.40779 -33.65451,44.93832 -50.48576,67.40375 -4.1942,4.85707 -10.68396,7.57751 -17.07265,7.5285 -6.45094,-0.13408 -12.55989,-2.90823 -17.636517,-6.75151 -23.292603,-18.3969 -46.641617,-36.72443 -69.937134,-55.11734 -5.01506,-3.99161 -8.720947,-10.08302 -8.652359,-16.62669 -0.626099,-12.60991 10.694428,-24.33283 23.308716,-24.2531 5.385223,0.0401 10.630554,2.12227 14.838653,5.43078 17.633301,13.93702 35.206116,27.95188 52.855001,41.86925 12.6436,-16.8463 25.1454,-33.7989 37.84165,-50.60493 z m 0,0"
       id="path10" />
    <path
       d="m 145.55688,155.4648 c 7.55646,-9.65395 18.87186,-16.95052 31.45313,-16.93741 39.72531,-0.0589 79.45229,-0.0102 119.17854,-0.0239 -38.5173,51.07771 -76.96635,102.21472 -115.66136,153.1563 -0.062,-35.0246 -0.002,-70.04929 -0.0299,-105.07375 -16.90737,22.40779 -33.65451,44.93832 -50.48576,67.40375 -4.1942,4.85707 -10.68396,7.57751 -17.07265,7.5285 -6.45094,-0.13408 -12.55989,-2.90823 -17.636517,-6.75151 -23.292603,-18.3969 -46.641617,-36.72443 -69.937134,-55.11734 -5.01506,-3.99161 -8.720947,-10.08302 -8.652359,-16.62669 -0.626099,-12.60991 10.694428,-24.33283 23.308716,-24.2531 5.385223,0.0401 10.630554,2.12227 14.838653,5.43078 17.633301,13.93702 35.206116,27.95188 52.855001,41.86925 12.6436,-16.8463 25.1454,-33.7989 37.84165,-50.60493 z m 0,0"
       id="path11" />
    <path
       fill="none"
       stroke="#000000"
       stroke-miterlimit="10"
       stroke-width="0.1"
       d="m 207.31132,296.48613 c 39.06754,-52.66074 78.22735,-105.25339 117.39785,-157.83782 9.24345,0.28985 18.95964,3.35048 25.01701,10.69739 7.00734,8.10004 8.28502,19.35861 8.03047,29.66759 -0.0177,65.32887 -0.003,130.65764 -0.007,195.98671 H 180.7489 c 0.002,-17.83164 -0.005,-35.6626 0.003,-53.49336 42.91606,-0.0158 85.83204,0.008 128.74835,-0.0116 0.002,-8.33093 0.002,-16.66081 -5e-5,-24.99008 -34.0633,-0.0243 -68.12629,0.0134 -102.18924,-0.0188 z m 0,0"
       id="path12" />
    <path
       d="m 207.31132,296.48613 c 39.06754,-52.66074 78.22735,-105.25339 117.39785,-157.83782 9.24345,0.28985 18.95964,3.35048 25.01701,10.69739 7.00734,8.10004 8.28502,19.35861 8.03047,29.66759 -0.0177,65.32887 -0.003,130.65764 -0.007,195.98671 H 180.7489 c 0.002,-17.83164 -0.005,-35.6626 0.003,-53.49336 42.91606,-0.0158 85.83204,0.008 128.74835,-0.0116 0.002,-8.33093 0.002,-16.66081 -5e-5,-24.99008 -34.0633,-0.0243 -68.12629,0.0134 -102.18924,-0.0188 z m 0,0"
       id="path13" />
  </g>
</svg>
