<?xml version="1.0" encoding="UTF-8" standalone="no"?>
<!-- Created with Inkscape (http://www.inkscape.org/) -->

<svg
   height="500"
   width="500"
   version="1.1"
   id="svg2"
   sodipodi:docname="Aiga_carrental.svg"
   inkscape:version="1.4.2 (f4327f4, 2025-05-13)"
   xmlns:inkscape="http://www.inkscape.org/namespaces/inkscape"
   xmlns:sodipodi="http://sodipodi.sourceforge.net/DTD/sodipodi-0.dtd"
   xmlns="http://www.w3.org/2000/svg"
   xmlns:svg="http://www.w3.org/2000/svg"
   xmlns:rdf="http://www.w3.org/1999/02/22-rdf-syntax-ns#"
   xmlns:cc="http://creativecommons.org/ns#"
   xmlns:dc="http://purl.org/dc/elements/1.1/">
  <defs
     id="defs2" />
  <sodipodi:namedview
     id="namedview2"
     pagecolor="#ffffff"
     bordercolor="#000000"
     borderopacity="0.25"
     inkscape:showpageshadow="2"
     inkscape:pageopacity="0.0"
     inkscape:pagecheckerboard="0"
     inkscape:deskcolor="#d1d1d1"
     inkscape:zoom="0.84548526"
     inkscape:cx="560.03342"
     inkscape:cy="289.18304"
     inkscape:window-width="2560"
     inkscape:window-height="1369"
     inkscape:window-x="-8"
     inkscape:window-y="-8"
     inkscape:window-maximized="1"
     inkscape:current-layer="svg2" />
  <metadata
     id="metadata1">
    <rdf:RDF>
      <cc:Work
         rdf:about="">
        <dc:format>image/svg+xml</dc:format>
        <dc:type
           rdf:resource="http://purl.org/dc/dcmitype/StillImage" />
      </cc:Work>
    </rdf:RDF>
  </metadata>
  <g
     id="g2"
     transform="translate(70.99982,11.497388)">
    <path
       d="m 95.06504,0.12076 c -40.807,0 -73.912,33.309 -73.912,74.421 0,41.113 33.106,74.46 73.912,74.46 27.926,0 52.193,-15.61 64.752,-38.64 h 0.39148 1.2528 28.813 l 23.802,-23.802 17.539,17.539 17.539,-17.539 17.539,17.539 17.539,-17.539 18.791,18.791 33.824,-33.824 v -6.2638 l -27.55,-27.559 h -147.82 -2.2315 c -12.72,-22.454 -36.67,-37.582 -64.17,-37.582 z m -31.241,54.299 c 10.319,0 18.674,8.7097 18.674,19.457 0,10.7473 -8.3544,19.496 -18.674,19.496 -10.319,0 -18.713,-8.7489 -18.713,-19.496 0,-10.7471 8.3935,-19.457 18.713,-19.457 z"
       fill-rule="evenodd"
       stroke-miterlimit="4"
       stroke-width="0"
       fill="#000000"
       id="path1" />
    <path
       stroke-linejoin="miter"
       d="m 178.9,181.03 c -17.187,0.008 -34.314,0.0292 -34.314,0.0292 l -42.225,0.61536 c -15.959,-0.56461 -29.701,4.6029 -38.182,23.149 l -30.651,76.627 c -22.311,6.1512 -32.012,22.365 -32.526,35.662 v 100.39 h 29.42 v 33.786 c -1.4258,32.198 51.36,33.485 52.54,-0.29303 l 0.61536,-33.171 h 190.88 l 0.61,33.16 c 1.18,33.778 53.966,32.491 52.54,0.29302 v -33.786 h 29.391 v -100.39 c -0.51457,-13.296 -10.215,-29.51 -32.526,-35.662 l -30.651,-76.627 c -8.481,-18.546 -22.193,-23.714 -38.152,-23.149 l -42.225,-0.61536 c -0.13484,-0.035 -17.362,-0.038 -34.548,-0.0292 z m -73.023,27.252 c 1.3348,-0.007 2.7047,0.03 4.1317,0.0879 l 138.46,0.43954 c 12.671,-0.29562 18.054,-0.0242 23.442,11.956 l 22.065,59.455 -229.65,-0.32234 21.801,-57.814 c 3.4,-11.578 10.406,-13.75 19.75,-13.802 z m -48.232,101.65 c 13.731,0 24.878,11.118 24.878,24.849 0,13.731 -11.147,24.878 -24.878,24.878 -13.731,0 -24.849,-11.147 -24.849,-24.878 0,-13.731 11.118,-24.849 24.849,-24.849 z m 244.09,0 c 13.731,0 24.878,11.118 24.878,24.849 0,13.731 -11.147,24.878 -24.878,24.878 -13.731,0 -24.849,-11.147 -24.849,-24.878 0,-13.731 11.118,-24.849 24.849,-24.849 z"
       fill-rule="evenodd"
       stroke="#000000"
       stroke-linecap="butt"
       stroke-miterlimit="4"
       stroke-width="2"
       fill="#000000"
       id="path2" />
  </g>
</svg>
