<?xml version="1.0" encoding="UTF-8" standalone="no"?>
<!-- Created with Inkscape (http://www.inkscape.org/) -->
<svg
   xmlns:dc="http://purl.org/dc/elements/1.1/"
   xmlns:cc="http://web.resource.org/cc/"
   xmlns:rdf="http://www.w3.org/1999/02/22-rdf-syntax-ns#"
   xmlns:svg="http://www.w3.org/2000/svg"
   xmlns="http://www.w3.org/2000/svg"
   xmlns:sodipodi="http://inkscape.sourceforge.net/DTD/sodipodi-0.dtd"
   xmlns:inkscape="http://www.inkscape.org/namespaces/inkscape"
   id="svg1415"
   sodipodi:version="0.32"
   inkscape:version="0.43"
   width="1036.28pt"
   height="831.89001pt"
   sodipodi:docbase="/media/sde1/Pictures/wikis/wikimedia_commons/convert_to_svg"
   sodipodi:docname="smoking.svg"
   version="1.0">
  <metadata
     id="metadata1420">
    <rdf:RDF>
      <cc:Work
         rdf:about="">
        <dc:format>image/svg+xml</dc:format>
        <dc:type
           rdf:resource="http://purl.org/dc/dcmitype/StillImage" />
      </cc:Work>
    </rdf:RDF>
  </metadata>
  <defs
     id="defs1418" />
  <sodipodi:namedview
     inkscape:window-height="952"
     inkscape:window-width="1272"
     inkscape:pageshadow="2"
     inkscape:pageopacity="0.0"
     borderopacity="1.0"
     bordercolor="#666666"
     pagecolor="#ffffff"
     id="base"
     inkscape:zoom="0.35539095"
     inkscape:cx="372.04724"
     inkscape:cy="526.18109"
     inkscape:window-x="0"
     inkscape:window-y="24"
     inkscape:current-layer="svg1415" />
  <g
     id="g1424"
     transform="matrix(2.90551,0,0,3.286746,258.8698,-19.69654)">
    <path
       style="fill:#010101"
       d="M -87.127743,290.34319 L -87.127743,259.85091 L 101.62225,260.1035 L 290.37225,260.3561 L 290.63867,289.3561 C 290.8814,315.77771 290.75265,318.46769 289.19058,319.61119 C 287.82952,320.60754 248.86299,320.8631 100.17416,320.85087 L -87.127743,320.83547 L -87.127743,290.34319 z M 302.32514,318.59393 C 302.05875,317.89973 301.96037,304.28723 302.10652,288.34393 L 302.37225,259.3561 L 311.87225,259.3561 L 321.37225,259.3561 L 321.63691,289.6061 L 321.90158,319.8561 L 312.35553,319.8561 C 305.59208,319.8561 302.6683,319.48819 302.32514,318.59393 z M 334.10759,289.6061 L 334.37225,259.3561 L 344.12225,259.06989 L 353.87225,258.78368 L 353.87225,289.31989 L 353.87225,319.8561 L 343.85759,319.8561 L 333.84292,319.8561 L 334.10759,289.6061 z M 302.53892,248.18943 C 302.17225,247.82277 301.87225,240.86992 301.87225,232.73865 C 301.87225,224.60739 301.38985,215.70518 300.80025,212.95596 C 299.55015,207.12696 295.16935,200.62594 290.59201,197.80715 C 282.67328,192.93068 279.59906,192.57955 239.31621,191.95043 L 201.26018,191.3561 L 193.67155,187.60354 C 176.31909,179.02276 165.95705,160.28064 167.11196,139.5644 C 167.38955,134.58506 167.15397,131.52468 166.45929,131.08555 C 165.86142,130.70762 162.30172,129.61332 158.54885,128.65378 C 130.95754,121.59916 111.89428,97.773314 111.90439,70.356104 C 111.91526,40.913122 131.21288,15.847603 158.2023,10.220148 C 162.06222,9.4153335 166.37951,8.8916815 167.79629,9.0564775 C 170.33327,9.3515715 170.3766,9.4962425 170.65991,18.616536 C 170.94466,27.782945 170.92115,27.887014 168.34481,28.866536 C 166.91329,29.410799 164.88823,29.856105 163.84466,29.856105 C 159.4379,29.856105 150.62093,34.233101 145.38125,39.021871 C 135.63578,47.928684 130.32112,63.413544 132.67164,76.052804 C 136.64174,97.400974 154.36831,110.79234 178.72225,110.84132 C 185.73925,110.85543 186.22629,111.01014 189.47225,114.2561 C 193.40012,118.18397 193.76612,121.17572 190.98799,126.64594 C 184.59543,139.23309 186.71935,155.27314 196.034,164.75387 C 202.44674,171.28095 202.51588,171.29136 243.87225,171.95697 C 284.30235,172.60768 286.16486,172.83351 297.74129,178.48861 C 304.70734,181.89154 312.82331,189.85261 316.27943,196.67293 C 320.90576,205.80254 321.87225,211.74604 321.87225,231.0662 L 321.87225,248.8561 L 312.53892,248.8561 C 307.40558,248.8561 302.90558,248.5561 302.53892,248.18943 z M 333.4121,246.6061 C 333.13805,245.3686 332.7694,233.7811 332.59286,220.8561 C 332.28734,198.48854 332.14301,196.97059 329.59765,189.3561 C 323.78062,171.95433 312.28121,158.1123 297.64991,150.90007 C 286.04975,145.18198 277.87773,143.8561 254.23462,143.8561 C 232.65281,143.8561 230.12026,143.28328 227.8893,137.89727 C 226.21595,133.85744 226.99147,130.56108 231.29768,123.40991 C 237.95856,112.34842 239.27684,107.66044 239.3271,94.856104 C 239.37123,83.616294 239.28855,83.180834 235.67305,75.609284 C 228.89517,61.415124 216.24995,52.335214 199.37225,49.543464 L 191.37225,48.220174 L 191.37225,38.788139 L 191.37225,29.356105 L 196.17803,29.049036 C 202.7644,28.628194 215.84776,32.068575 224.87225,36.594427 C 233.82664,41.085119 245.76743,52.011264 250.74943,60.272744 C 260.68937,76.755794 263.04999,98.400184 256.86758,116.36967 C 255.78499,119.51626 255.14472,122.48796 255.44476,122.97343 C 255.7448,123.4589 260.87414,123.8561 266.8433,123.8561 C 272.81246,123.8561 281.04476,124.49676 285.13732,125.2798 C 317.03153,131.38217 341.74066,155.28986 350.56769,188.58794 C 352.93944,197.53485 353.19649,200.47898 353.62509,223.6061 L 354.09303,248.8561 L 344.00169,248.8561 C 334.3509,248.8561 333.8886,248.75787 333.4121,246.6061 z "
       id="path1426" />
  </g>
</svg>
