<?xml version="1.0" encoding="utf-8"?>
<!-- Generator: Adobe Illustrator 16.0.3, SVG Export Plug-In . SVG Version: 6.00 Build 0)  -->
<!DOCTYPE svg PUBLIC "-//W3C//DTD SVG 1.1//EN" "http://www.w3.org/Graphics/SVG/1.1/DTD/svg11.dtd">
<svg version="1.1" id="Layer_1" xmlns="http://www.w3.org/2000/svg" xmlns:xlink="http://www.w3.org/1999/xlink" x="0px" y="0px"
	 width="708.799px" height="170.215px" viewBox="0 0 708.799 170.215" enable-background="new 0 0 708.799 170.215"
	 xml:space="preserve">
<rect x="2.109" y="1.688" fill="#CACCCB" stroke="#010101" stroke-width="2.5" stroke-miterlimit="10" width="344.592" height="167.715"/>
<rect x="362.441" y="1.688" fill="#CACCCB" stroke="#010101" stroke-width="2.5" stroke-miterlimit="10" width="345.967" height="167.715"/>
<g>
	<path fill="#010101" d="M158.048,123.078h-4.596c-0.175-2.521-1.843-3.781-5.005-3.781c-1.265,0-2.268,0.271-3.01,0.811
		s-1.112,1.263-1.112,2.166c0,0.882,0.319,1.537,0.958,1.968c0.639,0.43,1.839,0.821,3.601,1.174l3.72,0.703
		c2.15,0.437,3.715,1.173,4.694,2.21c0.979,1.037,1.469,2.493,1.469,4.37c0,2.401-0.852,4.277-2.554,5.629
		c-1.702,1.353-4.073,2.028-7.111,2.028c-3.05,0-5.417-0.674-7.102-2.021c-1.685-1.347-2.604-3.292-2.755-5.835h4.76
		c0.085,1.304,0.585,2.298,1.501,2.982c0.915,0.685,2.201,1.027,3.858,1.027c1.482,0,2.653-0.286,3.515-0.857
		c0.861-0.571,1.292-1.362,1.292-2.374c0-0.967-0.335-1.714-1.003-2.241c-0.668-0.528-1.812-0.946-3.428-1.254l-3.328-0.641
		c-2.412-0.459-4.129-1.181-5.15-2.165s-1.532-2.405-1.532-4.264c0-2.313,0.784-4.102,2.35-5.366
		c1.567-1.264,3.767-1.896,6.598-1.896c0.831,0,1.633,0.055,2.409,0.163s1.6,0.331,2.474,0.668s1.628,0.771,2.262,1.304
		c0.633,0.533,1.163,1.271,1.589,2.217S158.048,121.839,158.048,123.078z"/>
	<path fill="#010101" d="M178.096,139.605H173.5v-2.064c-1.255,1.877-3.006,2.814-5.255,2.814c-1.878,0-3.334-0.533-4.372-1.598
		s-1.555-2.564-1.555-4.498v-12.258h4.596v11.338c0,2.112,0.973,3.169,2.919,3.169c1.103,0,1.99-0.316,2.66-0.947
		c0.67-0.632,1.005-1.471,1.005-2.516v-11.044h4.596V139.605z"/>
	<path fill="#010101" d="M191.734,121.709c2.114,0,3.878,0.875,5.295,2.624c1.417,1.75,2.125,3.982,2.125,6.699
		c0,2.651-0.708,4.868-2.125,6.65s-3.181,2.673-5.295,2.673c-2.143,0-3.755-0.854-4.837-2.562v1.812h-4.596v-23.765h4.596v8.465
		C187.979,122.575,189.592,121.709,191.734,121.709z M193.487,127.095c-0.714-1.025-1.634-1.539-2.759-1.539
		s-2.045,0.503-2.759,1.507c-0.714,1.005-1.071,2.307-1.071,3.905c0,1.663,0.352,3.003,1.055,4.018
		c0.703,1.016,1.628,1.523,2.775,1.523c1.125,0,2.045-0.508,2.759-1.523c0.714-1.015,1.071-2.322,1.071-3.921
		C194.558,129.444,194.201,128.121,193.487,127.095z"/>
	<path fill="#010101" d="M220.535,139.605h-4.691l-2.646-12.444l-2.809,12.444h-4.691l-4.955-17.604h4.727l2.804,12.321
		l2.681-12.321h4.546l2.622,12.33l2.673-12.33h4.727L220.535,139.605z"/>
	<path fill="#010101" d="M232.563,140.355c-1.617,0-2.917-0.486-3.9-1.457c-0.983-0.972-1.475-2.254-1.475-3.848
		c0-3.09,1.738-4.926,5.212-5.51l1.816-0.324c0.042,0,0.259-0.026,0.648-0.08c0.389-0.055,0.638-0.098,0.746-0.13
		s0.319-0.081,0.633-0.146c0.313-0.064,0.535-0.14,0.665-0.227c0.129-0.086,0.286-0.199,0.47-0.34
		c0.183-0.141,0.308-0.303,0.373-0.486s0.097-0.395,0.097-0.633c0-1.166-0.875-1.75-2.626-1.75c-1.124,0-1.913,0.172-2.367,0.515
		c-0.455,0.344-0.735,0.965-0.843,1.865h-4.43c0.283-4.063,2.797-6.096,7.542-6.096c4.879,0,7.32,1.812,7.32,5.434v9.728
		c0,0.813,0.347,1.538,1.043,2.175v0.561h-5.069c-0.359-0.439-0.538-1.032-0.538-1.779
		C236.281,139.513,234.508,140.355,232.563,140.355z M237.848,132.523v-1.232c-0.41,0.195-1.048,0.379-1.913,0.552l-1.556,0.291
		c-0.952,0.194-1.622,0.476-2.011,0.843s-0.583,0.886-0.583,1.556c0,0.648,0.222,1.162,0.665,1.54
		c0.443,0.378,1.042,0.566,1.8,0.566c1.146,0,2.032-0.356,2.659-1.069C237.534,134.856,237.848,133.841,237.848,132.523z"/>
	<path fill="#010101" d="M251.213,140.368v-0.129l-6.552-18.237h5.02l3.879,12.753l3.651-12.753h4.694l-7.237,20.754
		c0,0.021-0.043,0.168-0.13,0.439c-0.087,0.27-0.158,0.454-0.212,0.552s-0.142,0.286-0.261,0.565
		c-0.12,0.279-0.244,0.48-0.375,0.604s-0.305,0.302-0.522,0.537c-0.217,0.234-0.462,0.413-0.733,0.536
		c-0.272,0.123-0.582,0.252-0.929,0.387c-0.348,0.134-0.75,0.229-1.207,0.285c-0.456,0.056-0.957,0.083-1.5,0.083
		c-0.478,0-1.021-0.045-1.63-0.134v-3.517c0.478,0.13,0.88,0.195,1.206,0.195c0.804,0,1.478-0.281,2.021-0.844
		C250.941,141.883,251.213,141.19,251.213,140.368z"/>
</g>
<g>
	<path fill="#010101" d="M151.104,36.374v19.689h-4.922V36.374h-7.171v-4.075h19.005v4.075H151.104z"/>
	<path fill="#010101" d="M165.672,56.813c-1.617,0-2.917-0.486-3.9-1.457c-0.983-0.971-1.475-2.254-1.475-3.848
		c0-3.09,1.738-4.926,5.212-5.51l1.816-0.324c0.042,0,0.259-0.027,0.648-0.081c0.389-0.054,0.638-0.097,0.746-0.129
		s0.319-0.081,0.633-0.146c0.313-0.065,0.535-0.14,0.665-0.227c0.129-0.087,0.286-0.2,0.47-0.34
		c0.183-0.141,0.308-0.303,0.373-0.486s0.097-0.395,0.097-0.632c0-1.167-0.875-1.75-2.626-1.75c-1.124,0-1.913,0.171-2.367,0.514
		c-0.455,0.343-0.735,0.965-0.843,1.865h-4.43c0.283-4.063,2.797-6.096,7.542-6.096c4.879,0,7.32,1.811,7.32,5.434v9.727
		c0,0.813,0.347,1.539,1.043,2.176v0.56h-5.069c-0.359-0.439-0.538-1.032-0.538-1.78C169.39,55.97,167.617,56.813,165.672,56.813z
		 M170.957,48.981V47.75c-0.41,0.194-1.048,0.378-1.913,0.551l-1.556,0.292c-0.952,0.195-1.622,0.476-2.011,0.843
		c-0.389,0.368-0.583,0.886-0.583,1.556c0,0.648,0.222,1.162,0.665,1.54c0.443,0.378,1.042,0.567,1.8,0.567
		c1.146,0,2.032-0.357,2.659-1.07C170.643,51.314,170.957,50.299,170.957,48.981z"/>
	<path fill="#010101" d="M188.984,47.197l5.868,8.867h-5.477l-2.967-5.477l-2.999,5.477h-5.477l5.868-8.867l-5.738-8.736h5.477
		l2.869,5.313l2.836-5.313h5.477L188.984,47.197z"/>
	<path fill="#010101" d="M202.219,32.299v4.075h-4.597v-4.075H202.219z M202.219,38.46v17.603h-4.597V38.46H202.219z"/>
	<path fill="#010101" d="M209.939,50.945c0.151,0.782,0.46,1.378,0.926,1.792c0.465,0.414,1.349,0.621,2.649,0.621
		c1.06,0,1.886-0.159,2.481-0.475c0.594-0.317,0.892-0.758,0.892-1.324c0-0.361-0.114-0.656-0.342-0.882s-0.625-0.43-1.19-0.611
		l-5.444-1.696c-0.022,0-0.152-0.039-0.391-0.116c-0.239-0.077-0.407-0.138-0.505-0.182c-0.098-0.044-0.277-0.116-0.538-0.216
		s-0.462-0.205-0.603-0.315c-0.142-0.11-0.321-0.249-0.538-0.415c-0.217-0.166-0.386-0.349-0.505-0.548
		c-0.12-0.199-0.244-0.426-0.375-0.68c-0.13-0.255-0.228-0.548-0.293-0.88c-0.065-0.332-0.098-0.686-0.098-1.062
		c0-1.779,0.648-3.189,1.945-4.229c1.296-1.04,3.067-1.56,5.311-1.56c2.372,0,4.232,0.527,5.582,1.581
		c1.349,1.054,2.045,2.516,2.089,4.384h-4.428c-0.022-1.673-1.114-2.51-3.275-2.51c-0.8,0-1.438,0.147-1.914,0.441
		s-0.713,0.692-0.713,1.193c0,0.349,0.109,0.616,0.327,0.801c0.218,0.186,0.643,0.376,1.275,0.572l5.771,1.661
		c2.299,0.705,3.45,2.249,3.45,4.634c0,0.665-0.121,1.314-0.36,1.947c-0.239,0.632-0.626,1.26-1.16,1.882s-1.334,1.121-2.401,1.497
		c-1.067,0.375-2.33,0.563-3.789,0.563c-5.404,0-8.171-1.956-8.301-5.868H209.939z"/>
</g>
<g>
	<path fill="#010101" d="M118.557,104.332c0,0-23.08-0.004-30.77,0H85.98c-0.307,0-0.514,0-0.654,0.012v-0.012
		c-3.346,0-5.189,1.855-5.189,5.23v33.359c0,3.281,1.734,5.016,5.014,5.016h33.504c3.328,0,5.016-1.686,5.016-5.016v-33.359
		C123.67,106.141,121.902,104.332,118.557,104.332z"/>
	<path fill="#FFFFFF" d="M118.557,105.949c0,0-14.773-0.004-24.619-0.004c-4.516,0-6.748,0-7.787,0v0.004h-0.824
		c-2.473,0-3.574,1.113-3.574,3.613v33.359c0,2.383,1.016,3.402,3.398,3.402h33.504c2.416,0,3.4-0.984,3.4-3.402v-33.359
		C122.055,107.027,121.008,105.949,118.557,105.949z"/>
	<g id="Subway" transform="translate(-70.057632,-101.99311)">
		<path id="rect1750" fill="#010101" d="M171.653,212.893c-5.5,0-9.928,4.428-9.928,9.928v0.762c0,0.043,0.002,0.092,0.002,0.137
			c0,0.014-0.002,0.023-0.002,0.039v11.191c0,0.672,0.521,1.215,1.168,1.215h18.227c0.646,0,1.166-0.543,1.166-1.215v-11.191
			c0-0.012,0-0.025,0-0.035c0-0.049,0-0.098,0-0.141v-0.762c0-5.5-4.426-9.928-9.926-9.928H171.653z M170.431,214.442h3.152
			c0.477,0,0.861,0.379,0.861,0.859v0.34c0,0.475-0.385,0.859-0.861,0.859h-3.152c-0.479,0-0.861-0.385-0.861-0.859v-0.34
			C169.569,214.821,169.952,214.442,170.431,214.442z M165.853,217.493h1.838c0.363,0,0.658,0.215,0.658,0.484v10.453
			c0,0.27-0.295,0.484-0.658,0.484h-3.293c-0.365,0-0.658-0.215-0.658-0.484v-6.734
			C164.126,220.101,164.821,218.368,165.853,217.493z M170.716,217.493h2.582c0.484,0,0.873,0.225,0.873,0.504v10.41
			c0,0.281-0.389,0.508-0.873,0.508h-2.582c-0.484,0-0.875-0.227-0.875-0.508v-10.41
			C169.841,217.718,170.231,217.493,170.716,217.493z M176.325,217.493h1.836c1.031,0.875,1.729,2.607,2.113,4.203v6.734
			c0,0.27-0.293,0.484-0.658,0.484h-3.291c-0.367,0-0.66-0.215-0.66-0.484v-10.453C175.665,217.708,175.958,217.493,176.325,217.493
			z M165.649,230.185c0.93,0,1.684,0.756,1.684,1.684c0,0.934-0.754,1.684-1.684,1.684c-0.928,0-1.684-0.75-1.684-1.684
			C163.966,230.94,164.722,230.185,165.649,230.185z M178.362,230.185c0.93,0,1.684,0.756,1.684,1.684
			c0,0.934-0.754,1.684-1.684,1.684s-1.682-0.75-1.682-1.684C176.681,230.94,177.433,230.185,178.362,230.185z M163.106,236.995
			l-3.445,6.152h2.863l2.303-6.152H163.106z M179.185,236.995l2.305,6.152h2.861l-3.443-6.152H179.185z"/>
	</g>
</g>
<g>
	<path fill="#010101" d="M118.643,21.781c0,0-23.137-0.008-30.846-0.004l-1.811,0.004c-0.311,0-0.516,0-0.656,0.008v-0.008
		c-3.355,0-5.201,1.859-5.201,5.238v33.443c0,3.289,1.736,5.027,5.025,5.027h33.584c3.338,0,5.027-1.691,5.027-5.027V27.02
		C123.766,23.594,121.994,21.781,118.643,21.781z"/>
	<path fill="#FFFFFF" d="M118.643,23.4c0,0-14.811-0.006-24.682-0.006c-4.525,0-6.766,0.002-7.803,0.004L86.156,23.4H85.33
		c-2.479,0-3.582,1.115-3.582,3.619v33.443c0,2.389,1.018,3.408,3.406,3.408h33.584c2.424,0,3.408-0.986,3.408-3.408V27.02
		C122.146,24.482,121.1,23.4,118.643,23.4z"/>
	<g id="layer1" transform="translate(-126.28436,-41.992928)">
		<path id="rect3876" fill="#010101" d="M223.956,73.968c-0.293,0-0.529,0.236-0.529,0.529v2.691c0,0.293,0.236,0.527,0.529,0.527
			h8.645c0.291,0,0.527-0.234,0.527-0.527v-2.691c0-0.293-0.236-0.529-0.527-0.529H223.956z M224.263,74.571h2.156v0.453h-0.803
			v2.205h-0.547v-2.205h-0.807V74.571z M227.275,74.571h0.578l1.088,2.658h-0.596l-0.238-0.604h-1.084l-0.225,0.604h-0.582
			L227.275,74.571z M229.042,74.571h0.641l0.545,0.855l0.535-0.855h0.635l-0.846,1.293l0.928,1.365h-0.66l-0.602-0.918l-0.605,0.918
			h-0.656l0.928-1.387L229.042,74.571z M231.745,74.571h0.547v2.658h-0.547V74.571z M227.558,75.192l-0.365,0.988h0.74
			L227.558,75.192z M221.849,78.702c-1.092,0-1.686,0.934-1.984,1.986l-1.326,4.668h-0.592c-0.855,0-1.543,0.689-1.543,1.547v5.666
			c0,0.857,0.688,1.543,1.543,1.543h0.531c-0.012,0.182-0.02,0.383-0.02,0.598v1.004c0,0.752,0.088,1.357,0.199,1.357h2.32
			c0.109,0,0.199-0.605,0.199-1.357V94.71c0-0.215-0.01-0.416-0.021-0.598h14.246c-0.014,0.182-0.021,0.383-0.021,0.598v1.004
			c0,0.752,0.09,1.357,0.199,1.357h2.318c0.111,0,0.201-0.605,0.201-1.357V94.71c0-0.215-0.008-0.416-0.021-0.598h0.531
			c0.855,0,1.545-0.686,1.545-1.543v-5.666c0-0.857-0.689-1.547-1.545-1.547h-0.59l-1.326-4.668
			c-0.299-1.053-0.893-1.986-1.984-1.986H221.849z M221.849,79.579h12.859c0.619,0,0.938,0.512,1.107,1.109l1.326,4.668h-17.727
			l1.324-4.668C220.909,80.091,221.228,79.579,221.849,79.579L221.849,79.579z M220.861,86.794c1.219,0,2.207,0.988,2.207,2.205
			s-0.988,2.207-2.207,2.207l0,0c-1.219,0-2.203-0.99-2.203-2.207l0,0C218.657,87.782,219.644,86.794,220.861,86.794z
			 M235.695,86.794c1.217,0,2.205,0.988,2.207,2.205c0,1.217-0.99,2.207-2.207,2.207l0,0c-1.217,0-2.205-0.99-2.205-2.205
			c0-0.002,0-0.002,0-0.002C233.489,87.782,234.478,86.794,235.695,86.794L235.695,86.794z"/>
	</g>
</g>
<g id="layer1_11_" transform="translate(-102.25298,-172.11508)">
	<path id="path2252_7_" fill="#010101" d="M152.036,230.471l-8.635-8.641h22.857v-5.521v-0.004v-5.523h-22.857
		l8.635-8.639h-14.553l-14.941,14.166l14.941,14.162H152.036z"/>
	<g id="layer1_12_" transform="translate(-102.25298,-172.11508)">
		<path id="path2252_6_" fill="#010101" d="M264.531,475.375h-12.584l16.648-16.65l-4.021-4.014l-0.002-0.01
			l-4.025-4.018l-16.645,16.645l-0.002-12.582l-10.6,10.6l-0.563,21.197l21.193-0.566L264.531,475.375z"/>
	</g>
</g>
<g>
	<path fill="#010101" d="M405.55,139.605l-9.519-16.43v16.43h-4.922v-23.765h5.052l9.389,16.169v-16.169h4.922v23.765H405.55z"/>
	<path fill="#010101" d="M422.501,121.709c0.76,0,1.5,0.087,2.217,0.261c0.717,0.174,1.451,0.489,2.2,0.945
		c0.75,0.456,1.402,1.038,1.956,1.744s1.005,1.641,1.353,2.804c0.348,1.162,0.522,2.493,0.522,3.993
		c0,0.261-0.011,0.521-0.033,0.782h-11.768c0.021,0.679,0.082,1.264,0.179,1.756c0.098,0.493,0.271,0.975,0.521,1.445
		c0.25,0.47,0.62,0.831,1.108,1.083c0.489,0.252,1.103,0.377,1.842,0.377c1.738,0,2.901-0.749,3.488-2.249h4.499
		c-0.5,1.739-1.489,3.124-2.967,4.156s-3.206,1.549-5.183,1.549c-2.501,0-4.473-0.81-5.917-2.429s-2.167-3.841-2.167-6.666
		c0-2.956,0.728-5.286,2.184-6.993C417.992,122.563,419.98,121.709,422.501,121.709z M426.022,129.207
		c-0.109-1.293-0.462-2.29-1.06-2.991c-0.598-0.7-1.429-1.052-2.494-1.052c-2,0-3.151,1.348-3.456,4.043H426.022z"/>
	<path fill="#010101" d="M452.162,139.605h-4.691l-2.646-12.444l-2.809,12.444h-4.691l-4.955-17.604h4.727l2.804,12.321
		l2.681-12.321h4.546l2.622,12.33l2.673-12.33h4.727L452.162,139.605z"/>
	<path fill="#010101" d="M462.983,134.487c0.151,0.781,0.46,1.379,0.926,1.792c0.465,0.414,1.349,0.62,2.649,0.62
		c1.06,0,1.886-0.158,2.481-0.475c0.594-0.317,0.892-0.758,0.892-1.323c0-0.362-0.114-0.656-0.342-0.883
		c-0.228-0.226-0.625-0.43-1.19-0.611l-5.444-1.695c-0.022,0-0.152-0.039-0.391-0.116c-0.239-0.077-0.407-0.138-0.505-0.183
		c-0.098-0.044-0.277-0.115-0.538-0.216c-0.261-0.099-0.462-0.204-0.603-0.315c-0.142-0.11-0.321-0.248-0.538-0.414
		c-0.217-0.166-0.386-0.349-0.505-0.548c-0.12-0.199-0.244-0.426-0.375-0.681c-0.13-0.254-0.228-0.547-0.293-0.879
		c-0.065-0.332-0.098-0.686-0.098-1.063c0-1.779,0.648-3.188,1.945-4.229c1.296-1.041,3.067-1.561,5.311-1.561
		c2.372,0,4.232,0.527,5.582,1.581c1.349,1.055,2.045,2.516,2.089,4.385h-4.428c-0.022-1.674-1.114-2.511-3.275-2.511
		c-0.8,0-1.438,0.147-1.914,0.442c-0.476,0.294-0.713,0.691-0.713,1.192c0,0.349,0.109,0.616,0.327,0.801
		c0.218,0.186,0.643,0.376,1.275,0.572l5.771,1.661c2.299,0.704,3.45,2.248,3.45,4.633c0,0.665-0.121,1.314-0.36,1.947
		s-0.626,1.261-1.16,1.883s-1.334,1.121-2.401,1.496c-1.067,0.375-2.33,0.563-3.789,0.563c-5.404,0-8.171-1.956-8.301-5.868H462.983
		z"/>
	<path fill="#010101" d="M490.17,134.487c0.151,0.781,0.46,1.379,0.926,1.792c0.465,0.414,1.349,0.62,2.649,0.62
		c1.06,0,1.886-0.158,2.481-0.475c0.594-0.317,0.892-0.758,0.892-1.323c0-0.362-0.114-0.656-0.342-0.883
		c-0.228-0.226-0.625-0.43-1.19-0.611l-5.444-1.695c-0.022,0-0.152-0.039-0.391-0.116c-0.239-0.077-0.407-0.138-0.505-0.183
		c-0.098-0.044-0.277-0.115-0.538-0.216c-0.261-0.099-0.462-0.204-0.603-0.315c-0.142-0.11-0.321-0.248-0.538-0.414
		c-0.217-0.166-0.386-0.349-0.505-0.548c-0.12-0.199-0.244-0.426-0.375-0.681c-0.13-0.254-0.228-0.547-0.293-0.879
		c-0.065-0.332-0.098-0.686-0.098-1.063c0-1.779,0.648-3.188,1.945-4.229c1.296-1.041,3.067-1.561,5.311-1.561
		c2.372,0,4.232,0.527,5.582,1.581c1.349,1.055,2.045,2.516,2.089,4.385h-4.428c-0.022-1.674-1.114-2.511-3.275-2.511
		c-0.8,0-1.438,0.147-1.914,0.442c-0.476,0.294-0.713,0.691-0.713,1.192c0,0.349,0.109,0.616,0.327,0.801
		c0.218,0.186,0.643,0.376,1.275,0.572l5.771,1.661c2.299,0.704,3.45,2.248,3.45,4.633c0,0.665-0.121,1.314-0.36,1.947
		s-0.626,1.261-1.16,1.883s-1.334,1.121-2.401,1.496c-1.067,0.375-2.33,0.563-3.789,0.563c-5.404,0-8.171-1.956-8.301-5.868H490.17z
		"/>
	<path fill="#010101" d="M512.864,122.361v3.031h-2.51v9.584c0,0.782,0.096,1.299,0.289,1.549c0.193,0.25,0.59,0.374,1.191,0.374
		c0.236,0,0.579-0.032,1.03-0.098v3.195c-0.73,0.238-1.6,0.358-2.608,0.358c-2.999,0-4.498-1.38-4.498-4.141v-10.822h-2.217v-3.031
		h2.217v-4.728h4.596v4.728H512.864z"/>
	<path fill="#010101" d="M520.521,140.355c-1.617,0-2.918-0.486-3.901-1.457c-0.983-0.972-1.475-2.254-1.475-3.848
		c0-3.09,1.738-4.926,5.213-5.51l1.814-0.324c0.043,0,0.26-0.026,0.648-0.08c0.389-0.055,0.639-0.098,0.746-0.13
		s0.318-0.081,0.633-0.146c0.313-0.064,0.535-0.14,0.664-0.227c0.129-0.086,0.287-0.199,0.471-0.34s0.307-0.303,0.373-0.486
		c0.064-0.184,0.098-0.395,0.098-0.633c0-1.166-0.877-1.75-2.627-1.75c-1.125,0-1.914,0.172-2.367,0.515
		c-0.453,0.344-0.734,0.965-0.842,1.865h-4.431c0.283-4.063,2.796-6.096,7.542-6.096c4.881,0,7.32,1.812,7.32,5.434v9.728
		c0,0.813,0.348,1.538,1.043,2.175v0.561h-5.068c-0.359-0.439-0.539-1.032-0.539-1.779
		C524.237,139.513,522.466,140.355,520.521,140.355z M525.806,132.523v-1.232c-0.412,0.195-1.049,0.379-1.914,0.552l-1.557,0.291
		c-0.951,0.194-1.621,0.476-2.01,0.843s-0.584,0.886-0.584,1.556c0,0.648,0.223,1.162,0.666,1.54
		c0.441,0.378,1.041,0.566,1.799,0.566c1.145,0,2.031-0.356,2.658-1.069S525.806,133.841,525.806,132.523z"/>
	<path fill="#010101" d="M534.411,122.002h4.596v2.521c1.255-1.876,3.006-2.813,5.256-2.813c1.877,0,3.333,0.533,4.37,1.598
		s1.556,2.564,1.556,4.498v11.801h-4.597v-10.881c0-2.112-0.973-3.169-2.919-3.169c-1.104,0-1.99,0.316-2.66,0.948
		c-0.67,0.631-1.006,1.47-1.006,2.516v10.586h-4.596V122.002z"/>
	<path fill="#010101" d="M560.999,140.355c-2.18,0-3.962-0.891-5.345-2.673c-1.384-1.782-2.076-3.988-2.076-6.618
		c0-2.651,0.708-4.873,2.125-6.666c1.416-1.793,3.182-2.689,5.296-2.689c2.12,0,3.732,0.866,4.836,2.597v-8.465h4.597v23.765h-4.597
		v-1.812C564.71,139.502,563.098,140.355,560.999,140.355z M562.005,125.556c-1.126,0-2.045,0.514-2.759,1.539
		c-0.714,1.026-1.071,2.35-1.071,3.97c0,1.599,0.357,2.906,1.071,3.921c0.714,1.016,1.633,1.523,2.759,1.523
		c1.125,0,2.045-0.497,2.76-1.49c0.714-0.994,1.07-2.29,1.07-3.89c0-1.663-0.352-3.008-1.055-4.034
		C564.077,126.069,563.152,125.556,562.005,125.556z"/>
</g>
<g>
	<path fill="#010101" d="M506.181,45.273h-9.388v10.79h-4.922V32.299h4.922v8.899h9.355v-8.899h4.955v23.764h-4.922V45.273z"/>
	<path fill="#010101" d="M523.669,38.167c2.766,0,4.916,0.831,6.451,2.494s2.303,3.982,2.303,6.959c0,2.825-0.785,5.064-2.352,6.716
		c-1.568,1.652-3.691,2.478-6.369,2.478c-2.723,0-4.855-0.835-6.401-2.506c-1.546-1.67-2.319-3.943-2.319-6.817
		c0-2.874,0.773-5.146,2.319-6.817C518.847,39.003,520.97,38.167,523.669,38.167z M523.702,41.883c-1.234,0-2.23,0.519-2.986,1.555
		c-0.76,1.037-1.137,2.388-1.137,4.052c0,1.664,0.377,3.014,1.137,4.051c0.756,1.037,1.752,1.556,2.986,1.556
		c1.213,0,2.203-0.513,2.971-1.54s1.152-2.361,1.152-4.003c0-1.728-0.373-3.105-1.119-4.132
		C525.958,42.396,524.958,41.883,523.702,41.883z"/>
	<path fill="#010101" d="M543.733,38.819v3.032h-2.51v9.584c0,0.782,0.097,1.299,0.289,1.548c0.193,0.25,0.59,0.375,1.191,0.375
		c0.235,0,0.579-0.033,1.029-0.098v3.194c-0.73,0.239-1.6,0.359-2.608,0.359c-2.999,0-4.498-1.38-4.498-4.14V41.851h-2.217v-3.032
		h2.217v-4.727h4.597v4.727H543.733z"/>
	<path fill="#010101" d="M554.165,38.167c0.761,0,1.5,0.087,2.217,0.261c0.718,0.174,1.451,0.489,2.201,0.945
		c0.749,0.457,1.401,1.038,1.955,1.744c0.555,0.707,1.005,1.641,1.354,2.803c0.347,1.163,0.521,2.494,0.521,3.994
		c0,0.261-0.012,0.521-0.033,0.782h-11.768c0.021,0.678,0.081,1.264,0.18,1.756c0.098,0.492,0.271,0.974,0.521,1.444
		c0.249,0.471,0.619,0.832,1.108,1.083c0.488,0.251,1.103,0.377,1.842,0.377c1.738,0,2.9-0.75,3.487-2.25h4.499
		c-0.5,1.739-1.489,3.125-2.967,4.156c-1.478,1.032-3.206,1.549-5.183,1.549c-2.501,0-4.474-0.81-5.918-2.429
		c-1.444-1.619-2.167-3.841-2.167-6.667c0-2.955,0.729-5.286,2.185-6.992C549.655,39.02,551.645,38.167,554.165,38.167z
		 M557.687,45.665c-0.109-1.292-0.463-2.29-1.06-2.99c-0.599-0.701-1.43-1.052-2.494-1.052c-2,0-3.151,1.348-3.455,4.042H557.687z"
		/>
	<path fill="#010101" d="M570.432,32.299v23.764h-4.596V32.299H570.432z"/>
</g>
<g id="layer1_2_" transform="translate(-102.25298,-172.11508)">
	<path id="path2252_2_" fill="#010101" d="M762.985,230.471l8.639-8.641h-22.857v-5.521v-0.002v-5.525h22.857
		l-8.639-8.639h14.557l14.941,14.166l-14.941,14.162H762.985z"/>
	<g id="layer1_3_" transform="translate(-102.25298,-172.11508)">
		<path id="path2252_1_" fill="#010101" d="M855,475.375h12.582l-16.648-16.65l4.021-4.014l0.002-0.01
			l4.027-4.018l16.645,16.645v-12.582l10.602,10.6l0.561,21.197l-21.191-0.566L855,475.375z"/>
	</g>
</g>
<g>
	<path fill="#010101" d="M625.328,21.764c0,0-23.143-0.01-30.855-0.002h-1.814c-0.309,0-0.512,0-0.65,0.008v-0.006
		c-3.363,0-5.209,1.861-5.209,5.238v33.455c0,3.295,1.736,5.031,5.025,5.031h33.602c3.34,0,5.031-1.693,5.031-5.031V27.002
		C630.457,23.576,628.684,21.764,625.328,21.764z"/>
	<path fill="#FFFFFF" d="M625.328,23.385c0,0-14.813-0.006-24.691-0.006c-4.525,0-6.768,0-7.807,0.002v0.004h-0.822
		c-2.486,0-3.588,1.115-3.588,3.617v33.455c0,2.395,1.016,3.41,3.404,3.41h33.602c2.424,0,3.41-0.986,3.41-3.41V27.002
		C628.836,24.465,627.789,23.385,625.328,23.385z"/>
	<g id="layer1_5_" transform="translate(-54.416359,-127.71995)">
		
			<path id="rect28203" fill="#010101" d="
			M670.196,157.896l-0.859,6.156h2.588v6.357h1.084v-6.357h2.59l-0.859-6.156H670.196z M648.709,168.212
			c-0.232,0.006-0.459,0.094-0.629,0.25c-0.402,0.359-0.434,0.975-0.072,1.375c0.375,0.418,0.596,0.734,0.596,1.896v5.922v0.002
			v7.133h1.943v-3.102h25.068v3.102h1.943v-9.914c0.004-1.258,0.041-2.047,0.607-2.891c0.301-0.443,0.184-1.047-0.262-1.346
			c-0.211-0.143-0.475-0.197-0.729-0.15c-0.258,0.053-0.477,0.199-0.623,0.414c-0.682,1.018-0.871,2.066-0.918,3.102h-0.02v0.863
			c0,0.029,0,0.055,0,0.086v1.029c-0.367-0.379-0.799-0.752-1.395-0.783l-15.316-0.771c-1.002-0.09-2.078,1.139-2.109,1.982
			l-0.066,2.201h18.887v0.416h-25.068v-1.373v-5.922c0-1.508-0.5-2.535-1.096-3.201C649.26,168.325,648.987,168.206,648.709,168.212
			L648.709,168.212z M653.969,173.736c-1.09,0-1.979,0.885-1.979,1.977c0,1.09,0.889,1.977,1.979,1.977s1.973-0.887,1.973-1.977
			C655.942,174.62,655.059,173.736,653.969,173.736z"/>
	</g>
</g>
<path fill="#010101" d="M625.182,104.43c0,0-23.031-0.008-30.701-0.008l-1.803,0.008c-0.313,0-0.518,0-0.65,0l0,0
	c-3.346,0-5.18,1.855-5.18,5.215v33.297c0,3.266,1.723,5.004,5,5.004h33.436c3.322,0,5-1.688,5-5.004v-33.297
	C630.283,106.232,628.531,104.43,625.182,104.43z"/>
<path fill="#FFFFFF" d="M625.182,106.043c0,0-14.736-0.012-24.564-0.012c-4.508,0-6.734,0.012-7.77,0.012l0,0h-0.82
	c-2.471,0-3.564,1.107-3.564,3.602v33.297c0,2.379,1,3.395,3.385,3.395h33.436c2.404,0,3.387-0.982,3.387-3.395v-33.297
	C628.67,107.117,627.635,106.043,625.182,106.043z"/>
<g id="layer1_4_" transform="translate(-87.08989,-142.08989)">
	<path id="rect36191_1_" fill="#220D0D" d="M692.244,254.352l-11.396,2.551v0.053v7.012v13.756h6.727l0,0h0.188
		c-0.01-0.035-0.031-0.191-0.031-0.191v-0.02l-0.023-0.035l-1.293-1.465l0,0v-0.008c-0.086-0.104-0.168-0.391-0.139-0.656
		c0.02-0.262,0.117-0.482,0.326-0.561l10.865-3.223h0.01l4.816-1.563l7.109,1.869c-1.289,0.484-16.199,6.295-16.199,6.295
		l-5.586-3.189l-0.707,0.02l5.797,4.391l17.191-6.875l-0.697-0.107l-0.043-0.137l1.004-0.42l-7.869-2.066l-4.795,1.549v-14.375
		h-5.254V254.352z M681.647,257.707h15.059c0.074,0,0.133,0.063,0.133,0.146v13.678l-3.213,0.945h-4.219v0.156h3.711l-3.127,0.93
		h-0.584v0.15h0.076l-2.943,0.873l0,0c-0.326,0.109-0.455,0.436-0.477,0.742c-0.02,0.318,0.043,0.631,0.184,0.816l0,0l0.854,0.973
		h-5.453c-0.076,0-0.135-0.07-0.135-0.143v-19.121C681.512,257.77,681.57,257.707,681.647,257.707L681.647,257.707z
		 M683.291,261.746v0.99h11.813v-0.99H683.291z M683.291,264.09v0.262h5.43v-0.262H683.291z M689.406,264.09v0.262h5.697v-0.262
		H689.406z M683.291,265.08v0.268h5.43v-0.268H683.291z M689.406,265.08v0.268h5.697v-0.268H689.406z M683.291,266.252v0.156h5.43
		v-0.156H683.291z M689.406,266.252v0.156h5.697v-0.156H689.406z M683.291,267.18v0.156h5.43v-0.156H683.291z M689.406,267.18v0.156
		h5.697v-0.156H689.406z M683.291,268.195v0.141h5.43v-0.141H683.291z M689.406,268.195v0.141h5.697v-0.141H689.406z
		 M683.291,269.328v0.156h5.43v-0.156H683.291z M689.406,269.328v0.156h5.697v-0.156H689.406z M683.291,270.412v0.156h5.43v-0.156
		H683.291z M689.406,270.412v0.156h5.697v-0.156H689.406z M683.291,271.428v0.156h5.43v-0.156H683.291z M689.406,271.428v0.156
		h5.697v-0.156H689.406z M683.291,272.477v0.156h5.43v-0.156H683.291z M709.875,273.049l-17.279,7.631l-5.896-5.156l5.557,6.461
		l18.307-8.617l-0.59-0.104L709.875,273.049z M683.291,273.563v0.15h5.43v-0.15H683.291z"/>
</g>
</svg>
