<?xml version="1.0" encoding="utf-8"?>
<!-- Generator: Adobe Illustrator 16.0.3, SVG Export Plug-In . SVG Version: 6.00 Build 0)  -->
<!DOCTYPE svg PUBLIC "-//W3C//DTD SVG 1.1//EN" "http://www.w3.org/Graphics/SVG/1.1/DTD/svg11.dtd">
<svg version="1.1" xmlns="http://www.w3.org/2000/svg" xmlns:xlink="http://www.w3.org/1999/xlink" x="0px" y="0px" width="150px"
	 height="150px" viewBox="0 0 150 150" enable-background="new 0 0 150 150" xml:space="preserve">
<g id="svg70418" xmlns:svg="http://www.w3.org/2000/svg" xmlns:sodipodi="http://sodipodi.sourceforge.net/DTD/sodipodi-0.dtd" xmlns:inkscape="http://www.inkscape.org/namespaces/inkscape">
	<g id="layer1" transform="translate(-475.9299,-121.42674)">
		<rect id="rect70551" x="475.93" y="121.427" fill="#FFFFFF" width="150" height="150"/>
		<path id="path8389" d="M580.076,154.58v65.25h-2.866h-68.133h-3.679c-1.039,0-1.875,0.836-1.875,1.875s0.836,1.875,1.875,1.875
			h3.679h68.133h3.053h3.563v-65.25h12.639c1.038,0,1.874-0.836,1.874-1.875s-0.836-1.875-1.874-1.875h-12.639h-1.799H580.076z
			 M538.775,166.063c-1.956,0-3.53,1.576-3.53,3.532v4.523h-14.361v42.99h44.042v-42.99h-14.361v-4.523
			c0-1.956-1.576-3.532-3.532-3.532H538.775z M540.324,168.816h5.159c1.222,0,2.207,0.983,2.207,2.206v3.095h-9.574v-3.095
			C538.116,169.8,539.102,168.816,540.324,168.816L540.324,168.816z M515.739,174.118c-2.625,0-4.737,2.115-4.737,4.74v33.51
			c0,2.626,2.112,4.74,4.737,4.74h0.836v-42.99H515.739z M569.233,174.118v42.99h0.835c2.626,0,4.74-2.114,4.74-4.74v-33.51
			c0-2.625-2.115-4.74-4.74-4.74H569.233z M519.487,227.139c-3.075,0.001-5.568,2.493-5.568,5.567c0,3.075,2.493,5.568,5.568,5.568
			c3.075,0,5.567-2.493,5.568-5.568C525.054,229.632,522.562,227.14,519.487,227.139z M568.145,227.139
			c-3.076,0.001-5.568,2.493-5.568,5.567c0,3.075,2.492,5.568,5.568,5.568c3.074,0,5.568-2.492,5.568-5.568l0,0
			C573.714,229.632,571.219,227.138,568.145,227.139L568.145,227.139z"/>
	</g>
</g>
<g id="svg9552">
	
		<rect id="rect9462" x="-1.091" y="71.223" transform="matrix(-0.7081 -0.7061 0.7061 -0.7081 75.1516 181.0671)" fill="#B71F2E" width="152.183" height="7.556">
	</rect>
</g>
</svg>
