<?xml version="1.0" encoding="utf-8"?>
<!-- Generator: Adobe Illustrator 16.0.3, SVG Export Plug-In . SVG Version: 6.00 Build 0)  -->
<!DOCTYPE svg PUBLIC "-//W3C//DTD SVG 1.1//EN" "http://www.w3.org/Graphics/SVG/1.1/DTD/svg11.dtd">
<svg version="1.1" xmlns="http://www.w3.org/2000/svg" xmlns:xlink="http://www.w3.org/1999/xlink" x="0px" y="0px"
	 width="357.673px" height="203.872px" viewBox="0 0 357.673 203.872" enable-background="new 0 0 357.673 203.872"
	 xml:space="preserve">
<g id="Layer_4">
	<g>
		<rect x="3.543" y="3.543" fill="#FFFFFF" width="350.586" height="196.785"/>
		<path d="M350.586,7.086v189.699H7.086V7.086H350.586 M357.673,0h-7.087H7.086H0v7.086v189.699v7.087h7.086h343.5h7.087v-7.087
			V7.086V0L357.673,0z"/>
	</g>
</g>
<g id="Layer_1">
	<g id="layer1_1_" transform="translate(-78.16259,-70.935478)">
		<rect id="rect70551_1_" x="106.249" y="97.372" fill="#FFFFFF" width="150" height="150"/>
		<path id="rect74478" fill="#010101" d="M181.249,113.586l-5.919,5.484l-0.046,6.205l3.847-2.83l0.045,10.299h4.15l0.045-10.299
			l3.844,2.83l-0.045-6.205L181.249,113.586z M133.681,120.555v94.133h7.69v-94.133H133.681z M221.128,120.688v94.132h7.689v-94.132
			H221.128z M149.374,136.104v3.188h63.75v-3.188H149.374z M162.304,145.93c-2.206,0-3.993,1.788-3.993,3.993
			s1.788,3.995,3.993,3.995s3.993-1.789,3.993-3.995S164.509,145.93,162.304,145.93z M188.827,153.569
			c-2.197,0-3.984,1.761-3.984,3.953c0,2.167,1.787,3.953,3.984,3.953c2.215,0,3.99-1.786,3.99-3.953
			C192.817,155.331,191.042,153.569,188.827,153.569z M208.472,154.601c-0.686,0-1.242,0.557-1.242,1.244
			c0,0.687,0.557,1.242,1.242,1.242c0.688,0,1.242-0.557,1.242-1.242C209.716,155.158,209.159,154.601,208.472,154.601z
			 M157.654,154.97c-1.359,0.177-1.651,0.987-2.021,1.888l-4.884,15.467c-0.295,0.935,0.139,1.902,0.974,2.166
			s1.745-0.277,2.041-1.213l4.04-12.792v8.891l-3.82,26.199c-0.178,1.223,0.663,2.35,1.885,2.529l0.053,0.008
			c1.223,0.178,2.352-0.662,2.53-1.885l2.914-19.98c0.02-0.641,1.852-0.666,1.897,0.018l2.911,19.963
			c0.179,1.223,1.307,2.063,2.53,1.885l0.053-0.008c1.223-0.18,2.064-1.307,1.885-2.529l-3.82-26.199v-8.891l4.04,12.792
			c0.296,0.936,1.206,1.477,2.041,1.213c0.835-0.264,1.27-1.23,0.974-2.166l-4.884-15.467c-0.365-1.041-1.091-1.865-2.021-1.888
			h-1.748h-1.937h-3.883H157.654z M208.472,160.311c-0.686-0.001-1.242,0.555-1.242,1.242c0,0.687,0.557,1.244,1.242,1.243
			c0.688-0.001,1.244-0.558,1.242-1.243C209.714,160.867,209.159,160.311,208.472,160.311z M189.374,162.385
			c-0.168-0.003-0.338,0.005-0.51,0.024c-1.84,0.208-3.18,1.63-3.004,3.19l1.51,13.378c0.768,2.141,2.057,2.598,3.984,2.572h9.99
			l4.75,10.914c0.545,1.25,1.893,1.859,3.025,1.367l0.205-0.09c1.133-0.492,1.605-1.896,1.063-3.145l-5.201-11.953
			c-0.67-1.301-1.225-1.623-2.625-1.682h-8.689l-0.447-3.967h7.422c0.861,0,1.553-0.693,1.553-1.554c0-0.86-0.691-1.553-1.553-1.553
			h-7.773l-0.568-5.039C192.345,163.436,190.995,162.411,189.374,162.385L189.374,162.385z M208.472,166.019
			c-0.686-0.001-1.242,0.557-1.242,1.243c0,0.688,0.557,1.243,1.242,1.242c0.688,0,1.242-0.556,1.242-1.242
			C209.716,166.577,209.159,166.02,208.472,166.019z M185.415,171.93c-3.799,2.582-6.304,6.939-6.304,11.865
			c0,7.9,6.438,14.338,14.337,14.338c4.627,0,8.752-2.207,11.377-5.625l-1.514-3.477c-1.869,3.529-5.576,5.924-9.863,5.924
			c-6.18,0-11.158-4.979-11.158-11.16c0-3.193,1.33-6.066,3.467-8.098L185.415,171.93z M149.374,205.451v3.188h63.75v-3.188H149.374
			z M179.174,211.998l-0.045,10.299l-3.847-2.83l0.046,6.205l5.919,5.484l5.918-5.484l0.047-6.205l-3.844,2.83l-0.047-10.299
			H179.174z"/>
	</g>
</g>
<g id="svg2280">
	<g id="layer1" transform="translate(-102.25298,-172.11508)">
		<rect id="rect70551" x="280.339" y="198.551" fill="#FFFFFF" width="150" height="150">
		</rect>
		<path id="path2252" fill="#010101" d="M341.398,239.251l20.92,20.924h-64.463v13.373v0.012v13.371h64.463
			l-20.92,20.922h35.246l36.182-34.299l-36.182-34.3L341.398,239.251z"/>
	</g>
</g>
</svg>
