<?xml version="1.0" encoding="UTF-8" standalone="no"?>
<!-- Created with Inkscape (http://www.inkscape.org/) -->

<svg
   width="52.917mm"
   height="52.917mm"
   viewBox="0 0 52.917 52.917"
   version="1.1"
   id="svg70418"
   xml:space="preserve"
   inkscape:version="1.2.1 (9c6d41e410, 2022-07-14)"
   sodipodi:docname="ISO 7001 PI PF 005.svg"
   xmlns:inkscape="http://www.inkscape.org/namespaces/inkscape"
   xmlns:sodipodi="http://sodipodi.sourceforge.net/DTD/sodipodi-0.dtd"
   xmlns="http://www.w3.org/2000/svg"
   xmlns:svg="http://www.w3.org/2000/svg"><sodipodi:namedview
     id="namedview70420"
     pagecolor="#ffffff"
     bordercolor="#666666"
     borderopacity="1.0"
     inkscape:showpageshadow="2"
     inkscape:pageopacity="0.0"
     inkscape:pagecheckerboard="0"
     inkscape:deskcolor="#d1d1d1"
     inkscape:document-units="mm"
     showgrid="false"
     inkscape:zoom="2"
     inkscape:cx="42"
     inkscape:cy="108.5"
     inkscape:window-width="1920"
     inkscape:window-height="1017"
     inkscape:window-x="1912"
     inkscape:window-y="-8"
     inkscape:window-maximized="1"
     inkscape:current-layer="layer1"
     showguides="true"><sodipodi:guide
       position="18.081697,9.9729727"
       orientation="0,-1"
       id="guide75087"
       inkscape:locked="false" /></sodipodi:namedview><defs
     id="defs70415" /><g
     inkscape:label="Ebene 1"
     inkscape:groupmode="layer"
     id="layer1"
     transform="translate(-90.78009,-69.249527)"><rect
       style="fill:#ffffff;fill-opacity:1;stroke:none;stroke-width:2.01819"
       id="rect70551"
       width="52.917"
       height="52.917"
       x="90.78009"
       y="69.249527" /><path
       id="rect74478-3"
       style="stroke-width:1.01549"
       d="m 117.23291,77.613007 c -1.53718,-1.3e-5 -2.78331,1.246121 -2.7833,2.783292 -1e-5,1.537173 1.24613,2.783306 2.7833,2.783293 1.53715,1.3e-5 2.7833,-1.24612 2.78329,-2.783293 1e-5,-1.537171 -1.24613,-2.783305 -2.78329,-2.783292 z m -3.24012,6.299873 c -0.94725,0.123272 -1.15136,0.687395 -1.40921,1.315682 l -3.40393,10.779704 c -0.20601,0.652417 0.0968,1.325637 0.67903,1.509469 0.58222,0.183836 1.21665,-0.193528 1.42265,-0.845943 l 2.65152,-8.396387 1.01647,3.604948 c -0.0922,0.176996 -0.16661,0.389253 -0.23822,0.610815 l -3.70417,11.459772 c -0.18361,0.56803 0.38403,1.07745 0.86145,1.07745 h 2.63549 l 1.16169,7.26984 c 0.13168,0.8241 0.70159,1.50482 1.57303,1.50482 0.87144,0 1.44135,-0.68072 1.57303,-1.50482 l 1.16169,-7.26984 h 2.63549 c 0.47743,0 1.04506,-0.50942 0.86145,-1.07745 l -3.70417,-11.459772 c -0.0716,-0.221562 -0.14599,-0.433819 -0.23822,-0.610815 l 1.01647,-3.604948 2.65152,8.396387 c 0.20599,0.652415 0.84044,1.029774 1.42265,0.845943 0.58224,-0.183832 0.88503,-0.857053 0.67903,-1.509469 L 121.8936,85.228562 c -0.25426,-0.725614 -0.76103,-1.29968 -1.40921,-1.315682 h -1.2175 -1.34979 -2.70681 z" /></g></svg>
