<?xml version="1.0" encoding="UTF-8" standalone="no"?>
<!-- Created with Inkscape (http://www.inkscape.org/) -->

<svg
   width="52.917mm"
   height="52.917mm"
   viewBox="0 0 52.917 52.917"
   version="1.1"
   id="svg4100"
   inkscape:version="1.2.1 (9c6d41e410, 2022-07-14)"
   sodipodi:docname="ISO_7001_PI_TF_001.svg"
   xmlns:inkscape="http://www.inkscape.org/namespaces/inkscape"
   xmlns:sodipodi="http://sodipodi.sourceforge.net/DTD/sodipodi-0.dtd"
   xmlns="http://www.w3.org/2000/svg"
   xmlns:svg="http://www.w3.org/2000/svg">
  <sodipodi:namedview
     id="namedview4102"
     pagecolor="#ffffff"
     bordercolor="#000000"
     borderopacity="0.25"
     inkscape:showpageshadow="2"
     inkscape:pageopacity="0.0"
     inkscape:pagecheckerboard="0"
     inkscape:deskcolor="#d1d1d1"
     inkscape:document-units="mm"
     showgrid="false"
     inkscape:zoom="0.46769781"
     inkscape:cx="-358.13723"
     inkscape:cy="79.110911"
     inkscape:window-width="1366"
     inkscape:window-height="705"
     inkscape:window-x="-8"
     inkscape:window-y="-8"
     inkscape:window-maximized="1"
     inkscape:current-layer="layer1" />
  <defs
     id="defs4097" />
  <g
     inkscape:label="Ebene 1"
     inkscape:groupmode="layer"
     id="layer1"
     transform="translate(-200.39293,-127.9815)">
    <rect
       style="fill:#ffffff;fill-opacity:1;stroke:none;stroke-width:2.01819"
       id="rect70551"
       width="52.917"
       height="52.917"
       x="200.39293"
       y="127.9815"
       inkscape:label="2" />
    <path
       id="path2313"
       style="fill:#000000;stroke-width:0.7"
       d="m 225.89513,136.52304 -5.2e-4,0.0263 c -0.82608,0.90672 -1.38201,2.81338 -1.40973,4.10827 l -0.37775,10.76627 -13.70046,9.60045 0.0455,1.2392 c 0.0341,0.9299 0.24032,1.21418 1.37046,1.02371 l 12.58476,-3.56309 0.29972,6.80062 -5.69526,3.90002 v 2.41742 l 7.83983,-2.10065 7.83932,2.10065 v -2.41742 l -5.69578,-3.90002 0.30024,-6.80062 12.58476,3.56309 c 1.13014,0.19047 1.3364,-0.0938 1.37046,-1.02371 l 0.0455,-1.2392 -13.70098,-9.60045 -0.37775,-10.76627 c -0.0277,-1.29498 -0.58355,-3.20162 -1.40973,-4.10827 l -5.2e-4,-0.0263 c -0.32383,-0.33729 -0.63811,-0.48519 -0.9556,-0.4853 -0.31749,-1.1e-4 -0.63235,0.14775 -0.95643,0.4853 z"
       sodipodi:nodetypes="ccccccccccccccccccccccccc"
       inkscape:label="1" />
  </g>
</svg>
