<?xml version="1.0" encoding="UTF-8" standalone="no"?>
<!-- Created with Inkscape (http://www.inkscape.org/) -->

<svg
   width="52.917mm"
   height="52.917mm"
   viewBox="0 0 52.917 52.917"
   version="1.1"
   id="svg3421"
   inkscape:version="1.2.1 (9c6d41e410, 2022-07-14)"
   sodipodi:docname="ISO_7001_PI_PF_036.svg"
   xmlns:inkscape="http://www.inkscape.org/namespaces/inkscape"
   xmlns:sodipodi="http://sodipodi.sourceforge.net/DTD/sodipodi-0.dtd"
   xmlns="http://www.w3.org/2000/svg"
   xmlns:svg="http://www.w3.org/2000/svg">
  <sodipodi:namedview
     id="namedview3423"
     pagecolor="#ffffff"
     bordercolor="#000000"
     borderopacity="0.25"
     inkscape:showpageshadow="2"
     inkscape:pageopacity="0.0"
     inkscape:pagecheckerboard="0"
     inkscape:deskcolor="#d1d1d1"
     inkscape:document-units="mm"
     showgrid="false"
     inkscape:zoom="0.46769781"
     inkscape:cx="-56.660517"
     inkscape:cy="241.609"
     inkscape:window-width="1366"
     inkscape:window-height="705"
     inkscape:window-x="-8"
     inkscape:window-y="-8"
     inkscape:window-maximized="1"
     inkscape:current-layer="layer1" />
  <defs
     id="defs3418" />
  <g
     inkscape:label="Ebene 1"
     inkscape:groupmode="layer"
     id="layer1"
     transform="translate(-120.62721,-84.987213)">
    <rect
       style="fill:#ffffff;fill-opacity:1;stroke:none;stroke-width:2.01819"
       id="rect70551"
       width="52.917"
       height="52.917"
       x="120.62721"
       y="84.987213"
       inkscape:label="2" />
    <path
       id="rect3241"
       style="fill:#000000;fill-opacity:1;stroke:none;stroke-width:7.19206"
       d="m 156.90707,92.664379 v 3.63957 h -3.63957 v 3.18016 h 3.63957 v 3.639061 h 3.17965 v -3.639061 h 3.63958 v -3.18016 h -3.63958 v -3.63957 z m -13.2612,3.65455 a 5.3502727,5.3502727 0 0 0 -5.35006,5.350581 5.3502727,5.3502727 0 0 0 5.35006,5.35006 5.3502727,5.3502727 0 0 0 5.35006,-5.35006 5.3502727,5.3502727 0 0 0 -5.35006,-5.350581 z m -10.8505,11.500591 c -1.30196,0 -2.35024,1.04828 -2.35024,2.35025 0,1.30196 1.04828,2.35024 2.35024,2.35024 h 5.30045 v 4.80023 h 11.10061 v -4.80023 h 5.29994 c 1.30196,0 2.35024,-1.04828 2.35024,-2.35024 0,-1.30197 -1.04828,-2.35025 -2.35024,-2.35025 z m 5.20226,10.835 c -1.20232,1.09369 -2.42989,2.23887 -3.62251,3.31556 -0.83335,0.82466 -0.84068,2.15923 -0.016,2.99258 l 4.58628,4.63486 c 0.82465,0.83335 2.15975,0.84014 2.9931,0.0155 0.83335,-0.82466 0.84016,-2.15924 0.0155,-2.99259 l -2.06809,-2.09031 1.90014,-1.74098 z m 11.29647,0 -3.7884,4.13463 1.90014,1.74098 -2.06809,2.09031 c -0.82466,0.83336 -0.81784,2.16793 0.0155,2.99259 0.83336,0.82462 2.16845,0.81784 2.9931,-0.0155 l 4.58629,-4.63486 c 0.82465,-0.83335 0.81733,-2.16792 -0.016,-2.99258 -1.19262,-1.07669 -2.4202,-2.22187 -3.62252,-3.31556 z"
       inkscape:label="1" />
  </g>
</svg>
