<?xml version="1.0" encoding="UTF-8" standalone="no"?>
<!-- Created with Inkscape (http://www.inkscape.org/) -->

<svg
   width="52.917mm"
   height="52.917mm"
   viewBox="0 0 52.917 52.917"
   version="1.1"
   id="svg1040"
   inkscape:version="1.2.1 (9c6d41e410, 2022-07-14)"
   sodipodi:docname="ISO_7001_PI_CF_008.svg"
   xmlns:inkscape="http://www.inkscape.org/namespaces/inkscape"
   xmlns:sodipodi="http://sodipodi.sourceforge.net/DTD/sodipodi-0.dtd"
   xmlns="http://www.w3.org/2000/svg"
   xmlns:svg="http://www.w3.org/2000/svg">
  <sodipodi:namedview
     id="namedview1042"
     pagecolor="#505050"
     bordercolor="#eeeeee"
     borderopacity="1"
     inkscape:showpageshadow="0"
     inkscape:pageopacity="0"
     inkscape:pagecheckerboard="0"
     inkscape:deskcolor="#505050"
     inkscape:document-units="mm"
     showgrid="false"
     inkscape:zoom="0.76880612"
     inkscape:cx="-463.05563"
     inkscape:cy="-58.532313"
     inkscape:window-width="1920"
     inkscape:window-height="1017"
     inkscape:window-x="-8"
     inkscape:window-y="-8"
     inkscape:window-maximized="1"
     inkscape:current-layer="layer1" />
  <defs
     id="defs1037" />
  <g
     inkscape:label="Ebene 1"
     inkscape:groupmode="layer"
     id="layer1"
     transform="translate(-227.52296,-163.85551)">
    <rect
       style="fill:#ffffff;fill-opacity:1;stroke:none;stroke-width:2.01819"
       id="rect70551"
       width="52.917"
       height="52.917"
       x="227.52296"
       y="163.85551"
       inkscape:label="2" />
    <path
       id="path855"
       style="display:inline;stroke-width:0.348739;stroke-linecap:round"
       inkscape:transform-center-y="2.294599"
       d="m 265.67894,172.91301 -5.76864,5.11339 h -5.92884 -15.41922 l 7.70961,6.88381 6.3407,5.66167 V 205.572 h -5.25498 c -0.59373,0 -1.07177,0.47804 -1.07177,1.07177 0,0.59373 0.47804,1.07125 1.07177,1.07125 h 13.24777 c 0.59373,0 1.07177,-0.47752 1.07177,-1.07125 0,-0.59373 -0.47804,-1.07177 -1.07177,-1.07177 h -5.25497 v -15.00012 l 6.3407,-5.66167 7.7096,-6.88381 h -7.19904 l 4.48551,-3.97599 z m -10.60039,12.20856 a 1.3992603,1.3992603 0 0 1 1.3994,1.3994 1.3992603,1.3992603 0 0 1 -1.3994,1.39888 1.3992603,1.3992603 0 0 1 -1.3994,-1.39888 1.3992603,1.3992603 0 0 1 1.3994,-1.3994 z"
       inkscape:label="1" />
  </g>
</svg>
