<?xml version="1.0" encoding="utf-8"?>
<!-- Generator: Adobe Illustrator 16.0.3, SVG Export Plug-In . SVG Version: 6.00 Build 0)  -->
<!DOCTYPE svg PUBLIC "-//W3C//DTD SVG 1.1//EN" "http://www.w3.org/Graphics/SVG/1.1/DTD/svg11.dtd">
<svg version="1.1" id="Layer_1" xmlns="http://www.w3.org/2000/svg" xmlns:xlink="http://www.w3.org/1999/xlink" x="0px" y="0px"
	 width="520.691px" height="259.875px" viewBox="0 0 520.691 259.875" enable-background="new 0 0 520.691 259.875"
	 xml:space="preserve">
<g>
	<rect y="0.051" fill="#010101" width="520.691" height="259.695"/>
	<rect x="1.5" y="1.551" fill="#FFFFFF" width="517.691" height="256.695"/>
</g>
<g>
	<g>
		<g>
			
				<line fill="none" stroke="#767677" stroke-width="1.4173" stroke-miterlimit="10" x1="1.5" y1="175.404" x2="3.626" y2="175.404"/>
			
				<line fill="none" stroke="#767677" stroke-width="1.4173" stroke-miterlimit="10" stroke-dasharray="4.2433,4.2433" x1="7.869" y1="175.404" x2="514.943" y2="175.404"/>
			
				<line fill="none" stroke="#767677" stroke-width="1.4173" stroke-miterlimit="10" x1="517.065" y1="175.404" x2="519.191" y2="175.404"/>
		</g>
	</g>
	<g>
		<g>
			
				<line fill="none" stroke="#767677" stroke-width="1.4173" stroke-miterlimit="10" x1="1.5" y1="158.002" x2="3.626" y2="158.002"/>
			
				<line fill="none" stroke="#767677" stroke-width="1.4173" stroke-miterlimit="10" stroke-dasharray="4.2433,4.2433" x1="7.869" y1="158.002" x2="514.943" y2="158.002"/>
			
				<line fill="none" stroke="#767677" stroke-width="1.4173" stroke-miterlimit="10" x1="517.065" y1="158.002" x2="519.191" y2="158.002"/>
		</g>
	</g>
	<g>
		<g>
			
				<line fill="none" stroke="#767677" stroke-width="1.4173" stroke-miterlimit="10" x1="85.881" y1="258.246" x2="85.881" y2="256.12"/>
			
				<line fill="none" stroke="#767677" stroke-width="1.4173" stroke-miterlimit="10" stroke-dasharray="4.2787,4.2787" x1="85.881" y1="251.842" x2="85.881" y2="5.816"/>
			
				<line fill="none" stroke="#767677" stroke-width="1.4173" stroke-miterlimit="10" x1="85.881" y1="3.677" x2="85.881" y2="1.551"/>
		</g>
	</g>
	<g>
		<g>
			
				<line fill="none" stroke="#767677" stroke-width="1.4173" stroke-miterlimit="10" x1="105.818" y1="1.551" x2="105.818" y2="3.677"/>
			
				<line fill="none" stroke="#767677" stroke-width="1.4173" stroke-miterlimit="10" stroke-dasharray="4.2787,4.2787" x1="105.818" y1="7.956" x2="105.818" y2="253.98"/>
			
				<line fill="none" stroke="#767677" stroke-width="1.4173" stroke-miterlimit="10" x1="105.818" y1="256.12" x2="105.818" y2="258.246"/>
		</g>
	</g>
	<g>
		<g>
			
				<line fill="none" stroke="#767677" stroke-width="1.4173" stroke-miterlimit="10" x1="163.568" y1="1.551" x2="163.568" y2="3.677"/>
			
				<line fill="none" stroke="#767677" stroke-width="1.4173" stroke-miterlimit="10" stroke-dasharray="4.2787,4.2787" x1="163.568" y1="7.956" x2="163.568" y2="253.98"/>
			
				<line fill="none" stroke="#767677" stroke-width="1.4173" stroke-miterlimit="10" x1="163.568" y1="256.12" x2="163.568" y2="258.246"/>
		</g>
	</g>
	<g>
		<g>
			
				<line fill="none" stroke="#767677" stroke-width="1.4173" stroke-miterlimit="10" x1="1.5" y1="100.217" x2="3.626" y2="100.217"/>
			
				<line fill="none" stroke="#767677" stroke-width="1.4173" stroke-miterlimit="10" stroke-dasharray="4.2433,4.2433" x1="7.869" y1="100.217" x2="514.943" y2="100.217"/>
			
				<line fill="none" stroke="#767677" stroke-width="1.4173" stroke-miterlimit="10" x1="517.065" y1="100.217" x2="519.191" y2="100.217"/>
		</g>
	</g>
	<g>
		<g>
			
				<line fill="none" stroke="#767677" stroke-width="1.4173" stroke-miterlimit="10" x1="519.191" y1="82.752" x2="517.065" y2="82.752"/>
			
				<line fill="none" stroke="#767677" stroke-width="1.4173" stroke-miterlimit="10" stroke-dasharray="4.2433,4.2433" x1="512.822" y1="82.752" x2="5.748" y2="82.752"/>
			<line fill="none" stroke="#767677" stroke-width="1.4173" stroke-miterlimit="10" x1="3.626" y1="82.752" x2="1.5" y2="82.752"/>
		</g>
	</g>
	<g>
		<g>
			
				<line fill="none" stroke="#767677" stroke-width="1.4173" stroke-miterlimit="10" x1="183.318" y1="1.551" x2="183.318" y2="3.677"/>
			
				<line fill="none" stroke="#767677" stroke-width="1.4173" stroke-miterlimit="10" stroke-dasharray="4.2787,4.2787" x1="183.318" y1="7.956" x2="183.318" y2="253.98"/>
			
				<line fill="none" stroke="#767677" stroke-width="1.4173" stroke-miterlimit="10" x1="183.318" y1="256.12" x2="183.318" y2="258.246"/>
		</g>
	</g>
</g>
<g>
	<path fill="#010101" d="M189.56,196.244v23.009h-6.164v-29.757h9.174l5.449,23.812l5.255-23.812h9.144v29.757h-6.164v-23.186
		l-5.284,23.186h-6.104L189.56,196.244z"/>
	<path fill="#010101" d="M227.48,196.844c0.952,0,1.878,0.108,2.776,0.326s1.816,0.612,2.755,1.184
		c0.938,0.571,1.755,1.3,2.449,2.184c0.694,0.885,1.259,2.056,1.694,3.511c0.435,1.456,0.653,3.123,0.653,5
		c0,0.327-0.014,0.653-0.041,0.98h-14.736c0.027,0.849,0.102,1.583,0.225,2.198c0.123,0.617,0.34,1.22,0.653,1.81
		c0.313,0.589,0.776,1.041,1.388,1.356c0.612,0.314,1.381,0.473,2.306,0.473c2.177,0,3.633-0.939,4.368-2.816h5.633
		c-0.626,2.177-1.864,3.912-3.714,5.204c-1.851,1.292-4.014,1.938-6.49,1.938c-3.131,0-5.601-1.013-7.41-3.041
		c-1.809-2.026-2.713-4.81-2.713-8.347c0-3.701,0.911-6.619,2.735-8.756C221.833,197.912,224.323,196.844,227.48,196.844z
		 M231.889,206.231c-0.137-1.618-0.579-2.866-1.327-3.744c-0.749-0.878-1.79-1.317-3.123-1.317c-2.504,0-3.946,1.688-4.327,5.062
		H231.889z"/>
	<path fill="#010101" d="M252.013,197.66v3.796h-3.143v12.001c0,0.979,0.121,1.626,0.362,1.938c0.242,0.313,0.738,0.47,1.491,0.47
		c0.295,0,0.725-0.041,1.29-0.123v4.001c-0.915,0.299-2.003,0.448-3.266,0.448c-3.755,0-5.632-1.728-5.632-5.184v-13.552h-2.776
		v-3.796h2.776v-5.919h5.755v5.919H252.013z"/>
	<path fill="#010101" d="M255.89,197.211h5.756v3.928c0.598-1.37,1.441-2.428,2.529-3.175s2.287-1.12,3.592-1.12
		c0.246,0,0.477,0.013,0.695,0.036v5.311c-0.682-0.108-1.279-0.163-1.797-0.163c-3.348,0-5.02,1.723-5.02,5.167v12.059h-5.756
		V197.211z"/>
	<path fill="#010101" d="M281.749,196.844c3.462,0,6.154,1.04,8.076,3.122c1.923,2.082,2.884,4.986,2.884,8.715
		c0,3.537-0.981,6.341-2.944,8.409s-4.621,3.102-7.975,3.102c-3.408,0-6.08-1.046-8.016-3.138s-2.903-4.938-2.903-8.536
		s0.968-6.443,2.903-8.535C275.71,197.89,278.368,196.844,281.749,196.844z M281.79,201.497c-1.545,0-2.792,0.648-3.74,1.947
		c-0.949,1.299-1.423,2.99-1.423,5.073c0,2.084,0.474,3.774,1.423,5.073c0.948,1.298,2.195,1.947,3.74,1.947
		c1.518,0,2.758-0.642,3.721-1.927c0.961-1.285,1.443-2.956,1.443-5.013c0-2.164-0.469-3.889-1.403-5.174
		C284.615,202.14,283.361,201.497,281.79,201.497z"/>
	<path fill="#010101" d="M312.5,212.845c0.189,0.978,0.576,1.726,1.16,2.243c0.583,0.519,1.688,0.777,3.317,0.777
		c1.327,0,2.361-0.198,3.106-0.596c0.744-0.396,1.116-0.948,1.116-1.656c0-0.453-0.143-0.822-0.429-1.105
		c-0.285-0.283-0.782-0.538-1.489-0.765l-6.817-2.123c-0.027,0-0.19-0.049-0.489-0.146c-0.3-0.098-0.511-0.173-0.633-0.229
		s-0.347-0.146-0.674-0.271c-0.326-0.124-0.578-0.256-0.755-0.395c-0.178-0.139-0.402-0.312-0.674-0.52
		c-0.272-0.208-0.483-0.437-0.633-0.686s-0.306-0.533-0.469-0.853c-0.163-0.318-0.286-0.686-0.367-1.102
		c-0.082-0.415-0.123-0.858-0.123-1.329c0-2.229,0.812-3.993,2.436-5.296c1.623-1.303,3.84-1.953,6.65-1.953
		c2.969,0,5.299,0.66,6.988,1.979c1.689,1.32,2.562,3.149,2.616,5.49h-5.545c-0.027-2.096-1.394-3.144-4.101-3.144
		c-1.002,0-1.801,0.185-2.396,0.553c-0.596,0.369-0.893,0.866-0.893,1.494c0,0.437,0.136,0.771,0.409,1.003
		c0.273,0.232,0.805,0.471,1.597,0.717l7.227,2.079c2.879,0.882,4.319,2.815,4.319,5.802c0,0.833-0.15,1.646-0.45,2.438
		s-0.784,1.578-1.452,2.357c-0.669,0.779-1.671,1.403-3.007,1.874c-1.336,0.469-2.918,0.704-4.745,0.704
		c-6.767,0-10.231-2.449-10.395-7.347H312.5z"/>
	<path fill="#010101" d="M340.916,197.66v3.796h-3.144v12.001c0,0.979,0.121,1.626,0.362,1.938c0.242,0.313,0.739,0.47,1.491,0.47
		c0.296,0,0.726-0.041,1.29-0.123v4.001c-0.915,0.299-2.003,0.448-3.267,0.448c-3.755,0-5.632-1.728-5.632-5.184v-13.552h-2.775
		v-3.796h2.775v-5.919h5.755v5.919H340.916z"/>
	<path fill="#010101" d="M350.503,220.191c-2.023,0-3.652-0.608-4.883-1.824c-1.231-1.216-1.847-2.821-1.847-4.817
		c0-3.869,2.176-6.168,6.526-6.899l2.273-0.405c0.054,0,0.325-0.034,0.813-0.102s0.799-0.121,0.934-0.162s0.399-0.102,0.792-0.183
		s0.67-0.176,0.832-0.284s0.358-0.25,0.589-0.426c0.229-0.176,0.386-0.379,0.467-0.609c0.081-0.229,0.122-0.493,0.122-0.791
		c0-1.461-1.097-2.191-3.288-2.191c-1.408,0-2.396,0.215-2.964,0.644c-0.569,0.43-0.921,1.208-1.056,2.336h-5.547
		c0.354-5.089,3.502-7.633,9.444-7.633c6.11,0,9.166,2.268,9.166,6.804v12.18c0,1.019,0.435,1.927,1.306,2.725v0.701h-6.347
		c-0.449-0.55-0.674-1.293-0.674-2.229C355.158,219.136,352.939,220.191,350.503,220.191z M357.121,210.385v-1.543
		c-0.514,0.244-1.313,0.475-2.396,0.69l-1.948,0.365c-1.191,0.243-2.03,0.596-2.518,1.056c-0.487,0.459-0.73,1.108-0.73,1.947
		c0,0.812,0.277,1.455,0.832,1.928c0.555,0.474,1.306,0.71,2.253,0.71c1.435,0,2.544-0.446,3.329-1.339
		C356.729,213.306,357.121,212.035,357.121,210.385z"/>
	<path fill="#010101" d="M377.815,197.66v3.796h-3.144v12.001c0,0.979,0.121,1.626,0.362,1.938c0.242,0.313,0.739,0.47,1.491,0.47
		c0.296,0,0.726-0.041,1.29-0.123v4.001c-0.915,0.299-2.003,0.448-3.267,0.448c-3.755,0-5.632-1.728-5.632-5.184v-13.552h-2.775
		v-3.796h2.775v-5.919h5.755v5.919H377.815z"/>
	<path fill="#010101" d="M387.652,189.496v5.103h-5.755v-5.103H387.652z M387.652,197.211v22.042h-5.755v-22.042H387.652z"/>
	<path fill="#010101" d="M402.98,196.844c3.462,0,6.154,1.04,8.076,3.122c1.923,2.082,2.884,4.986,2.884,8.715
		c0,3.537-0.981,6.341-2.944,8.409s-4.621,3.102-7.975,3.102c-3.408,0-6.08-1.046-8.016-3.138s-2.903-4.938-2.903-8.536
		s0.968-6.443,2.903-8.535C396.941,197.89,399.6,196.844,402.98,196.844z M403.021,201.497c-1.545,0-2.792,0.648-3.74,1.947
		c-0.949,1.299-1.423,2.99-1.423,5.073c0,2.084,0.474,3.774,1.423,5.073c0.948,1.298,2.195,1.947,3.74,1.947
		c1.518,0,2.758-0.642,3.721-1.927c0.961-1.285,1.443-2.956,1.443-5.013c0-2.164-0.469-3.889-1.403-5.174
		C405.847,202.14,404.593,201.497,403.021,201.497z"/>
	<path fill="#010101" d="M418.186,197.211h5.756v3.155c1.569-2.349,3.763-3.522,6.58-3.522c2.35,0,4.174,0.667,5.473,2
		s1.947,3.211,1.947,5.633v14.776h-5.755v-13.625c0-2.646-1.219-3.968-3.656-3.968c-1.381,0-2.491,0.396-3.33,1.187
		c-0.84,0.791-1.259,1.842-1.259,3.15v13.256h-5.756V197.211z"/>
</g>
<g>
	<path fill="#010101" d="M198.603,120.35v24.655h-6.164V120.35h-8.98v-5.102h23.797v5.102H198.603z"/>
	<path fill="#010101" d="M216.843,145.943c-2.024,0-3.653-0.608-4.884-1.824s-1.846-2.821-1.846-4.817
		c0-3.869,2.175-6.168,6.526-6.899l2.274-0.405c0.054,0,0.325-0.034,0.812-0.102s0.798-0.121,0.934-0.162s0.399-0.102,0.792-0.183
		s0.67-0.176,0.833-0.284c0.162-0.108,0.358-0.25,0.589-0.426c0.229-0.176,0.385-0.379,0.467-0.609
		c0.081-0.229,0.122-0.494,0.122-0.792c0-1.46-1.096-2.191-3.289-2.191c-1.407,0-2.396,0.215-2.964,0.645
		c-0.569,0.43-0.92,1.208-1.055,2.335h-5.547c0.354-5.088,3.502-7.633,9.444-7.633c6.11,0,9.166,2.268,9.166,6.804v12.18
		c0,1.019,0.435,1.927,1.306,2.725v0.701h-6.347c-0.449-0.55-0.673-1.293-0.673-2.229
		C221.499,144.888,219.279,145.943,216.843,145.943z M223.461,136.137v-1.543c-0.514,0.244-1.313,0.475-2.396,0.69l-1.948,0.365
		c-1.191,0.243-2.03,0.596-2.518,1.056c-0.487,0.459-0.731,1.108-0.731,1.947c0,0.812,0.277,1.455,0.833,1.928
		c0.555,0.474,1.305,0.71,2.253,0.71c1.435,0,2.544-0.446,3.33-1.339C223.068,139.058,223.461,137.787,223.461,136.137z"/>
	<path fill="#010101" d="M246.034,133.902l7.348,11.103h-6.857l-3.715-6.857l-3.755,6.857h-6.857l7.347-11.103l-7.184-10.939h6.858
		l3.592,6.653l3.551-6.653h6.857L246.034,133.902z"/>
	<path fill="#010101" d="M262.605,115.248v5.102h-5.755v-5.102H262.605z M262.605,122.963v22.042h-5.755v-22.042H262.605z"/>
	<path fill="#010101" d="M283.622,138.597c0.189,0.978,0.576,1.726,1.16,2.243c0.583,0.519,1.688,0.777,3.317,0.777
		c1.327,0,2.361-0.198,3.106-0.596c0.744-0.396,1.116-0.948,1.116-1.656c0-0.453-0.143-0.822-0.429-1.105
		c-0.285-0.283-0.782-0.538-1.489-0.765l-6.817-2.123c-0.027,0-0.19-0.049-0.489-0.146c-0.3-0.098-0.511-0.173-0.633-0.229
		s-0.347-0.146-0.674-0.271c-0.326-0.124-0.578-0.256-0.755-0.395c-0.178-0.139-0.402-0.312-0.674-0.52
		c-0.272-0.208-0.483-0.437-0.633-0.686s-0.306-0.533-0.469-0.853c-0.163-0.318-0.286-0.686-0.367-1.102
		c-0.082-0.415-0.123-0.858-0.123-1.329c0-2.229,0.812-3.994,2.436-5.296c1.623-1.302,3.84-1.954,6.65-1.954
		c2.969,0,5.299,0.66,6.988,1.98s2.562,3.15,2.616,5.49h-5.545c-0.027-2.095-1.394-3.143-4.101-3.143
		c-1.002,0-1.801,0.185-2.396,0.553s-0.893,0.866-0.893,1.494c0,0.437,0.136,0.771,0.409,1.003c0.273,0.232,0.805,0.47,1.597,0.716
		l7.227,2.079c2.879,0.882,4.319,2.815,4.319,5.802c0,0.833-0.15,1.646-0.45,2.438s-0.784,1.578-1.452,2.357
		c-0.669,0.779-1.671,1.403-3.007,1.874c-1.336,0.469-2.918,0.704-4.745,0.704c-6.767,0-10.231-2.449-10.395-7.347H283.622z"/>
	<path fill="#010101" d="M312.038,123.412v3.796h-3.144v12.001c0,0.979,0.121,1.626,0.362,1.938c0.242,0.313,0.739,0.47,1.491,0.47
		c0.296,0,0.726-0.041,1.29-0.123v4.001c-0.915,0.299-2.003,0.448-3.267,0.448c-3.755,0-5.632-1.728-5.632-5.184v-13.552h-2.775
		v-3.796h2.775v-5.918h5.755v5.918H312.038z"/>
	<path fill="#010101" d="M321.624,145.943c-2.023,0-3.652-0.608-4.883-1.824c-1.231-1.216-1.847-2.821-1.847-4.817
		c0-3.869,2.176-6.168,6.526-6.899l2.273-0.405c0.054,0,0.325-0.034,0.813-0.102s0.799-0.121,0.934-0.162s0.399-0.102,0.792-0.183
		s0.67-0.176,0.832-0.284s0.358-0.25,0.589-0.426c0.229-0.176,0.386-0.379,0.467-0.609c0.081-0.229,0.122-0.494,0.122-0.792
		c0-1.46-1.097-2.191-3.288-2.191c-1.408,0-2.396,0.215-2.964,0.645c-0.569,0.43-0.921,1.208-1.056,2.335h-5.547
		c0.354-5.088,3.502-7.633,9.444-7.633c6.11,0,9.166,2.268,9.166,6.804v12.18c0,1.019,0.435,1.927,1.306,2.725v0.701h-6.347
		c-0.449-0.55-0.674-1.293-0.674-2.229C326.279,144.888,324.061,145.943,321.624,145.943z M328.242,136.137v-1.543
		c-0.514,0.244-1.313,0.475-2.396,0.69l-1.948,0.365c-1.191,0.243-2.03,0.596-2.518,1.056c-0.487,0.459-0.73,1.108-0.73,1.947
		c0,0.812,0.277,1.455,0.832,1.928c0.555,0.474,1.306,0.71,2.253,0.71c1.435,0,2.544-0.446,3.329-1.339
		C327.85,139.058,328.242,137.787,328.242,136.137z"/>
	<path fill="#010101" d="M339.019,122.963h5.756v3.155c1.569-2.348,3.763-3.522,6.58-3.522c2.35,0,4.174,0.667,5.473,2
		c1.299,1.334,1.947,3.211,1.947,5.633v14.776h-5.755V131.38c0-2.645-1.219-3.968-3.656-3.968c-1.381,0-2.491,0.396-3.33,1.187
		c-0.84,0.791-1.259,1.842-1.259,3.15v13.256h-5.756V122.963z"/>
	<path fill="#010101" d="M372.311,145.943c-2.729,0-4.96-1.115-6.692-3.347s-2.599-4.993-2.599-8.286
		c0-3.319,0.887-6.103,2.66-8.348s3.984-3.368,6.631-3.368c2.656,0,4.675,1.084,6.057,3.252v-10.6h5.756v29.757h-5.756v-2.269
		C376.958,144.875,374.939,145.943,372.311,145.943z M373.571,127.412c-1.409,0-2.561,0.643-3.455,1.927s-1.341,2.942-1.341,4.971
		c0,2.002,0.446,3.639,1.341,4.909c0.895,1.272,2.046,1.907,3.455,1.907s2.561-0.622,3.455-1.866
		c0.894-1.244,1.341-2.867,1.341-4.869c0-2.083-0.44-3.768-1.32-5.052C376.166,128.055,375.008,127.412,373.571,127.412z"/>
</g>
<g>
	<path fill="#010101" d="M207.112,58.929c0,0.979-0.163,1.932-0.487,2.857c-0.325,0.926-0.847,1.837-1.564,2.735
		c-0.718,0.898-1.793,1.62-3.229,2.164c-1.435,0.545-3.141,0.816-5.116,0.816h-13.32V37.744h13.195c1.841,0,3.431,0.272,4.771,0.816
		c1.339,0.544,2.341,1.245,3.005,2.102c0.663,0.857,1.144,1.694,1.441,2.51c0.297,0.816,0.446,1.62,0.446,2.408
		c0,1.28-0.306,2.382-0.916,3.307c-0.611,0.925-1.632,1.864-3.066,2.816C205.499,53.637,207.112,56.045,207.112,58.929z
		 M189.56,42.846v6.735h6.628c2.874,0,4.311-1.116,4.311-3.347c0-2.258-1.437-3.388-4.311-3.388H189.56z M189.56,54.684v7.714h7.281
		c3.01,0,4.515-1.279,4.515-3.837c0-2.585-1.505-3.877-4.515-3.877H189.56z"/>
	<path fill="#010101" d="M217.23,68.44c-2.024,0-3.653-0.608-4.884-1.824c-1.231-1.216-1.846-2.822-1.846-4.818
		c0-3.869,2.175-6.168,6.526-6.899l2.274-0.406c0.054,0,0.325-0.034,0.812-0.102c0.487-0.067,0.798-0.121,0.934-0.162
		c0.135-0.041,0.399-0.101,0.792-0.183c0.393-0.081,0.67-0.176,0.833-0.284c0.162-0.108,0.358-0.25,0.589-0.426
		c0.229-0.176,0.385-0.379,0.467-0.609c0.081-0.229,0.122-0.494,0.122-0.792c0-1.46-1.096-2.191-3.289-2.191
		c-1.407,0-2.396,0.215-2.964,0.645c-0.569,0.43-0.92,1.208-1.055,2.335h-5.547c0.354-5.088,3.502-7.633,9.444-7.633
		c6.11,0,9.166,2.268,9.166,6.804v12.18c0,1.018,0.435,1.926,1.306,2.724v0.702h-6.347c-0.449-0.55-0.673-1.293-0.673-2.229
		C221.885,67.384,219.666,68.44,217.23,68.44z M223.848,58.632V57.09c-0.514,0.244-1.313,0.474-2.396,0.69l-1.948,0.365
		c-1.191,0.244-2.03,0.596-2.518,1.056s-0.731,1.109-0.731,1.948c0,0.812,0.277,1.455,0.833,1.928
		c0.555,0.473,1.305,0.71,2.253,0.71c1.435,0,2.544-0.447,3.33-1.339C223.455,61.554,223.848,60.283,223.848,58.632z"/>
	<path fill="#010101" d="M248.869,45.459h5.755v22.777c0,2.585-0.945,4.592-2.835,6.021s-4.543,2.143-7.959,2.143
		c-2.945,0-5.304-0.565-7.075-1.694c-1.772-1.129-2.672-2.647-2.699-4.551h5.954c0.46,1.714,1.802,2.571,4.024,2.571
		c1.436,0,2.601-0.417,3.495-1.249c0.895-0.833,1.341-1.919,1.341-3.257v-2.991c-1.057,1.208-2.039,2.045-2.946,2.512
		c-0.909,0.466-1.999,0.7-3.272,0.7c-2.73,0-4.92-1.047-6.571-3.143s-2.477-4.858-2.477-8.288c0-3.401,0.873-6.238,2.619-8.509
		c1.747-2.272,3.93-3.409,6.55-3.409c2.438,0,4.47,1.262,6.097,3.787V45.459z M243.992,49.908c-1.382,0-2.5,0.649-3.354,1.948
		c-0.854,1.298-1.28,2.989-1.28,5.072c0,1.975,0.42,3.585,1.26,4.829c0.84,1.245,1.938,1.866,3.292,1.866
		c1.49,0,2.703-0.622,3.638-1.866c0.935-1.244,1.402-2.854,1.402-4.829c0-2.028-0.467-3.706-1.402-5.031
		C246.613,50.571,245.428,49.908,243.992,49.908z"/>
	<path fill="#010101" d="M273.852,45.459h5.754v22.777c0,2.585-0.945,4.592-2.834,6.021c-1.891,1.429-4.545,2.143-7.961,2.143
		c-2.945,0-5.303-0.565-7.074-1.694c-1.773-1.129-2.673-2.647-2.7-4.551h5.954c0.461,1.714,1.803,2.571,4.023,2.571
		c1.436,0,2.602-0.417,3.496-1.249c0.895-0.833,1.342-1.919,1.342-3.257v-2.991c-1.059,1.208-2.039,2.045-2.947,2.512
		c-0.908,0.466-2,0.7-3.271,0.7c-2.73,0-4.92-1.047-6.572-3.143c-1.651-2.096-2.476-4.858-2.476-8.288
		c0-3.401,0.873-6.238,2.619-8.509c1.746-2.272,3.932-3.409,6.551-3.409c2.438,0,4.471,1.262,6.098,3.787V45.459z M268.973,49.908
		c-1.381,0-2.5,0.649-3.354,1.948c-0.854,1.298-1.279,2.989-1.279,5.072c0,1.975,0.42,3.585,1.26,4.829
		c0.84,1.245,1.938,1.866,3.293,1.866c1.488,0,2.703-0.622,3.637-1.866c0.936-1.244,1.402-2.854,1.402-4.829
		c0-2.028-0.467-3.706-1.402-5.031C271.596,50.571,270.41,49.908,268.973,49.908z"/>
	<path fill="#010101" d="M290.295,68.44c-2.023,0-3.652-0.608-4.883-1.824c-1.231-1.216-1.847-2.822-1.847-4.818
		c0-3.869,2.176-6.168,6.526-6.899l2.273-0.406c0.054,0,0.325-0.034,0.813-0.102c0.487-0.067,0.799-0.121,0.934-0.162
		c0.135-0.041,0.399-0.101,0.792-0.183c0.393-0.081,0.67-0.176,0.832-0.284s0.358-0.25,0.589-0.426
		c0.229-0.176,0.386-0.379,0.467-0.609c0.081-0.229,0.122-0.494,0.122-0.792c0-1.46-1.097-2.191-3.288-2.191
		c-1.408,0-2.396,0.215-2.964,0.645c-0.569,0.43-0.921,1.208-1.056,2.335h-5.547c0.354-5.088,3.502-7.633,9.444-7.633
		c6.11,0,9.166,2.268,9.166,6.804v12.18c0,1.018,0.435,1.926,1.306,2.724v0.702h-6.347c-0.449-0.55-0.674-1.293-0.674-2.229
		C294.95,67.384,292.731,68.44,290.295,68.44z M296.913,58.632V57.09c-0.514,0.244-1.313,0.474-2.396,0.69l-1.948,0.365
		c-1.191,0.244-2.03,0.596-2.518,1.056s-0.73,1.109-0.73,1.948c0,0.812,0.277,1.455,0.832,1.928s1.306,0.71,2.253,0.71
		c1.435,0,2.544-0.447,3.329-1.339C296.521,61.554,296.913,60.283,296.913,58.632z"/>
	<path fill="#010101" d="M321.936,45.459h5.755v22.777c0,2.585-0.945,4.592-2.835,6.021c-1.891,1.429-4.544,2.143-7.96,2.143
		c-2.945,0-5.304-0.565-7.075-1.694c-1.772-1.129-2.673-2.647-2.699-4.551h5.954c0.46,1.714,1.802,2.571,4.023,2.571
		c1.436,0,2.601-0.417,3.495-1.249c0.895-0.833,1.342-1.919,1.342-3.257v-2.991c-1.058,1.208-2.039,2.045-2.947,2.512
		c-0.908,0.466-1.999,0.7-3.271,0.7c-2.729,0-4.92-1.047-6.571-3.143s-2.477-4.858-2.477-8.288c0-3.401,0.873-6.238,2.619-8.509
		c1.746-2.272,3.931-3.409,6.551-3.409c2.438,0,4.47,1.262,6.097,3.787V45.459z M317.058,49.908c-1.382,0-2.5,0.649-3.354,1.948
		c-0.854,1.298-1.279,2.989-1.279,5.072c0,1.975,0.419,3.585,1.259,4.829c0.841,1.245,1.938,1.866,3.293,1.866
		c1.489,0,2.703-0.622,3.638-1.866c0.935-1.244,1.402-2.854,1.402-4.829c0-2.028-0.468-3.706-1.402-5.031
		C319.68,50.571,318.494,49.908,317.058,49.908z"/>
	<path fill="#010101" d="M341.855,45.091c0.952,0,1.877,0.109,2.775,0.327c0.897,0.218,1.816,0.612,2.755,1.184
		c0.939,0.572,1.756,1.3,2.449,2.184c0.694,0.884,1.259,2.055,1.694,3.51c0.435,1.456,0.653,3.123,0.653,5
		c0,0.327-0.015,0.653-0.041,0.979h-14.735c0.026,0.85,0.102,1.583,0.224,2.199c0.123,0.617,0.341,1.219,0.653,1.809
		s0.775,1.042,1.388,1.357c0.612,0.315,1.381,0.472,2.307,0.472c2.177,0,3.633-0.938,4.367-2.816h5.634
		c-0.627,2.178-1.864,3.913-3.715,5.205s-4.015,1.939-6.49,1.939c-3.132,0-5.602-1.014-7.41-3.041
		c-1.809-2.027-2.713-4.81-2.713-8.348c0-3.7,0.911-6.619,2.734-8.755S338.698,45.091,341.855,45.091z M346.264,54.48
		c-0.137-1.619-0.579-2.867-1.327-3.745c-0.748-0.878-1.789-1.317-3.122-1.317c-2.504,0-3.946,1.688-4.327,5.062H346.264z"/>
	<path fill="#010101" d="M373.571,37.744v29.757h-5.756V37.744H373.571z"/>
	<path fill="#010101" d="M388.693,45.091c3.462,0,6.154,1.041,8.076,3.123c1.923,2.082,2.884,4.986,2.884,8.714
		c0,3.538-0.981,6.341-2.944,8.409s-4.621,3.103-7.975,3.103c-3.408,0-6.08-1.046-8.016-3.138c-1.936-2.092-2.903-4.938-2.903-8.536
		s0.968-6.444,2.903-8.536S385.313,45.091,388.693,45.091z M388.734,49.745c-1.545,0-2.792,0.649-3.74,1.948
		c-0.949,1.299-1.423,2.99-1.423,5.073c0,2.083,0.474,3.774,1.423,5.073c0.948,1.298,2.195,1.948,3.74,1.948
		c1.518,0,2.758-0.643,3.721-1.928c0.961-1.285,1.443-2.956,1.443-5.012c0-2.164-0.469-3.889-1.403-5.174
		C391.56,50.388,390.306,49.745,388.734,49.745z"/>
	<path fill="#010101" d="M413.287,49.745c-3.103,0-4.653,2.395-4.653,7.184c0,2.137,0.414,3.814,1.244,5.032
		s1.966,1.826,3.409,1.826c1.115,0,1.985-0.303,2.612-0.909c0.625-0.606,1.115-1.609,1.469-3.01h5.47
		c-0.271,2.64-1.272,4.729-3,6.266c-1.729,1.537-3.926,2.307-6.592,2.307c-3.267,0-5.812-1.006-7.635-3.021
		c-1.822-2.014-2.733-4.844-2.733-8.491c0-3.755,0.918-6.667,2.754-8.734c1.836-2.068,4.401-3.103,7.695-3.103
		c2.749,0,4.974,0.762,6.674,2.286c1.701,1.524,2.646,3.633,2.837,6.327h-5.47c-0.326-1.427-0.796-2.444-1.408-3.05
		S414.456,49.745,413.287,49.745z"/>
	<path fill="#010101" d="M432.432,54.031l7.225-8.572h6.49l-7.511,8.327l8.041,13.715h-6.694l-5.266-9.715l-2.285,2.49v7.225h-5.756
		V37.744h5.756V54.031z"/>
	<path fill="#010101" d="M458.882,45.091c0.952,0,1.877,0.109,2.775,0.327c0.897,0.218,1.816,0.612,2.755,1.184
		c0.939,0.572,1.756,1.3,2.449,2.184c0.694,0.884,1.259,2.055,1.694,3.51c0.435,1.456,0.653,3.123,0.653,5
		c0,0.327-0.015,0.653-0.041,0.979h-14.735c0.026,0.85,0.102,1.583,0.224,2.199c0.123,0.617,0.341,1.219,0.653,1.809
		s0.775,1.042,1.388,1.357c0.612,0.315,1.381,0.472,2.307,0.472c2.177,0,3.633-0.938,4.367-2.816h5.634
		c-0.627,2.178-1.864,3.913-3.715,5.205s-4.015,1.939-6.49,1.939c-3.132,0-5.602-1.014-7.41-3.041
		c-1.809-2.027-2.713-4.81-2.713-8.348c0-3.7,0.911-6.619,2.734-8.755S455.725,45.091,458.882,45.091z M463.29,54.48
		c-0.137-1.619-0.579-2.867-1.327-3.745c-0.748-0.878-1.789-1.317-3.122-1.317c-2.504,0-3.946,1.688-4.327,5.062H463.29z"/>
	<path fill="#010101" d="M473.494,45.459h5.756v3.927c0.598-1.369,1.441-2.427,2.53-3.174c1.088-0.747,2.286-1.121,3.592-1.121
		c0.245,0,0.476,0.013,0.694,0.037v5.31c-0.681-0.108-1.279-0.163-1.796-0.163c-3.348,0-5.021,1.723-5.021,5.167v12.058h-5.756
		V45.459z"/>
</g>
<g>
	<g>
		<path fill="#010101" d="M156.857,24.971c0,0-30.586-0.01-40.777-0.002h-2.395c-0.406,0-0.678,0-0.865,0.014v-0.012
			c-4.434,0-6.877,2.461-6.877,6.924v44.211c0,4.352,2.297,6.646,6.645,6.646h44.398c4.41,0,6.645-2.236,6.645-6.646V31.895
			C163.631,27.369,161.287,24.971,156.857,24.971z"/>
		<path fill="#FFFFFF" d="M156.857,27.111c0,0-19.58-0.006-32.627-0.006c-5.982,0-8.943,0.002-10.314,0.004v0.002h-1.096
			c-3.273,0-4.736,1.477-4.736,4.783v44.211c0,3.16,1.348,4.506,4.504,4.506h44.398c3.199,0,4.506-1.303,4.506-4.506V31.895
			C161.492,28.541,160.107,27.111,156.857,27.111z"/>
		<g id="layer1_6_" transform="translate(-131.99982,-72.456657)">
			<path id="path3136_1_" fill="#010101" d="M257.051,111.22v0.643v4.59h1.287v-3.949h27.34v27.338h-27.34v-18.082h-1.287v19.369
				h29.912V111.22H257.051z M250.013,115.814c-1.809,0-3.277,1.469-3.277,3.279l0,0c0,1.809,1.467,3.277,3.275,3.277
				c0.002,0,0.002,0,0.002,0c1.434,0,2.701-0.934,3.129-2.303h0.398v0.262c0,0.328,0.262,0.59,0.586,0.59
				c0.328,0,0.592-0.262,0.592-0.59v-0.262h0.697l0.777-0.877l1.176,0.877l0.752-0.852l0.998,0.9l0.852-0.85l1.025,0.85l0.828-0.746
				l-0.926-1.455h-6.18v-0.088c0-0.324-0.264-0.588-0.592-0.588c-0.324,0-0.586,0.264-0.586,0.588v0.088h-0.469
				C252.586,116.65,251.371,115.814,250.013,115.814L250.013,115.814z M248.638,118.091c0.551,0,1,0.449,1,1.002
				c0,0.551-0.449,1-1,1l0,0c-0.555,0-1.004-0.449-1.004-1l0,0C247.635,118.541,248.084,118.091,248.638,118.091L248.638,118.091z
				 M270.861,120.052c-0.623,0-1.125,0.5-1.125,1.125v1.436h-4.561v13.664h13.996v-13.664h-4.564v-1.436
				c0-0.625-0.502-1.125-1.123-1.125H270.861z M271.353,120.929h1.641c0.387,0,0.699,0.314,0.699,0.699v0.984h-3.043v-0.984
				C270.65,121.244,270.965,120.929,271.353,120.929L271.353,120.929z M263.539,122.613c-0.834,0-1.508,0.674-1.508,1.508v10.65
				c0,0.832,0.674,1.506,1.508,1.506h0.266v-13.664H263.539z M280.541,122.613v13.664h0.266c0.836,0,1.504-0.674,1.504-1.506v-10.65
				c0-0.834-0.668-1.508-1.504-1.508H280.541z"/>
		</g>
	</g>
	<g>
		<path fill="#010101" d="M156.857,100.225c0,0-30.586-0.01-40.777-0.008l-2.393,0.002c-0.408,0-0.68,0-0.865,0.016v-0.01
			c-4.436,0-6.879,2.455-6.879,6.922v44.211c0,4.346,2.297,6.645,6.645,6.645h44.396c4.412,0,6.646-2.236,6.646-6.645v-44.211
			C163.631,102.617,161.287,100.225,156.857,100.225z"/>
		<path fill="#FFFFFF" d="M156.857,102.363c0,0-19.58-0.008-32.625-0.008c-5.984,0-8.945,0.004-10.316,0.004v0.004h-1.094
			c-3.277,0-4.736,1.475-4.736,4.783v44.211c0,3.154,1.346,4.502,4.502,4.502h44.396c3.201,0,4.506-1.301,4.506-4.502v-44.211
			C161.49,103.793,160.105,102.363,156.857,102.363z"/>
		<g id="layer1_7_" transform="translate(-126.28436,-41.992928)">
			<path id="rect3876_1_" fill="#010101" d="M255.421,155.688c-0.389,0-0.699,0.313-0.699,0.701v3.555
				c0,0.389,0.311,0.701,0.699,0.701h11.424c0.389,0,0.699-0.313,0.699-0.701v-3.555c0-0.389-0.311-0.701-0.699-0.701H255.421z
				 M255.825,156.489h2.852v0.596h-1.061v2.918h-0.725v-2.918h-1.066V156.489z M259.808,156.489h0.766l1.436,3.514h-0.787
				l-0.313-0.797h-1.436l-0.295,0.797h-0.771L259.808,156.489z M262.146,156.489h0.848l0.719,1.131l0.705-1.131h0.842l-1.121,1.707
				l1.23,1.807h-0.875l-0.795-1.215l-0.801,1.215h-0.869l1.229-1.832L262.146,156.489z M265.718,156.489h0.725v3.514h-0.725V156.489
				z M260.183,157.309l-0.486,1.305h0.98L260.183,157.309z M252.636,161.948c-1.445,0-2.232,1.236-2.627,2.623l-1.75,6.174h-0.783
				c-1.131,0-2.041,0.912-2.041,2.045v7.492c0,1.129,0.91,2.041,2.041,2.041h0.705c-0.016,0.24-0.029,0.502-0.029,0.785v1.324
				c0,0.998,0.119,1.795,0.266,1.795h3.063c0.148,0,0.268-0.797,0.268-1.795v-1.324c0-0.283-0.012-0.545-0.029-0.785h18.832
				c-0.018,0.24-0.029,0.502-0.029,0.785v1.324c0,0.998,0.119,1.795,0.266,1.795h3.063c0.148,0,0.268-0.797,0.268-1.795v-1.324
				c0-0.283-0.012-0.545-0.029-0.785h0.703c1.133,0,2.043-0.912,2.043-2.041v-7.492c0-1.133-0.91-2.045-2.043-2.045h-0.781
				l-1.752-6.174c-0.396-1.387-1.182-2.623-2.625-2.623H252.636z M252.636,163.108h16.996c0.822,0,1.24,0.674,1.467,1.463
				l1.75,6.174h-23.43l1.75-6.174C251.394,163.782,251.816,163.108,252.636,163.108L252.636,163.108z M251.329,172.643
				c1.611,0,2.916,1.311,2.916,2.918s-1.305,2.916-2.916,2.916l0,0c-1.609,0-2.916-1.309-2.916-2.916l0,0
				C248.413,173.954,249.72,172.643,251.329,172.643z M270.937,172.643c1.611,0,2.914,1.311,2.916,2.918
				c0,1.607-1.305,2.916-2.916,2.916l0,0c-1.609,0-2.916-1.309-2.916-2.914v-0.002C268.021,173.954,269.327,172.643,270.937,172.643
				L270.937,172.643z"/>
		</g>
	</g>
	<g>
		<path fill="#010101" d="M156.787,175.41c0,0-30.619-0.008-40.82-0.004h-2.396c-0.408,0-0.682,0-0.867,0.016v-0.012
			c-4.439,0-6.885,2.461-6.885,6.93v44.258c0,4.354,2.301,6.652,6.65,6.652h44.445c4.416,0,6.654-2.238,6.654-6.652V182.34
			C163.568,177.809,161.223,175.41,156.787,175.41z"/>
		<path fill="#FFFFFF" d="M156.787,177.555c0,0-19.602-0.008-32.662-0.008c-5.988,0-8.951,0.002-10.328,0.002l-0.002,0.006h-1.092
			c-3.279,0-4.742,1.477-4.742,4.785v44.258c0,3.164,1.346,4.516,4.508,4.516h44.445c3.205,0,4.512-1.309,4.512-4.516V182.34
			C161.426,178.984,160.039,177.555,156.787,177.555z"/>
		<g id="Subway" transform="translate(-70.057632,-101.99311)">
			<path id="rect1750_1_" fill="#010101" d="M204.343,286.11c-7.297,0-13.17,5.877-13.17,13.168v1.012
				c0,0.063,0.002,0.123,0.002,0.184c0,0.02-0.002,0.035-0.002,0.051v14.848c0,0.896,0.691,1.613,1.551,1.613h24.178
				c0.857,0,1.549-0.717,1.549-1.613v-14.848c0-0.016-0.002-0.031-0.002-0.043c0.002-0.068,0.002-0.129,0.002-0.191v-1.012
				c0-7.291-5.873-13.168-13.168-13.168H204.343z M202.72,288.161h4.184c0.633,0,1.143,0.51,1.143,1.143v0.457
				c0,0.631-0.51,1.139-1.143,1.139h-4.184c-0.633,0-1.141-0.508-1.141-1.139v-0.457
				C201.579,288.671,202.087,288.161,202.72,288.161z M196.649,292.212h2.434c0.484,0,0.873,0.285,0.873,0.641v13.875
				c0,0.354-0.389,0.637-0.873,0.637h-4.367c-0.482,0-0.871-0.283-0.871-0.637v-8.939
				C194.356,295.673,195.278,293.372,196.649,292.212z M203.097,292.212h3.428c0.643,0,1.16,0.305,1.16,0.676v13.807
				c0,0.373-0.518,0.67-1.16,0.67h-3.428c-0.641,0-1.156-0.297-1.156-0.67v-13.807C201.94,292.517,202.456,292.212,203.097,292.212z
				 M210.54,292.212h2.436c1.369,1.16,2.291,3.461,2.805,5.576v8.939c0,0.354-0.391,0.637-0.873,0.637h-4.367
				c-0.486,0-0.875-0.283-0.875-0.637v-13.875C209.665,292.497,210.054,292.212,210.54,292.212z M196.378,309.052
				c1.232,0,2.234,1,2.234,2.236c0,1.232-1.002,2.232-2.234,2.232s-2.23-1-2.23-2.232
				C194.147,310.052,195.146,309.052,196.378,309.052z M213.243,309.052c1.236,0,2.234,1,2.234,2.236
				c0,1.232-0.998,2.232-2.234,2.232c-1.232,0-2.23-1-2.23-2.232C211.013,310.052,212.011,309.052,213.243,309.052z
				 M193.003,318.087l-4.568,8.164h3.797l3.057-8.164H193.003z M214.333,318.087l3.059,8.164h3.797l-4.57-8.164H214.333z"/>
		</g>
	</g>
</g>
<g id="layer1_3_" transform="translate(-102.25298,-172.11508)">
	<path id="path2252" fill="#010101" d="M167.491,321.342l-11.855-11.859h31.373v-7.574V301.9v-7.582h-31.373
		l11.855-11.855h-19.977l-20.506,19.445l20.506,19.434H167.491z"/>
	<g id="layer1_4_" transform="translate(-102.25298,-172.11508)">
		<path id="path2252_1_" fill="#010101" d="M242.07,406.314l11.859-11.857v31.375h7.578h0.004h7.582v-31.375
			l11.857,11.857v-19.979l-19.443-20.506l-19.438,20.506V406.314z"/>
	</g>
	<g id="layer1_5_" transform="translate(-102.25298,-172.11508)">
		<path id="path2252_2_" fill="#010101" d="M281.783,557.484l-16.768-0.004l22.184-22.184l-5.357-5.355
			l-0.004-0.006l-5.361-5.361l-22.184,22.184l-0.002-16.766l-14.125,14.125l-0.75,28.25l28.242-0.758L281.783,557.484z"/>
	</g>
</g>
<g>
</g>
<g>
</g>
<g>
</g>
<g>
</g>
<g>
</g>
<g>
</g>
</svg>
