<?xml version="1.0" encoding="UTF-8" standalone="no"?>
<!-- Created with Inkscape (http://www.inkscape.org/) -->

<svg
   width="49.741665mm"
   height="49.741665mm"
   viewBox="0 0 49.741665 49.741665"
   version="1.1"
   id="svg1"
   inkscape:version="1.3.2 (091e20e, 2023-11-25, custom)"
   sodipodi:docname="Zeichnung-3.svg"
   xmlns:inkscape="http://www.inkscape.org/namespaces/inkscape"
   xmlns:sodipodi="http://sodipodi.sourceforge.net/DTD/sodipodi-0.dtd"
   xmlns="http://www.w3.org/2000/svg"
   xmlns:svg="http://www.w3.org/2000/svg">
  <sodipodi:namedview
     id="namedview1"
     pagecolor="#ffffff"
     bordercolor="#000000"
     borderopacity="0.25"
     inkscape:showpageshadow="2"
     inkscape:pageopacity="0.0"
     inkscape:pagecheckerboard="0"
     inkscape:deskcolor="#d1d1d1"
     inkscape:document-units="mm"
     inkscape:zoom="0.74029882"
     inkscape:cx="93.881009"
     inkscape:cy="93.881009"
     inkscape:window-width="1920"
     inkscape:window-height="1009"
     inkscape:window-x="-8"
     inkscape:window-y="-8"
     inkscape:window-maximized="1"
     inkscape:current-layer="layer1" />
  <defs
     id="defs1" />
  <g
     inkscape:label="Ebene 1"
     inkscape:groupmode="layer"
     id="layer1"
     transform="translate(-79.904167,-123.56041)">
    <rect
       style="display:inline;fill:#ffffff;fill-opacity:1;stroke:none;stroke-width:2.01819"
       id="rect70551"
       width="49.741665"
       height="49.741665"
       x="79.904167"
       y="123.56041"
       inkscape:label="1" />
    <path
       id="rect4880"
       style="fill:#000000;stroke-width:1"
       d="m 102.831,131.03343 c -0.86787,0 -1.54956,0.75199 -1.54956,1.63942 v 8.8937 l -2.169855,2.17376 c -0.46177,0.44881 -0.74062,0.88629 -0.5523,1.25401 0.19866,0.38792 0.62029,0.38249 1.22215,0.38249 l 1.500005,-0.0267 v 1.45921 c 0,0.88743 0.68169,1.63943 1.54956,1.63943 h 18.9634 c 0.86788,0 1.55151,-0.752 1.55151,-1.63943 v -14.13645 c 0,-0.88743 -0.68363,-1.63942 -1.55151,-1.63942 z m 0,0.75244 h 18.9634 c 0.43409,0 0.79859,0.37506 0.79859,0.88698 v 14.13645 c 0,0.51192 -0.3645,0.88699 -0.79859,0.88699 H 102.831 c -0.43408,0 -0.79858,-0.37507 -0.79858,-0.88699 l -0.0233,-2.18783 -2.655635,0.0471 2.678945,-2.65562 v -9.34011 c 0,-0.51192 0.3645,-0.88698 0.79858,-0.88698 z m -8.408415,12.25948 c -1.55277,3e-5 -2.81154,1.2588 -2.81155,2.81156 2e-5,1.55277 1.25878,2.81153 2.81155,2.81155 1.55276,-2e-5 2.81152,-1.25878 2.81155,-2.81155 -2e-5,-1.55276 -1.25879,-2.81153 -2.81155,-2.81156 z m -2.89171,6.71024 c -1.53631,0 -2.77318,1.23686 -2.77318,2.77317 v 10.91978 h -2.55361 v 1.38052 H 110.4661 v -1.38052 H 98.252275 v -9.40193 l 2.479295,3.56947 c 0.76913,1.0205 1.24109,1.45737 2.49144,0.60282 l 3.898,-3.57553 c 0.5723,-0.50573 0.6262,-1.37364 0.12047,-1.94593 -0.50572,-0.5723 -1.37364,-0.6262 -1.94594,-0.12047 l -2.75113,2.49909 c -1.06454,-1.23279 -2.42878,-3.57745 -3.460345,-4.83814 -0.30848,-0.29877 -0.72916,-0.48234 -1.19447,-0.48234 z"
       sodipodi:nodetypes="csccsccssssscccsssssccccsccccccccsccccccccccscccsc"
       inkscape:label="1" />
  </g>
</svg>
