<?xml version="1.0" encoding="utf-8"?>
<!-- Generator: Adobe Illustrator 16.0.3, SVG Export Plug-In . SVG Version: 6.00 Build 0)  -->
<!DOCTYPE svg PUBLIC "-//W3C//DTD SVG 1.1//EN" "http://www.w3.org/Graphics/SVG/1.1/DTD/svg11.dtd">
<svg version="1.1" xmlns="http://www.w3.org/2000/svg" xmlns:xlink="http://www.w3.org/1999/xlink" x="0px" y="0px"
	 width="506.925px" height="203.872px" viewBox="0 0 506.925 203.872" enable-background="new 0 0 506.925 203.872"
	 xml:space="preserve">
<g id="Layer_1">
</g>
<g id="Layer_4">
	<g>
		<rect x="3.543" y="3.543" fill="#FFFFFF" width="499.838" height="196.785"/>
		<path d="M499.838,7.086v189.699H7.086V7.086H499.838 M506.925,0h-7.087H7.086H0v7.086v189.699v7.087h7.086h492.751h7.087v-7.087
			V7.086V0L506.925,0z"/>
	</g>
</g>
<g id="svg2280">
	<g id="layer1_2_" transform="translate(-102.25298,-172.11508)">
		<path id="path2252_1_" fill="#010101" d="M186.285,239.252l-36.182,34.3l36.182,34.299h35.246l-20.92-20.922
			h64.463v-13.371v-0.012v-13.373h-64.463l20.92-20.924L186.285,239.252z"/>
	</g>
</g>
<g id="svg70418">
	<path id="rect74478" fill="#010101" d="M282.817,49.869c-4.356,0-7.889,3.532-7.889,7.89s3.532,7.89,7.889,7.89
		c4.357,0,7.891-3.532,7.891-7.89S287.175,49.869,282.817,49.869L282.817,49.869z M224.823,50.417c-4.357,0-7.89,3.532-7.889,7.89
		c0,4.357,3.532,7.89,7.889,7.89c4.357,0,7.89-3.532,7.89-7.89C232.713,53.949,229.181,50.417,224.823,50.417z M273.634,67.727
		c-2.686,0.35-3.264,1.949-3.995,3.73l-9.649,30.557c-0.584,1.848,0.275,3.756,1.926,4.277s3.449-0.549,4.032-2.396l7.98-25.273
		v17.563l-7.548,51.761c-0.353,2.414,1.309,4.643,3.725,4.996l0.105,0.014c2.416,0.354,4.645-1.307,4.996-3.723l5.756-39.473
		c0.036-1.268,3.658-1.316,3.748,0.035l5.752,39.438c0.352,2.416,2.58,4.076,4.996,3.723l0.105-0.014
		c2.416-0.354,4.078-2.582,3.725-4.996l-7.547-51.761V78.621l7.98,25.273c0.583,1.848,2.381,2.918,4.031,2.396
		c1.651-0.521,2.51-2.43,1.926-4.277l-9.649-30.557c-0.721-2.058-2.157-3.685-3.995-3.73h-3.451h-3.826h-7.672H273.634z
		 M215.639,68.275c-2.685,0.349-3.264,1.947-3.995,3.729l-9.649,30.557c-0.584,1.85,0.274,3.758,1.925,4.279
		s3.449-0.549,4.033-2.398l7.516-23.801l2.881,10.219c-0.261,0.502-0.472,1.104-0.675,1.732l-10.5,32.484
		c-0.52,1.609,1.089,3.053,2.442,3.053h7.471l3.293,20.607c0.374,2.336,1.989,4.266,4.459,4.266s4.086-1.93,4.459-4.266
		l3.293-20.607h7.471c1.354,0,2.962-1.443,2.442-3.053l-10.5-32.484c-0.203-0.629-0.414-1.23-0.675-1.732l2.881-10.219l7.516,23.801
		c0.584,1.85,2.383,2.92,4.033,2.398c1.651-0.521,2.509-2.43,1.925-4.279l-9.649-30.557c-0.721-2.057-2.157-3.684-3.994-3.729
		h-3.452h-3.826h-7.673H215.639z"/>
	<path id="svg_3" fill="#010101" d="M408.533,59.332c0,4.979,4.078,9.079,9.166,9.079c5.045,0,9.152-4.101,9.152-9.079
		c0-5.033-4.107-9.079-9.152-9.079C412.611,50.252,408.533,54.298,408.533,59.332z M416.441,70.501
		c-3.723,0.059-6.82,2.416-7.188,5.664l-1.307,11.572H390.09c-1.977,0-3.568,1.592-3.568,3.568s1.592,3.568,3.568,3.568h17.051
		l-1.027,9.116h-19.957c-3.221,0.135-4.492,0.871-6.031,3.859l-11.949,27.457c-1.248,2.871-0.16,6.094,2.439,7.225l0.473,0.205
		c2.6,1.131,5.699-0.27,6.949-3.139l10.908-25.072h22.947c4.43,0.057,7.391-0.988,9.152-5.91l3.469-30.727
		c0.404-3.584-2.672-6.853-6.898-7.33C417.219,70.513,416.826,70.496,416.441,70.501L416.441,70.501z M424.75,101.083
		c4.91,4.664,7.965,11.263,7.965,18.599c0,14.199-11.436,25.635-25.633,25.635c-9.848,0-18.361-5.5-22.656-13.607l-3.477,7.986
		c6.029,7.85,15.504,12.924,26.133,12.924c18.146,0,32.936-14.789,32.936-32.938c0-11.314-5.752-21.323-14.48-27.256L424.75,101.083
		z"/>
</g>
</svg>
