<?xml version="1.0" encoding="UTF-8" standalone="no"?>
<!-- Created with Inkscape (http://www.inkscape.org/) -->

<svg
   width="52.917mm"
   height="52.917mm"
   viewBox="0 0 52.917 52.917"
   version="1.1"
   id="svg1"
   inkscape:version="1.3.2 (091e20e, 2023-11-25, custom)"
   sodipodi:docname="ISO_7001_PI_AC_023.svg"
   xmlns:inkscape="http://www.inkscape.org/namespaces/inkscape"
   xmlns:sodipodi="http://sodipodi.sourceforge.net/DTD/sodipodi-0.dtd"
   xmlns="http://www.w3.org/2000/svg"
   xmlns:svg="http://www.w3.org/2000/svg">
  <sodipodi:namedview
     id="namedview1"
     pagecolor="#ffffff"
     bordercolor="#000000"
     borderopacity="0.25"
     inkscape:showpageshadow="2"
     inkscape:pageopacity="0.0"
     inkscape:pagecheckerboard="0"
     inkscape:deskcolor="#d1d1d1"
     inkscape:document-units="mm"
     inkscape:zoom="0.74029882"
     inkscape:cx="-176.28017"
     inkscape:cy="151.96566"
     inkscape:window-width="1920"
     inkscape:window-height="1009"
     inkscape:window-x="-8"
     inkscape:window-y="-8"
     inkscape:window-maximized="1"
     inkscape:current-layer="layer1" />
  <defs
     id="defs1" />
  <g
     inkscape:label="Ebene 1"
     inkscape:groupmode="layer"
     id="layer1"
     transform="translate(-151.60625,-108.21458)">
    <rect
       style="fill:#ffffff;fill-opacity:1;stroke:none;stroke-width:2.01819"
       id="rect70551"
       width="52.917"
       height="52.917"
       x="151.60625"
       y="108.21458" />
    <path
       id="path1-22-5"
       style="color:#000000;display:inline;fill:#000000;stroke-width:0.999996;-inkscape-stroke:none"
       d="m 159.42144,113.17956 c -0.6768,0 -1.22783,0.54242 -1.22783,1.2175 0,0.66775 0.55103,1.21801 1.22783,1.21801 0.68238,0 1.22938,-0.55026 1.22938,-1.21801 0,-0.67508 -0.547,-1.2175 -1.22938,-1.2175 z m 36.04121,1.75804 c -0.94883,4e-5 -1.71778,0.76941 -1.71772,1.71824 4e-5,0.94875 0.76896,1.71769 1.71772,1.71772 0.94876,-3e-5 1.71769,-0.76897 1.71773,-1.71772 6e-5,-0.94883 -0.7689,-1.7182 -1.71773,-1.71824 z m -35.87274,0.95756 c -0.0516,-7.6e-4 -0.10447,0.002 -0.15762,0.008 -0.56693,0.064 -0.97927,0.50221 -0.925,0.98289 l 0.46508,4.12171 c 0.23633,0.65996 0.63315,0.80028 1.22732,0.79271 h 3.07836 l 1.46296,3.36259 c 0.16752,0.38499 0.58352,0.57291 0.93225,0.42116 l 0.063,-0.0274 c 0.34874,-0.15174 0.49464,-0.58445 0.32711,-0.96945 l -1.60249,-3.68246 c -0.20642,-0.40081 -0.3769,-0.49943 -0.80873,-0.51728 h -2.67684 l -0.13798,-1.22318 h 2.28668 c 0.26517,0 0.47904,-0.21336 0.47904,-0.47853 0,-0.26517 -0.21387,-0.47852 -0.47904,-0.47852 h -2.39468 l -0.17519,-1.55236 c -0.0492,-0.43563 -0.46486,-0.75179 -0.96428,-0.75964 z m 32.38872,2.73523 c -0.41806,0 -0.755,0.33641 -0.755,0.75448 0,0.41806 0.33694,0.75499 0.755,0.75499 h 1.7017 v 1.54151 h 3.56464 v -1.54151 h 1.70171 c 0.41806,0 0.75499,-0.33693 0.75499,-0.75499 0,-0.41807 -0.33693,-0.75448 -0.75499,-0.75448 z m -33.6088,0.20568 c -1.17083,0.79574 -1.942,2.13836 -1.942,3.6561 0,2.43398 1.98332,4.41731 4.4173,4.41731 1.42548,0 2.69668,-0.68046 3.50521,-1.73323 l -0.46612,-1.07125 c -0.576,1.08733 -1.71836,1.82521 -3.03909,1.82521 -1.90448,0 -3.43803,-1.53358 -3.43803,-3.43804 0,-0.98415 0.40952,-1.8693 1.06815,-2.49494 z m 15.58922,0.9865 c -1.46341,-1e-5 -2.64946,1.18604 -2.64945,2.64945 -1e-5,1.46344 1.18605,2.64998 2.64945,2.64997 1.46344,1e-5 2.64998,-1.18653 2.64997,-2.64997 1e-5,-1.46341 -1.18652,-2.64946 -2.64997,-2.64945 z m 19.68976,2.2872 c -0.38606,0.35118 -0.78029,0.7188 -1.16324,1.06453 -0.2676,0.2648 -0.26955,0.69308 -0.005,0.96067 l 1.47278,1.48828 c 0.2648,0.26759 0.69308,0.2699 0.96067,0.005 0.2676,-0.2648 0.26991,-0.69359 0.005,-0.96118 l -0.66404,-0.67076 0.6103,-0.55914 z m 3.62769,0 -1.21647,1.32757 0.60978,0.55913 -0.66404,0.67077 c -0.2648,0.26758 -0.26247,0.69637 0.005,0.96118 0.26759,0.26478 0.69638,0.26246 0.96118,-0.005 l 1.47278,-1.48829 c 0.26479,-0.26758 0.26231,-0.69585 -0.005,-0.96066 -0.38295,-0.34572 -0.77716,-0.71334 -1.16323,-1.06453 z m -26.30073,3.48092 c -0.92712,0.12066 -1.12687,0.67284 -1.37924,1.28778 l -2.54816,7.59799 c 0.66899,-0.52333 1.24574,-0.99578 1.90531,-1.4826 0.12636,-0.0933 0.27936,-0.18065 0.41237,-0.23255 0.22322,-0.087 0.71802,-0.0767 0.79065,-0.0739 0.18175,-1.33164 0.31561,-1.79605 0.48059,-1.78025 0.17847,0.0171 0.29146,0.75112 0.29146,1.99988 l 5.88129,3.16156 0.53124,-0.008 0.007,-0.6444 -0.10336,-4.21008 c -0.0112,-0.37826 0.2542,-0.31787 0.37466,0.24598 l 1.51515,4.40955 c 1.03281,-0.006 1.67266,-0.009 2.25826,-0.0134 l -2.98431,-8.97 c -0.24886,-0.71021 -0.74484,-1.2721 -1.37925,-1.28777 h -1.19165 -1.32137 -2.3487 z m -0.94206,7.45278 c -0.22119,-0.007 -0.50514,0.0157 -0.69866,0.1633 -1.16108,0.8858 -0.98015,0.78773 -2.53783,2.06343 l -3.93723,3.14451 c -0.54242,0.4332 -0.63009,1.21872 -0.19689,1.76114 l 0.0889,0.11058 c 0.4332,0.54243 1.21872,0.63061 1.76114,0.19741 l 5.071,-4.04988 c 0.50616,-0.42791 0.65427,-0.43306 1.14205,-0.11886 1.18221,0.7229 2.35012,1.4823 3.53416,2.19677 0.0969,-0.0226 0.19942,-0.0357 0.30799,-0.0357 h 0.002 7.08794 l 4.2695,-1.14412 0.0935,0.3514 -4.31653,1.156 h -7.13445 c -0.31811,0.001 -0.54116,0.12389 -0.69919,0.30696 -0.158,0.18308 -0.24611,0.43372 -0.25011,0.68523 -0.004,0.25154 0.0737,0.49855 0.22634,0.67386 0.15266,0.17531 0.37766,0.29019 0.71882,0.28319 h 0.002 7.78144 l 4.74183,-1.07797 0.0801,0.35553 -3.31143,0.75344 h 3.42925 c 0.67023,0 1.77457,-1.12686 1.77457,-2.38538 0,-1.2585 -0.96947,-2.22776 -2.17351,-2.22777 -2.90742,-0.0135 -5.81469,0.008 -8.72195,0.0336 -0.70071,0.006 -1.23248,0.55345 -1.23248,0.55345 l -0.75241,-0.34054 -5.2555,-3.12023 -0.12298,-0.0734 c -6.5e-4,-3.8e-4 -0.001,-1.7e-4 -0.002,-5.1e-4 -0.22471,-0.129 -0.49175,-0.20625 -0.76895,-0.2155 z m 22.02192,2.58692 c -1.4207,8e-5 -2.57239,1.15178 -2.57246,2.57245 6e-5,1.4207 1.15176,2.57238 2.57246,2.57245 1.42089,2.1e-4 2.5729,-1.15155 2.57297,-2.57245 -7e-5,-1.42087 -1.15208,-2.57266 -2.57297,-2.57245 z m -21.19458,1.34048 -0.16743,3.83801 h 2.95124 c -0.0233,-0.0223 -0.0508,-0.041 -0.0718,-0.0651 -0.22165,-0.25455 -0.32071,-0.58747 -0.31471,-0.91777 0.006,-0.3303 0.11658,-0.6613 0.33797,-0.91777 0.0706,-0.0818 0.15426,-0.15401 0.24701,-0.21601 z m -9.89448,4.25763 v 1.72341 h 1.10277 v 13.21469 h 1.67483 v -13.21469 h 27.90114 v 13.21469 h 1.67484 v -13.21469 h 1.8433 v -1.72341 z m 9.61801,2.09237 -0.44183,10.15649 c -0.12164,0.83415 0.45206,1.60328 1.28623,1.72495 l 0.0367,0.005 c 0.83416,0.12165 1.60331,-0.45152 1.72496,-1.28571 l 0.31729,-10.6009 z m 3.90467,0 0.339,10.6009 c 0.12165,0.83417 0.8913,1.40736 1.72548,1.28571 l 0.0362,-0.005 c 0.83418,-0.12164 1.40788,-0.89079 1.28623,-1.72495 l -0.44804,-10.15649 z m 12.07886,0.36897 -2.25206,3.83594 0.48834,0.28526 1.48053,-2.51923 5.2e-4,9.14414 -1.49397,-2.51664 -0.48679,0.28681 2.26187,3.81062 2.25206,-3.83594 -0.48834,-0.28526 -1.48053,2.51974 -5.2e-4,-9.14414 1.49397,2.51613 0.48679,-0.28681 z"
       sodipodi:nodetypes="ssssscscsccsccccccccccccsssccccsssccccsssscssccssccccccccccscccccccccsccccccccccsccccccccccccccccccccccccscccccccssccccccssccccccccccccccccccsscccccccccccccccccccccccccccccccccccccccccccc"
       inkscape:label="1" />
  </g>
</svg>
