<?xml version="1.0" encoding="UTF-8" standalone="no"?>
<!-- Generator: Adobe Illustrator 16.0.3, SVG Export Plug-In . SVG Version: 6.00 Build 0)  -->

<svg
   version="1.1"
   id="Layer_1"
   x="0px"
   y="0px"
   width="332.965px"
   height="121.891px"
   viewBox="-133.184 -48.756 332.965 121.891"
   enable-background="new -133.184 -48.756 332.965 121.891"
   xml:space="preserve"
   sodipodi:docname="ISO_7001_Location_Sign_-_Bilingual_-_Toilets_-_CY_EN.svg"
   inkscape:version="1.2.1 (9c6d41e410, 2022-07-14)"
   xmlns:inkscape="http://www.inkscape.org/namespaces/inkscape"
   xmlns:sodipodi="http://sodipodi.sourceforge.net/DTD/sodipodi-0.dtd"
   xmlns="http://www.w3.org/2000/svg"
   xmlns:svg="http://www.w3.org/2000/svg"><defs
   id="defs94">
	
	
	
	
	
	
	

	
	
	
	
	
	
	
	

	
	

		
	</defs><sodipodi:namedview
   id="namedview92"
   pagecolor="#505050"
   bordercolor="#eeeeee"
   borderopacity="1"
   inkscape:showpageshadow="0"
   inkscape:pageopacity="0"
   inkscape:pagecheckerboard="0"
   inkscape:deskcolor="#505050"
   showgrid="false"
   inkscape:zoom="3.6220024"
   inkscape:cx="165.37814"
   inkscape:cy="57.702889"
   inkscape:window-width="1920"
   inkscape:window-height="1017"
   inkscape:window-x="-8"
   inkscape:window-y="-8"
   inkscape:window-maximized="1"
   inkscape:current-layer="Layer_1" />
<rect
   x="-133.184"
   y="-48.756"
   fill="#FFFFFF"
   width="332.965"
   height="121.891"
   id="rect49" />
<path
   id="path51"
   d="m -86.67612,-31.974266 c -3.155234,4.45e-4 -5.783327,6.07e-4 -7.623047,0.002 -0.919861,6.49e-4 -1.643991,9.53e-4 -2.136721,0.002 -0.24637,4.53e-4 -0.43443,0.0014 -0.5625,0.002 -0.064,2.63e-4 -0.1119,-2.99e-4 -0.14648,0 -0.0158,1.37e-4 -0.02902,0.0018 -0.04102,0.002 -10e-4,1.9e-5 -0.0029,-2e-5 -0.0039,0 -0.007,1.18e-4 -0.01094,-4.66e-4 -0.02344,0 -3e-5,2e-6 -0.0019,0.0039 -0.0019,0.0039 -3.225932,0.0056 -5.883522,0.852141 -7.714852,2.654297 -1.83744,1.808165 -2.76562,4.501164 -2.76562,7.925781 v 67.585937 c 0,3.201745 0.83043,5.781003 2.57812,7.539063 1.74768,1.758059 4.33185,2.611328 7.576172,2.611328 h 67.871098 c 3.231386,0 5.814252,-0.805447 7.570312,-2.544922 1.756061,-1.739474 2.591797,-4.324488 2.591797,-7.605469 v -67.586118 c 0,-3.332985 -0.828483,-6.015578 -2.601563,-7.851563 -1.77308,-1.835984 -4.415284,-2.732421 -7.755859,-2.732421 -5e-4,0 -16.835301,-0.0054 -33.667969,-0.0078 -8.416334,-0.0012 -16.832108,-8.91e-4 -23.142578,0 z m 86.81054743,1.482422 v 5.3125 H 9.4859899 V 0.50034308 H 15.907865 V -25.179344 h 9.015625 v -5.3125 z m 55.14453057,0 v 5.3125 h 6 v -5.3125 z m 11.703125,0 V 0.50034308 h 5.992188 V -30.491844 Z m 51.187497,0 v 11.039062 c -1.434,-2.253997 -3.54445,-3.382812 -6.31445,-3.382812 -2.754,0 -5.05639,1.168002 -6.90039,3.5 -1.855,2.343998 -2.77734,5.242222 -2.77734,8.699219 0,3.4299959 0.90212,6.3089079 2.70312,8.6289056 1.817,2.32799765 4.14056,3.4882812 6.97656,3.4882812 2.734,1e-7 4.8525,-1.1137522 6.3125,-3.34375 v 2.36328128 h 5.99219 V -30.491844 Z m -204.8457,0.152344 c 6.310162,-8.9e-4 14.726321,7.19e-4 23.142578,0.002 16.832514,0.0024 33.667469,0.0059 33.667969,0.0059 3.053413,0 5.182165,0.786866 6.580078,2.234375 1.397915,1.447509 2.140625,3.649841 2.140625,6.714844 v 67.585937 c 0,3.008007 -0.738286,5.089091 -2.105469,6.44336 -1.367183,1.35427 -3.456321,2.070312 -6.419921,2.070312 h -67.871098 c -2.962652,0 -5.047452,-0.750269 -6.416012,-2.126953 -1.36856,-1.376683 -2.10156,-3.463475 -2.10156,-6.386719 v -67.586025 c 0,-3.134371 0.81708,-5.324687 2.27539,-6.759766 1.4583,-1.435078 3.63918,-2.189453 6.597652,-2.189453 h 0.03321 0.02148 1.99219 l -0.0039,-0.0039 c 0.29994,-2.96e-4 0.479973,2.56e-4 0.843751,0 1.839103,-0.0013 4.467966,-0.0035 7.623047,-0.0039 z m 225.60937,7.496093 c -6.19599,0 -9.47675,2.648225 -9.84375,7.949219 h 5.78125 c 0.145,-1.171999 0.50757,-1.984688 1.10157,-2.429687 0.586,-0.445 1.62093,-0.667969 3.08593,-0.667969 2.285,0 3.43164,0.765252 3.43164,2.28125 0,0.312 -0.0469,0.586125 -0.1289,0.828125 -0.09,0.238 -0.25428,0.448813 -0.48828,0.632812 -0.242,0.179 -0.44919,0.332407 -0.61719,0.441407 -0.164,0.113 -0.45719,0.214781 -0.86719,0.300781 -0.41,0.086 -0.68331,0.1445 -0.82031,0.1875 -0.149,0.047 -0.46456,0.101875 -0.97656,0.171875 -0.508,0.07 -0.78885,0.105469 -0.83985,0.105469 l -2.37109,0.417968 c -4.531,0.765 -6.79688,3.1604104 -6.79688,7.1914063 0,2.074998 0.64088,3.7496263 1.92188,5.01562503 1.285,1.26499875 2.98475,1.89843747 5.09375,1.89843747 2.543,0 4.84869,-1.09673655 6.92969,-3.3027343 0,0.97199898 0.23217,1.7443599 0.70117,2.31835933 h 6.60937 V -0.2320788 c -0.906,-0.8319992 -1.35937,-1.7768448 -1.35937,-2.8398437 V -15.757469 c 0,-4.726995 -3.17988,-7.085938 -9.54688,-7.085938 z m -99.701167,0.0078 c -3.522996,0 -6.292596,1.081768 -8.308593,3.259766 -2.015998,2.175997 -3.019532,5.140628 -3.019532,8.890625 0,3.7459955 1.003534,6.7106264 3.019532,8.8906242 2.015997,2.17999783 4.800659,3.2714844 8.347656,3.2714844 3.499996,0 6.269502,-1.07347093 8.3125,-3.2304688 2.042998,-2.1569978 3.070312,-5.0737224 3.070312,-8.7617188 0,-3.878996 -0.999908,-6.90622 -3.003906,-9.074218 -2.007998,-2.163998 -4.808972,-3.246094 -8.417969,-3.246094 z m 48.78125,0 c -3.284996,0 -5.867439,1.10494 -7.773437,3.335937 -1.898998,2.225998 -2.851563,5.266098 -2.851563,9.121094 0,3.6869962 0.945174,6.5813613 2.826172,8.6933592 1.890998,2.11299789 4.460753,3.1679688 7.71875,3.1679688 2.577998,0 4.837768,-0.66762642 6.759766,-2.01562505 1.929998,-1.34799865 3.218907,-3.15187725 3.878906,-5.42187495 h -5.875 c -0.765999,1.956998 -2.284971,2.9296875 -4.542969,2.9296875 -0.967999,0 -1.76925,-0.1641879 -2.40625,-0.4921875 -0.631999,-0.3279997 -1.121313,-0.8010631 -1.445312,-1.4140625 -0.321,-0.6139994 -0.554688,-1.2417194 -0.679688,-1.8867188 -0.132,-0.6369993 -0.207375,-1.4021571 -0.234375,-2.2851562 h 15.34375 c 0.035,-0.3429997 0.04687,-0.6834379 0.04687,-1.0234375 0,-1.956998 -0.230688,-3.695032 -0.679687,-5.207031 -0.46,-1.514998 -1.046438,-2.736298 -1.773438,-3.654297 -0.722999,-0.917999 -1.569876,-1.675438 -2.546875,-2.273437 -0.976999,-0.601 -1.937001,-1.008282 -2.875,-1.238282 -0.929999,-0.226999 -1.902626,-0.335937 -2.890625,-0.335937 z m -32.734375,0.375 V 0.50034308 h 6 V -22.460594 Z m 98.433592,0 v 15.9921871 c 0,2.5189975 0.66753,4.4762826 2.01953,5.86328123 1.359,1.39499865 3.26903,2.08593747 5.70703,2.08593747 2.937,10e-8 5.22247,-1.21897117 6.85547,-3.6679687 v 2.68749998 h 5.9961 0.002 V -22.460594 h -5.9961 v 14.4140621 c 0,1.3629986 -0.44345,2.4533446 -1.31445,3.2773437 -0.871,0.8239992 -2.02684,1.234375 -3.46484,1.234375 -2.539,0 -3.8086,-1.3788152 -3.8086,-4.1328125 V -22.460594 Z m -65.72656,4.128906 c 1.382998,0 2.473094,0.453189 3.246093,1.367188 0.772999,0.917999 1.242,2.214439 1.375,3.898437 h -9.132812 c 0.398999,-3.507996 1.894721,-5.265625 4.511719,-5.265625 z m -48.714844,0.339844 c 1.636998,0 2.948876,0.666673 3.921875,2.013672 0.968999,1.339999 1.460937,3.132721 1.460937,5.386719 0,2.1409971 -0.508001,3.8847037 -1.5,5.2207023 -1.007999,1.3359987 -2.300814,2.0078125 -3.882812,2.0078125 -1.601999,0 -2.910626,-0.6762513 -3.890625,-2.03125 -0.983999,-1.3549986 -1.480469,-3.1132521 -1.480469,-5.2812498 0,-2.171998 0.49647,-3.933157 1.480469,-5.285156 0.980999,-1.354999 2.281626,-2.03125 3.890625,-2.03125 z m 73.898434,0.167969 c 1.497,0 2.707,0.664907 3.625,2.003906 0.914,1.343999 1.375,3.097627 1.375,5.265625 0,2.0859975 -0.47048,3.7733134 -1.39648,5.0703121 -0.933,1.2999987 -2.12652,1.9433594 -3.60352,1.9433594 -1.461,0 -2.66366,-0.6584232 -3.59765,-1.9824219 -0.922,-1.3239987 -1.39258,-3.0312833 -1.39258,-5.1132806 0,-2.117998 0.45858,-3.847595 1.39258,-5.183594 0.93399,-1.335999 2.13665,-2.003906 3.59765,-2.003906 z m -159.960934,0.04687 c -2.515998,0 -4.5625,2.04269 -4.5625,4.554687 0,2.511998 2.046502,4.5507811 4.5625,4.5507811 2.507997,0 4.554687,-2.0347831 4.554687,-4.5507811 -0.001,-2.511997 -2.03969,-4.554687 -4.554687,-4.554687 z m -33.460938,0.316406 c -2.515997,0 -4.546875,2.034784 -4.546875,4.550781 0,2.519997 2.030878,4.5546874 4.546875,4.5546873 2.515998,0 4.554688,-2.0346903 4.554688,-4.5546873 -0.001,-2.515997 -2.03969,-4.550781 -4.554688,-4.550781 z m 222.746092,7.117205 v 1.6054688 c 0,1.7229983 -0.41056,3.0416572 -1.22656,3.9726563 -0.82,0.9289991 -1.97285,1.3984375 -3.46485,1.3984375 -0.992,0 -1.77375,-0.246188 -2.34375,-0.7421875 -0.586,-0.4879995 -0.875,-1.1599071 -0.875,-2.0039063 0,-0.8749991 0.25763,-1.5502504 0.76563,-2.03125 0.508,-0.4809995 1.37519,-0.8436565 2.61719,-1.0976562 l 2.02734,-0.3789063 c 1.137,-0.2309997 1.965,-0.4686563 2.5,-0.7226563 z m -194.582029,2.8671876 c -1.550999,0.1989998 -1.882594,1.125251 -2.308594,2.15625 l -5.570312,17.6289064 c -0.336,1.069999 0.164282,2.167844 1.113281,2.464844 0.952999,0.309 1.984125,-0.315907 2.328125,-1.378906 l 4.609375,-14.5781257 V 8.9456556 l -4.367188,29.8671874 c -0.199,1.390999 0.762064,2.687719 2.164063,2.886719 l 0.05859,0.0039 c 1.390998,0.203 2.679812,-0.749532 2.882812,-2.144531 l 3.320317,-22.78515 c 0.02,-0.729999 2.105156,-0.750374 2.160156,0.01563 l 3.324219,22.769531 c 0.198999,1.382999 1.491813,2.349484 2.882812,2.146485 l 0.06641,-0.0039 c 1.390999,-0.198999 2.346484,-1.497673 2.146485,-2.888672 L -41.631198,8.9476087 V -1.1832507 l 4.605469,14.5781257 c 0.327999,1.073999 1.367219,1.687906 2.324219,1.378906 0.952999,-0.305 1.445374,-1.394845 1.109375,-2.464844 l -5.560547,-17.6289064 c -0.422,-1.1879988 -1.249689,-2.13325 -2.304688,-2.15625 h -1.996094 -2.207031 -4.429687 z m -33.464844,0.3164062 c -1.550998,0.2029998 -1.882688,1.1253448 -2.304687,2.1523438 L -93.424167,12.62925 c -0.331999,1.069999 0.168282,2.155844 1.113282,2.464843 0.952999,0.301 1.988219,-0.319626 2.324218,-1.390625 L -85.646823,-0.02504755 -83.98276,5.87339 c -0.148,0.2849997 -0.272532,0.6411878 -0.394532,0.9921875 l -6.05664,18.7500005 c -0.301,0.921999 0.629157,1.757812 1.410156,1.757812 h 4.310547 l 1.90039,11.886719 c 0.207,1.354999 1.145314,2.474609 2.570313,2.474609 1.424998,0 2.359219,-1.12261 2.574219,-2.474609 l 1.90039,-11.884766 h 4.3125 c 0.784999,0 1.711156,-0.835813 1.410157,-1.757812 L -76.103854,6.8675306 c -0.117,-0.3519996 -0.237719,-0.7071878 -0.386719,-0.9921875 l 1.652344,-5.89843752 4.34375,13.72656242 c 0.339999,1.069999 1.379126,1.687625 2.328125,1.390625 0.952999,-0.308999 1.449281,-1.394844 1.113281,-2.464843 l -5.5625,-17.6367194 c -0.418,-1.1839988 -1.249689,-2.1293438 -2.304687,-2.1523438 h -1.992188 -2.207031 -4.429688 z M 30.814115,19.601906 v 4.441406 h 7.792968 v 21.390625 h 5.351563 V 24.043312 h 7.515625 v -4.441406 z m 45.949218,0 v 4.439453 h 5 v -4.439453 z m 9.757813,0 v 25.832031 h 5 V 19.601906 Z m 31.109374,1.960937 v 5.132813 h -2.41406 v 3.289062 h 2.41406 v 11.773438 c 0,2.991997 1.63281,4.496094 4.88281,4.496094 1.098,0 2.03885,-0.128626 2.83985,-0.390625 v -3.472657 c -0.492,0.075 -0.87091,0.101563 -1.12891,0.101563 -0.652,0 -1.08206,-0.12925 -1.28906,-0.40625 -0.211,-0.27 -0.31641,-0.831688 -0.31641,-1.679688 V 29.984718 h 2.73438 v -3.289062 h -2.73829 v -5.132813 z m -54.234374,4.417969 c -2.936997,0 -5.241689,0.910377 -6.929688,2.734375 -1.679998,1.811998 -2.519531,4.2793 -2.519531,7.404297 0,3.124997 0.839533,5.590158 2.519531,7.410156 1.687999,1.812999 3.999941,2.72461 6.960938,2.72461 2.905997,0 5.210783,-0.898315 6.925781,-2.695313 1.699998,-1.792998 2.558594,-4.229972 2.558594,-7.292969 0,-3.241996 -0.839814,-5.765314 -2.507813,-7.570312 -1.671998,-1.804998 -4.003815,-2.714844 -7.007812,-2.714844 z m 40.656254,0 c -2.734,0 -4.906381,0.918205 -6.484379,2.783203 -1.589999,1.851999 -2.378906,4.382566 -2.378906,7.601563 0,3.069997 0.78547,5.484095 2.355468,7.246094 1.570999,1.753998 3.707507,2.640625 6.437497,2.640625 2.149,0 4.02382,-0.566408 5.63281,-1.691407 1.602,-1.116999 2.67957,-2.624814 3.22657,-4.507812 h -4.89453 c -0.637,1.628998 -1.90998,2.4375 -3.79297,2.4375 -0.797,0 -1.477,-0.13325 -2,-0.40625 -0.535,-0.274 -0.93794,-0.663688 -1.21094,-1.179688 -0.262,-0.510999 -0.4575,-1.033453 -0.5625,-1.564453 -0.101,-0.534999 -0.16831,-1.172063 -0.19531,-1.914062 h 12.78906 c 0.031,-0.285 0.0391,-0.56861 0.0391,-0.84961 0,-1.632998 -0.17959,-3.077938 -0.55859,-4.335937 -0.383,-1.273999 -0.87157,-2.288876 -1.47656,-3.046875 -0.594,-0.768999 -1.3121,-1.400485 -2.1211,-1.896485 -0.821,-0.495999 -1.61353,-0.83625 -2.39453,-1.03125 -0.781,-0.186999 -1.58215,-0.285156 -2.41015,-0.285156 z m 31.98437,0 c -2.437,0 -4.36344,0.56622 -5.77344,1.699219 -1.406,1.136999 -2.10742,2.660564 -2.10742,4.601562 0,0.406 0.0375,0.809063 0.10352,1.164063 0.062,0.359 0.17621,0.680125 0.32421,0.953125 0.128,0.273 0.27344,0.515281 0.39844,0.738281 0.133,0.219 0.30878,0.41375 0.55078,0.59375 0.234,0.183 0.42922,0.328219 0.57422,0.449219 0.156,0.125 0.39097,0.242656 0.66797,0.347656 0.277,0.105 0.47231,0.183375 0.57031,0.234375 0.106,0.05 0.2926,0.105313 0.5586,0.195313 0.25,0.09 0.39797,0.128906 0.41797,0.128906 l 5.92187,1.84375 c 0.613,0.195 1.04678,0.410063 1.30078,0.664062 0.242,0.234 0.3711,0.566126 0.3711,0.953125 0,0.614 -0.32457,1.097595 -0.97657,1.433594 -0.644,0.347 -1.55031,0.523438 -2.69531,0.523438 -1.41,0 -2.37491,-0.222782 -2.87891,-0.675782 -0.508,-0.452999 -0.8359,-1.101125 -1.0039,-1.953125 h -4.85938 c 0.152,4.249996 3.16035,6.38086 9.02735,6.38086 1.58999,0 2.961,-0.207282 4.125,-0.613281 1.157,-0.414 2.02356,-0.945001 2.60156,-1.625 0.578,-0.68 0.99981,-1.35497 1.25781,-2.042969 0.266,-0.690999 0.38867,-1.395001 0.38867,-2.125 0,-2.588998 -1.25,-4.269345 -3.75,-5.027344 l -6.27148,-1.804687 c -0.672,-0.215 -1.14881,-0.418001 -1.38281,-0.625 -0.235,-0.203 -0.34375,-0.492188 -0.34375,-0.867188 0,-0.554999 0.24962,-0.976688 0.76562,-1.304687 0.512,-0.321 1.21113,-0.478516 2.07813,-0.478516 2.35899,0 3.5354,0.908611 3.5664,2.724609 h 4.80469 c -0.039,-2.031998 -0.79672,-3.619579 -2.26172,-4.767578 -1.465,-1.144999 -3.48431,-1.71875 -6.07031,-1.71875 z m -59.273437,0.324219 v 19.128906 h 5 V 26.305031 Z m 27.257817,3.4375 c 1.156,0 2.06284,0.382626 2.71484,1.140625 0.636,0.761999 1.03544,1.844001 1.14844,3.25 h -7.61328 c 0.328,-2.929997 1.578,-4.390625 3.75,-4.390625 z m -40.593754,0.28125 c 1.370998,0 2.461532,0.553689 3.269531,1.679687 0.804999,1.112999 1.214844,2.613284 1.214844,4.488282 0,1.780998 -0.418001,3.23847 -1.25,4.355468 -0.838999,1.116999 -1.914377,1.667969 -3.234375,1.667969 -1.335999,0 -2.418189,-0.558501 -3.242188,-1.6875 -0.819999,-1.128999 -1.238281,-2.605252 -1.238281,-4.40625 0,-1.804998 0.418282,-3.277157 1.238281,-4.410156 0.823999,-1.121999 1.902189,-1.6875 3.242188,-1.6875 z" />


</svg>
