<?xml version="1.0" encoding="utf-8"?>
<!-- Generator: Adobe Illustrator 16.0.3, SVG Export Plug-In . SVG Version: 6.00 Build 0)  -->
<!DOCTYPE svg PUBLIC "-//W3C//DTD SVG 1.1//EN" "http://www.w3.org/Graphics/SVG/1.1/DTD/svg11.dtd">
<svg version="1.1" xmlns="http://www.w3.org/2000/svg" xmlns:xlink="http://www.w3.org/1999/xlink" x="0px" y="0px"
	 width="509.173px" height="369.448px" viewBox="0 0 509.173 369.448" enable-background="new 0 0 509.173 369.448"
	 xml:space="preserve">
<g id="Layer_1">
</g>
<g id="Layer_5">
	<g id="Layer_2">
		
			<rect x="1.417" y="1.417" fill="#FFFFFF" stroke="#010101" stroke-width="2.8346" stroke-miterlimit="10" width="474.408" height="167.789"/>
		<g id="Layer_4">
			
				<line fill="none" stroke="#EC298F" stroke-width="1.4173" stroke-miterlimit="10" stroke-dasharray="8.5039,3.1181" x1="211.928" y1="34.392" x2="445.761" y2="34.392"/>
			
				<line fill="none" stroke="#EC298F" stroke-width="1.4173" stroke-miterlimit="10" stroke-dasharray="8.5039,3.1181" x1="211.928" y1="87.392" x2="445.761" y2="87.392"/>
			
				<line fill="none" stroke="#EC298F" stroke-width="1.4173" stroke-miterlimit="10" stroke-dasharray="8.5039,3.1181" x1="211.928" y1="75.892" x2="445.761" y2="75.892"/>
			
				<line fill="none" stroke="#EC298F" stroke-width="1.4173" stroke-miterlimit="10" stroke-dasharray="8.5039,3.1181" x1="211.928" y1="126.392" x2="445.761" y2="126.392"/>
			
				<line fill="none" stroke="#EC298F" stroke-width="1.4173" stroke-miterlimit="10" stroke-dasharray="8.5039,3.1181" x1="211.928" y1="136.892" x2="445.761" y2="136.892"/>
			
				<line fill="none" stroke="#EC298F" stroke-width="1.4173" stroke-miterlimit="10" stroke-dasharray="8.5039,3.1181" x1="211.928" y1="46.558" x2="445.761" y2="46.558"/>
		</g>
		<g>
			<path fill="#010101" d="M184.06,36.292c0,0-36.445-0.014-48.587-0.006l-2.854,0.003c-0.483,0-0.809,0-1.03,0.016v-0.013
				c-5.285,0-8.195,2.929-8.195,8.248v52.68c0,5.18,2.737,7.919,7.916,7.919h52.9c5.256,0,7.923-2.664,7.923-7.919v-52.68
				C192.133,39.145,189.339,36.292,184.06,36.292z"/>
			<path fill="#FFFFFF" d="M184.06,38.841c-0.003,0-23.329-0.008-38.877-0.008c-7.126,0-10.656,0.002-12.291,0.005l-0.002,0.003
				h-1.301c-3.904,0-5.645,1.758-5.645,5.699v52.68c0,3.765,1.604,5.37,5.365,5.37h52.9c3.814,0,5.371-1.557,5.371-5.37v-52.68
				C189.582,40.545,187.93,38.841,184.06,38.841z"/>
			<g id="layer1_3_" transform="translate(-243.00964,-111.88912)">
				
					<path id="path966_3_" fill="#010101" d="
					M393.345,162.69c-1.777,0-3.222,1.441-3.222,3.222c0,1.781,1.444,3.224,3.222,3.223c1.781,0,3.223-1.441,3.226-3.223
					C396.568,164.133,395.126,162.69,393.345,162.69z M390.419,169.278c-3.686-0.009-5.362,5.623-8.403,11.372
					c-0.662,1.15-0.602,2.511,0.043,3.565l0.673,16.196c0.041,0.977,0.786,1.764,1.764,1.764h0.032c0.978,0,1.723-0.787,1.764-1.764
					l0.627-15.066c0.46-0.294,0.857-0.699,1.15-1.207c1.687-2.918,3.35-5.823,5.029-8.738l2.232,2.624
					c0.504,0.592,1.091,1.013,1.864,1.177l5.09,1.527c0.535,0.17,1.251-0.098,1.45-0.624c0.198-0.526-0.164-1.235-0.69-1.434
					l-5.312-2.288l-3.826-4.721c-0.961-1.109-1.229-1.478-2.247-2.064C391.274,169.376,390.851,169.274,390.419,169.278
					L390.419,169.278z M407.388,181.92c-0.555,0-1.001,0.419-1.001,0.939v1.203h-4.071v11.43h12.48v-11.43h-4.067v-1.203
					c0-0.521-0.449-0.939-1.002-0.939H407.388z M407.826,182.652h1.462c0.348,0,0.627,0.262,0.627,0.587v0.823h-2.713v-0.823
					C407.202,182.914,407.48,182.652,407.826,182.652z M400.861,184.062c-0.745,0-1.344,0.561-1.344,1.26v8.91
					c0,0.697,0.599,1.26,1.344,1.26h0.235v-11.43H400.861z M416.017,184.062v11.43h0.238c0.742,0,1.341-0.563,1.341-1.26v-8.91
					c0-0.699-0.599-1.26-1.341-1.26H416.017z M399.405,196.964c-1.39,0-2.532,1.143-2.532,2.529c0,1.388,1.143,2.527,2.532,2.527
					h20.737v-1.529h-20.737c-0.567,0-1.001-0.432-1.001-0.998c0-0.567,0.434-1.001,1.001-1.001h20.737v-1.528H399.405z
					 M401.87,198.512c-0.541,0-0.981,0.438-0.981,0.981c0.003,0.539,0.44,0.978,0.981,0.979c0.541,0,0.98-0.438,0.98-0.979
					C402.851,198.95,402.411,198.512,401.87,198.512z M405.107,198.512c-0.541,0-0.979,0.438-0.979,0.981
					c0,0.539,0.438,0.978,0.979,0.979c0.541,0,0.981-0.438,0.981-0.979C406.088,198.95,405.648,198.512,405.107,198.512z
					 M408.343,198.512c-0.541,0-0.978,0.438-0.978,0.981c0,0.539,0.437,0.978,0.978,0.979c0.541,0,0.981-0.438,0.981-0.979
					C409.325,198.95,408.887,198.512,408.343,198.512z M411.58,198.512c-0.541,0-0.979,0.438-0.979,0.981
					c0,0.539,0.438,0.978,0.979,0.979c0.54,0,0.98-0.438,0.98-0.979C412.561,198.95,412.12,198.512,411.58,198.512z
					 M414.817,198.512c-0.541,0-0.979,0.438-0.979,0.981c0,0.541,0.438,0.979,0.979,0.979c0.541-0.002,0.981-0.44,0.981-0.979
					C415.798,198.95,415.361,198.512,414.817,198.512z M418.053,198.512c-0.541,0-0.978,0.438-0.978,0.981
					c0,0.541,0.437,0.979,0.978,0.979c0.544-0.002,0.981-0.44,0.981-0.979C419.035,198.95,418.597,198.512,418.053,198.512z"/>
			</g>
		</g>
		<path id="path2252_3_" fill="#010101" d="M77.983,93.017L64.732,79.761h37.654v-8.469v-0.007v-8.475H64.732
			l13.251-13.253H55.655L32.733,71.292l22.922,21.725H77.983z"/>
	</g>
	<g id="Layer_3">
		<g>
			<path fill="#010101" d="M245.736,64.462c0,1.307-0.217,2.577-0.649,3.811c-0.434,1.233-1.128,2.449-2.085,3.646
				s-2.392,2.159-4.305,2.884c-1.913,0.727-4.188,1.089-6.822,1.089h-17.759V36.216h17.594c2.454,0,4.574,0.363,6.36,1.088
				c1.786,0.727,3.122,1.66,4.007,2.804c0.884,1.143,1.524,2.258,1.922,3.347c0.396,1.089,0.595,2.159,0.595,3.211
				c0,1.706-0.407,3.176-1.221,4.408c-0.815,1.234-2.178,2.486-4.089,3.756C243.584,57.406,245.736,60.618,245.736,64.462z
				 M222.333,43.019V52h8.838c3.832,0,5.748-1.487,5.748-4.463c0-3.012-1.916-4.518-5.748-4.518H222.333z M222.333,58.802v10.287
				h9.708c4.014,0,6.021-1.705,6.021-5.116c0-3.447-2.007-5.171-6.021-5.171H222.333z"/>
			<path fill="#010101" d="M259.226,77.144c-2.699,0-4.871-0.812-6.511-2.433c-1.64-1.621-2.461-3.763-2.461-6.424
				c0-5.158,2.902-8.224,8.703-9.198l3.031-0.541c0.07,0,0.434-0.045,1.082-0.135c0.648-0.091,1.066-0.162,1.246-0.217
				c0.18-0.054,0.531-0.135,1.055-0.244c0.523-0.107,0.895-0.233,1.109-0.378c0.219-0.145,0.48-0.333,0.785-0.568
				c0.309-0.234,0.516-0.505,0.625-0.812c0.105-0.307,0.16-0.658,0.16-1.056c0-1.947-1.461-2.922-4.383-2.922
				c-1.879,0-3.195,0.286-3.953,0.858c-0.758,0.573-1.227,1.611-1.406,3.114h-7.397c0.473-6.784,4.671-10.178,12.592-10.178
				c8.148,0,12.223,3.024,12.223,9.072v16.24c0,1.357,0.578,2.568,1.738,3.632v0.936h-8.461c-0.598-0.733-0.898-1.724-0.898-2.972
				C265.433,75.737,262.476,77.144,259.226,77.144z M268.05,64.067v-2.056c-0.684,0.325-1.75,0.632-3.195,0.92l-2.598,0.486
				c-1.586,0.325-2.707,0.795-3.355,1.407c-0.648,0.613-0.972,1.479-0.972,2.598c0,1.082,0.367,1.939,1.109,2.57
				c0.738,0.631,1.738,0.946,3.004,0.946c1.91,0,3.391-0.595,4.438-1.785S268.05,66.268,268.05,64.067z"/>
			<path fill="#010101" d="M301.411,46.502h7.674v30.369c0,3.447-1.26,6.123-3.779,8.028c-2.521,1.904-6.059,2.856-10.613,2.856
				c-3.926,0-7.072-0.753-9.434-2.258c-2.363-1.507-3.563-3.529-3.6-6.068h7.939c0.613,2.285,2.402,3.429,5.365,3.429
				c1.914,0,3.467-0.556,4.66-1.666c1.191-1.111,1.787-2.56,1.787-4.343v-3.988c-1.408,1.611-2.719,2.727-3.928,3.35
				c-1.211,0.621-2.666,0.933-4.363,0.933c-3.639,0-6.559-1.396-8.762-4.19c-2.201-2.795-3.301-6.478-3.301-11.051
				c0-4.534,1.164-8.316,3.492-11.346s5.24-4.545,8.732-4.545c3.252,0,5.961,1.684,8.129,5.049V46.502z M294.909,52.435
				c-1.844,0-3.334,0.865-4.471,2.597c-1.139,1.731-1.707,3.986-1.707,6.763c0,2.634,0.559,4.78,1.68,6.439
				c1.119,1.658,2.582,2.488,4.389,2.488c1.986,0,3.604-0.83,4.852-2.488c1.246-1.659,1.869-3.806,1.869-6.439
				c0-2.704-0.623-4.941-1.869-6.708C298.403,53.319,296.823,52.435,294.909,52.435z"/>
			<path fill="#010101" d="M334.72,46.502h7.674v30.369c0,3.447-1.26,6.123-3.779,8.028c-2.521,1.904-6.059,2.856-10.613,2.856
				c-3.926,0-7.072-0.753-9.434-2.258c-2.363-1.507-3.563-3.529-3.6-6.068h7.939c0.613,2.285,2.402,3.429,5.365,3.429
				c1.914,0,3.467-0.556,4.66-1.666c1.191-1.111,1.787-2.56,1.787-4.343v-3.988c-1.408,1.611-2.719,2.727-3.928,3.35
				c-1.211,0.621-2.666,0.933-4.363,0.933c-3.639,0-6.559-1.396-8.762-4.19c-2.201-2.795-3.301-6.478-3.301-11.051
				c0-4.534,1.164-8.316,3.492-11.346s5.24-4.545,8.732-4.545c3.252,0,5.961,1.684,8.129,5.049V46.502z M328.218,52.435
				c-1.844,0-3.334,0.865-4.471,2.597c-1.139,1.731-1.707,3.986-1.707,6.763c0,2.634,0.559,4.78,1.68,6.439
				c1.119,1.658,2.582,2.488,4.389,2.488c1.986,0,3.604-0.83,4.852-2.488c1.246-1.659,1.869-3.806,1.869-6.439
				c0-2.704-0.623-4.941-1.869-6.708C331.712,53.319,330.132,52.435,328.218,52.435z"/>
			<path fill="#010101" d="M356.647,77.144c-2.699,0-4.871-0.812-6.512-2.433s-2.461-3.763-2.461-6.424
				c0-5.158,2.9-8.224,8.701-9.198l3.031-0.541c0.072,0,0.434-0.045,1.084-0.135c0.648-0.091,1.064-0.162,1.244-0.217
				c0.18-0.054,0.533-0.135,1.057-0.244c0.523-0.107,0.893-0.233,1.109-0.378s0.479-0.333,0.785-0.568
				c0.307-0.234,0.514-0.505,0.623-0.812c0.107-0.307,0.162-0.658,0.162-1.056c0-1.947-1.463-2.922-4.385-2.922
				c-1.877,0-3.195,0.286-3.953,0.858c-0.758,0.573-1.227,1.611-1.406,3.114h-7.396c0.473-6.784,4.67-10.178,12.594-10.178
				c8.146,0,12.221,3.024,12.221,9.072v16.24c0,1.357,0.58,2.568,1.74,3.632v0.936h-8.463c-0.598-0.733-0.896-1.724-0.896-2.972
				C362.854,75.737,359.896,77.144,356.647,77.144z M365.472,64.067v-2.056c-0.686,0.325-1.75,0.632-3.195,0.92l-2.598,0.486
				c-1.588,0.325-2.707,0.795-3.355,1.407c-0.65,0.613-0.975,1.479-0.975,2.598c0,1.082,0.369,1.939,1.109,2.57
				s1.74,0.946,3.004,0.946c1.912,0,3.393-0.595,4.439-1.785S365.472,66.268,365.472,64.067z"/>
			<path fill="#010101" d="M398.833,46.502h7.674v30.369c0,3.447-1.26,6.123-3.779,8.028c-2.521,1.904-6.059,2.856-10.613,2.856
				c-3.926,0-7.072-0.753-9.434-2.258c-2.363-1.507-3.563-3.529-3.6-6.068h7.939c0.613,2.285,2.402,3.429,5.365,3.429
				c1.914,0,3.467-0.556,4.66-1.666c1.191-1.111,1.787-2.56,1.787-4.343v-3.988c-1.408,1.611-2.719,2.727-3.928,3.35
				c-1.211,0.621-2.666,0.933-4.363,0.933c-3.639,0-6.559-1.396-8.762-4.19c-2.201-2.795-3.301-6.478-3.301-11.051
				c0-4.534,1.164-8.316,3.492-11.346s5.24-4.545,8.732-4.545c3.252,0,5.961,1.684,8.129,5.049V46.502z M392.331,52.435
				c-1.844,0-3.334,0.865-4.471,2.597c-1.139,1.731-1.707,3.986-1.707,6.763c0,2.634,0.559,4.78,1.68,6.439
				c1.119,1.658,2.582,2.488,4.389,2.488c1.986,0,3.604-0.83,4.852-2.488c1.246-1.659,1.869-3.806,1.869-6.439
				c0-2.704-0.623-4.941-1.869-6.708C395.825,53.319,394.245,52.435,392.331,52.435z"/>
			<path fill="#010101" d="M425.392,46.012c1.27,0,2.504,0.146,3.701,0.436c1.197,0.291,2.422,0.816,3.674,1.579
				c1.252,0.762,2.34,1.732,3.266,2.911c0.926,1.18,1.678,2.74,2.258,4.681c0.58,1.941,0.871,4.164,0.871,6.667
				c0,0.436-0.02,0.871-0.055,1.307H419.46c0.035,1.133,0.135,2.11,0.299,2.932c0.164,0.822,0.453,1.626,0.871,2.412
				c0.416,0.785,1.033,1.389,1.85,1.809s1.842,0.63,3.076,0.63c2.902,0,4.844-1.252,5.822-3.755h7.512
				c-0.836,2.903-2.486,5.216-4.953,6.939c-2.469,1.723-5.352,2.585-8.654,2.585c-4.174,0-7.467-1.352-9.879-4.055
				s-3.617-6.413-3.617-11.13c0-4.935,1.215-8.825,3.646-11.675C417.862,47.437,421.183,46.012,425.392,46.012z M431.271,58.531
				c-0.184-2.158-0.771-3.823-1.77-4.993s-2.387-1.756-4.164-1.756c-3.338,0-5.262,2.25-5.77,6.749H431.271z"/>
		</g>
		<g>
			<path fill="#010101" d="M213.049,97.002h7.674v5.236c0.797-1.825,1.923-3.236,3.374-4.232c1.451-0.995,3.048-1.494,4.789-1.494
				c0.327,0,0.635,0.018,0.926,0.05v7.08c-0.907-0.145-1.706-0.218-2.395-0.218c-4.463,0-6.694,2.297-6.694,6.891v16.077h-7.674
				V97.002z"/>
			<path fill="#010101" d="M246.629,96.512c1.27,0,2.504,0.146,3.701,0.436c1.197,0.291,2.423,0.816,3.673,1.579
				c1.254,0.762,2.34,1.732,3.266,2.911c0.926,1.18,1.679,2.74,2.257,4.681c0.582,1.941,0.871,4.164,0.871,6.667
				c0,0.436-0.02,0.871-0.055,1.307h-19.646c0.036,1.133,0.137,2.11,0.3,2.932c0.163,0.822,0.453,1.626,0.871,2.412
				c0.416,0.785,1.034,1.389,1.85,1.809c0.816,0.42,1.842,0.63,3.075,0.63c2.902,0,4.844-1.252,5.824-3.755h7.511
				c-0.836,2.903-2.488,5.216-4.953,6.939c-2.469,1.723-5.354,2.585-8.654,2.585c-4.176,0-7.469-1.352-9.88-4.055
				c-2.412-2.703-3.618-6.413-3.618-11.13c0-4.935,1.216-8.825,3.646-11.675C239.1,97.937,242.42,96.512,246.629,96.512z
				 M252.507,109.031c-0.182-2.158-0.771-3.823-1.769-4.993c-0.998-1.17-2.387-1.756-4.164-1.756c-3.338,0-5.261,2.25-5.769,6.749
				H252.507z"/>
			<path fill="#010101" d="M278.63,102.717c-4.135,0-6.203,3.193-6.203,9.578c0,2.85,0.553,5.086,1.66,6.709
				c1.105,1.624,2.621,2.435,4.543,2.435c1.488,0,2.648-0.403,3.484-1.211c0.834-0.809,1.486-2.146,1.959-4.014h7.293
				c-0.363,3.52-1.697,6.305-4,8.354c-2.305,2.05-5.234,3.075-8.789,3.075c-4.357,0-7.75-1.342-10.18-4.027
				c-2.432-2.686-3.645-6.459-3.645-11.321c0-5.008,1.223-8.89,3.672-11.646c2.447-2.757,5.867-4.137,10.26-4.137
				c3.664,0,6.631,1.017,8.898,3.048c2.268,2.033,3.529,4.845,3.783,8.437h-7.293c-0.436-1.903-1.061-3.259-1.877-4.066
				C281.38,103.122,280.19,102.717,278.63,102.717z"/>
			<path fill="#010101" d="M304.155,86.716v39.676h-7.674V86.716H304.155z"/>
			<path fill="#010101" d="M318.788,127.644c-2.699,0-4.871-0.812-6.512-2.433s-2.461-3.763-2.461-6.424
				c0-5.158,2.9-8.224,8.701-9.198l3.031-0.541c0.072,0,0.434-0.045,1.084-0.135c0.648-0.091,1.064-0.162,1.244-0.217
				c0.18-0.054,0.533-0.135,1.057-0.244c0.523-0.107,0.893-0.233,1.109-0.378s0.479-0.333,0.785-0.568
				c0.307-0.234,0.514-0.505,0.623-0.812c0.107-0.307,0.162-0.658,0.162-1.056c0-1.947-1.463-2.922-4.385-2.922
				c-1.877,0-3.195,0.286-3.953,0.858c-0.758,0.573-1.227,1.611-1.406,3.114h-7.396c0.473-6.784,4.67-10.178,12.594-10.178
				c8.146,0,12.221,3.024,12.221,9.072v16.24c0,1.357,0.58,2.568,1.74,3.632v0.936h-8.463c-0.598-0.733-0.896-1.724-0.896-2.972
				C324.995,126.237,322.036,127.644,318.788,127.644z M327.612,114.567v-2.056c-0.686,0.325-1.75,0.632-3.195,0.92l-2.598,0.486
				c-1.588,0.325-2.707,0.795-3.355,1.407c-0.65,0.613-0.975,1.479-0.975,2.598c0,1.082,0.369,1.939,1.109,2.57
				s1.74,0.946,3.004,0.946c1.912,0,3.393-0.595,4.439-1.785S327.612,116.768,327.612,114.567z"/>
			<path fill="#010101" d="M349.927,86.716v6.803h-7.674v-6.803H349.927z M349.927,97.002v29.39h-7.674v-29.39H349.927z"/>
			<path fill="#010101" d="M357.218,97.002h7.619v3.613c1.264-1.476,2.498-2.528,3.707-3.158c1.209-0.629,2.643-0.945,4.303-0.945
				c3.865,0,6.545,1.44,8.039,4.319c2.168-2.879,5.021-4.319,8.563-4.319c2.953,0,5.258,0.799,6.918,2.396
				c1.658,1.597,2.488,3.828,2.488,6.694v20.79h-7.676v-19.639c0-1.164-0.369-2.091-1.109-2.782c-0.74-0.69-1.74-1.036-3.002-1.036
				c-1.623,0-2.895,0.509-3.814,1.527s-1.381,2.437-1.381,4.255v17.675h-7.674v-19.639c0-1.164-0.369-2.091-1.109-2.782
				c-0.74-0.69-1.74-1.036-3.002-1.036c-1.623,0-2.895,0.509-3.814,1.527c-0.922,1.019-1.381,2.437-1.381,4.255v17.675h-7.674
				V97.002z"/>
		</g>
	</g>
</g>
<g id="Layer_5_copy">
	<g id="Layer_2_copy">
		
			<rect x="1.417" y="200.242" fill="#FFFFFF" stroke="#010101" stroke-width="2.8346" stroke-miterlimit="10" width="474.408" height="167.789"/>
		<g id="Layer_4_copy">
			
				<line fill="none" stroke="#EC298F" stroke-width="1.4173" stroke-miterlimit="10" stroke-dasharray="8.5039,3.1181" x1="211.928" y1="226.716" x2="445.761" y2="226.716"/>
			
				<line fill="none" stroke="#EC298F" stroke-width="1.4173" stroke-miterlimit="10" stroke-dasharray="8.5039,3.1181" x1="211.928" y1="294.058" x2="445.761" y2="294.058"/>
			
				<line fill="none" stroke="#EC298F" stroke-width="1.4173" stroke-miterlimit="10" stroke-dasharray="8.5039,3.1181" x1="211.928" y1="268.216" x2="445.761" y2="268.216"/>
			
				<line fill="none" stroke="#EC298F" stroke-width="1.4173" stroke-miterlimit="10" stroke-dasharray="8.5039,3.1181" x1="211.928" y1="332.966" x2="445.761" y2="332.966"/>
			
				<line fill="none" stroke="#EC298F" stroke-width="1.4173" stroke-miterlimit="10" stroke-dasharray="8.5039,3.1181" x1="211.928" y1="343.466" x2="445.761" y2="343.466"/>
			
				<line fill="none" stroke="#EC298F" stroke-width="1.4173" stroke-miterlimit="10" stroke-dasharray="8.5039,3.1181" x1="211.928" y1="238.882" x2="445.761" y2="238.882"/>
			
				<line fill="none" stroke="#EC298F" stroke-width="1.4173" stroke-miterlimit="10" stroke-dasharray="8.5039,3.1181" x1="211.928" y1="280.058" x2="445.761" y2="280.058"/>
			
				<line fill="none" stroke="#EC298F" stroke-width="1.4173" stroke-miterlimit="10" stroke-dasharray="8.5039,3.1181" x1="211.928" y1="304.892" x2="445.761" y2="304.892"/>
		</g>
		<g id="Layer_10">
			<g>
				<g>
					
						<line fill="none" stroke="#231F20" stroke-width="1.4173" stroke-miterlimit="10" x1="418.157" y1="233.06" x2="496.261" y2="233.06"/>
					<g>
						<polygon fill="#231F20" points="420.147,235.684 419.032,233.06 420.147,230.436 413.927,233.06 						"/>
					</g>
				</g>
			</g>
			<g>
				<g>
					
						<line fill="none" stroke="#231F20" stroke-width="1.4173" stroke-miterlimit="10" x1="429.825" y1="273.226" x2="496.261" y2="273.226"/>
					<g>
						<polygon fill="#231F20" points="431.815,275.85 430.7,273.226 431.815,270.602 425.595,273.226 						"/>
					</g>
				</g>
			</g>
			<g>
				<g>
					
						<line fill="none" stroke="#231F20" stroke-width="1.4173" stroke-miterlimit="10" x1="429.825" y1="287.56" x2="484.261" y2="287.56"/>
					<g>
						<polygon fill="#231F20" points="431.815,290.184 430.7,287.56 431.815,284.936 425.595,287.56 						"/>
					</g>
				</g>
			</g>
			<g>
				<g>
					
						<line fill="none" stroke="#231F20" stroke-width="1.4173" stroke-miterlimit="10" x1="429.825" y1="299.892" x2="496.261" y2="299.892"/>
					<g>
						<polygon fill="#231F20" points="431.815,302.516 430.7,299.892 431.815,297.268 425.595,299.892 						"/>
					</g>
				</g>
			</g>
			<g>
				<path fill="#010101" d="M504.31,296.576h-2.875v-1.582c2.086,0,3.316-0.721,3.689-2.16h1.582v12.059h-2.396V296.576z"/>
			</g>
			<g>
				<path fill="#010101" d="M509.173,269.406c0,0.668-0.146,1.275-0.441,1.818c-0.293,0.545-0.666,1.002-1.115,1.369
					c-0.451,0.369-0.912,0.709-1.385,1.021s-0.924,0.652-1.352,1.02c-0.43,0.369-0.734,0.746-0.914,1.131h5.156v2.127h-8.197
					c0.055-1.111,0.275-1.992,0.658-2.645c0.385-0.652,1.076-1.336,2.078-2.049c1.32-0.93,2.16-1.619,2.521-2.066
					c0.361-0.449,0.541-1.008,0.541-1.676c0-0.602-0.15-1.074-0.449-1.42s-0.713-0.52-1.242-0.52c-0.543,0-0.963,0.188-1.262,0.561
					c-0.299,0.375-0.449,0.896-0.449,1.566v0.391h-2.379c-0.012-0.125-0.018-0.266-0.018-0.426c0-1.27,0.355-2.258,1.07-2.967
					c0.713-0.709,1.709-1.064,2.986-1.064c1.287,0,2.309,0.348,3.061,1.039C508.796,267.308,509.173,268.238,509.173,269.406z"/>
			</g>
			<g>
				<path fill="#010101" d="M488.241,283.589c0-0.623,0.092-1.172,0.275-1.648s0.414-0.852,0.693-1.123s0.607-0.49,0.986-0.654
					s0.738-0.275,1.076-0.332s0.691-0.086,1.059-0.086c1.17,0,2.102,0.299,2.795,0.896s1.041,1.396,1.041,2.396
					c0,0.555-0.127,1.031-0.377,1.432c-0.252,0.4-0.658,0.777-1.219,1.127c0.686,0.33,1.188,0.738,1.508,1.223
					c0.318,0.484,0.479,1.082,0.479,1.789c0,1.174-0.383,2.107-1.15,2.801c-0.768,0.695-1.793,1.041-3.076,1.041
					c-1.244,0-2.234-0.354-2.969-1.063c-0.736-0.709-1.109-1.664-1.121-2.865h2.348c0.066,1.281,0.664,1.922,1.793,1.922
					c0.52,0,0.945-0.172,1.279-0.516c0.332-0.344,0.498-0.783,0.498-1.32c0-0.447-0.117-0.834-0.354-1.16
					c-0.238-0.326-0.553-0.545-0.947-0.66c-0.316-0.08-0.777-0.119-1.387-0.119v-1.6h0.203c1.396,0,2.094-0.604,2.094-1.811
					c0-0.496-0.129-0.883-0.389-1.16c-0.26-0.275-0.627-0.414-1.1-0.414c-0.621,0-1.043,0.174-1.27,0.523
					c-0.225,0.348-0.35,0.877-0.371,1.586h-2.398V283.589z"/>
			</g>
			<g>
				<path fill="#010101" d="M504.31,229.076h-2.875v-1.582c2.086,0,3.316-0.721,3.689-2.16h1.582v12.059h-2.396V229.076z"/>
			</g>
		</g>
		<g>
			<path fill="#010101" d="M184.06,235.117c0,0-36.445-0.014-48.587-0.006l-2.854,0.002c-0.483,0-0.809,0-1.03,0.016v-0.012
				c-5.285,0-8.195,2.93-8.195,8.248v52.68c0,5.18,2.737,7.92,7.916,7.92h52.9c5.256,0,7.923-2.664,7.923-7.92v-52.68
				C192.133,237.968,189.339,235.117,184.06,235.117z"/>
			<path fill="#FFFFFF" d="M184.06,237.666c-0.003,0-23.329-0.008-38.877-0.008c-7.126,0-10.656,0.002-12.291,0.006l-0.002,0.002
				h-1.301c-3.904,0-5.645,1.758-5.645,5.699v52.68c0,3.764,1.604,5.369,5.365,5.369h52.9c3.814,0,5.371-1.555,5.371-5.369v-52.68
				C189.582,239.371,187.93,237.666,184.06,237.666z"/>
			<g id="layer1_1_" transform="translate(-243.00964,-111.88912)">
				
					<path id="path966_1_" fill="#010101" d="
					M393.345,361.514c-1.777,0-3.222,1.441-3.222,3.223s1.444,3.223,3.222,3.223c1.781,0,3.223-1.441,3.226-3.223
					C396.568,362.957,395.126,361.514,393.345,361.514z M390.419,368.103c-3.686-0.01-5.362,5.621-8.403,11.371
					c-0.662,1.15-0.602,2.512,0.043,3.566l0.673,16.195c0.041,0.977,0.786,1.764,1.764,1.764h0.032c0.978,0,1.723-0.787,1.764-1.764
					l0.627-15.066c0.46-0.293,0.857-0.699,1.15-1.207c1.687-2.918,3.35-5.824,5.029-8.738l2.232,2.625
					c0.504,0.59,1.091,1.012,1.864,1.176l5.09,1.527c0.535,0.17,1.251-0.098,1.45-0.625c0.198-0.525-0.164-1.234-0.69-1.434
					l-5.312-2.287l-3.826-4.721c-0.961-1.109-1.229-1.477-2.247-2.064C391.274,368.201,390.851,368.1,390.419,368.103
					L390.419,368.103z M407.388,380.744c-0.555,0-1.001,0.418-1.001,0.939v1.203h-4.071v11.43h12.48v-11.43h-4.067v-1.203
					c0-0.521-0.449-0.939-1.002-0.939H407.388z M407.826,381.477h1.462c0.348,0,0.627,0.262,0.627,0.588v0.822h-2.713v-0.822
					C407.202,381.738,407.48,381.477,407.826,381.477z M400.861,382.887c-0.745,0-1.344,0.561-1.344,1.26v8.91
					c0,0.697,0.599,1.26,1.344,1.26h0.235v-11.43H400.861z M416.017,382.887v11.43h0.238c0.742,0,1.341-0.563,1.341-1.26v-8.91
					c0-0.699-0.599-1.26-1.341-1.26H416.017z M399.405,395.787c-1.39,0-2.532,1.145-2.532,2.531s1.143,2.527,2.532,2.527h20.737
					v-1.531h-20.737c-0.567,0-1.001-0.43-1.001-0.996c0-0.568,0.434-1.002,1.001-1.002h20.737v-1.529H399.405z M401.87,397.336
					c-0.541,0-0.981,0.439-0.981,0.982c0.003,0.539,0.44,0.977,0.981,0.979c0.541,0,0.98-0.439,0.98-0.979
					C402.851,397.775,402.411,397.336,401.87,397.336z M405.107,397.336c-0.541,0-0.979,0.439-0.979,0.982
					c0,0.539,0.438,0.977,0.979,0.979c0.541,0,0.981-0.439,0.981-0.979C406.088,397.775,405.648,397.336,405.107,397.336z
					 M408.343,397.336c-0.541,0-0.978,0.439-0.978,0.982c0,0.539,0.437,0.977,0.978,0.979c0.541,0,0.981-0.439,0.981-0.979
					C409.325,397.775,408.887,397.336,408.343,397.336z M411.58,397.336c-0.541,0-0.979,0.439-0.979,0.982
					c0,0.539,0.438,0.977,0.979,0.979c0.54,0,0.98-0.439,0.98-0.979C412.561,397.775,412.12,397.336,411.58,397.336z
					 M414.817,397.336c-0.541,0-0.979,0.439-0.979,0.982c0,0.539,0.438,0.979,0.979,0.979c0.541-0.002,0.981-0.439,0.981-0.979
					C415.798,397.775,415.361,397.336,414.817,397.336z M418.053,397.336c-0.541,0-0.978,0.439-0.978,0.982
					c0,0.539,0.437,0.979,0.978,0.979c0.544-0.002,0.981-0.439,0.981-0.979C419.035,397.775,418.597,397.336,418.053,397.336z"/>
			</g>
		</g>
		<path id="path2252_1_" fill="#010101" d="M77.983,291.841l-13.251-13.256h37.654v-8.469v-0.008v-8.473H64.732
			l13.251-13.254H55.655l-22.922,21.734l22.922,21.725H77.983z"/>
	</g>
	<g id="Layer_3_copy">
		<g>
			<path fill="#010101" d="M245.736,256.787c0,1.307-0.217,2.576-0.649,3.811c-0.434,1.234-1.128,2.449-2.085,3.646
				s-2.392,2.158-4.305,2.885s-4.188,1.088-6.822,1.088h-17.759v-39.676h17.594c2.454,0,4.574,0.363,6.36,1.088
				c1.786,0.727,3.122,1.66,4.007,2.805c0.884,1.141,1.524,2.258,1.922,3.346c0.396,1.088,0.595,2.158,0.595,3.211
				c0,1.705-0.407,3.176-1.221,4.408c-0.815,1.234-2.178,2.486-4.089,3.756C243.584,249.73,245.736,252.941,245.736,256.787z
				 M222.333,235.343v8.98h8.838c3.832,0,5.748-1.488,5.748-4.463c0-3.012-1.916-4.518-5.748-4.518H222.333z M222.333,251.126
				v10.287h9.708c4.014,0,6.021-1.705,6.021-5.117c0-3.445-2.007-5.17-6.021-5.17H222.333z"/>
			<path fill="#010101" d="M259.226,269.468c-2.699,0-4.871-0.813-6.511-2.434c-1.64-1.621-2.461-3.762-2.461-6.422
				c0-5.16,2.902-8.225,8.703-9.199l3.031-0.541c0.07,0,0.434-0.045,1.082-0.135s1.066-0.162,1.246-0.217
				c0.18-0.053,0.531-0.135,1.055-0.244c0.523-0.107,0.895-0.234,1.109-0.379c0.219-0.145,0.48-0.332,0.785-0.566
				c0.309-0.234,0.516-0.506,0.625-0.813c0.105-0.307,0.16-0.658,0.16-1.055c0-1.949-1.461-2.922-4.383-2.922
				c-1.879,0-3.195,0.285-3.953,0.857s-1.227,1.611-1.406,3.115h-7.397c0.473-6.785,4.671-10.18,12.592-10.18
				c8.148,0,12.223,3.025,12.223,9.074v16.238c0,1.359,0.578,2.57,1.738,3.633v0.936h-8.461c-0.598-0.732-0.898-1.725-0.898-2.971
				C265.433,268.062,262.476,269.468,259.226,269.468z M268.05,256.39v-2.055c-0.684,0.324-1.75,0.633-3.195,0.92l-2.598,0.486
				c-1.586,0.324-2.707,0.795-3.355,1.406c-0.648,0.613-0.972,1.48-0.972,2.598c0,1.082,0.367,1.941,1.109,2.57
				c0.738,0.633,1.738,0.947,3.004,0.947c1.91,0,3.391-0.596,4.438-1.785S268.05,258.593,268.05,256.39z"/>
			<path fill="#010101" d="M301.411,238.828h7.674v30.367c0,3.449-1.26,6.125-3.779,8.029c-2.521,1.904-6.059,2.857-10.613,2.857
				c-3.926,0-7.072-0.754-9.434-2.258c-2.363-1.508-3.563-3.531-3.6-6.07h7.939c0.613,2.285,2.402,3.43,5.365,3.43
				c1.914,0,3.467-0.555,4.66-1.666c1.191-1.111,1.787-2.561,1.787-4.342v-3.988c-1.408,1.609-2.719,2.727-3.928,3.348
				c-1.211,0.621-2.666,0.934-4.363,0.934c-3.639,0-6.559-1.396-8.762-4.191c-2.201-2.793-3.301-6.477-3.301-11.051
				c0-4.533,1.164-8.316,3.492-11.344c2.328-3.031,5.24-4.547,8.732-4.547c3.252,0,5.961,1.684,8.129,5.051V238.828z
				 M294.909,244.759c-1.844,0-3.334,0.865-4.471,2.596c-1.139,1.732-1.707,3.988-1.707,6.764c0,2.635,0.559,4.779,1.68,6.439
				c1.119,1.658,2.582,2.488,4.389,2.488c1.986,0,3.604-0.83,4.852-2.488c1.246-1.66,1.869-3.805,1.869-6.439
				c0-2.705-0.623-4.941-1.869-6.709C298.403,245.644,296.823,244.759,294.909,244.759z"/>
			<path fill="#010101" d="M334.72,238.828h7.674v30.367c0,3.449-1.26,6.125-3.779,8.029c-2.521,1.904-6.059,2.857-10.613,2.857
				c-3.926,0-7.072-0.754-9.434-2.258c-2.363-1.508-3.563-3.531-3.6-6.07h7.939c0.613,2.285,2.402,3.43,5.365,3.43
				c1.914,0,3.467-0.555,4.66-1.666c1.191-1.111,1.787-2.561,1.787-4.342v-3.988c-1.408,1.609-2.719,2.727-3.928,3.348
				c-1.211,0.621-2.666,0.934-4.363,0.934c-3.639,0-6.559-1.396-8.762-4.191c-2.201-2.793-3.301-6.477-3.301-11.051
				c0-4.533,1.164-8.316,3.492-11.344c2.328-3.031,5.24-4.547,8.732-4.547c3.252,0,5.961,1.684,8.129,5.051V238.828z
				 M328.218,244.759c-1.844,0-3.334,0.865-4.471,2.596c-1.139,1.732-1.707,3.988-1.707,6.764c0,2.635,0.559,4.779,1.68,6.439
				c1.119,1.658,2.582,2.488,4.389,2.488c1.986,0,3.604-0.83,4.852-2.488c1.246-1.66,1.869-3.805,1.869-6.439
				c0-2.705-0.623-4.941-1.869-6.709C331.712,245.644,330.132,244.759,328.218,244.759z"/>
			<path fill="#010101" d="M356.647,269.468c-2.699,0-4.871-0.813-6.512-2.434s-2.461-3.762-2.461-6.422
				c0-5.16,2.9-8.225,8.701-9.199l3.031-0.541c0.072,0,0.434-0.045,1.084-0.135c0.648-0.09,1.064-0.162,1.244-0.217
				c0.18-0.053,0.533-0.135,1.057-0.244c0.523-0.107,0.893-0.234,1.109-0.379s0.479-0.332,0.785-0.566s0.514-0.506,0.623-0.813
				c0.107-0.307,0.162-0.658,0.162-1.055c0-1.949-1.463-2.922-4.385-2.922c-1.877,0-3.195,0.285-3.953,0.857
				s-1.227,1.611-1.406,3.115h-7.396c0.473-6.785,4.67-10.18,12.594-10.18c8.146,0,12.221,3.025,12.221,9.074v16.238
				c0,1.359,0.58,2.57,1.74,3.633v0.936h-8.463c-0.598-0.732-0.896-1.725-0.896-2.971
				C362.854,268.062,359.896,269.468,356.647,269.468z M365.472,256.39v-2.055c-0.686,0.324-1.75,0.633-3.195,0.92l-2.598,0.486
				c-1.588,0.324-2.707,0.795-3.355,1.406c-0.65,0.613-0.975,1.48-0.975,2.598c0,1.082,0.369,1.941,1.109,2.57
				c0.74,0.633,1.74,0.947,3.004,0.947c1.912,0,3.393-0.596,4.439-1.785S365.472,258.593,365.472,256.39z"/>
			<path fill="#010101" d="M398.833,238.828h7.674v30.367c0,3.449-1.26,6.125-3.779,8.029c-2.521,1.904-6.059,2.857-10.613,2.857
				c-3.926,0-7.072-0.754-9.434-2.258c-2.363-1.508-3.563-3.531-3.6-6.07h7.939c0.613,2.285,2.402,3.43,5.365,3.43
				c1.914,0,3.467-0.555,4.66-1.666c1.191-1.111,1.787-2.561,1.787-4.342v-3.988c-1.408,1.609-2.719,2.727-3.928,3.348
				c-1.211,0.621-2.666,0.934-4.363,0.934c-3.639,0-6.559-1.396-8.762-4.191c-2.201-2.793-3.301-6.477-3.301-11.051
				c0-4.533,1.164-8.316,3.492-11.344c2.328-3.031,5.24-4.547,8.732-4.547c3.252,0,5.961,1.684,8.129,5.051V238.828z
				 M392.331,244.759c-1.844,0-3.334,0.865-4.471,2.596c-1.139,1.732-1.707,3.988-1.707,6.764c0,2.635,0.559,4.779,1.68,6.439
				c1.119,1.658,2.582,2.488,4.389,2.488c1.986,0,3.604-0.83,4.852-2.488c1.246-1.66,1.869-3.805,1.869-6.439
				c0-2.705-0.623-4.941-1.869-6.709C395.825,245.644,394.245,244.759,392.331,244.759z"/>
			<path fill="#010101" d="M425.392,238.335c1.27,0,2.504,0.146,3.701,0.438c1.197,0.289,2.422,0.816,3.674,1.578
				s2.34,1.732,3.266,2.91c0.926,1.18,1.678,2.742,2.258,4.682c0.58,1.941,0.871,4.164,0.871,6.666c0,0.438-0.02,0.871-0.055,1.309
				H419.46c0.035,1.133,0.135,2.109,0.299,2.93c0.164,0.824,0.453,1.627,0.871,2.414c0.416,0.785,1.033,1.387,1.85,1.809
				c0.816,0.418,1.842,0.629,3.076,0.629c2.902,0,4.844-1.252,5.822-3.754h7.512c-0.836,2.902-2.486,5.215-4.953,6.938
				c-2.469,1.723-5.352,2.586-8.654,2.586c-4.174,0-7.467-1.352-9.879-4.055s-3.617-6.414-3.617-11.129
				c0-4.936,1.215-8.826,3.646-11.676C417.862,239.761,421.183,238.335,425.392,238.335z M431.271,250.855
				c-0.184-2.158-0.771-3.824-1.77-4.992c-0.998-1.172-2.387-1.758-4.164-1.758c-3.338,0-5.262,2.25-5.77,6.75H431.271z"/>
		</g>
		<g>
			<path fill="#010101" d="M213.049,303.578h7.674v5.234c0.797-1.824,1.923-3.234,3.374-4.23s3.048-1.496,4.789-1.496
				c0.327,0,0.635,0.02,0.926,0.051v7.08c-0.907-0.145-1.706-0.217-2.395-0.217c-4.463,0-6.694,2.297-6.694,6.891v16.076h-7.674
				V303.578z"/>
			<path fill="#010101" d="M246.629,303.085c1.27,0,2.504,0.146,3.701,0.438c1.197,0.289,2.423,0.816,3.673,1.578
				c1.254,0.762,2.34,1.732,3.266,2.91c0.926,1.18,1.679,2.742,2.257,4.682c0.582,1.941,0.871,4.164,0.871,6.666
				c0,0.438-0.02,0.871-0.055,1.309h-19.646c0.036,1.133,0.137,2.109,0.3,2.93c0.163,0.824,0.453,1.627,0.871,2.414
				c0.416,0.785,1.034,1.387,1.85,1.809c0.816,0.418,1.842,0.629,3.075,0.629c2.902,0,4.844-1.252,5.824-3.754h7.511
				c-0.836,2.902-2.488,5.215-4.953,6.938c-2.469,1.723-5.354,2.586-8.654,2.586c-4.176,0-7.469-1.352-9.88-4.055
				c-2.412-2.703-3.618-6.414-3.618-11.129c0-4.936,1.216-8.826,3.646-11.676C239.1,304.511,242.42,303.085,246.629,303.085z
				 M252.507,315.605c-0.182-2.158-0.771-3.824-1.769-4.992c-0.998-1.172-2.387-1.758-4.164-1.758c-3.338,0-5.261,2.25-5.769,6.75
				H252.507z"/>
			<path fill="#010101" d="M278.63,309.292c-4.135,0-6.203,3.191-6.203,9.578c0,2.848,0.553,5.086,1.66,6.707
				c1.105,1.625,2.621,2.436,4.543,2.436c1.488,0,2.648-0.404,3.484-1.211c0.834-0.809,1.486-2.146,1.959-4.014h7.293
				c-0.363,3.52-1.697,6.305-4,8.355c-2.305,2.049-5.234,3.074-8.789,3.074c-4.357,0-7.75-1.342-10.18-4.027
				c-2.432-2.686-3.645-6.459-3.645-11.32c0-5.008,1.223-8.891,3.672-11.648c2.447-2.756,5.867-4.137,10.26-4.137
				c3.664,0,6.631,1.018,8.898,3.049c2.268,2.033,3.529,4.846,3.783,8.436h-7.293c-0.436-1.902-1.061-3.258-1.877-4.066
				S280.19,309.292,278.63,309.292z"/>
			<path fill="#010101" d="M304.155,293.291v39.676h-7.674v-39.676H304.155z"/>
			<path fill="#010101" d="M318.788,334.218c-2.699,0-4.871-0.813-6.512-2.434s-2.461-3.762-2.461-6.422
				c0-5.16,2.9-8.225,8.701-9.199l3.031-0.541c0.072,0,0.434-0.045,1.084-0.135c0.648-0.09,1.064-0.162,1.244-0.217
				c0.18-0.053,0.533-0.135,1.057-0.244c0.523-0.107,0.893-0.234,1.109-0.379s0.479-0.332,0.785-0.566s0.514-0.506,0.623-0.813
				c0.107-0.307,0.162-0.658,0.162-1.055c0-1.949-1.463-2.922-4.385-2.922c-1.877,0-3.195,0.285-3.953,0.857
				s-1.227,1.611-1.406,3.115h-7.396c0.473-6.785,4.67-10.18,12.594-10.18c8.146,0,12.221,3.025,12.221,9.074v16.238
				c0,1.359,0.58,2.57,1.74,3.633v0.936h-8.463c-0.598-0.732-0.896-1.725-0.896-2.971
				C324.995,332.812,322.036,334.218,318.788,334.218z M327.612,321.14v-2.055c-0.686,0.324-1.75,0.633-3.195,0.92l-2.598,0.486
				c-1.588,0.324-2.707,0.795-3.355,1.406c-0.65,0.613-0.975,1.48-0.975,2.598c0,1.082,0.369,1.941,1.109,2.57
				c0.74,0.633,1.74,0.947,3.004,0.947c1.912,0,3.393-0.596,4.439-1.785S327.612,323.343,327.612,321.14z"/>
			<path fill="#010101" d="M349.927,293.291v6.803h-7.674v-6.803H349.927z M349.927,303.578v29.389h-7.674v-29.389H349.927z"/>
			<path fill="#010101" d="M357.218,303.578h7.619v3.613c1.264-1.477,2.498-2.529,3.707-3.16c1.209-0.629,2.643-0.945,4.303-0.945
				c3.865,0,6.545,1.441,8.039,4.32c2.168-2.879,5.021-4.32,8.563-4.32c2.953,0,5.258,0.801,6.918,2.396
				c1.658,1.596,2.488,3.828,2.488,6.693v20.791h-7.676v-19.639c0-1.164-0.369-2.09-1.109-2.781s-1.74-1.037-3.002-1.037
				c-1.623,0-2.895,0.51-3.814,1.527s-1.381,2.436-1.381,4.256v17.674h-7.674v-19.639c0-1.164-0.369-2.09-1.109-2.781
				s-1.74-1.037-3.002-1.037c-1.623,0-2.895,0.51-3.814,1.527c-0.922,1.018-1.381,2.436-1.381,4.256v17.674h-7.674V303.578z"/>
		</g>
	</g>
</g>
</svg>
