<?xml version="1.0" encoding="utf-8"?>
<!-- Generator: Adobe Illustrator 16.0.3, SVG Export Plug-In . SVG Version: 6.00 Build 0)  -->
<!DOCTYPE svg PUBLIC "-//W3C//DTD SVG 1.1//EN" "http://www.w3.org/Graphics/SVG/1.1/DTD/svg11.dtd">
<svg version="1.1" id="Layer_1" xmlns="http://www.w3.org/2000/svg" xmlns:xlink="http://www.w3.org/1999/xlink" x="0px" y="0px"
	 width="705.387px" height="170.217px" viewBox="0 0 705.387 170.217" enable-background="new 0 0 705.387 170.217"
	 xml:space="preserve">
<rect x="1.25" y="1.25" fill="#CACCCB" stroke="#010101" stroke-width="2.5" stroke-miterlimit="10" width="702.887" height="167.717"/>
<g>
	<path fill="#010101" d="M157.189,122.641h-4.596c-0.176-2.52-1.844-3.777-5.006-3.777c-1.266,0-2.268,0.268-3.01,0.807
		c-0.742,0.543-1.113,1.266-1.113,2.168c0,0.881,0.32,1.539,0.957,1.969c0.639,0.43,1.84,0.82,3.602,1.174l3.719,0.703
		c2.15,0.434,3.715,1.172,4.695,2.209c0.979,1.035,1.469,2.494,1.469,4.371c0,2.4-0.852,4.277-2.553,5.629
		c-1.703,1.35-4.074,2.027-7.113,2.027c-3.049,0-5.416-0.674-7.102-2.021c-1.684-1.348-2.602-3.291-2.754-5.836h4.758
		c0.088,1.305,0.586,2.297,1.502,2.984c0.916,0.684,2.203,1.027,3.859,1.027c1.48,0,2.652-0.289,3.514-0.859
		s1.291-1.363,1.291-2.373c0-0.967-0.334-1.713-1.002-2.24s-1.811-0.945-3.428-1.254l-3.328-0.641
		c-2.41-0.461-4.129-1.184-5.15-2.166c-1.021-0.984-1.531-2.404-1.531-4.264c0-2.313,0.783-4.102,2.35-5.365
		c1.566-1.266,3.766-1.896,6.598-1.896c0.83,0,1.633,0.053,2.41,0.162c0.773,0.107,1.598,0.332,2.473,0.666
		c0.873,0.34,1.629,0.773,2.262,1.307s1.164,1.27,1.59,2.215C156.977,120.313,157.189,121.404,157.189,122.641z"/>
	<path fill="#010101" d="M177.238,139.17h-4.598v-2.064c-1.254,1.877-3.006,2.814-5.254,2.814c-1.877,0-3.336-0.533-4.371-1.598
		c-1.039-1.064-1.555-2.563-1.555-4.498v-12.258h4.596v11.336c0,2.115,0.973,3.172,2.92,3.172c1.102,0,1.988-0.316,2.66-0.949
		c0.67-0.631,1.004-1.471,1.004-2.516v-11.043h4.598V139.17z"/>
	<path fill="#010101" d="M190.875,121.273c2.117,0,3.879,0.875,5.295,2.623c1.416,1.75,2.125,3.984,2.125,6.699
		c0,2.65-0.709,4.869-2.125,6.65s-3.178,2.674-5.295,2.674c-2.143,0-3.754-0.855-4.836-2.561v1.811h-4.596v-23.764h4.596v8.463
		C187.121,122.139,188.732,121.273,190.875,121.273z M192.631,126.66c-0.719-1.027-1.637-1.541-2.762-1.541
		s-2.045,0.504-2.758,1.506c-0.715,1.008-1.072,2.309-1.072,3.906c0,1.664,0.352,3.004,1.055,4.02s1.629,1.523,2.775,1.523
		c1.125,0,2.043-0.508,2.762-1.523c0.713-1.016,1.068-2.322,1.068-3.922C193.699,129.008,193.344,127.686,192.631,126.66z"/>
	<path fill="#010101" d="M219.676,139.17h-4.689l-2.646-12.443l-2.811,12.443h-4.689l-4.955-17.604h4.727l2.805,12.32l2.68-12.32
		h4.547l2.621,12.33l2.674-12.33h4.727L219.676,139.17z"/>
	<path fill="#010101" d="M231.705,139.92c-1.619,0-2.918-0.486-3.9-1.459c-0.984-0.969-1.475-2.252-1.475-3.848
		c0-3.088,1.738-4.924,5.211-5.508l1.816-0.324c0.043,0,0.26-0.027,0.648-0.08c0.391-0.053,0.639-0.098,0.746-0.129
		c0.107-0.035,0.318-0.08,0.633-0.146c0.313-0.066,0.535-0.141,0.664-0.227s0.285-0.201,0.471-0.34
		c0.184-0.143,0.309-0.303,0.371-0.486c0.066-0.186,0.098-0.396,0.098-0.633c0-1.166-0.873-1.75-2.625-1.75
		c-1.125,0-1.914,0.17-2.367,0.514c-0.455,0.344-0.734,0.965-0.842,1.863h-4.432c0.283-4.063,2.797-6.094,7.543-6.094
		c4.879,0,7.32,1.811,7.32,5.434v9.727c0,0.813,0.346,1.539,1.043,2.178v0.559h-5.068c-0.359-0.439-0.537-1.033-0.537-1.779
		C235.422,139.078,233.648,139.92,231.705,139.92z M236.988,132.088v-1.23c-0.41,0.193-1.047,0.377-1.912,0.549l-1.557,0.293
		c-0.949,0.193-1.621,0.473-2.01,0.842c-0.391,0.367-0.584,0.887-0.584,1.557c0,0.648,0.223,1.16,0.664,1.539
		c0.445,0.379,1.043,0.566,1.801,0.566c1.145,0,2.031-0.355,2.658-1.068S236.988,133.406,236.988,132.088z"/>
	<path fill="#010101" d="M250.354,139.934v-0.129l-6.551-18.238h5.02l3.879,12.752l3.65-12.752h4.695l-7.236,20.756
		c0,0.02-0.045,0.166-0.133,0.436c-0.086,0.271-0.156,0.455-0.213,0.553c-0.053,0.098-0.141,0.285-0.258,0.566
		c-0.119,0.279-0.244,0.48-0.377,0.604c-0.129,0.125-0.305,0.303-0.521,0.537s-0.461,0.412-0.732,0.537
		c-0.271,0.121-0.582,0.25-0.928,0.385c-0.35,0.135-0.752,0.23-1.209,0.287c-0.453,0.055-0.955,0.082-1.498,0.082
		c-0.479,0-1.021-0.043-1.629-0.135v-3.516c0.477,0.131,0.879,0.195,1.205,0.195c0.805,0,1.479-0.283,2.021-0.844
		C250.082,141.447,250.354,140.754,250.354,139.934z"/>
</g>
<g>
	<path fill="#010101" d="M150.246,35.938v19.689h-4.922V35.938h-7.172v-4.074h19.004v4.074H150.246z"/>
	<path fill="#010101" d="M164.813,56.377c-1.615,0-2.916-0.486-3.898-1.457c-0.984-0.971-1.477-2.254-1.477-3.848
		c0-3.088,1.738-4.924,5.213-5.508l1.816-0.326c0.043,0,0.26-0.025,0.648-0.08c0.389-0.053,0.637-0.098,0.746-0.129
		c0.107-0.033,0.318-0.08,0.633-0.146c0.313-0.066,0.533-0.139,0.664-0.227c0.129-0.086,0.287-0.201,0.469-0.34
		c0.186-0.141,0.309-0.303,0.375-0.486c0.064-0.186,0.098-0.395,0.098-0.631c0-1.168-0.877-1.752-2.627-1.752
		c-1.125,0-1.914,0.172-2.367,0.514c-0.455,0.344-0.734,0.967-0.844,1.865h-4.43c0.283-4.063,2.797-6.094,7.543-6.094
		c4.879,0,7.32,1.809,7.32,5.432v9.727c0,0.813,0.348,1.541,1.043,2.178v0.559h-5.07c-0.357-0.439-0.537-1.033-0.537-1.779
		C168.531,55.535,166.76,56.377,164.813,56.377z M170.1,48.545v-1.23c-0.412,0.193-1.049,0.379-1.914,0.549l-1.557,0.293
		c-0.951,0.193-1.621,0.475-2.01,0.844c-0.389,0.365-0.584,0.885-0.584,1.555c0,0.648,0.221,1.162,0.664,1.539
		c0.443,0.379,1.043,0.566,1.801,0.566c1.145,0,2.031-0.355,2.658-1.068S170.1,49.863,170.1,48.545z"/>
	<path fill="#010101" d="M188.123,46.76l5.869,8.867h-5.477l-2.967-5.475l-2.998,5.475h-5.477l5.867-8.867l-5.738-8.734h5.477
		l2.869,5.313l2.836-5.313h5.477L188.123,46.76z"/>
	<path fill="#010101" d="M201.359,31.863v4.074h-4.596v-4.074H201.359z M201.359,38.025v17.602h-4.596V38.025H201.359z"/>
	<path fill="#010101" d="M209.08,50.51c0.152,0.781,0.463,1.377,0.928,1.793c0.465,0.412,1.348,0.619,2.65,0.619
		c1.059,0,1.885-0.158,2.48-0.477c0.592-0.316,0.891-0.756,0.891-1.322c0-0.361-0.115-0.656-0.342-0.881
		c-0.227-0.227-0.625-0.43-1.189-0.613l-5.443-1.695c-0.023,0-0.154-0.039-0.391-0.117c-0.24-0.074-0.408-0.137-0.506-0.18
		c-0.098-0.047-0.279-0.117-0.539-0.217s-0.463-0.205-0.604-0.314c-0.143-0.111-0.32-0.25-0.537-0.416s-0.387-0.35-0.506-0.547
		c-0.119-0.201-0.244-0.428-0.375-0.682s-0.229-0.547-0.293-0.879s-0.098-0.686-0.098-1.063c0-1.779,0.648-3.188,1.945-4.227
		c1.297-1.041,3.066-1.561,5.311-1.561c2.373,0,4.232,0.527,5.58,1.58c1.35,1.055,2.047,2.516,2.09,4.383h-4.428
		c-0.023-1.672-1.113-2.508-3.275-2.508c-0.801,0-1.438,0.145-1.914,0.441c-0.475,0.293-0.713,0.691-0.713,1.191
		c0,0.348,0.111,0.617,0.328,0.803s0.643,0.377,1.273,0.572l5.771,1.66c2.301,0.705,3.451,2.248,3.451,4.633
		c0,0.664-0.121,1.313-0.359,1.949c-0.24,0.631-0.627,1.258-1.16,1.881c-0.535,0.623-1.336,1.121-2.402,1.498
		c-1.066,0.373-2.328,0.561-3.789,0.561c-5.402,0-8.172-1.955-8.301-5.867H209.08z"/>
</g>
<path fill="#010101" d="M117.697,103.793c0,0-23.08-0.012-30.77-0.004h-1.807c-0.307,0.004-0.512,0.004-0.654,0.012v-0.008
	c-3.346,0-5.189,1.855-5.189,5.227v33.355c0,3.287,1.736,5.018,5.016,5.018h33.5c3.33,0,5.018-1.689,5.018-5.018V109.02
	C122.811,105.602,121.041,103.793,117.697,103.793z"/>
<path fill="#FFFFFF" d="M117.697,105.408c0,0-14.771-0.008-24.621-0.008c-4.514,0-6.746,0.008-7.781,0.008h-0.004h-0.824
	c-2.473,0-3.574,1.115-3.574,3.611v33.355c0,2.387,1.018,3.402,3.4,3.402h33.5c2.414,0,3.402-0.984,3.402-3.402V109.02
	C121.195,106.486,120.148,105.408,117.697,105.408z"/>
<g id="Subway" transform="translate(-70.057632,-101.99311)">
	<path id="rect1750_1_" fill="#010101" d="M170.794,212.349c-5.5,0-9.928,4.428-9.928,9.928v0.762c0,0.049,0,0.09,0,0.139
		c0,0.012,0,0.025,0,0.037v11.193c0,0.67,0.521,1.215,1.168,1.215h18.227c0.646,0,1.168-0.545,1.168-1.215v-11.193
		c0-0.012-0.002-0.025-0.002-0.037c0-0.041,0.002-0.09,0.002-0.139v-0.762c0-5.5-4.43-9.928-9.926-9.928H170.794z M169.571,213.897
		h3.15c0.479,0,0.863,0.381,0.863,0.857v0.344c0,0.477-0.385,0.863-0.863,0.863h-3.15c-0.479,0-0.861-0.387-0.861-0.863v-0.344
		C168.71,214.278,169.093,213.897,169.571,213.897z M164.995,216.952h1.836c0.363,0,0.656,0.213,0.656,0.475v10.461
		c0,0.27-0.293,0.482-0.656,0.482h-3.293c-0.363,0-0.656-0.213-0.656-0.482v-6.734C163.265,219.554,163.962,217.821,164.995,216.952
		z M169.855,216.952h2.584c0.482,0,0.873,0.225,0.873,0.5v10.41c0,0.283-0.391,0.508-0.873,0.508h-2.584
		c-0.482,0-0.873-0.225-0.873-0.508v-10.41C168.981,217.177,169.372,216.952,169.855,216.952z M175.464,216.952h1.838
		c1.029,0.869,1.727,2.602,2.113,4.201v6.734c0,0.27-0.295,0.482-0.658,0.482h-3.293c-0.365,0-0.658-0.213-0.658-0.482v-10.461
		C174.806,217.165,175.099,216.952,175.464,216.952z M164.792,229.645c0.926,0,1.682,0.754,1.682,1.684
		c0,0.928-0.756,1.684-1.682,1.684c-0.93,0-1.686-0.756-1.686-1.684C163.106,230.399,163.862,229.645,164.792,229.645z
		 M177.503,229.645c0.932,0,1.684,0.754,1.684,1.684c0,0.928-0.752,1.684-1.684,1.684c-0.928,0-1.684-0.756-1.684-1.684
		C175.819,230.399,176.575,229.645,177.503,229.645z M162.247,236.448l-3.443,6.158h2.859l2.305-6.158H162.247z M178.325,236.448
		l2.303,6.158h2.863l-3.445-6.158H178.325z"/>
</g>
<g>
	<path fill="#010101" d="M117.781,21.344c0,0-23.135-0.006-30.842,0h-1.811c-0.311,0-0.516,0-0.658,0.01v-0.01
		c-3.354,0-5.201,1.861-5.201,5.24v33.441c0,3.289,1.736,5.029,5.025,5.029h33.584c3.336,0,5.027-1.693,5.027-5.029V26.584
		C122.906,23.156,121.137,21.344,117.781,21.344z"/>
	<path fill="#FFFFFF" d="M117.781,22.963c0,0-14.809-0.002-24.678-0.002c-4.525,0-6.768,0-7.807,0.002l0,0h-0.826
		c-2.477,0-3.582,1.117-3.582,3.621v33.441c0,2.389,1.02,3.408,3.406,3.408h33.584c2.42,0,3.408-0.988,3.408-3.408V26.584
		C121.287,24.045,120.238,22.963,117.781,22.963z"/>
	<g id="layer1_6_" transform="translate(-126.28436,-41.992928)">
		<path id="rect3876_1_" fill="#010101" d="M223.099,73.532c-0.293,0-0.529,0.236-0.529,0.529v2.689
			c0,0.293,0.236,0.531,0.529,0.531h8.643c0.293,0,0.527-0.238,0.527-0.531v-2.689c0-0.293-0.234-0.529-0.527-0.529H223.099z
			 M223.405,74.137h2.154v0.449h-0.801v2.209h-0.549v-2.209h-0.805V74.137z M226.417,74.137h0.576l1.09,2.658h-0.596l-0.238-0.607
			h-1.086l-0.223,0.607h-0.586L226.417,74.137z M228.183,74.137h0.643l0.545,0.852l0.533-0.852h0.635l-0.846,1.289l0.928,1.369
			h-0.66l-0.602-0.92l-0.604,0.92h-0.658l0.93-1.389L228.183,74.137z M230.886,74.137h0.549v2.658h-0.549V74.137z M226.7,74.755
			l-0.369,0.986h0.742L226.7,74.755z M220.991,78.264c-1.092,0-1.689,0.936-1.986,1.986l-1.326,4.67h-0.59
			c-0.857,0-1.545,0.689-1.545,1.545v5.664c0,0.859,0.688,1.547,1.545,1.547h0.531c-0.012,0.18-0.023,0.383-0.023,0.598v1.002
			c0,0.752,0.09,1.357,0.203,1.357h2.316c0.111,0,0.203-0.605,0.203-1.357v-1.002c0-0.215-0.01-0.418-0.023-0.598h14.248
			c-0.016,0.18-0.021,0.383-0.021,0.598v1.002c0,0.752,0.086,1.357,0.197,1.357h2.32c0.109,0,0.199-0.605,0.199-1.357v-1.002
			c0-0.215-0.01-0.418-0.021-0.598h0.533c0.854,0,1.543-0.688,1.543-1.547v-5.664c0-0.855-0.689-1.545-1.543-1.545h-0.592
			l-1.326-4.67c-0.299-1.051-0.893-1.986-1.984-1.986H220.991z M220.991,79.143h12.857c0.621,0,0.938,0.51,1.109,1.107l1.324,4.67
			h-17.725l1.324-4.67C220.05,79.653,220.368,79.143,220.991,79.143L220.991,79.143z M220.003,86.358
			c1.219,0,2.207,0.988,2.207,2.201c0,1.219-0.988,2.207-2.207,2.207l0,0c-1.219,0-2.207-0.988-2.207-2.207l0,0
			C217.796,87.346,218.784,86.358,220.003,86.358z M234.835,86.358c1.217,0,2.205,0.988,2.205,2.201
			c0,1.219-0.988,2.207-2.205,2.207l0,0c-1.217,0.004-2.207-0.984-2.207-2.203v-0.004C232.628,87.343,233.616,86.358,234.835,86.358
			L234.835,86.358z"/>
	</g>
</g>
<g id="layer1_3_" transform="translate(-102.25298,-172.11508)">
	<path id="path2252" fill="#010101" d="M151.177,230.033l-8.635-8.641h22.857v-5.52v-0.004v-5.523h-22.857
		l8.635-8.639h-14.553l-14.941,14.166l14.941,14.16H151.177z"/>
	<g id="layer1_5_" transform="translate(-102.25298,-172.11508)">
		<path id="path2252_2_" fill="#010101" d="M263.67,474.937h-12.582l16.648-16.646l-4.021-4.018l-0.002-0.006
			l-4.025-4.021l-16.645,16.645l-0.002-12.582l-10.6,10.602l-0.563,21.197l21.193-0.568L263.67,474.937z"/>
	</g>
</g>
<g>
	<path fill="#010101" d="M401.279,139.17l-9.52-16.432v16.432h-4.924v-23.764h5.055l9.389,16.168v-16.168h4.922v23.764H401.279z"/>
	<path fill="#010101" d="M418.227,121.273c0.762,0,1.502,0.086,2.219,0.26c0.717,0.176,1.451,0.49,2.201,0.947
		s1.4,1.037,1.955,1.742c0.555,0.707,1.004,1.641,1.354,2.805s0.521,2.494,0.521,3.992c0,0.262-0.012,0.523-0.031,0.781h-11.768
		c0.02,0.68,0.078,1.266,0.176,1.758c0.1,0.492,0.273,0.975,0.521,1.443c0.25,0.471,0.621,0.834,1.109,1.084
		c0.488,0.252,1.104,0.379,1.84,0.379c1.742,0,2.904-0.75,3.492-2.25h4.496c-0.5,1.74-1.488,3.125-2.965,4.156
		c-1.477,1.033-3.207,1.549-5.184,1.549c-2.5,0-4.473-0.809-5.918-2.43c-1.445-1.619-2.168-3.84-2.168-6.666
		c0-2.955,0.727-5.285,2.186-6.992C413.721,122.127,415.707,121.273,418.227,121.273z M421.748,128.771
		c-0.107-1.293-0.459-2.289-1.057-2.99s-1.43-1.053-2.492-1.053c-2.004,0-3.156,1.348-3.457,4.043H421.748z"/>
	<path fill="#010101" d="M447.891,139.17h-4.691l-2.645-12.443l-2.811,12.443h-4.689l-4.953-17.604h4.727l2.801,12.32l2.682-12.32
		h4.545l2.623,12.33l2.67-12.33h4.73L447.891,139.17z"/>
	<path fill="#010101" d="M458.711,134.053c0.152,0.781,0.459,1.377,0.928,1.791c0.463,0.414,1.348,0.621,2.648,0.621
		c1.061,0,1.889-0.158,2.48-0.477c0.594-0.316,0.893-0.756,0.893-1.322c0-0.361-0.113-0.658-0.344-0.881
		c-0.229-0.229-0.625-0.43-1.191-0.613l-5.441-1.695c-0.021,0-0.152-0.039-0.393-0.117c-0.24-0.074-0.404-0.137-0.502-0.18
		c-0.098-0.047-0.279-0.117-0.539-0.219c-0.262-0.1-0.463-0.203-0.605-0.314c-0.141-0.109-0.318-0.248-0.535-0.414
		c-0.219-0.166-0.387-0.35-0.506-0.547c-0.119-0.201-0.244-0.428-0.373-0.682c-0.133-0.254-0.23-0.547-0.293-0.879
		c-0.07-0.332-0.098-0.686-0.098-1.063c0-1.779,0.645-3.188,1.941-4.229c1.297-1.039,3.066-1.561,5.311-1.561
		c2.371,0,4.232,0.527,5.584,1.58c1.348,1.055,2.043,2.518,2.088,4.385h-4.428c-0.023-1.672-1.113-2.51-3.275-2.51
		c-0.801,0-1.438,0.146-1.914,0.443c-0.477,0.293-0.713,0.689-0.713,1.191c0,0.348,0.107,0.617,0.328,0.803
		c0.217,0.186,0.641,0.375,1.273,0.57l5.771,1.66c2.299,0.705,3.449,2.248,3.449,4.635c0,0.664-0.119,1.313-0.357,1.947
		c-0.24,0.633-0.629,1.26-1.164,1.883c-0.531,0.623-1.332,1.121-2.398,1.496c-1.066,0.373-2.332,0.563-3.789,0.563
		c-5.402,0-8.172-1.955-8.301-5.867H458.711z"/>
	<path fill="#010101" d="M485.898,134.053c0.152,0.781,0.459,1.377,0.928,1.791c0.463,0.414,1.348,0.621,2.648,0.621
		c1.061,0,1.889-0.158,2.48-0.477c0.594-0.316,0.893-0.756,0.893-1.322c0-0.361-0.113-0.658-0.344-0.881
		c-0.229-0.229-0.625-0.43-1.191-0.613l-5.441-1.695c-0.021,0-0.152-0.039-0.393-0.117c-0.24-0.074-0.404-0.137-0.502-0.18
		c-0.098-0.047-0.279-0.117-0.539-0.219c-0.262-0.1-0.463-0.203-0.605-0.314c-0.141-0.109-0.318-0.248-0.535-0.414
		c-0.219-0.166-0.387-0.35-0.506-0.547c-0.119-0.201-0.244-0.428-0.373-0.682c-0.133-0.254-0.23-0.547-0.293-0.879
		c-0.07-0.332-0.098-0.686-0.098-1.063c0-1.779,0.645-3.188,1.941-4.229c1.297-1.039,3.066-1.561,5.311-1.561
		c2.371,0,4.232,0.527,5.584,1.58c1.348,1.055,2.043,2.518,2.088,4.385h-4.428c-0.023-1.672-1.113-2.51-3.275-2.51
		c-0.801,0-1.438,0.146-1.914,0.443c-0.477,0.293-0.713,0.689-0.713,1.191c0,0.348,0.107,0.617,0.328,0.803
		c0.217,0.186,0.641,0.375,1.273,0.57l5.771,1.66c2.299,0.705,3.449,2.248,3.449,4.635c0,0.664-0.119,1.313-0.357,1.947
		c-0.24,0.633-0.629,1.26-1.164,1.883c-0.531,0.623-1.332,1.121-2.398,1.496c-1.066,0.373-2.332,0.563-3.789,0.563
		c-5.402,0-8.172-1.955-8.301-5.867H485.898z"/>
	<path fill="#010101" d="M508.592,121.926v3.031h-2.51v9.584c0,0.781,0.094,1.299,0.289,1.549c0.191,0.25,0.59,0.375,1.189,0.375
		c0.236,0,0.58-0.035,1.031-0.098v3.193c-0.73,0.24-1.6,0.359-2.611,0.359c-2.996,0-4.496-1.381-4.496-4.141v-10.822h-2.217v-3.031
		h2.217v-4.727h4.598v4.727H508.592z"/>
	<path fill="#010101" d="M516.248,139.92c-1.617,0-2.918-0.486-3.9-1.459c-0.982-0.969-1.473-2.252-1.473-3.848
		c0-3.088,1.734-4.924,5.209-5.508l1.816-0.324c0.045,0,0.26-0.027,0.65-0.08c0.387-0.053,0.637-0.098,0.746-0.129
		c0.107-0.035,0.316-0.08,0.629-0.146s0.539-0.141,0.664-0.227c0.133-0.086,0.289-0.201,0.473-0.34
		c0.184-0.143,0.307-0.303,0.373-0.486c0.064-0.186,0.098-0.396,0.098-0.633c0-1.166-0.877-1.75-2.627-1.75
		c-1.123,0-1.914,0.17-2.367,0.514c-0.455,0.344-0.734,0.965-0.84,1.863h-4.432c0.279-4.063,2.795-6.094,7.541-6.094
		c4.881,0,7.32,1.811,7.32,5.434v9.727c0,0.813,0.348,1.539,1.043,2.178v0.559h-5.066c-0.363-0.439-0.541-1.033-0.541-1.779
		C519.965,139.078,518.193,139.92,516.248,139.92z M521.533,132.088v-1.23c-0.41,0.193-1.049,0.377-1.914,0.549l-1.555,0.293
		c-0.953,0.193-1.621,0.473-2.01,0.842c-0.391,0.367-0.586,0.887-0.586,1.557c0,0.648,0.223,1.16,0.664,1.539
		c0.445,0.379,1.045,0.566,1.801,0.566c1.146,0,2.031-0.355,2.656-1.068C521.221,134.422,521.533,133.406,521.533,132.088z"/>
	<path fill="#010101" d="M530.139,121.566h4.598v2.52c1.252-1.875,3.002-2.813,5.254-2.813c1.877,0,3.334,0.533,4.369,1.598
		c1.039,1.064,1.559,2.563,1.559,4.496v11.803h-4.6v-10.881c0-2.113-0.971-3.17-2.918-3.17c-1.104,0-1.99,0.318-2.658,0.947
		c-0.672,0.633-1.006,1.473-1.006,2.518v10.586h-4.598V121.566z"/>
	<path fill="#010101" d="M556.729,139.92c-2.182,0-3.963-0.893-5.346-2.674s-2.076-3.986-2.076-6.617
		c0-2.65,0.709-4.871,2.123-6.666c1.418-1.793,3.184-2.689,5.299-2.689c2.119,0,3.73,0.865,4.834,2.596v-8.463h4.598v23.764h-4.598
		v-1.811C560.439,139.064,558.826,139.92,556.729,139.92z M557.734,125.119c-1.129,0-2.047,0.514-2.758,1.541
		c-0.717,1.025-1.072,2.348-1.072,3.969c0,1.6,0.355,2.906,1.072,3.922c0.711,1.016,1.629,1.523,2.758,1.523
		c1.123,0,2.047-0.498,2.758-1.492c0.715-0.992,1.07-2.289,1.07-3.889c0-1.662-0.352-3.008-1.055-4.033
		C559.805,125.633,558.883,125.119,557.734,125.119z"/>
</g>
<g>
	<path fill="#010101" d="M501.91,44.836h-9.391v10.791h-4.922V31.863h4.922v8.898h9.355v-8.898h4.957v23.764h-4.922V44.836z"/>
	<path fill="#010101" d="M519.398,37.732c2.766,0,4.914,0.83,6.451,2.492c1.533,1.662,2.299,3.982,2.299,6.961
		c0,2.824-0.781,5.063-2.348,6.713c-1.57,1.652-3.691,2.479-6.369,2.479c-2.723,0-4.857-0.834-6.402-2.506s-2.318-3.945-2.318-6.818
		s0.773-5.143,2.318-6.816C514.574,38.566,516.699,37.732,519.398,37.732z M519.432,41.447c-1.232,0-2.229,0.518-2.988,1.557
		c-0.758,1.037-1.135,2.387-1.135,4.049c0,1.666,0.377,3.016,1.135,4.053c0.76,1.039,1.756,1.555,2.988,1.555
		c1.213,0,2.201-0.512,2.971-1.539c0.766-1.025,1.152-2.361,1.152-4.002c0-1.729-0.373-3.105-1.121-4.133
		C521.688,41.961,520.686,41.447,519.432,41.447z"/>
	<path fill="#010101" d="M539.463,38.383v3.031h-2.51v9.584c0,0.781,0.096,1.299,0.289,1.549c0.191,0.25,0.59,0.375,1.191,0.375
		c0.234,0,0.578-0.033,1.029-0.098v3.193c-0.732,0.24-1.602,0.359-2.609,0.359c-3.002,0-4.5-1.379-4.5-4.141V41.414h-2.215v-3.031
		h2.215v-4.727h4.6v4.727H539.463z"/>
	<path fill="#010101" d="M549.893,37.732c0.762,0,1.498,0.084,2.217,0.258c0.719,0.176,1.449,0.49,2.203,0.947
		c0.746,0.457,1.4,1.039,1.953,1.744c0.555,0.705,1.004,1.641,1.352,2.803c0.35,1.164,0.523,2.494,0.523,3.994
		c0,0.26-0.012,0.521-0.033,0.781H546.34c0.023,0.678,0.082,1.264,0.18,1.758c0.098,0.49,0.273,0.975,0.521,1.443
		c0.248,0.471,0.619,0.832,1.107,1.082c0.488,0.252,1.105,0.379,1.842,0.379c1.738,0,2.9-0.75,3.488-2.25h4.5
		c-0.502,1.74-1.49,3.125-2.969,4.156c-1.477,1.033-3.203,1.549-5.182,1.549c-2.502,0-4.473-0.809-5.918-2.43
		c-1.445-1.619-2.168-3.84-2.168-6.664c0-2.957,0.729-5.287,2.184-6.992C545.383,38.584,547.373,37.732,549.893,37.732z
		 M553.414,45.23c-0.109-1.295-0.463-2.291-1.061-2.992c-0.596-0.699-1.428-1.051-2.492-1.051c-2,0-3.152,1.348-3.455,4.043H553.414
		z"/>
	<path fill="#010101" d="M566.16,31.863v23.764h-4.598V31.863H566.16z"/>
</g>
<g id="layer1_2_" transform="translate(-102.25298,-172.11508)">
	<path id="path2252_3_" fill="#010101" d="M758.714,230.035l8.637-8.643h-22.855v-5.52v-0.004v-5.523h22.855
		l-8.637-8.641h14.555l14.941,14.168l-14.941,14.162H758.714z"/>
	<g id="layer1_4_" transform="translate(-102.25298,-172.11508)">
		<path id="path2252_1_" fill="#010101" d="M850.727,474.937h12.584l-16.648-16.646l4.02-4.018l0.004-0.006
			l4.025-4.021l16.646,16.645v-12.582l10.6,10.602l0.561,21.197l-21.191-0.568L850.727,474.937z"/>
	</g>
</g>
<path fill="#010101" d="M620.908,104c0,0-23.027-0.014-30.697-0.008h-1.809c-0.301,0-0.51,0-0.648,0.014V104
	c-3.338,0-5.178,1.848-5.178,5.211v33.287c0,3.275,1.729,5.004,5.002,5.004h33.43c3.32,0,5.004-1.682,5.004-5.004v-33.287
	C626.012,105.801,624.248,104,620.908,104z"/>
<path fill="#FFFFFF" d="M620.908,105.607c0,0-14.736-0.006-24.563-0.006c-4.508,0-6.736,0.006-7.77,0.006l0,0h-0.822
	c-2.465,0-3.564,1.111-3.564,3.604v33.287c0,2.377,1.01,3.389,3.389,3.389h33.43c2.41,0,3.389-0.977,3.389-3.389v-33.287
	C624.396,106.684,623.359,105.607,620.908,105.607z"/>
<g id="layer1_1_" transform="translate(-87.08989,-142.08989)">
	<path id="rect36191_1_" fill="#220D0D" d="M687.979,253.91l-11.4,2.559v0.051v7.004v13.758h6.73l0,0h0.176
		c0-0.035-0.023-0.182-0.023-0.182l-0.004-0.033l-0.021-0.02l-1.291-1.48l0,0l0,0c-0.09-0.107-0.162-0.395-0.143-0.656
		c0.021-0.262,0.123-0.488,0.33-0.563l10.863-3.223l0.012-0.008l4.818-1.551l7.092,1.859c-1.287,0.496-16.189,6.297-16.189,6.297
		l-5.578-3.182l-0.711,0.014l5.801,4.393l17.182-6.877l-0.699-0.115l-0.047-0.119l1.006-0.43l-7.863-2.063l-4.791,1.547v-14.367
		h-5.248V253.91z M677.375,257.268h15.057c0.072,0,0.135,0.066,0.135,0.143v13.676l-3.209,0.957h-4.221v0.154h3.703l-3.113,0.926
		h-0.59v0.154h0.074l-2.947,0.867l0,0c-0.314,0.115-0.447,0.438-0.477,0.746c-0.025,0.314,0.041,0.629,0.188,0.811l0.008,0.004
		l0.846,0.967h-5.453c-0.074,0-0.133-0.061-0.133-0.133V257.41c0-0.076,0.059-0.135,0.133-0.135V257.268z M679.023,261.313v1h11.807
		v-1H679.023z M679.023,263.645v0.273h5.426v-0.273H679.023z M685.137,263.645v0.273h5.693v-0.273H685.137z M679.023,264.641v0.277
		h5.426v-0.277H679.023z M685.137,264.641v0.277h5.693v-0.277H685.137z M679.023,265.813v0.156h5.426v-0.156H679.023z
		 M685.137,265.813v0.156h5.693v-0.156H685.137z M679.023,266.738v0.154h5.426v-0.154H679.023z M685.137,266.738v0.154h5.693v-0.154
		H685.137z M679.023,267.75v0.152h5.426v-0.152H679.023z M685.137,267.75v0.152h5.693v-0.152H685.137z M679.023,268.895v0.156h5.426
		v-0.156H679.023z M685.137,268.895v0.156h5.693v-0.156H685.137z M679.023,269.973v0.154h5.426v-0.154H679.023z M685.137,269.973
		v0.154h5.693v-0.154H685.137z M679.023,270.992v0.148h5.426v-0.148H679.023z M685.137,270.992v0.148h5.693v-0.148H685.137z
		 M679.023,272.043v0.154h5.426v-0.154H679.023z M705.598,272.619l-17.273,7.627l-5.893-5.164l5.553,6.465l18.297-8.627
		l-0.588-0.092L705.598,272.619z M679.023,273.123v0.154h5.426v-0.154H679.023z"/>
</g>
<g>
	<path fill="#010101" d="M621.055,21.326c0,0-23.145-0.01-30.857-0.004l-1.814,0.002c-0.305,0-0.512,0-0.652,0.01v-0.008
		c-3.357,0-5.203,1.861-5.203,5.238v33.459c0,3.289,1.734,5.029,5.027,5.029h33.598c3.338,0,5.031-1.691,5.031-5.029V26.564
		C626.184,23.137,624.41,21.326,621.055,21.326z"/>
	<path fill="#FFFFFF" d="M621.055,22.945c0,0-14.814-0.004-24.689-0.004c-4.527,0-6.768,0-7.807,0l-0.002,0.004h-0.826
		c-2.479,0-3.586,1.115-3.586,3.619v33.459c0,2.391,1.021,3.41,3.41,3.41h33.598c2.422,0,3.41-0.988,3.41-3.41V26.564
		C624.563,24.027,623.514,22.945,621.055,22.945z"/>
	<g id="layer1_7_" transform="translate(-54.416359,-127.71995)">
		
			<path id="rect28203_1_" fill="#010101" d="
			M665.92,157.458l-0.857,6.158h2.588v6.354h1.082v-6.354h2.59l-0.859-6.158H665.92z M644.436,167.775
			c-0.234,0.006-0.459,0.094-0.633,0.25c-0.398,0.361-0.43,0.973-0.07,1.371c0.381,0.422,0.598,0.74,0.598,1.9v5.92
			c0,0.002,0,0.004,0,0.006v7.133h1.943v-3.104h25.066v3.104h1.943v-9.918c0.002-1.256,0.043-2.047,0.609-2.889
			c0.299-0.445,0.18-1.047-0.266-1.346c-0.211-0.145-0.473-0.197-0.727-0.148c-0.254,0.051-0.477,0.197-0.621,0.412
			c-0.684,1.018-0.869,2.064-0.922,3.1h-0.018v0.865c0,0.029,0,0.057,0,0.084v1.029c-0.365-0.379-0.799-0.75-1.393-0.779
			l-15.318-0.773c-0.998-0.088-2.078,1.139-2.109,1.982l-0.064,2.201h18.885v0.416h-25.066v-1.375v-5.924
			c0-1.506-0.498-2.533-1.098-3.197C644.985,167.884,644.713,167.769,644.436,167.775L644.436,167.775z M649.694,173.298
			c-1.09,0-1.975,0.885-1.975,1.977s0.885,1.979,1.975,1.979c1.094,0,1.979-0.887,1.979-1.979S650.787,173.298,649.694,173.298z"/>
	</g>
</g>
</svg>
