<?xml version="1.0" encoding="UTF-8" standalone="no"?>
<!-- Created with Inkscape (http://www.inkscape.org/) -->

<svg
   width="52.917mm"
   height="52.917mm"
   viewBox="0 0 52.917 52.917"
   version="1.1"
   id="svg6403"
   inkscape:version="1.2.1 (9c6d41e410, 2022-07-14)"
   sodipodi:docname="ISO 7001 PI TC 002.svg"
   xmlns:inkscape="http://www.inkscape.org/namespaces/inkscape"
   xmlns:sodipodi="http://sodipodi.sourceforge.net/DTD/sodipodi-0.dtd"
   xmlns="http://www.w3.org/2000/svg"
   xmlns:svg="http://www.w3.org/2000/svg">
  <sodipodi:namedview
     id="namedview6405"
     pagecolor="#505050"
     bordercolor="#eeeeee"
     borderopacity="1"
     inkscape:showpageshadow="0"
     inkscape:pageopacity="0"
     inkscape:pagecheckerboard="0"
     inkscape:deskcolor="#505050"
     inkscape:document-units="mm"
     showgrid="false"
     inkscape:zoom="0.76880612"
     inkscape:cx="137.87611"
     inkscape:cy="251.03859"
     inkscape:window-width="1920"
     inkscape:window-height="1017"
     inkscape:window-x="-8"
     inkscape:window-y="-8"
     inkscape:window-maximized="1"
     inkscape:current-layer="layer1" />
  <defs
     id="defs6400" />
  <g
     inkscape:label="Ebene 1"
     inkscape:groupmode="layer"
     id="layer1"
     transform="translate(-68.526436,-81.948219)">
    <rect
       style="fill:#ffffff;fill-opacity:1;stroke:none;stroke-width:2.01819"
       id="rect70551"
       width="52.917"
       height="52.917"
       x="68.526436"
       y="81.948219"
       inkscape:label="2" />
    <path
       id="path6347"
       style="fill:#1f0000;stroke-width:1.2;stroke-linecap:round"
       d="m 108.12264,89.433773 -3.2613,5.07927 h 1.50533 l -2.54041,3.88917 h 1.37976 l -2.60294,3.951697 h 4.23385 v 3.48144 h 1.28571 1.28519 v -3.48144 h 4.23437 l -2.60346,-3.951697 h 1.38028 l -2.54041,-3.88917 h 1.50533 z m -18.618502,10.13633 c -0.138683,-0.005 -0.280136,0.0242 -0.413412,0.0909 -0.426483,0.21343 -0.598422,0.728997 -0.384989,1.155487 l 1.526522,3.05045 -10.270175,20.52433 c -0.0054,0.0108 -2.148189,0.0165 -2.148189,0.0165 -0.823179,0 -1.486214,0.66304 -1.486214,1.48621 0,0.82318 0.663035,1.4857 1.486214,1.4857 h 26.878985 c 0.82317,0 1.48569,-0.66252 1.48569,-1.4857 0,-0.82317 -0.66252,-1.48621 -1.48569,-1.48621 l -2.26447,-0.0165 c -0.005,-0.0109 -10.270688,-20.52433 -10.270688,-20.52433 l 1.526522,-3.05045 c 0.213433,-0.42649 0.04201,-0.941537 -0.384472,-1.154967 -0.426484,-0.21344 -0.942054,-0.042 -1.155485,0.384467 l -0.949297,1.89704 -0.949296,-1.89704 c -0.146733,-0.293207 -0.436456,-0.465987 -0.741556,-0.475937 z m 1.690852,16.803627 4.025078,8.03413 h -8.050155 z"
       inkscape:label="1" />
  </g>
</svg>
