<?xml version="1.0" encoding="UTF-8" standalone="no"?>
<!-- Generator: Adobe Illustrator 16.0.3, SVG Export Plug-In . SVG Version: 6.00 Build 0)  -->

<svg
   version="1.1"
   id="Layer_1"
   x="0px"
   y="0px"
   width="520.695px"
   height="516.445px"
   viewBox="-173.566 -172.149 520.695 516.445"
   enable-background="new -173.566 -172.149 520.695 516.445"
   xml:space="preserve"
   sodipodi:docname="ISO_7001_Direction_Sign_-_Vertical_-_EN.svg"
   inkscape:version="1.2.1 (9c6d41e410, 2022-07-14)"
   xmlns:inkscape="http://www.inkscape.org/namespaces/inkscape"
   xmlns:sodipodi="http://sodipodi.sourceforge.net/DTD/sodipodi-0.dtd"
   xmlns="http://www.w3.org/2000/svg"
   xmlns:svg="http://www.w3.org/2000/svg"><defs
   id="defs1346" /><sodipodi:namedview
   id="namedview1344"
   pagecolor="#505050"
   bordercolor="#eeeeee"
   borderopacity="1"
   inkscape:showpageshadow="0"
   inkscape:pageopacity="0"
   inkscape:pagecheckerboard="0"
   inkscape:deskcolor="#505050"
   showgrid="false"
   inkscape:zoom="0.81034765"
   inkscape:cx="150.55267"
   inkscape:cy="339.36052"
   inkscape:window-width="1920"
   inkscape:window-height="1017"
   inkscape:window-x="-8"
   inkscape:window-y="-8"
   inkscape:window-maximized="1"
   inkscape:current-layer="Layer_1" />
<rect
   x="-172.066"
   y="-170.649"
   fill="#FFFFFF"
   stroke="#010101"
   stroke-width="3"
   stroke-miterlimit="10"
   width="517.695"
   height="513.445"
   id="rect1181" />
<g
   id="g1203">
	<path
   fill="#010101"
   d="M26.366,41.054H15.223l-2,6H6.977l10.57-29.758h6.777l10.289,29.758h-6.291L26.366,41.054z M24.69,35.949   l-3.877-11.633l-3.879,11.633H24.69z"
   id="path1183" />
	<path
   fill="#010101"
   d="M43.63,17.297V22.4h-5.754v-5.104H43.63z M43.63,25.011v22.045h-5.754V25.011H43.63z"
   id="path1185" />
	<path
   fill="#010101"
   d="M49.1,25.011h5.754v3.93c0.598-1.371,1.441-2.43,2.531-3.176s2.285-1.117,3.592-1.117   c0.246,0,0.475,0.012,0.691,0.035v5.311c-0.68-0.107-1.281-0.164-1.797-0.164c-3.348,0-5.02,1.723-5.02,5.168v12.061h-5.754V25.011   H49.1z"
   id="path1187" />
	<path
   fill="#010101"
   d="M76.95,24.648c2.785,0,5.023,1.117,6.715,3.355c1.693,2.242,2.537,5.031,2.537,8.355   c0,3.326-0.879,6.104-2.637,8.332c-1.764,2.227-3.963,3.34-6.615,3.34c-2.703,0-4.74-1.207-6.09-3.621v11.541h-5.758V25.011h5.758   v3.297C72.21,25.867,74.247,24.648,76.95,24.648z M79.134,31.39c-0.887-1.289-2.043-1.93-3.48-1.93   c-1.439,0-2.598,0.637-3.477,1.906c-0.879,1.275-1.314,2.939-1.314,4.992c0,2.059,0.436,3.713,1.314,4.969   c0.879,1.262,2.043,1.887,3.477,1.887c1.41,0,2.559-0.635,3.457-1.906c0.893-1.271,1.338-2.895,1.338-4.869   C80.448,34.355,80.012,32.676,79.134,31.39z"
   id="path1189" />
	<path
   fill="#010101"
   d="M100.309,24.648c3.461,0,6.154,1.039,8.076,3.121c1.922,2.078,2.883,4.984,2.883,8.711   c0,3.543-0.982,6.344-2.943,8.414c-1.961,2.068-4.621,3.098-7.973,3.098c-3.41,0-6.078-1.047-8.02-3.139   c-1.934-2.088-2.902-4.936-2.902-8.533c0-3.602,0.969-6.445,2.902-8.539C94.27,25.691,96.927,24.648,100.309,24.648z    M100.348,29.297c-1.547,0-2.793,0.65-3.738,1.945c-0.949,1.301-1.426,2.992-1.426,5.074s0.475,3.773,1.426,5.068   c0.945,1.301,2.191,1.947,3.738,1.947c1.52,0,2.762-0.641,3.719-1.926c0.961-1.287,1.445-2.957,1.445-5.014   c0-2.166-0.469-3.891-1.404-5.178C103.177,29.941,101.923,29.297,100.348,29.297z"
   id="path1191" />
	<path
   fill="#010101"
   d="M115.512,25.011h5.754v3.93c0.598-1.371,1.439-2.43,2.531-3.176c1.088-0.746,2.285-1.117,3.594-1.117   c0.246,0,0.473,0.012,0.691,0.035v5.311c-0.68-0.107-1.281-0.164-1.797-0.164c-3.348,0-5.021,1.723-5.021,5.168v12.061h-5.754   V25.011H115.512z"
   id="path1193" />
	<path
   fill="#010101"
   d="M141.432,25.461v3.795h-3.143v12.002c0,0.98,0.121,1.627,0.363,1.941c0.242,0.309,0.738,0.471,1.49,0.471   c0.295,0,0.727-0.045,1.289-0.123v4c-0.914,0.297-2.002,0.445-3.268,0.445c-3.752,0-5.629-1.723-5.629-5.184V29.254h-2.775v-3.793   h2.775v-5.92h5.754v5.92H141.432z"
   id="path1195" />
	<path
   fill="#010101"
   d="M168.466,24.648c2.65,0,4.855,1.092,6.635,3.283c1.771,2.189,2.66,4.99,2.66,8.391   c0,3.318-0.889,6.094-2.66,8.326c-1.779,2.23-3.984,3.344-6.635,3.344c-2.682,0-4.697-1.064-6.057-3.203v2.268h-5.754V17.301h5.754   v10.598C163.768,25.728,165.786,24.648,168.466,24.648z M170.665,31.39c-0.896-1.289-2.047-1.93-3.457-1.93   c-1.406,0-2.561,0.629-3.451,1.887s-1.342,2.889-1.342,4.891c0,2.082,0.439,3.762,1.32,5.031c0.879,1.275,2.039,1.908,3.473,1.908   c1.412,0,2.563-0.633,3.457-1.908c0.895-1.27,1.34-2.908,1.34-4.91C172.005,34.33,171.559,32.676,170.665,31.39z"
   id="path1197" />
	<path
   fill="#010101"
   d="M201.762,47.054h-5.754v-2.586c-1.572,2.352-3.764,3.523-6.578,3.523c-2.354,0-4.176-0.666-5.477-2   c-1.297-1.328-1.941-3.207-1.941-5.633V25.011h5.754v14.195c0,2.646,1.219,3.969,3.656,3.969c1.379,0,2.488-0.396,3.33-1.191   c0.834-0.787,1.26-1.836,1.26-3.148V25.011h5.754v22.043H201.762z"
   id="path1199" />
	<path
   fill="#010101"
   d="M211.227,40.648c0.188,0.973,0.57,1.723,1.16,2.242c0.578,0.52,1.688,0.779,3.313,0.779   c1.328,0,2.361-0.199,3.105-0.598c0.744-0.396,1.117-0.947,1.117-1.654c0-0.455-0.141-0.824-0.43-1.105   c-0.285-0.285-0.785-0.539-1.488-0.766l-6.816-2.123c-0.029,0-0.188-0.053-0.488-0.146c-0.303-0.098-0.514-0.176-0.633-0.229   c-0.125-0.059-0.35-0.143-0.676-0.27c-0.328-0.123-0.578-0.256-0.754-0.398c-0.184-0.139-0.402-0.311-0.678-0.518   c-0.271-0.207-0.48-0.438-0.633-0.688c-0.15-0.248-0.305-0.531-0.467-0.852c-0.164-0.32-0.289-0.686-0.365-1.102   c-0.082-0.416-0.123-0.859-0.123-1.328c0-2.227,0.813-3.992,2.434-5.297c1.625-1.303,3.842-1.949,6.652-1.949   c2.967,0,5.301,0.658,6.986,1.977c1.689,1.318,2.564,3.152,2.615,5.49h-5.543c-0.027-2.096-1.395-3.143-4.102-3.143   c-1,0-1.801,0.188-2.395,0.553c-0.596,0.369-0.895,0.867-0.895,1.494c0,0.438,0.137,0.773,0.41,1.004s0.805,0.467,1.598,0.713   l7.227,2.08c2.877,0.883,4.316,2.813,4.316,5.801c0,0.836-0.15,1.648-0.449,2.441c-0.301,0.789-0.785,1.572-1.449,2.355   c-0.672,0.777-1.674,1.402-3.01,1.875c-1.336,0.465-2.92,0.699-4.744,0.699c-6.766,0-10.232-2.445-10.395-7.342h5.598V40.648z"
   id="path1201" />
</g>
<g
   id="g1223">
	<path
   fill="#010101"
   d="M25.04-51.844v24.652h-6.164v-24.652h-8.98v-5.104h23.797v5.104H25.04z"
   id="path1205" />
	<path
   fill="#010101"
   d="M43.278-26.256c-2.023,0-3.652-0.604-4.883-1.818c-1.23-1.217-1.846-2.822-1.846-4.82   c0-3.867,2.178-6.168,6.525-6.898l2.275-0.406c0.053,0,0.322-0.035,0.811-0.102s0.797-0.121,0.936-0.16   c0.135-0.045,0.398-0.104,0.791-0.186c0.393-0.08,0.668-0.176,0.832-0.283c0.16-0.109,0.357-0.254,0.586-0.43   c0.229-0.178,0.383-0.379,0.469-0.609c0.082-0.227,0.123-0.492,0.123-0.793c0-1.457-1.1-2.188-3.287-2.188   c-1.41,0-2.398,0.215-2.965,0.645c-0.568,0.43-0.92,1.207-1.059,2.334h-5.545c0.354-5.088,3.502-7.631,9.445-7.631   c6.111,0,9.164,2.266,9.164,6.801v12.184c0,1.02,0.434,1.926,1.303,2.723v0.701H50.61c-0.449-0.553-0.676-1.291-0.676-2.229   C47.934-27.311,45.714-26.256,43.278-26.256z M49.897-36.063v-1.543c-0.514,0.246-1.314,0.473-2.396,0.688l-1.949,0.371   c-1.188,0.242-2.029,0.594-2.516,1.055c-0.488,0.459-0.732,1.105-0.732,1.947c0,0.814,0.275,1.453,0.832,1.928   c0.553,0.473,1.303,0.709,2.252,0.709c1.434,0,2.543-0.443,3.332-1.338C49.505-33.141,49.897-34.412,49.897-36.063z"
   id="path1207" />
	<path
   fill="#010101"
   d="M72.469-38.297l7.346,11.104H72.96l-3.715-6.857l-3.756,6.857H58.63l7.348-11.104l-7.186-10.938h6.857   l3.594,6.654l3.551-6.654h6.855L72.469-38.297z"
   id="path1209" />
	<path
   fill="#010101"
   d="M89.044-56.949v5.102h-5.758v-5.102H89.044z M89.044-49.235v22.043h-5.758v-22.043H89.044z"
   id="path1211" />
	<path
   fill="#010101"
   d="M110.061-33.598c0.189,0.973,0.574,1.723,1.162,2.242c0.582,0.518,1.688,0.777,3.314,0.777   c1.326,0,2.361-0.199,3.105-0.598c0.744-0.395,1.115-0.945,1.115-1.654c0-0.455-0.141-0.822-0.43-1.104   c-0.285-0.285-0.781-0.539-1.484-0.766l-6.818-2.125c-0.029,0-0.189-0.051-0.49-0.145c-0.301-0.098-0.512-0.176-0.633-0.23   c-0.121-0.059-0.348-0.143-0.672-0.27c-0.328-0.121-0.582-0.254-0.758-0.398c-0.18-0.137-0.402-0.309-0.676-0.518   c-0.273-0.205-0.484-0.436-0.633-0.686s-0.305-0.533-0.469-0.852c-0.16-0.32-0.287-0.688-0.367-1.102   c-0.078-0.418-0.121-0.859-0.121-1.328c0-2.227,0.813-3.992,2.438-5.297c1.621-1.305,3.84-1.951,6.648-1.951   c2.969,0,5.305,0.658,6.988,1.979c1.691,1.316,2.563,3.152,2.617,5.488h-5.543c-0.033-2.094-1.398-3.143-4.102-3.143   c-1.004,0-1.805,0.188-2.398,0.553c-0.594,0.371-0.895,0.867-0.895,1.496c0,0.436,0.141,0.773,0.412,1.004   c0.271,0.229,0.807,0.465,1.596,0.711l7.227,2.082c2.875,0.881,4.316,2.813,4.316,5.801c0,0.834-0.148,1.648-0.449,2.439   s-0.783,1.572-1.449,2.355c-0.672,0.779-1.676,1.404-3.008,1.875c-1.336,0.467-2.922,0.701-4.742,0.701   c-6.77,0-10.234-2.447-10.395-7.344h5.592V-33.598z"
   id="path1213" />
	<path
   fill="#010101"
   d="M138.473-48.785v3.793h-3.146v12.008c0,0.975,0.123,1.625,0.363,1.936c0.244,0.314,0.738,0.471,1.49,0.471   c0.301,0,0.727-0.043,1.293-0.121v3.998c-0.918,0.299-2,0.445-3.27,0.445c-3.754,0-5.631-1.723-5.631-5.182v-13.557h-2.775v-3.795   h2.775v-5.92h5.754v5.92h3.146V-48.785z"
   id="path1215" />
	<path
   fill="#010101"
   d="M148.059-26.256c-2.021,0-3.65-0.604-4.881-1.818c-1.232-1.217-1.85-2.822-1.85-4.82   c0-3.867,2.18-6.168,6.531-6.898l2.273-0.406c0.053,0,0.322-0.035,0.813-0.102c0.488-0.066,0.801-0.121,0.938-0.16   c0.133-0.045,0.398-0.104,0.789-0.186c0.395-0.08,0.676-0.176,0.832-0.283c0.164-0.109,0.361-0.254,0.59-0.43   c0.229-0.178,0.387-0.379,0.465-0.609c0.08-0.227,0.121-0.492,0.121-0.793c0-1.457-1.096-2.188-3.287-2.188   c-1.408,0-2.396,0.215-2.965,0.645c-0.564,0.43-0.92,1.207-1.055,2.334h-5.549c0.352-5.088,3.5-7.631,9.441-7.631   c6.113,0,9.168,2.266,9.168,6.801v12.184c0,1.02,0.438,1.926,1.309,2.723v0.701h-6.348c-0.449-0.553-0.674-1.291-0.674-2.229   C152.716-27.311,150.501-26.256,148.059-26.256z M154.68-36.063v-1.543c-0.512,0.246-1.313,0.473-2.395,0.688l-1.947,0.367   c-1.189,0.242-2.029,0.594-2.52,1.055c-0.486,0.461-0.729,1.107-0.729,1.949c0,0.813,0.281,1.453,0.832,1.926   c0.555,0.473,1.309,0.711,2.252,0.711c1.439,0,2.545-0.443,3.328-1.34C154.286-33.145,154.68-34.412,154.68-36.063z"
   id="path1217" />
	<path
   fill="#010101"
   d="M165.456-49.235h5.754v3.156c1.57-2.348,3.768-3.521,6.58-3.521c2.35,0,4.176,0.668,5.473,2.002   c1.301,1.328,1.945,3.207,1.945,5.629v14.777h-5.754v-13.625c0-2.645-1.215-3.967-3.656-3.967c-1.383,0-2.492,0.396-3.328,1.189   c-0.84,0.791-1.262,1.84-1.262,3.148v13.258h-5.754v-22.047H165.456z"
   id="path1219" />
	<path
   fill="#010101"
   d="M198.749-26.256c-2.73,0-4.959-1.113-6.693-3.342c-1.732-2.234-2.6-4.992-2.6-8.289   c0-3.32,0.891-6.102,2.662-8.348c1.777-2.242,3.984-3.365,6.633-3.365c2.656,0,4.674,1.08,6.057,3.252v-10.6h5.756v29.756h-5.756   v-2.266C203.395-27.323,201.376-26.256,198.749-26.256z M200.009-44.785c-1.41,0-2.563,0.641-3.453,1.93   c-0.898,1.285-1.344,2.938-1.344,4.969c0,2,0.445,3.639,1.344,4.91c0.893,1.273,2.047,1.906,3.453,1.906s2.561-0.621,3.451-1.865   c0.896-1.242,1.342-2.865,1.342-4.869c0-2.082-0.438-3.766-1.318-5.051C202.604-44.145,201.442-44.785,200.009-44.785z"
   id="path1221" />
</g>
<g
   id="g1243">
	<path
   fill="#010101"
   d="M26.692-109.801c0-0.816,0.012-1.453,0.043-1.918c0.027-0.461,0.041-0.871,0.041-1.223   c0-1.254-0.299-2.156-0.893-2.717c-0.598-0.557-1.563-0.838-2.887-0.838h-6.996v11.801H9.833v-29.758h15.936   c1.521,0,2.834,0.258,3.932,0.777c1.102,0.516,1.93,1.199,2.488,2.039c0.559,0.844,0.957,1.695,1.203,2.555s0.369,1.75,0.369,2.676   c0,3.59-1.688,6.039-5.057,7.348c0.742,0.297,1.293,0.535,1.646,0.711c0.354,0.18,0.717,0.469,1.088,0.879   c0.371,0.406,0.617,0.777,0.74,1.098c0.123,0.328,0.246,0.93,0.373,1.801c0.121,0.871,0.199,1.727,0.225,2.568   c0.025,0.844,0.053,2.096,0.084,3.756c0,1.145,0.42,1.961,1.264,2.449v1.102h-6.568c-0.348-0.707-0.578-1.389-0.688-2.045   C26.751-107.395,26.692-108.414,26.692-109.801z M27.587-125.559c0-1.523-0.348-2.535-1.047-3.039   c-0.701-0.502-1.777-0.754-3.232-0.754h-7.311v7.754h7.311c1.43,0,2.498-0.258,3.211-0.777   C27.233-122.889,27.587-123.953,27.587-125.559z"
   id="path1225" />
	<path
   fill="#010101"
   d="M47.876-127.106c0.949,0,1.879,0.105,2.773,0.324c0.898,0.219,1.814,0.611,2.754,1.186   c0.941,0.572,1.756,1.301,2.449,2.186c0.691,0.885,1.258,2.057,1.691,3.51c0.438,1.455,0.652,3.123,0.652,5.002   c0,0.324-0.014,0.652-0.039,0.977H43.419c0.027,0.852,0.104,1.586,0.227,2.201s0.34,1.217,0.652,1.807   c0.314,0.59,0.773,1.043,1.387,1.357s1.379,0.475,2.309,0.475c2.176,0,3.633-0.941,4.367-2.818h5.635   c-0.627,2.18-1.865,3.916-3.715,5.205c-1.852,1.293-4.014,1.938-6.492,1.938c-3.129,0-5.602-1.012-7.408-3.041   c-1.813-2.025-2.715-4.807-2.715-8.346c0-3.699,0.912-6.619,2.738-8.754C42.231-126.039,44.719-127.106,47.876-127.106z    M52.286-117.719c-0.139-1.617-0.582-2.863-1.328-3.742c-0.75-0.877-1.789-1.316-3.123-1.316c-2.502,0-3.943,1.691-4.324,5.063   h8.775V-117.719z"
   id="path1227" />
	<path
   fill="#010101"
   d="M66.684-111.102c0.191,0.973,0.578,1.723,1.164,2.238c0.578,0.52,1.688,0.781,3.313,0.781   c1.33,0,2.361-0.199,3.105-0.598c0.744-0.395,1.119-0.945,1.119-1.656c0-0.453-0.141-0.822-0.432-1.104   c-0.285-0.283-0.785-0.539-1.484-0.764l-6.82-2.125c-0.027,0-0.193-0.053-0.492-0.146c-0.299-0.096-0.51-0.176-0.633-0.229   c-0.123-0.059-0.348-0.145-0.674-0.27c-0.326-0.123-0.576-0.254-0.752-0.398c-0.18-0.137-0.406-0.311-0.678-0.52   c-0.271-0.203-0.482-0.436-0.633-0.684c-0.15-0.25-0.305-0.535-0.469-0.854s-0.283-0.689-0.369-1.102   c-0.082-0.412-0.123-0.857-0.123-1.326c0-2.227,0.814-3.994,2.438-5.297c1.623-1.305,3.842-1.953,6.65-1.953   c2.965,0,5.297,0.66,6.984,1.979c1.693,1.318,2.563,3.152,2.619,5.49h-5.543c-0.033-2.094-1.396-3.145-4.102-3.145   c-1.002,0-1.805,0.188-2.396,0.555c-0.598,0.369-0.896,0.867-0.896,1.494c0,0.436,0.141,0.773,0.412,1.006   c0.273,0.227,0.805,0.465,1.594,0.711l7.229,2.08c2.877,0.881,4.318,2.813,4.318,5.801c0,0.834-0.146,1.65-0.451,2.439   c-0.299,0.793-0.779,1.574-1.443,2.355c-0.678,0.781-1.68,1.404-3.012,1.875c-1.336,0.467-2.922,0.701-4.742,0.701   c-6.766,0-10.232-2.447-10.398-7.342h5.598V-111.102z"
   id="path1229" />
	<path
   fill="#010101"
   d="M95.102-126.289v3.793h-3.146v12.004c0,0.977,0.123,1.625,0.363,1.938c0.244,0.313,0.738,0.473,1.49,0.473   c0.301,0,0.727-0.043,1.293-0.123v3.998c-0.918,0.301-2,0.445-3.27,0.445c-3.754,0-5.631-1.723-5.631-5.182V-122.5h-2.775v-3.793   h2.775v-5.922h5.754v5.922h3.146V-126.289z"
   id="path1231" />
	<path
   fill="#010101"
   d="m 140.73972,-104.699 h -5.754 v -2.582 c -1.572,2.348 -3.766,3.52 -6.578,3.52 -2.354,0 -4.176,-0.664 -5.477,-1.996 -1.297,-1.332 -1.941,-3.209 -1.941,-5.635 v -15.35 h 5.754 v 14.199 c 0,2.645 1.215,3.965 3.656,3.965 1.379,0 2.488,-0.395 3.33,-1.188 0.834,-0.789 1.26,-1.838 1.26,-3.15 v -13.828 h 5.754 v 22.045 z"
   id="path1233" />
	<path
   fill="#010101"
   d="m 146.00972,-126.742 h 5.754 v 3.934 c 0.598,-1.371 1.438,-2.434 2.531,-3.176 1.086,-0.748 2.285,-1.121 3.59,-1.121 0.246,0 0.477,0.012 0.691,0.035 v 5.313 c -0.68,-0.109 -1.279,-0.164 -1.795,-0.164 -3.35,0 -5.021,1.723 -5.021,5.168 v 12.063 h -5.754 v -22.051 h 0.004 z"
   id="path1235" />
	<path
   fill="#010101"
   d="m 167.71472,-103.762 c -2.021,0 -3.65,-0.605 -4.881,-1.818 -1.23,-1.217 -1.846,-2.822 -1.846,-4.818 0,-3.867 2.178,-6.168 6.527,-6.9 l 2.273,-0.404 c 0.053,0 0.326,-0.039 0.814,-0.102 0.486,-0.068 0.801,-0.121 0.934,-0.162 0.137,-0.045 0.398,-0.104 0.793,-0.186 0.395,-0.078 0.672,-0.176 0.832,-0.283 0.164,-0.107 0.359,-0.252 0.588,-0.432 0.232,-0.176 0.387,-0.377 0.467,-0.605 0.078,-0.229 0.119,-0.492 0.119,-0.793 0,-1.457 -1.092,-2.189 -3.287,-2.189 -1.41,0 -2.396,0.213 -2.965,0.645 -0.566,0.432 -0.92,1.207 -1.055,2.334 h -5.547 c 0.35,-5.088 3.502,-7.631 9.441,-7.631 6.109,0 9.166,2.268 9.166,6.803 v 12.182 c 0,1.02 0.436,1.928 1.311,2.725 v 0.699 h -6.35 c -0.445,-0.553 -0.674,-1.293 -0.674,-2.229 -2.002,2.109 -4.221,3.164 -6.66,3.164 z m 6.619,-9.805 v -1.543 c -0.514,0.242 -1.313,0.471 -2.395,0.688 l -1.945,0.367 c -1.191,0.242 -2.033,0.594 -2.52,1.055 -0.486,0.459 -0.73,1.105 -0.73,1.947 0,0.811 0.279,1.453 0.83,1.928 0.557,0.473 1.311,0.709 2.252,0.709 1.439,0 2.547,-0.443 3.328,-1.338 0.783,-0.895 1.18,-2.164 1.18,-3.813 z"
   id="path1237" /><path
   fill="#010101"
   d="m 104.82847,-103.70527 c -2.021,0 -3.65,-0.605 -4.881001,-1.818 -1.230003,-1.217 -1.846003,-2.822 -1.846003,-4.818 0,-3.867 2.178004,-6.168 6.527004,-6.9 l 2.273,-0.404 c 0.053,0 0.326,-0.039 0.814,-0.102 0.486,-0.068 0.801,-0.121 0.934,-0.162 0.137,-0.045 0.398,-0.104 0.793,-0.186 0.395,-0.078 0.672,-0.176 0.832,-0.283 0.164,-0.107 0.359,-0.252 0.588,-0.432 0.232,-0.176 0.387,-0.377 0.467,-0.605 0.078,-0.229 0.119,-0.492 0.119,-0.793 0,-1.457 -1.092,-2.189 -3.287,-2.189 -1.41,0 -2.396,0.213 -2.965,0.645 -0.566,0.432 -0.92,1.207 -1.055,2.334 h -5.547004 c 0.35,-5.088 3.502004,-7.631 9.441004,-7.631 6.10899,0 9.16599,2.268 9.16599,6.803 v 12.182 c 0,1.02 0.436,1.928 1.311,2.725 v 0.699 h -6.34999 c -0.445,-0.553 -0.674,-1.293 -0.674,-2.229 -2.002,2.109 -4.221,3.164 -6.66,3.164 z m 6.619,-9.805 v -1.543 c -0.514,0.242 -1.313,0.471 -2.395,0.688 l -1.945,0.367 c -1.191,0.242 -2.033,0.594 -2.52,1.055 -0.486,0.459 -0.73,1.105 -0.73,1.947 0,0.811 0.279,1.453 0.83,1.928 0.557,0.473 1.311,0.709 2.252,0.709 1.439,0 2.547,-0.443 3.328,-1.338 0.783,-0.895 1.18,-2.164 1.18,-3.813 z"
   id="path1237-5" />
	<path
   fill="#010101"
   d="m 185.11472,-126.742 h 5.754 v 3.16 c 1.566,-2.348 3.764,-3.523 6.576,-3.523 2.35,0 4.178,0.668 5.473,2.002 1.301,1.33 1.947,3.209 1.947,5.631 v 14.777 h -5.754 v -13.625 c 0,-2.646 -1.219,-3.969 -3.658,-3.969 -1.383,0 -2.494,0.396 -3.328,1.191 -0.842,0.789 -1.26,1.84 -1.26,3.148 v 13.258 h -5.754 v -22.051 h 0.004 z"
   id="path1239" />
	<path
   fill="#010101"
   d="m 220.05072,-126.289 v 3.793 h -3.143 v 12.004 c 0,0.977 0.121,1.625 0.363,1.938 0.242,0.313 0.738,0.473 1.49,0.473 0.295,0 0.727,-0.043 1.289,-0.123 v 3.998 c -0.914,0.301 -2.002,0.445 -3.268,0.445 -3.752,0 -5.629,-1.723 -5.629,-5.182 V -122.5 h -2.775 v -3.793 h 2.775 v -5.922 h 5.754 v 5.922 h 3.143 v 0.004 z"
   id="path1241" />
</g>
<g
   id="g1249">
	<g
   id="path1245"><path
     style="color:#000000;fill:#010101;stroke-miterlimit:10;-inkscape-stroke:none"
     d="m -59.246094,2.6660156 c -0.61246,4.102e-4 -1.093901,0.00138 -1.421875,0.00195 -0.163986,2.859e-4 -0.287878,0.00162 -0.373047,0.00195 -0.04258,1.661e-4 -0.07671,-1.891e-4 -0.09961,0 -0.01145,9.45e-5 -0.01878,-1.465e-4 -0.02734,0 -0.0043,7.32e-5 -0.0075,-2.877e-4 -0.01563,0 -1.4e-5,5e-7 1.7e-5,0.00195 0,0.00195 -2.152498,0.003 -3.922857,0.5684403 -5.142578,1.7695312 -1.222971,1.2042917 -1.837891,2.9964405 -1.83789,5.2773438 v 45.001953 c 0,2.134729 0.552524,3.853128 1.716796,5.025391 1.164272,1.172262 2.886418,1.742187 5.046875,1.742187 h 45.19336 c 2.154844,0 3.87421,-0.538753 5.042968,-1.699219 1.1687594,-1.160465 1.7246099,-2.882716 1.7246099,-5.068359 V 9.71875 c 0,-2.2201115 -0.5519327,-4.0058062 -1.7324219,-5.2285156 -1.180489,-1.2227094 -2.94047,-1.8203125 -5.166016,-1.8203125 -0.002,-5e-7 -11.211361,-0.00241 -22.419921,-0.00391 -5.604769,-7.5e-4 -11.209954,-5.625e-4 -15.41211,0 -2.101078,2.813e-4 -3.851252,-8.204e-4 -5.076172,0 z m 5.076172,1.0878907 c 4.201961,-5.625e-4 9.807389,0.0012 15.41211,0.00195 11.20944,0.0015 22.419921,0.00391 22.419921,0.00391 2.03445,0 3.452304,0.5225397 4.382813,1.4863281 0.930509,0.9637885 1.425781,2.430772 1.425781,4.4726563 v 45.001953 c 0,2.004353 -0.492355,3.39139 -1.402344,4.294922 -0.909989,0.903532 -2.299239,1.382812 -4.27539,1.382812 h -45.19336 c -1.972538,0 -3.361461,-0.501686 -4.273437,-1.419921 -0.911976,-0.918236 -1.402344,-2.308546 -1.402344,-4.257813 V 9.71875 c 0,-2.0880923 0.545349,-3.5464969 1.515625,-4.5019531 0.970276,-0.9554562 2.419864,-1.4570313 4.392578,-1.4570313 h 0.02148 0.01563 1.597656 l -0.0039,-0.00391 c 0.114799,-9.11e-5 0.166815,8.45e-5 0.292968,0 1.224531,-8.202e-4 2.973239,-0.00167 5.074219,-0.00195 z"
     id="path1890" /></g>
	<g
   id="layer1_6_"
   transform="translate(-133.91461,-118.77209)">
		<path
   id="path4515"
   fill="#010101"
   d="M106.63,131.364c-0.129,0-0.262,0.061-0.396,0.201v0.01    c-0.342,0.373-0.572,1.162-0.584,1.697l-0.154,4.455l-5.672,3.971l0.021,0.516c0.012,0.383,0.096,0.496,0.564,0.422l5.205-1.475    l0.127,2.814l-2.357,1.615v0.998l3.242-0.867l3.246,0.867v-0.998l-2.359-1.615l0.125-2.814l5.207,1.475    c0.467,0.074,0.551-0.039,0.566-0.422l0.018-0.516l-5.67-3.971l-0.154-4.455c-0.012-0.537-0.244-1.324-0.584-1.697v-0.01    C106.89,131.424,106.761,131.364,106.63,131.364L106.63,131.364z M78.329,152.481c-0.895,0-1.615,0.717-1.615,1.615v11.41    c0,0.895,0.717,1.613,1.615,1.613h1.281c0.092-2.475,2.129-4.434,4.613-4.441c2.477,0.008,4.514,1.967,4.607,4.441h12.4    c0.092-2.475,2.131-4.434,4.613-4.441c2.477,0.008,4.514,1.967,4.605,4.441h1.563c0.898,0,1.617-0.719,1.617-1.613v-11.41    c0-0.898-0.719-1.615-1.617-1.615H78.329z M78.525,154.549h6.648c0.215,0,0.387,0.17,0.387,0.383v4.695    c0,0.211-0.172,0.383-0.387,0.383h-6.648c-0.217,0-0.387-0.172-0.387-0.383v-4.695C78.138,154.717,78.308,154.549,78.525,154.549z     M87.314,154.549h6.65c0.211,0,0.387,0.17,0.387,0.383v4.695c0,0.211-0.176,0.383-0.387,0.383h-6.65    c-0.211,0-0.383-0.172-0.383-0.383v-4.695C86.927,154.717,87.103,154.549,87.314,154.549z M96.109,154.549h6.646    c0.219,0,0.385,0.17,0.385,0.383v4.695c0,0.211-0.17,0.383-0.385,0.383h-6.646c-0.217,0-0.387-0.172-0.387-0.383v-4.695    C95.722,154.717,95.892,154.549,96.109,154.549z M104.896,154.549h6.648c0.215,0,0.385,0.17,0.385,0.383v4.695    c0,0.211-0.17,0.383-0.385,0.383h-6.648c-0.215,0-0.385-0.172-0.385-0.383v-4.695    C104.511,154.717,104.681,154.549,104.896,154.549z M84.224,164.26c-1.68,0-3.039,1.359-3.039,3.035    c0,1.68,1.359,3.039,3.039,3.039c1.676,0,3.035-1.359,3.035-3.039l0,0C87.259,165.62,85.9,164.26,84.224,164.26z M105.845,164.26    c-1.68,0-3.039,1.359-3.039,3.035c0,1.68,1.359,3.039,3.039,3.039l0,0c1.676,0,3.031-1.359,3.031-3.039l0,0    C108.876,165.62,107.517,164.26,105.845,164.26z" />
	</g>
</g>
<g
   id="g1255">
	<g
   id="path1251"><path
     style="color:#000000;fill:#010101;stroke-miterlimit:10;-inkscape-stroke:none"
     d="m -54.265625,-72.597656 c -2.105265,2.81e-4 -3.860361,0.0011 -5.087891,0.002 -0.613764,4.1e-4 -1.095068,0.0014 -1.423828,0.002 -0.16438,2.86e-4 -0.291537,-3.32e-4 -0.376953,0 -0.04271,1.66e-4 -0.07467,-1.89e-4 -0.09766,0 -0.01149,9.4e-5 -0.02073,-1.46e-4 -0.0293,0 -0.0043,7.3e-5 -0.0076,0.0017 -0.01563,0.002 -2e-5,10e-7 -0.0019,0.0019 -0.002,0.002 -2.155807,0.0037 -3.9285,0.568766 -5.150391,1.771485 -1.225939,1.206703 -1.84375,3.002903 -1.84375,5.287109 v 45.099609 c 0,2.138216 0.555309,3.861361 1.722657,5.035157 1.167347,1.173795 2.892485,1.74414 5.054687,1.74414 h 45.285156 c 2.158151,0 3.881822,-0.540645 5.052735,-1.703125 1.170913,-1.16248 1.7265621,-2.888702 1.7265621,-5.076172 V -65.53125 c 0,-2.222455 -0.5533471,-4.010993 -1.7363281,-5.236328 -1.182981,-1.225336 -2.944414,-1.824219 -5.173828,-1.824219 v 1.089844 c 2.037582,0 3.455905,0.526025 4.388672,1.492187 0.932766,0.966163 1.429687,2.434976 1.429687,4.478516 v 45.099609 c 0,2.005527 -0.492462,3.395514 -1.404297,4.300782 -0.911835,0.905268 -2.304358,1.386718 -4.283203,1.386718 h -45.285156 c -1.973794,0 -3.3666,-0.502172 -4.28125,-1.421875 -0.91465,-0.919702 -1.40625,-2.313845 -1.40625,-4.265625 V -65.53125 c 0,-2.090789 0.546722,-3.552221 1.519531,-4.509766 0.972809,-0.957545 2.426801,-1.460937 4.404297,-1.460937 h 0.02148 0.109375 1.265625 l -0.002,-0.002 c 0.191673,-1.76e-4 0.30343,1.53e-4 0.533204,0 1.22714,-8.2e-4 2.980769,-0.0017 5.085937,-0.002 4.210336,-5.63e-4 9.825936,-7.5e-4 15.441406,0 5.61547,7.5e-4 11.231437,0.001 15.44336,0.002 2.105961,4.68e-4 3.859435,0.0016 5.08789,0.002 0.614228,1.52e-4 1.096757,-8.5e-5 1.425782,0 0.164512,4.2e-5 0.29197,-2.2e-5 0.376953,0 0.08498,2.2e-5 0.128906,0 0.128906,0 0,0 -0.04392,-1.089822 -0.128906,-1.089844 -0.08498,-2.2e-5 -0.21244,-0.0019 -0.376953,-0.002 -0.329028,-8.5e-5 -0.81155,1.52e-4 -1.425782,0 -1.228463,-3.05e-4 -2.981918,4.69e-4 -5.08789,0 -4.211944,-9.38e-4 -9.827841,-0.0032 -15.44336,-0.0039 -5.615518,-7.5e-4 -11.230875,-5.63e-4 -15.441406,0 z"
     id="path1882" /></g>
	<g
   id="layer1_1_"
   transform="translate(-126.28436,-41.992928)">
		<path
   id="rect3876"
   fill="#010101"
   d="M81.646-16.853c-0.396,0-0.713,0.316-0.713,0.713v3.625c0,0.398,0.316,0.715,0.713,0.715    h11.658c0.391,0,0.711-0.316,0.711-0.715v-3.625c0-0.396-0.316-0.713-0.711-0.713H81.646z M82.062-16.039h2.91v0.605h-1.086v2.977    h-0.74v-2.977h-1.084V-16.039L82.062-16.039z M86.123-16.039h0.783l1.465,3.582h-0.805l-0.32-0.813h-1.465l-0.303,0.813h-0.785    L86.123-16.039z M88.508-16.039h0.863l0.734,1.148l0.723-1.148h0.855l-1.143,1.74l1.252,1.842h-0.891l-0.813-1.238l-0.816,1.238    h-0.887l1.254-1.867L88.508-16.039z M92.148-16.039h0.742v3.582h-0.742V-16.039z M86.504-15.201l-0.496,1.33h1L86.504-15.201z     M78.809-10.468c-1.475,0-2.281,1.258-2.682,2.676L74.34-1.492h-0.801c-1.152,0-2.078,0.93-2.078,2.078v7.641    c0,1.158,0.928,2.086,2.078,2.086h0.719c-0.018,0.242-0.027,0.514-0.027,0.805v1.35c0,1.014,0.121,1.83,0.27,1.83h3.127    c0.15,0,0.27-0.816,0.27-1.83v-1.35c0-0.291-0.012-0.563-0.029-0.805h19.211c-0.02,0.242-0.033,0.514-0.033,0.805v1.35    c0,1.014,0.119,1.83,0.271,1.83h3.127c0.15,0,0.27-0.816,0.27-1.83v-1.35c0-0.291-0.01-0.563-0.029-0.805h0.715    c1.156,0,2.086-0.93,2.086-2.086V0.586c0-1.15-0.93-2.078-2.086-2.078h-0.793l-1.789-6.301c-0.402-1.418-1.207-2.676-2.68-2.676    H78.809z M78.809-9.289h17.334c0.838,0,1.266,0.688,1.494,1.494l1.789,6.299H75.523l1.789-6.299    C77.539-8.601,77.967-9.289,78.809-9.289L78.809-9.289z M77.475,0.442c1.641,0,2.975,1.328,2.975,2.973s-1.334,2.977-2.975,2.977    l0,0c-1.641,0-2.975-1.332-2.975-2.977l0,0C74.5,1.774,75.834,0.442,77.475,0.442z M97.477,0.442c1.641,0,2.973,1.328,2.973,2.973    s-1.332,2.977-2.973,2.977l0,0c-1.641,0-2.975-1.33-2.977-2.977l0,0C94.502,1.774,95.832,0.442,97.477,0.442L97.477,0.442z" />
	</g>
</g>
<g
   id="path1257"><path
     style="color:#000000;fill:#010101;stroke-miterlimit:10;-inkscape-stroke:none"
     d="m -54.134766,-147.66602 c -2.09871,2.9e-4 -3.846562,0.001 -5.070312,0.002 -0.611875,4.1e-4 -1.094099,0.001 -1.421875,0.002 -0.163888,2.9e-4 -0.28787,-3.3e-4 -0.373047,0 -0.04259,1.7e-4 -0.07473,-1.9e-4 -0.09766,0 -0.01146,1e-4 -0.02075,-1.4e-4 -0.0293,0 -0.0043,7e-5 -0.0077,0.002 -0.01563,0.002 -1.5e-5,0 1.7e-5,0.002 0,0.002 -2.14971,0.003 -3.918098,0.5673 -5.136719,1.76758 -1.221873,1.20347 -1.837891,2.99446 -1.83789,5.26953 v 44.957028 c 0,2.131851 0.553629,3.849767 1.716796,5.021484 1.163167,1.171717 2.883393,1.742187 5.039063,1.742187 h 45.144531 c 2.151788,0 3.870727,-0.537784 5.039063,-1.697265 1.168336,-1.159482 1.724609,-2.881734 1.724609,-5.066406 v -44.957028 c 0,-2.21627 -0.552407,-3.99932 -1.732422,-5.22071 -1.180015,-1.22139 -2.937581,-1.81836 -5.160156,-1.81836 -0.0015,0 -11.200322,-0.004 -22.396484,-0.006 -5.598082,-7.5e-4 -11.195157,-5.6e-4 -15.392579,0 z m 0,1.0879 c 4.197227,-5.7e-4 9.794546,-7.5e-4 15.392579,0 11.196065,0.001 22.394984,0.006 22.396484,0.006 2.03142,0 3.44647,0.52322 4.376953,1.48633 0.930483,0.96311 1.425781,2.42712 1.425781,4.46485 v 44.957028 c 0,2.003323 -0.490478,3.389952 -1.40039,4.292968 -0.909912,0.903016 -2.30023,1.382813 -4.273438,1.382813 h -45.144531 c -1.967326,0 -3.354044,-0.501641 -4.265625,-1.419922 -0.911581,-0.918281 -1.402344,-2.309715 -1.402344,-4.255859 v -44.957028 c 0,-2.08194 0.543797,-3.53887 1.513672,-4.49414 0.969875,-0.95528 2.419166,-1.45704 4.388672,-1.45704 h 1.314453 l -0.0039,-0.004 c 0.21292,-2.1e-4 0.347978,1.7e-4 0.611328,0 1.223361,-8.2e-4 2.971699,-0.002 5.070312,-0.002 z"
     id="path1876" /></g>
<g
   id="layer1_7_"
   transform="translate(-66.805695,-128.7524)">
	<path
   id="path23355"
   fill="#010101"
   d="M16.873-9.347c0,0-0.762,6.838-0.445,9.984c0.148,1.49,0.449,2.26,1.133,3.506   c0.832,1.605,2.07,2.23,2.721,3.66c0.158,0.359,0.221,0.695,0.221,0.914c-0.035,6.281-0.186,18.203-0.215,20.578   c-0.004,0.27-0.004,0.418-0.004,0.418c0.309,0.336,0.711,0.49,1.135,0.539v0.004c0.021,0,0.037,0,0.057,0.004   c0.133,0.014,0.273,0.016,0.41,0.014c0.133,0.002,0.271,0,0.406-0.014c0.018,0,0.039-0.004,0.059-0.004v-0.004   c0.428-0.051,0.826-0.203,1.133-0.539c0,0,0-0.148-0.002-0.418c-0.029-2.375-0.178-14.297-0.211-20.578   c0-0.219,0.059-0.555,0.213-0.914c0.654-1.43,1.895-2.055,2.723-3.66c0.686-1.246,0.98-2.016,1.131-3.506   c0.318-3.146-0.443-9.984-0.443-9.984h-1.398v8.896c0,0.375-0.303,0.678-0.676,0.678c-0.371,0-0.67-0.305-0.67-0.678v-8.896H23.22   h-0.664v8.896c0,0.375-0.297,0.678-0.67,0.678c-0.375,0-0.678-0.305-0.678-0.678v-8.896h-0.66h-0.926v8.896   c0,0.375-0.303,0.678-0.676,0.678c-0.371,0-0.67-0.305-0.67-0.678v-8.896H16.873z M38.529-9.347c-2.602,0-4.691,2.104-4.691,4.713   V8.77c0,1.92,1.133,3.564,2.77,4.299v15.939c0,0.855,0.375,1.268,0.848,1.268h1.387c0.469,0,0.846-0.412,0.846-1.268V13.363V-2.164   v-7.068c-0.334-0.078-0.68-0.117-1.037-0.117h-0.121V-9.347z" />
</g>
<g
   id="layer1_3_"
   transform="translate(-102.25298,-172.11508)">
	<path
   id="path2252"
   fill="#010101"
   d="M-6.074,149.146l-11.855-11.859h31.375v-7.576v-0.006v-7.582H-17.93l11.855-11.854h-19.977   l-20.504,19.441l20.504,19.439h19.977V149.146z" />
	<g
   id="layer1_4_"
   transform="translate(-102.25298,-172.11508)">
		<path
   id="path2252_1_"
   fill="#010101"
   d="M68.509,234.115l11.859-11.857v31.375h7.572h0.008h7.582v-31.375l11.855,11.857v-19.979    L87.94,193.632l-19.434,20.504v19.979H68.509z" />
	</g>
	<g
   id="layer1_5_"
   transform="translate(-102.25298,-172.11508)">
		<path
   id="path2252_2_"
   fill="#010101"
   d="M108.218,385.287l-16.766-0.002l22.186-22.188l-5.357-5.355l-0.004-0.006l-5.361-5.361    l-22.184,22.188v-16.768l-14.123,14.127l-0.75,28.248l28.242-0.756L108.218,385.287z" />
	</g>
</g>
<g
   id="g1289">
	<path
   fill="#010101"
   d="M-81.118,283.107h-5.754c-0.221-3.154-2.309-4.734-6.268-4.734c-1.584,0-2.84,0.338-3.77,1.014   c-0.926,0.68-1.391,1.582-1.391,2.713c0,1.104,0.4,1.928,1.199,2.463c0.797,0.539,2.301,1.029,4.508,1.473l4.656,0.881   c2.693,0.545,4.65,1.465,5.879,2.766c1.227,1.299,1.84,3.123,1.84,5.473c0,3.006-1.066,5.354-3.199,7.049s-5.098,2.537-8.904,2.537   c-3.818,0-6.783-0.842-8.893-2.529s-3.258-4.125-3.449-7.305h5.957c0.109,1.631,0.736,2.875,1.883,3.729   c1.145,0.857,2.756,1.289,4.83,1.289c1.857,0,3.318-0.357,4.4-1.072c1.082-0.711,1.617-1.703,1.617-2.973   c0-1.207-0.418-2.145-1.254-2.809c-0.838-0.658-2.268-1.186-4.293-1.566l-4.168-0.803c-3.02-0.576-5.168-1.479-6.445-2.713   c-1.283-1.23-1.922-3.012-1.922-5.336c0-2.896,0.98-5.135,2.945-6.719c1.961-1.582,4.715-2.375,8.262-2.375   c1.035,0,2.041,0.066,3.014,0.199c0.971,0.141,2.002,0.42,3.096,0.84c1.098,0.422,2.039,0.965,2.832,1.631   c0.793,0.67,1.455,1.594,1.988,2.777C-81.386,280.191-81.118,281.558-81.118,283.107z"
   id="path1267" />
	<path
   fill="#010101"
   d="M-75.769,281.76h5.713v2.709c0.949-1.104,1.875-1.895,2.783-2.367c0.906-0.471,1.98-0.705,3.227-0.705   c2.898,0,4.91,1.076,6.031,3.236c1.625-2.16,3.766-3.236,6.422-3.236c2.215,0,3.943,0.596,5.188,1.795   c1.242,1.199,1.863,2.871,1.863,5.023v15.59h-5.756v-14.73c0-0.869-0.275-1.566-0.83-2.086c-0.555-0.516-1.305-0.775-2.25-0.775   c-1.219,0-2.172,0.381-2.861,1.146c-0.691,0.764-1.033,1.828-1.033,3.189v13.256h-5.754v-14.73c0-0.869-0.279-1.566-0.832-2.086   c-0.559-0.516-1.309-0.775-2.25-0.775c-1.219,0-2.172,0.381-2.863,1.146c-0.691,0.764-1.035,1.828-1.035,3.189v13.256h-5.754   V281.76H-75.769z"
   id="path1269" />
	<path
   fill="#010101"
   d="M-29.425,281.396c3.465,0,6.156,1.041,8.078,3.123c1.922,2.078,2.883,4.984,2.883,8.711   c0,3.541-0.98,6.342-2.941,8.414c-1.965,2.064-4.623,3.096-7.975,3.096c-3.41,0-6.082-1.045-8.016-3.139   c-1.939-2.09-2.906-4.936-2.906-8.533c0-3.6,0.967-6.445,2.906-8.537C-35.462,282.439-32.804,281.396-29.425,281.396z    M-29.38,286.047c-1.547,0-2.795,0.648-3.74,1.945c-0.949,1.297-1.426,2.99-1.426,5.074c0,2.082,0.477,3.773,1.426,5.066   c0.945,1.299,2.193,1.949,3.74,1.949c1.518,0,2.756-0.641,3.717-1.928c0.965-1.287,1.445-2.955,1.445-5.014   c0-2.164-0.469-3.891-1.402-5.176C-26.556,286.691-27.81,286.047-29.38,286.047z"
   id="path1271" />
	<path
   fill="#010101"
   d="M-8.462,290.332l7.229-8.572h6.488l-7.508,8.33l8.039,13.713h-6.691l-5.27-9.715l-2.285,2.49v7.225h-5.754   v-29.756h5.754v16.285H-8.462z"
   id="path1273" />
	<path
   fill="#010101"
   d="M14.764,274.047v5.102H9.01v-5.102H14.764z M14.764,281.76v22.045H9.01V281.76H14.764z"
   id="path1275" />
	<path
   fill="#010101"
   d="M20.235,281.76h5.754v3.158c1.566-2.348,3.764-3.521,6.576-3.521c2.354,0,4.178,0.668,5.475,2.002   c1.299,1.328,1.949,3.207,1.949,5.629v14.777h-5.754v-13.625c0-2.645-1.219-3.967-3.66-3.967c-1.379,0-2.488,0.396-3.328,1.189   c-0.84,0.791-1.258,1.84-1.258,3.148v13.258h-5.754V281.76z"
   id="path1277" />
	<path
   fill="#010101"
   d="M59.501,281.76h5.754v22.781c0,2.58-0.945,4.588-2.836,6.021c-1.891,1.43-4.543,2.141-7.961,2.141   c-2.941,0-5.301-0.563-7.07-1.693c-1.773-1.127-2.676-2.646-2.703-4.549h5.957c0.461,1.713,1.801,2.568,4.023,2.568   c1.438,0,2.602-0.42,3.494-1.248c0.893-0.832,1.342-1.922,1.342-3.258v-2.992c-1.059,1.207-2.043,2.047-2.947,2.516   c-0.908,0.461-2.002,0.693-3.271,0.693c-2.73,0-4.92-1.045-6.572-3.141c-1.65-2.098-2.473-4.861-2.473-8.287   c0-3.402,0.873-6.238,2.619-8.512c1.746-2.27,3.93-3.406,6.547-3.406c2.441,0,4.473,1.262,6.098,3.785V281.76z M54.626,286.211   c-1.383,0-2.5,0.648-3.355,1.947s-1.279,2.988-1.279,5.068c0,1.975,0.42,3.586,1.26,4.828c0.838,1.246,1.938,1.867,3.289,1.867   c1.492,0,2.705-0.621,3.641-1.867c0.938-1.242,1.398-2.854,1.398-4.828c0-2.027-0.465-3.703-1.398-5.031   C57.247,286.871,56.061,286.211,54.626,286.211z"
   id="path1279" />
	<path
   fill="#010101"
   d="M87.294,304.74c-2.023,0-3.652-0.607-4.883-1.818c-1.23-1.217-1.846-2.822-1.846-4.82   c0-3.867,2.178-6.168,6.525-6.898l2.275-0.406c0.057,0,0.326-0.037,0.811-0.102c0.488-0.066,0.801-0.121,0.936-0.16   c0.135-0.045,0.4-0.104,0.795-0.186c0.391-0.08,0.67-0.176,0.832-0.283c0.156-0.109,0.359-0.254,0.586-0.432   c0.227-0.176,0.387-0.377,0.469-0.607c0.078-0.227,0.119-0.492,0.119-0.793c0-1.457-1.1-2.188-3.291-2.188   c-1.408,0-2.395,0.213-2.965,0.645c-0.566,0.43-0.918,1.207-1.055,2.334h-5.547c0.354-5.088,3.5-7.631,9.445-7.631   c6.107,0,9.166,2.266,9.166,6.801v12.184c0,1.02,0.436,1.926,1.307,2.723v0.701h-6.348c-0.445-0.553-0.676-1.295-0.676-2.229   C91.946,303.685,89.731,304.74,87.294,304.74z M93.913,294.933v-1.543c-0.514,0.242-1.313,0.473-2.396,0.688l-1.949,0.367   c-1.186,0.242-2.029,0.594-2.516,1.055c-0.488,0.461-0.73,1.107-0.73,1.949c0,0.811,0.279,1.453,0.832,1.926   c0.555,0.473,1.305,0.711,2.25,0.711c1.438,0,2.547-0.443,3.332-1.34C93.516,297.851,93.913,296.584,93.913,294.933z"
   id="path1281" />
	<path
   fill="#010101"
   d="M104.684,281.76h5.758v3.932c0.598-1.371,1.441-2.432,2.535-3.18c1.082-0.742,2.285-1.115,3.588-1.115   c0.244,0,0.475,0.012,0.691,0.035v5.311c-0.682-0.107-1.277-0.164-1.795-0.164c-3.348,0-5.023,1.723-5.023,5.168v12.063h-5.754   V281.76z"
   id="path1283" />
	<path
   fill="#010101"
   d="M129.876,281.396c0.945,0,1.875,0.105,2.773,0.322c0.898,0.219,1.813,0.613,2.758,1.188   c0.939,0.566,1.75,1.301,2.449,2.184c0.688,0.887,1.256,2.059,1.689,3.512c0.436,1.455,0.65,3.121,0.65,5   c0,0.324-0.012,0.652-0.041,0.979h-14.732c0.025,0.85,0.102,1.584,0.225,2.201c0.123,0.613,0.34,1.215,0.65,1.807   c0.313,0.588,0.777,1.043,1.389,1.357c0.611,0.313,1.383,0.473,2.311,0.473c2.176,0,3.633-0.939,4.367-2.816h5.633   c-0.627,2.18-1.867,3.916-3.715,5.205c-1.852,1.291-4.014,1.936-6.488,1.936c-3.133,0-5.602-1.01-7.414-3.039   c-1.809-2.025-2.711-4.809-2.711-8.348c0-3.697,0.914-6.617,2.734-8.754C124.227,282.465,126.714,281.396,129.876,281.396z    M134.282,290.783c-0.137-1.617-0.578-2.865-1.324-3.744c-0.75-0.875-1.793-1.316-3.125-1.316c-2.504,0-3.945,1.691-4.326,5.063   h8.775V290.783z"
   id="path1285" />
	<path
   fill="#010101"
   d="M150.192,304.74c-2.021,0-3.65-0.607-4.881-1.818c-1.23-1.217-1.846-2.822-1.846-4.82   c0-3.867,2.176-6.168,6.527-6.898l2.273-0.406c0.055,0,0.322-0.037,0.813-0.102c0.488-0.066,0.801-0.121,0.938-0.16   c0.133-0.045,0.4-0.104,0.793-0.186c0.393-0.08,0.672-0.176,0.832-0.283c0.16-0.109,0.357-0.254,0.586-0.432   c0.229-0.176,0.387-0.377,0.465-0.607c0.082-0.227,0.125-0.492,0.125-0.793c0-1.457-1.098-2.188-3.291-2.188   c-1.408,0-2.396,0.213-2.965,0.645c-0.564,0.43-0.92,1.207-1.055,2.334h-5.549c0.352-5.088,3.5-7.631,9.445-7.631   c6.109,0,9.164,2.266,9.164,6.801v12.184c0,1.02,0.438,1.926,1.309,2.723v0.701h-6.348c-0.449-0.553-0.672-1.295-0.672-2.229   C154.852,303.685,152.634,304.74,150.192,304.74z M156.813,294.933v-1.543c-0.516,0.242-1.313,0.473-2.396,0.688l-1.951,0.367   c-1.188,0.242-2.027,0.594-2.514,1.055c-0.49,0.461-0.729,1.107-0.729,1.949c0,0.811,0.273,1.453,0.828,1.926   c0.559,0.473,1.309,0.711,2.254,0.711c1.434,0,2.547-0.443,3.33-1.34C156.419,297.851,156.813,296.584,156.813,294.933z"
   id="path1287" />
</g>
<g
   id="g1301">
	<path
   fill="#010101"
   d="M83.934,216.043H72.18v13.512h-6.164v-29.756h6.164v11.145h11.715v-11.145h6.207v29.756h-6.168V216.043z"
   id="path1291" />
	<path
   fill="#010101"
   d="M105.831,207.148c3.463,0,6.154,1.041,8.074,3.125c1.924,2.076,2.885,4.982,2.885,8.709   c0,3.541-0.98,6.342-2.941,8.414c-1.961,2.068-4.621,3.096-7.973,3.096c-3.414,0-6.082-1.045-8.016-3.137   c-1.941-2.09-2.906-4.938-2.906-8.535c0-3.6,0.965-6.445,2.906-8.535C99.794,208.191,102.45,207.148,105.831,207.148z    M105.876,211.799c-1.551,0-2.797,0.65-3.742,1.945c-0.949,1.299-1.424,2.99-1.424,5.074s0.471,3.773,1.424,5.068   c0.949,1.297,2.191,1.949,3.742,1.949c1.516,0,2.756-0.643,3.719-1.93c0.959-1.285,1.439-2.955,1.439-5.012   c0-2.164-0.469-3.891-1.4-5.176C108.696,212.443,107.442,211.799,105.876,211.799z"
   id="path1293" />
	<path
   fill="#010101"
   d="M130.956,207.965v3.793h-3.143v12.004c0,0.977,0.119,1.629,0.359,1.938   c0.242,0.313,0.738,0.473,1.494,0.473c0.293,0,0.725-0.043,1.289-0.123v3.998c-0.914,0.301-2.004,0.445-3.268,0.445   c-3.754,0-5.633-1.723-5.633-5.182v-13.557h-2.773v-3.793h2.773v-5.922h5.758v5.922h3.143V207.965z"
   id="path1295" />
	<path
   fill="#010101"
   d="M144.02,207.148c0.951,0,1.877,0.105,2.777,0.324c0.895,0.219,1.816,0.611,2.754,1.186   c0.939,0.572,1.754,1.301,2.449,2.186c0.691,0.885,1.258,2.057,1.689,3.51c0.434,1.455,0.656,3.123,0.656,5.002   c0,0.324-0.018,0.652-0.045,0.977h-14.732c0.025,0.852,0.1,1.586,0.223,2.201s0.34,1.217,0.654,1.807   c0.316,0.594,0.777,1.043,1.385,1.357c0.615,0.314,1.383,0.475,2.311,0.475c2.178,0,3.633-0.941,4.367-2.818h5.637   c-0.629,2.18-1.867,3.916-3.715,5.205c-1.852,1.293-4.016,1.938-6.492,1.938c-3.129,0-5.602-1.012-7.41-3.041   c-1.809-2.025-2.713-4.807-2.713-8.346c0-3.699,0.914-6.619,2.732-8.754C138.372,208.219,140.86,207.148,144.02,207.148z    M148.428,216.535c-0.139-1.617-0.574-2.863-1.324-3.742c-0.75-0.877-1.793-1.316-3.123-1.316c-2.502,0-3.945,1.691-4.328,5.063   h8.775V216.535z"
   id="path1297" />
	<path
   fill="#010101"
   d="M164.387,199.799v29.756h-5.754v-29.756H164.387z"
   id="path1299" />
</g>
<g
   id="g1317">
	<path
   fill="#010101"
   d="M9.134,129.041v23.01H2.969v-29.758h9.172l5.447,23.813l5.252-23.813h9.148v29.758h-6.168v-23.188   l-5.281,23.188h-6.105L9.134,129.041z"
   id="path1303" />
	<path
   fill="#010101"
   d="M43.579,152.988c-2.025,0-3.654-0.605-4.885-1.82s-1.842-2.82-1.842-4.818c0-3.867,2.172-6.166,6.523-6.9   l2.273-0.402c0.053,0,0.324-0.039,0.813-0.104c0.484-0.068,0.799-0.119,0.934-0.162s0.398-0.102,0.791-0.184   c0.393-0.078,0.67-0.176,0.832-0.285c0.162-0.107,0.361-0.25,0.588-0.43c0.227-0.176,0.385-0.379,0.467-0.605   c0.082-0.23,0.123-0.492,0.123-0.795c0-1.455-1.096-2.189-3.287-2.189c-1.406,0-2.396,0.215-2.965,0.645   c-0.564,0.432-0.92,1.207-1.055,2.336h-5.545c0.352-5.09,3.5-7.633,9.441-7.633c6.111,0,9.164,2.27,9.164,6.805v12.18   c0,1.02,0.438,1.93,1.307,2.727v0.699h-6.35c-0.447-0.555-0.67-1.295-0.67-2.23C48.235,151.933,46.016,152.988,43.579,152.988z    M50.196,143.183v-1.547c-0.512,0.246-1.313,0.473-2.396,0.691l-1.945,0.365c-1.193,0.244-2.033,0.596-2.52,1.055   s-0.729,1.107-0.729,1.947c0,0.813,0.273,1.453,0.828,1.93c0.557,0.471,1.307,0.707,2.254,0.707c1.434,0,2.545-0.441,3.33-1.338   C49.803,146.101,50.196,144.832,50.196,143.183z"
   id="path1305" />
	<path
   fill="#010101"
   d="M66.934,122.293v5.105H61.18v-5.105H66.934z M66.934,130.008v22.047H61.18v-22.047H66.934z"
   id="path1307" />
	<path
   fill="#010101"
   d="M78.157,122.293v29.758h-5.754v-29.758H78.157z"
   id="path1309" />
	<path
   fill="#010101"
   d="M106.581,129.644c2.648,0,4.854,1.094,6.627,3.285c1.777,2.188,2.666,4.988,2.666,8.391   c0,3.316-0.889,6.094-2.666,8.324c-1.773,2.23-3.979,3.344-6.627,3.344c-2.684,0-4.701-1.063-6.059-3.203v2.27h-5.754v-29.758   h5.754v10.6C101.88,130.726,103.899,129.644,106.581,129.644z M108.774,136.386c-0.891-1.287-2.043-1.93-3.449-1.93   c-1.414,0-2.563,0.631-3.455,1.887c-0.893,1.258-1.342,2.891-1.342,4.891c0,2.082,0.438,3.762,1.32,5.033   c0.883,1.275,2.039,1.908,3.477,1.908c1.408,0,2.563-0.633,3.449-1.908c0.898-1.271,1.344-2.908,1.344-4.91   C110.118,139.328,109.673,137.672,108.774,136.386z"
   id="path1311" />
	<path
   fill="#010101"
   d="M129.977,129.644c3.457,0,6.156,1.039,8.074,3.123c1.926,2.076,2.883,4.982,2.883,8.709   c0,3.543-0.98,6.344-2.941,8.414c-1.965,2.066-4.621,3.098-7.975,3.098c-3.408,0-6.08-1.047-8.016-3.137   c-1.939-2.094-2.904-4.938-2.904-8.535c0-3.602,0.965-6.445,2.904-8.537C123.938,130.683,126.596,129.644,129.977,129.644z    M130.018,134.293c-1.545,0-2.791,0.652-3.74,1.945c-0.949,1.299-1.426,2.992-1.426,5.074c0,2.084,0.473,3.773,1.426,5.07   c0.951,1.297,2.195,1.947,3.74,1.947c1.518,0,2.756-0.643,3.717-1.928s1.445-2.957,1.445-5.012c0-2.166-0.469-3.891-1.406-5.178   C132.844,134.937,131.589,134.293,130.018,134.293z"
   id="path1313" />
	<path
   fill="#010101"
   d="M156.977,140.947l7.344,11.104h-6.857l-3.713-6.859l-3.754,6.859h-6.855l7.348-11.104l-7.188-10.939h6.855   l3.592,6.656l3.551-6.656h6.861L156.977,140.947z"
   id="path1315" />
</g>
<g
   id="g1323">
	<g
   id="path1319"><path
     style="color:#000000;fill:#010101;stroke-miterlimit:10;-inkscape-stroke:none"
     d="m 197.00391,259.52344 c -2.101,3.7e-4 -3.85103,8.6e-4 -5.07618,0.002 -0.61257,5.5e-4 -1.09361,0.001 -1.42187,0.002 -0.16413,3.9e-4 -0.29142,-4.4e-4 -0.37695,0 -0.0428,2.3e-4 -0.0742,0.002 -0.0977,0.002 -0.01,1e-4 -0.0177,-1.5e-4 -0.0254,0 -0.002,3e-5 -0.004,-4e-5 -0.006,0 -0.005,1.1e-4 -0.007,-4.8e-4 -0.0176,0 -4e-5,0 -0.002,0.004 -0.002,0.004 -2.14765,0.005 -3.91719,0.56832 -5.13477,1.76758 -1.22287,1.20448 -1.83789,2.99742 -1.83789,5.27734 v 45.00391 c 0,2.1328 0.55256,3.85177 1.7168,5.02344 1.16424,1.17167 2.88644,1.74023 5.04687,1.74023 h 45.18946 c 2.15455,0 3.87406,-0.5361 5.04297,-1.69531 1.16891,-1.15921 1.72265,-2.88178 1.72265,-5.06836 v -45.00391 c 0,-2.21912 -0.55007,-4.00562 -1.73047,-5.22851 -1.18039,-1.22289 -2.94041,-1.82031 -5.16601,-1.82031 -0.002,0 -11.20894,-0.004 -22.41602,-0.006 -5.60402,-10e-4 -11.20815,-7.5e-4 -15.41015,0 z m 0,1.08789 c 4.20174,-7.5e-4 9.80619,9.5e-4 15.41015,0.002 11.20793,0.002 22.41602,0.006 22.41602,0.006 2.03439,0 3.45221,0.52418 4.38281,1.48828 0.9306,0.96411 1.42578,2.42984 1.42578,4.4707 v 45.00391 c 0,2.00542 -0.4925,3.39264 -1.40234,4.29492 -0.90984,0.90229 -2.29895,1.37891 -4.27539,1.37891 h -45.18946 c -1.97256,0 -3.36142,-0.50014 -4.27343,-1.41797 -0.91201,-0.91783 -1.40235,-2.30866 -1.40235,-4.25586 v -45.00391 c 0,-2.08707 0.54526,-3.54618 1.51563,-4.50195 0.97037,-0.95577 2.42188,-1.45703 4.39453,-1.45703 h 1.08789 l -0.004,-0.004 c 0.26524,-3.9e-4 0.47657,-0.002 0.83789,-0.002 1.22463,-0.001 2.97531,-0.002 5.07618,-0.002 z"
     id="path1914" /></g>
	<g
   id="layer1_2_"
   transform="translate(-219.06404,-94.909012)">
		<path
   id="rect4139"
   fill="#010101"
   d="M413.252,372.456c0.307,0.73,0.281,1.262,0.117,1.764c-0.188,0.596-1.137,1.115-1.672,1.693    c-2.113,2.09-2.195,4.646,0.547,6.053c0.738,0.213,1.465,0.188,2.098,0.15c0.637-0.045,1.207-0.104,1.617-0.055    c0.398,0.047,0.609,0.141,0.832,0.445c0.402,0.695,0.504,1.184,0.477,1.652c-0.023,0.479-0.188,0.969-0.363,1.57    c-0.348,1.207-0.582,2.881,0.826,5.145v0.004l0.006,0.004c0.152,0.242,0.469,0.699,0.721,1.074l1.184-0.791    c-0.264-0.387-0.588-0.857-0.705-1.053c-1.238-1.971-0.992-2.875-0.678-3.988c0.174-0.559,0.387-1.164,0.424-1.898    c0.035-0.734-0.148-1.566-0.682-2.477l-0.018-0.027l-0.018-0.023c-0.469-0.664-1.186-0.973-1.84-1.055    c-0.656-0.07-1.289,0.008-1.881,0.055c-3.041-0.156-2.816-2.365-1.518-3.824c0.574-0.621,1.676-1.283,1.986-2.227    c0.258-0.801,0.234-1.746-0.184-2.77L413.252,372.456z M418.35,370.221c0.41,0.922,0.41,1.561,0.246,2.105    c-0.186,0.609-1.027,1.023-1.566,1.553c-1.326,1.123-2.168,2.482-1.281,3.979c0.438,1.066,1.117,1.816,1.961,2.021    c0.813,0.162,1.547-0.025,2.168-0.201c0.617-0.184,1.148-0.34,1.512-0.332c0.371,0.012,0.609,0.09,0.984,0.625    c0.574,0.902,0.539,1.391,0.297,1.924c-0.246,0.541-0.844,1.125-1.494,1.775c-0.654,0.656-1.365,1.389-1.689,2.406    c-0.32,1.012-0.125,2.252,0.789,3.588c0,0,0,0,0,0.002c0.156,0.242,0.352,0.52,0.52,0.736l1.178-0.795    c-0.158-0.215-0.387-0.527-0.516-0.719v-0.012l-0.012-0.008c-0.756-1.105-0.799-1.777-0.609-2.379    c0.188-0.594,0.715-1.184,1.342-1.813c0.633-0.627,1.365-1.285,1.781-2.188c0.41-0.914,0.369-2.096-0.398-3.297l-0.006-0.016    l-0.006-0.012c-0.574-0.82-1.387-1.211-2.115-1.23c-0.738-0.023-1.371,0.215-1.945,0.387c-0.58,0.162-1.068,0.258-1.5,0.172    c-1.424-1.266-1.193-2.391,0.023-3.598c0.609-0.582,1.646-1.18,1.939-2.164c0.258-0.869,0.195-1.906-0.316-3.074L418.35,370.221z     M423.459,389.538l0.926,1.375l24.469-16.414l1.723,2.578l-24.469,16.41l0.926,1.379l25.816-17.318l-3.582-5.322L423.459,389.538z     M418.994,392.838l3.295,4.906l4.008-2.689l-3.295-4.908L418.994,392.838z" />
	</g>
</g>
<g
   id="g1329">
	<g
   id="path1325"><path
     style="color:#000000;fill:#010101;stroke-miterlimit:10;-inkscape-stroke:none"
     d="m 197.04492,184.14648 c -2.10543,3.8e-4 -3.86038,8.6e-4 -5.08789,0.002 -0.61375,5.4e-4 -1.09505,0.001 -1.42383,0.002 -0.16439,3.8e-4 -0.29135,0.002 -0.37695,0.002 -0.0428,2.3e-4 -0.0742,-2.5e-4 -0.0977,0 -0.0103,1.2e-4 -0.019,-1.7e-4 -0.0273,0 -0.001,3e-5 -0.003,-2e-5 -0.004,0 -0.005,1.1e-4 -0.009,0.001 -0.0195,0.002 -2e-5,0 2e-5,0.002 0,0.002 -2.15299,0.005 -3.9263,0.5706 -5.14844,1.77344 -1.22704,1.20767 -1.8457,3.00608 -1.8457,5.29101 v 45.09961 c 0,2.14022 0.5567,3.86332 1.72461,5.03711 1.16791,1.1738 2.89257,1.74219 5.05469,1.74219 h 45.29297 c 2.1591,0 3.88399,-0.5403 5.05468,-1.70313 1.1707,-1.16282 1.72461,-2.88783 1.72461,-5.07617 V 191.2207 c 0,-2.22668 -0.55178,-4.01848 -1.73437,-5.24414 -1.18259,-1.22565 -2.94459,-1.82422 -5.17383,-1.82422 -0.001,0 -11.23582,-0.004 -22.46875,-0.006 -5.61646,-0.001 -11.2325,-7.5e-4 -15.44336,0 z m 0,1.0918 c 4.2106,-7.5e-4 9.82501,-0.001 15.44141,0 11.2328,0.002 22.4692,0.006 22.4707,0.006 2.03775,0 3.45652,0.52414 4.38867,1.49023 0.93216,0.9661 1.42774,2.43802 1.42774,4.48633 v 45.09961 c 0,2.00666 -0.49079,3.39731 -1.40235,4.30274 -0.91155,0.90542 -2.30526,1.38476 -4.28515,1.38476 h -45.29297 c -1.97388,0 -3.36616,-0.50022 -4.28125,-1.41992 -0.91509,-0.9197 -1.40625,-2.3138 -1.40625,-4.26758 V 191.2207 c 0,-2.09106 0.54532,-3.55484 1.51953,-4.51367 0.97421,-0.95882 2.42997,-1.46289 4.40625,-1.46289 h 0.0293 0.10156 1.1875 l -0.004,-0.004 c 0.21359,-2.7e-4 0.34904,2.4e-4 0.61328,0 1.22699,-0.001 2.98064,-0.002 5.08594,-0.002 z"
     id="path1906" /></g>
	<g
   id="layer1_8_"
   transform="translate(-54.416359,-127.71995)">
		<path
   id="rect28203"
   fill="#010101"
   d="M276.495,323.212l-1.156,8.303h3.492v8.566h1.457v-8.566h3.48l-1.148-8.303H276.495z     M247.528,337.126c-0.314,0.008-0.621,0.121-0.855,0.336c-0.533,0.484-0.572,1.313-0.092,1.846    c0.516,0.564,0.809,0.996,0.809,2.564v7.977c0,0,0,0.006,0,0.008v9.613h2.621v-4.184H283.8v4.184h2.621v-13.365    c0.004-1.699,0.063-2.764,0.824-3.896c0.398-0.594,0.242-1.414-0.355-1.816c-0.293-0.193-0.645-0.264-0.984-0.199    c-0.338,0.066-0.645,0.266-0.836,0.559c-0.922,1.371-1.176,2.785-1.242,4.182H283.8v1.162c0,0.039,0,0.078,0,0.121v1.387    c-0.488-0.514-1.074-1.016-1.875-1.055l-20.652-1.047c-1.34-0.121-2.801,1.541-2.84,2.676l-0.088,2.969H283.8v0.559h-33.789    v-1.848v-7.988c0-2.031-0.668-3.414-1.477-4.313C248.273,337.274,247.903,337.116,247.528,337.126L247.528,337.126z     M254.62,344.567c-1.469,0-2.664,1.195-2.664,2.668c0,1.471,1.191,2.666,2.664,2.666c1.475,0,2.668-1.195,2.668-2.666    C257.288,345.763,256.093,344.567,254.62,344.567z" />
	</g>
</g>
<g
   id="g1335">
	<g
   id="path1331"><path
     style="color:#000000;fill:#010101;stroke-miterlimit:10;-inkscape-stroke:none"
     d="m 197.05273,108.94141 c -2.10412,4.2e-4 -3.85699,7.2e-4 -5.08398,0.002 -0.6135,6.1e-4 -1.09501,0.001 -1.42383,0.002 -0.1644,4.3e-4 -0.29117,0.001 -0.37695,0.002 -0.0429,2.5e-4 -0.0758,-3e-4 -0.0996,0 -0.009,1.1e-4 -0.016,0.002 -0.0234,0.002 -0.002,5e-5 -0.005,-7e-5 -0.008,0 -0.005,1.3e-4 -0.008,-5.9e-4 -0.0195,0 -5e-5,0 -0.002,0.004 -0.002,0.004 -2.1479,0.006 -3.91822,0.56934 -5.13671,1.76953 -1.22459,1.20619 -1.8418,3.00108 -1.8418,5.28515 v 45.06641 c 0,2.13599 0.55482,3.85765 1.7207,5.03125 1.16589,1.1736 2.89007,1.74219 5.05274,1.74219 h 45.25781 c 2.15784,0 3.88075,-0.53777 5.05078,-1.69922 1.17003,-1.16146 1.72461,-2.88554 1.72461,-5.07422 v -45.06641 c 0,-2.22223 -0.55074,-4.00949 -1.73242,-5.23437 -1.18169,-1.22488 -2.94356,-1.82422 -5.17188,-1.82422 -0.001,0 -11.22819,-0.006 -22.45312,-0.008 -5.61247,-0.001 -11.22534,-8.5e-4 -15.4336,0 z m 0,1.08984 c 4.20796,-8.4e-4 9.8212,8.3e-4 15.4336,0.002 11.22479,0.002 22.45162,0.006 22.45312,0.006 2.03668,0 3.45516,0.52462 4.38672,1.49024 0.93156,0.96561 1.42578,2.43475 1.42578,4.47851 v 45.06641 c 0,2.00731 -0.49162,3.39674 -1.40234,4.30078 -0.91072,0.90404 -2.30209,1.38281 -4.28125,1.38281 h -45.25781 c -1.97433,0 -3.36594,-0.50247 -4.2793,-1.42187 -0.91336,-0.9194 -1.40234,-2.31171 -1.40234,-4.26172 v -45.06641 c 0,-2.09092 0.54396,-3.5527 1.51562,-4.50976 0.97166,-0.95706 2.42589,-1.45899 4.40039,-1.45899 h 0.0293 0.008 0.98047 l -0.002,-0.002 c 0.27859,-4.9e-4 0.51817,-0.002 0.91015,-0.002 1.22641,-0.001 2.97805,-0.003 5.08203,-0.004 z"
     id="path1898" /></g>
	<g
   id="layer1_14_"
   transform="translate(-290.99747,-100.4651)">
		<path
   id="rect4293"
   fill="#010101"
   d="M485.504,225.695v26.332h35.859v-26.332H485.504z M488.584,227.678h29.637l-12.398,12.42    c-1.641,1.598-2.961,1.668-4.711-0.016C496.986,236.191,492.725,231.836,488.584,227.678L488.584,227.678z M519.24,229.586v18.703    l-9.375-9.332L519.24,229.586z M487.637,229.658l9.334,9.338l-9.334,9.293V229.658z M508.397,240.426l9.664,9.617h-29.242    l9.621-9.582c1.43,1.598,3.047,3.094,5.113,3.055C505.799,243.357,506.928,241.898,508.397,240.426L508.397,240.426z" />
	</g>
</g>
<g
   id="layer1_10_"
   transform="translate(-102.25298,-172.11508)">
	<path
   id="path2252_8_"
   fill="#010101"
   d="M384.144,405.896l11.852-11.859h-31.371v-7.578v-0.004v-7.582h31.371l-11.852-11.857   h19.973l20.508,19.443l-20.508,19.439h-19.973V405.896z" />
	<g
   id="layer1_13_"
   transform="translate(-102.25298,-172.11508)">
		<path
   id="path2252_7_"
   fill="#010101"
   d="M500.96,501.539v-16.771l-22.184,22.186l-5.361-5.357v-0.002l-5.361-5.363l22.188-22.184    l-16.77-0.002l14.125-14.127l28.254-0.75l-0.764,28.246L500.96,501.539z" />
	</g>
	<g
   id="layer1_12_"
   transform="translate(-102.25298,-172.11508)">
		<path
   id="path2252_6_"
   fill="#010101"
   d="M474.354,642.035l16.77-0.002l-22.186-22.186l5.355-5.355l0.006-0.008l5.361-5.359    l22.186,22.186v-16.768l14.129,14.129l0.75,28.246l-28.242-0.754L474.354,642.035z" />
	</g>
</g>
</svg>
