<?xml version="1.0" encoding="UTF-8" standalone="no"?>
<!-- Created with Inkscape (http://www.inkscape.org/) -->

<svg
   width="52.917mm"
   height="52.917mm"
   viewBox="0 0 52.917 52.917"
   version="1.1"
   id="svg70418"
   xml:space="preserve"
   inkscape:version="1.2.1 (9c6d41e410, 2022-07-14)"
   sodipodi:docname="ISO 7010 PI PF 001.svg"
   xmlns:inkscape="http://www.inkscape.org/namespaces/inkscape"
   xmlns:sodipodi="http://sodipodi.sourceforge.net/DTD/sodipodi-0.dtd"
   xmlns="http://www.w3.org/2000/svg"
   xmlns:svg="http://www.w3.org/2000/svg"><sodipodi:namedview
     id="namedview70420"
     pagecolor="#ffffff"
     bordercolor="#666666"
     borderopacity="1.0"
     inkscape:showpageshadow="2"
     inkscape:pageopacity="0.0"
     inkscape:pagecheckerboard="0"
     inkscape:deskcolor="#d1d1d1"
     inkscape:document-units="mm"
     showgrid="false"
     inkscape:zoom="1.4912879"
     inkscape:cx="-109.97206"
     inkscape:cy="160.26416"
     inkscape:window-width="1920"
     inkscape:window-height="1017"
     inkscape:window-x="1912"
     inkscape:window-y="-8"
     inkscape:window-maximized="1"
     inkscape:current-layer="layer1" /><defs
     id="defs70415" /><g
     inkscape:label="Ebene 1"
     inkscape:groupmode="layer"
     id="layer1"
     transform="translate(-90.781647,-69.064018)"><rect
       style="fill:#ffffff;fill-opacity:1;stroke:none;stroke-width:2.01819"
       id="rect70551"
       width="52.917"
       height="52.917"
       x="90.781647"
       y="69.064018" /><path
       id="path70969"
       style="fill:#000000;fill-opacity:1;stroke:none;stroke-width:2.19112"
       d="M 116.97023 78.661365 A 4.1085 4.1085 0 0 0 112.86144 82.769641 A 4.1085 4.1085 0 0 0 116.97023 86.878435 A 4.1085 4.1085 0 0 0 121.07851 82.769641 A 4.1085 4.1085 0 0 0 116.97023 78.661365 z M 110.79696 89.297925 C 109.83264 89.297925 109.0565 90.137457 109.0565 91.179981 L 109.0565 91.585641 C 109.0565 92.628166 109.83264 93.46718 110.79696 93.46718 L 113.09966 93.46718 L 113.09966 108.39133 L 110.09416 108.39133 C 109.38783 108.39133 108.81931 109.23087 108.81931 110.27339 L 108.81931 110.67905 C 108.81931 111.72158 109.38783 112.56059 110.09416 112.56059 L 113.09966 112.56059 L 115.5729 112.56059 L 118.6771 112.56059 L 121.12812 112.56059 L 124.15532 112.56059 C 124.86164 112.56059 125.43018 111.72158 125.43018 110.67905 L 125.43018 110.27339 C 125.43018 109.23087 124.86164 108.39133 124.15532 108.39133 L 121.12812 108.39133 L 121.12812 89.297925 L 115.34397 89.297925 L 113.09966 89.297925 L 110.79696 89.297925 z " /></g></svg>
