<?xml version="1.0" encoding="UTF-8" standalone="no"?>
<!-- Created with Inkscape (http://www.inkscape.org/) -->

<svg
   width="52.917mm"
   height="52.917mm"
   viewBox="0 0 52.917 52.917"
   version="1.1"
   id="svg70418"
   xml:space="preserve"
   inkscape:version="1.2.1 (9c6d41e410, 2022-07-14)"
   sodipodi:docname="ISO_7001_PI_PF_018.svg"
   xmlns:inkscape="http://www.inkscape.org/namespaces/inkscape"
   xmlns:sodipodi="http://sodipodi.sourceforge.net/DTD/sodipodi-0.dtd"
   xmlns="http://www.w3.org/2000/svg"
   xmlns:svg="http://www.w3.org/2000/svg"><sodipodi:namedview
     id="namedview70420"
     pagecolor="#ffffff"
     bordercolor="#666666"
     borderopacity="1.0"
     inkscape:showpageshadow="2"
     inkscape:pageopacity="0.0"
     inkscape:pagecheckerboard="0"
     inkscape:deskcolor="#d1d1d1"
     inkscape:document-units="mm"
     showgrid="false"
     inkscape:zoom="0.50000001"
     inkscape:cx="919.99997"
     inkscape:cy="148"
     inkscape:window-width="1920"
     inkscape:window-height="1017"
     inkscape:window-x="-8"
     inkscape:window-y="-8"
     inkscape:window-maximized="1"
     inkscape:current-layer="layer1"
     showguides="true"><sodipodi:guide
       position="-336.4992,117.10087"
       orientation="0,-1"
       id="guide4137"
       inkscape:locked="false" /><sodipodi:guide
       position="-81.629005,26.352701"
       orientation="0,-1"
       id="guide4416"
       inkscape:locked="false" /></sodipodi:namedview><defs
     id="defs70415" /><g
     inkscape:label="Ebene 1"
     inkscape:groupmode="layer"
     id="layer1"
     transform="translate(-475.9299,-121.42674)"
     style="display:inline"><rect
       style="fill:#ffffff;fill-opacity:1;stroke:none;stroke-width:2.01819"
       id="rect70551"
       width="52.917"
       height="52.917"
       x="475.9299"
       y="121.42674" /><path
       id="path8389"
       style="display:inline;fill:#000000;fill-opacity:1;stroke:none;stroke-width:1.34612;stroke-opacity:1"
       d="m 512.6702,133.12231 v 23.01875 h -1.01079 -24.03626 -1.2976 c -0.36645,0 -0.66146,0.29501 -0.66146,0.66146 0,0.36644 0.29501,0.66146 0.66146,0.66146 h 1.2976 24.03626 1.07693 1.25677 v -23.01875 h 4.45813 c 0.36645,0 0.66146,-0.29502 0.66146,-0.66146 0,-0.36645 -0.29501,-0.66146 -0.66146,-0.66146 h -4.45813 -0.6351 z m -14.57017,4.05092 c -0.69,0 -1.2454,0.55594 -1.2454,1.24592 v 1.59576 h -5.06636 v 15.166 h 15.53703 v -15.166 h -5.06635 v -1.59576 c 0,-0.68998 -0.55592,-1.24592 -1.24592,-1.24592 z m 0.54673,0.97151 h 1.82005 c 0.43124,0 0.77876,0.34701 0.77876,0.77825 v 1.09192 H 497.868 v -1.09192 c 0,-0.43124 0.34754,-0.77825 0.77876,-0.77825 z m -8.67337,1.87017 c -0.92617,0 -1.67121,0.74608 -1.67121,1.67225 v 11.8215 c 0,0.92617 0.74504,1.67225 1.67121,1.67225 h 0.29507 v -15.166 z m 18.87172,0 v 15.166 h 0.29455 c 0.92617,0 1.67225,-0.74608 1.67225,-1.67225 v -11.8215 c 0,-0.92617 -0.74608,-1.67225 -1.67225,-1.67225 z m -17.54932,18.70481 a 1.9644309,1.9644309 0 0 0 -1.96422,1.96422 1.9644309,1.9644309 0 0 0 1.96422,1.96422 1.9644309,1.9644309 0 0 0 1.96422,-1.96422 1.9644309,1.9644309 0 0 0 -1.96422,-1.96422 z m 17.16536,0 a 1.9644309,1.9644309 0 0 0 -1.96422,1.96422 1.9644309,1.9644309 0 0 0 1.96422,1.96422 1.9644309,1.9644309 0 0 0 1.96474,-1.96422 1.9644309,1.9644309 0 0 0 -1.96474,-1.96422 z" /></g></svg>
