<?xml version="1.0" encoding="UTF-8" standalone="no"?>
<svg
   viewBox="0 0 511.5 396.22333"
   version="1.1"
   id="svg3"
   sodipodi:docname="escalator.svg"
   width="511.5"
   height="396.22333"
   xmlns:inkscape="http://www.inkscape.org/namespaces/inkscape"
   xmlns:sodipodi="http://sodipodi.sourceforge.net/DTD/sodipodi-0.dtd"
   xmlns="http://www.w3.org/2000/svg"
   xmlns:svg="http://www.w3.org/2000/svg">
  <sodipodi:namedview
     id="namedview3"
     pagecolor="#ffffff"
     bordercolor="#000000"
     borderopacity="0.25"
     inkscape:showpageshadow="2"
     inkscape:pageopacity="0.0"
     inkscape:pagecheckerboard="0"
     inkscape:deskcolor="#d1d1d1" />
  <defs
     id="defs1">
    <mask
       id="corte">
      <rect
         width="100%"
         height="100%"
         fill="#ffffff"
         id="rect1"
         x="0"
         y="0" />
      <path
         d="m 379.2,72.19 h 70.9 c 17.22,0.04 28.82,19.32 28.8,30.8 0.03,11.53 -8.21,32.99 -29.3,33 H 407 c -18.08,-0.01 -26.08,2.53 -36.5,12.9 l -203.6,203.7 c -8.28,8.25 -18.74,11.52 -32.2,11.5 H 67.6 c -17.28,0.02 -32.48,-14.58 -32.5,-33.7 0.02,-19.22 14.52,-29.96 29.5,-30 h 46.1 c 13.42,0.04 22.25,-3.79 29.9,-11.5 L 347.7,81.79 c 8.56,-8.5 16.98,-9.56 31.5,-9.6"
         fill="#000000"
         id="path1" />
    </mask>
  </defs>
  <g
     mask="url(#corte)"
     id="g3"
     transform="translate(-1.8,-1.89)">
    <path
       d="m 218.2,69.69 c 18.75,0 33.92,-15.17 33.9,-33.9 0.02,-18.7 -15.15,-33.88 -33.9,-33.9 -18.68,0.03 -33.85,15.2 -33.9,33.9 0.05,18.73 15.22,33.9 33.9,33.9"
       id="path2" />
    <path
       d="m 251.8,130.7 v -21.3 c -0.02,-45.55 -67.11,-45.05 -67.1,0 v 87.1 h 0.1 l -63.4,63.4 c -5.95,5.93 -6.68,6.19 -18.4,6.2 H 64.2 c -38.98,-0.01 -62.37,35.04 -62.4,64.8 0.03,29.66 23.42,67.22 65.9,67.2 0,0 52.72,0.03 69,0 16.31,0.03 36.07,-6.2 52.4,-21.5 L 391.2,175 c 4.31,-3.8 6.71,-5 14.1,-5 h 50 c 23.98,0 57.98,-27.22 58,-66.5 -0.03,-38.82 -34.28,-64.72 -60,-64.8 h -78.8 c -16.33,-0.01 -37.28,6.65 -49.8,19.2 l -72.9,72.8"
       id="path3" />
  </g>
</svg>
