<?xml version="1.0" encoding="UTF-8" standalone="no"?>
<svg
   id="Layer_1"
   data-name="Layer 1"
   viewBox="0 0 103.12911 122.90049"
   version="1.1"
   sodipodi:docname="stair-climbing.svg"
   width="103.12911"
   height="122.90049"
   xmlns:inkscape="http://www.inkscape.org/namespaces/inkscape"
   xmlns:sodipodi="http://sodipodi.sourceforge.net/DTD/sodipodi-0.dtd"
   xmlns="http://www.w3.org/2000/svg"
   xmlns:svg="http://www.w3.org/2000/svg">
  <sodipodi:namedview
     id="namedview1"
     pagecolor="#ffffff"
     bordercolor="#000000"
     borderopacity="0.25"
     inkscape:showpageshadow="2"
     inkscape:pageopacity="0.0"
     inkscape:pagecheckerboard="0"
     inkscape:deskcolor="#d1d1d1" />
  <defs
     id="defs1">
    <style
       id="style1">.cls-1{fill-rule:evenodd;}</style>
  </defs>
  <title
     id="title1">stair-climbing</title>
  <path
     class="cls-1"
     d="m 72.209112,54.420487 h 28.769998 a 2.16,2.16 0 0 1 2.15,2.15 V 122.90049 H 1.229112 v -21.14 c 0,-1.09 0.44,-1.66 1.43,-1.67 h 32.07 V 79.580487 a 2.16,2.16 0 0 1 2.16,-2.21 h 11.49 c -0.07,-2.44 -0.1,-5.23 -0.37,-7.32 a 6.12,6.12 0 0 0 -0.66,-2.19 l -0.1,-0.18 c -0.41,-0.77 -0.79,-1.48 -1.31,-1.68 a 45.39,45.39 0 0 0 -4.47,-1.35 c -2.1,-0.54 -4.45,-1.07 -6.51,-1.51 -2.47,10.69 -6.32,24.59 -10.67,34.54 a 0.63,0.63 0 0 1 -0.57,0.37 l -9.47,0.68 a 0.64,0.64 0 0 1 -0.67,-0.59 1,1 0 0 1 0,-0.24 v 0 c 4.2,-12.64 7.95,-26.19 10.95,-39.18 a 16.28,16.28 0 0 1 -2.65,-3.63 8.41,8.41 0 0 1 -1,-5 l 2.1,-16.23 h -0.19 a 6.57,6.57 0 0 0 -3.11,0.59 12.57,12.57 0 0 0 -3.7,3.68 c -0.48,0.62 -1,1.27 -1.57,2 v 0 c -0.43,0.51 -0.88,1 -1.31,1.53 l -5.36,6.15 a 0.62,0.62 0 0 1 -0.88,0.06 l -6.68000001,-6.15 a 0.63,0.63 0 0 1 0,-0.88 l 5.30000001,-6.15 1.24,-1.44 0.06,-0.07 c 2.39,-3 4.34,-5.38 6.93,-7.08 2.59,-1.7 5.84,-2.69 10.73,-2.8 v 0 c 1.75,-0.09 3.81,0 5.52,0 0.79,0 1.5,0 2.1,0 8.26,0 12.4,4.08 15.61,7.24 a 13.85,13.85 0 0 0 3.92,3.12 c 0.6,0.24 1.49,-0.21 2.5,-0.72 a 15.76,15.76 0 0 1 2,-0.87 l 0.88,-0.4 0.5,-0.23 7.24,-3.42 v 0 a 3.94,3.94 0 0 1 3.23,0.27 5.35,5.35 0 0 1 2.04,1.73 5,5 0 0 1 0.94,2.67 6.7,6.7 0 0 1 -2,4.86 0.55,0.55 0 0 1 -0.23,0.17 l -7.3,3.46 v 0 l -0.68,0.3 c -3.92,1.68 -6.76,2.9 -11.93,2 a 0.2,0.2 0 0 1 -0.11,0 18.31,18.31 0 0 1 -7.55,-4.71 l -0.28,-0.25 -1.34,13.11 a 53,53 0 0 0 6.19,2.72 c 6,2.34 10.94,4.26 12.57,13.35 a 75.94,75.94 0 0 1 0.45,9.67 h 10.7 v -19.78 c -0.05,-1 0.64,-3.17 2.8,-3.17 z m -40.96,-53.63999953 a 9.89,9.89 0 1 1 0.05,18.23999953 9.89,9.89 0 0 1 -0.05,-18.23999953 z"
     id="path1" />
</svg>
