<?xml version="1.0" encoding="UTF-8" standalone="no"?>
<svg
   width="512"
   height="399"
   version="1.0"
   id="svg5"
   sodipodi:docname="escalator_down.svg"
   xmlns:inkscape="http://www.inkscape.org/namespaces/inkscape"
   xmlns:sodipodi="http://sodipodi.sourceforge.net/DTD/sodipodi-0.dtd"
   xmlns="http://www.w3.org/2000/svg"
   xmlns:svg="http://www.w3.org/2000/svg">
  <sodipodi:namedview
     id="namedview5"
     pagecolor="#ffffff"
     bordercolor="#000000"
     borderopacity="0.25"
     inkscape:showpageshadow="2"
     inkscape:pageopacity="0.0"
     inkscape:pagecheckerboard="0"
     inkscape:deskcolor="#d1d1d1" />
  <defs
     id="defs1">
    <mask
       id="corte">
      <rect
         width="100%"
         height="100%"
         fill="#ffffff"
         id="rect1"
         x="0"
         y="0" />
      <g
         transform="translate(34,71)"
         style="fill:#000000;fill-rule:evenodd;stroke:none"
         id="g1">
        <path
           d="m 344,0 c 0,0 71,0 71,0 18,0 29,20 29,31 0,12 -8,33 -29,33 0,0 -43,0 -43,0 -18,0 -26,3 -36,13 0,0 -204,204 -204,204 -8,8 -19,11 -32,11 0,0 -67,0 -67,0 -17,0 -33,-15 -33,-34 0,-19 15,-30 30,-30 0,0 46,0 46,0 13,0 22,-3 30,-11 0,0 207,-207 207,-207 9,-9 17,-10 31,-10 z"
           id="path1" />
      </g>
    </mask>
  </defs>
  <g
     mask="url(#corte)"
     id="g5"
     transform="translate(-1,-1)">
    <g
       transform="translate(184,1)"
       style="fill:#000000;fill-rule:evenodd;stroke:none"
       id="g2">
      <path
         d="M 33,68 C 52,68 67,53 67,34 67,15 52,0 33,0 15,0 0,15 0,34 0,53 15,68 33,68 Z"
         id="path2" />
    </g>
    <g
       transform="translate(1,38)"
       style="fill:#000000;fill-rule:evenodd;stroke:none"
       id="g3">
      <path
         d="m 250,92 c 0,0 0,-22 0,-22 0,-45 -67,-45 -67,0 0,0 0,87 0,87 0,0 0,0 0,0 0,0 -63,64 -63,64 -6,6 -7,6 -19,6 0,0 -39,0 -39,0 -39,0 -62,35 -62,65 0,30 23,67 66,67 0,0 53,0 69,0 16,0 36,-6 52,-21 0,0 202,-202 202,-202 5,-4 7,-5 15,-5 0,0 27,0 49,0 25,0 59,-27 59,-66 0,-39 -35,-65 -60,-65 0,0 -79,0 -79,0 -17,0 -38,6 -50,19 z"
         id="path3" />
    </g>
    <g
       transform="translate(289,264)"
       style="fill:#000000;fill-rule:evenodd;stroke:none"
       id="g4">
      <path
         d="m 17,136 c 0,0 71,0 71,0 20,0 20,-30 0,-30 0,0 -36,0 -36,0 0,0 69,-69 69,-69 C 136,22 114,0 98,16 98,16 30,84 30,84 30,84 30,48 30,48 30,29 0,28 0,48 c 0,0 0,71 0,71 0,10 7,17 17,17 z"
         id="path4" />
    </g>
  </g>
</svg>
