<?xml version="1.0" encoding="UTF-8" standalone="no"?>
<!-- Created with Inkscape (http://www.inkscape.org/) -->

<svg
   id="svg2"
   sodipodi:version="0.32"
   inkscape:version="0.43"
   width="440"
   height="366"
   sodipodi:docname="stairs.svg"
   version="1.0"
   xmlns:inkscape="http://www.inkscape.org/namespaces/inkscape"
   xmlns:sodipodi="http://sodipodi.sourceforge.net/DTD/sodipodi-0.dtd"
   xmlns="http://www.w3.org/2000/svg"
   xmlns:svg="http://www.w3.org/2000/svg"
   xmlns:rdf="http://www.w3.org/1999/02/22-rdf-syntax-ns#"
   xmlns:cc="http://creativecommons.org/ns#"
   xmlns:dc="http://purl.org/dc/elements/1.1/">
  <metadata
     id="metadata7">
    <rdf:RDF>
      <cc:Work
         rdf:about="">
        <dc:format>image/svg+xml</dc:format>
        <dc:type
           rdf:resource="http://purl.org/dc/dcmitype/StillImage" />
      </cc:Work>
    </rdf:RDF>
  </metadata>
  <defs
     id="defs5" />
  <sodipodi:namedview
     inkscape:window-height="543"
     inkscape:window-width="756"
     inkscape:pageshadow="2"
     inkscape:pageopacity="0.0"
     borderopacity="1.0"
     bordercolor="#666666"
     pagecolor="#ffffff"
     id="base"
     inkscape:zoom="0.5149308"
     inkscape:cx="219.83307"
     inkscape:cy="188.63096"
     inkscape:window-x="88"
     inkscape:window-y="132"
     inkscape:current-layer="svg2"
     inkscape:showpageshadow="2"
     inkscape:pagecheckerboard="0"
     inkscape:deskcolor="#d1d1d1" />
  <path
     id="path1312"
     d="M 2.25,324.63029 80,324 c 0,0 0.38447,-79.05713 0.81696,-79.73807 L 159.5,242.5 l 1,-81 c 0,0 78.24396,-0.87254 79.16187,-1.63434 1.0754,-0.8925 1.51517,-78.71962 2.91992,-79.25867 L 321,80 V 0 h 119 c 0,0 -0.21096,40.86697 -1.58179,41.39301 L 361.02295,42 360.5,121.5 l -79,1 -1,80 -79,1 -1,80 -80,1 -0.52243,81.5 H 0 c 0,0 0.00998,-40.76941 2.25,-41.36971 z"
     style="fill:#000000"
     sodipodi:nodetypes="ccsccsscccscccccccccs" />
</svg>
